<svg width="903" height="280" viewBox="0 0 903 280" fill="none" xmlns="http://www.w3.org/2000/svg">
<path d="M454.797 279.151C456.281 278.409 456.082 280.255 457.837 252.409C458.705 238.73 459.411 226.987 459.429 226.318C459.465 225.341 459.393 224.997 459.085 224.599C458.126 223.314 456.733 222.934 455.503 223.658C454.109 224.472 454.327 222.591 452.499 251.287L450.853 277.233L451.233 278.011C451.522 278.572 451.83 278.88 452.391 279.151C453.35 279.622 453.838 279.622 454.797 279.151Z" fill="#EB8F44"/>
<path d="M524.995 253.639C525.538 253.367 525.863 253.042 526.117 252.499C526.587 251.558 526.587 251.033 526.171 250.201C525.845 249.568 497.33 213.996 496.588 213.308C494.688 211.517 491.431 213.598 492.318 216.058C492.481 216.547 497.692 223.169 507.227 235.039C522.552 254.109 522.462 254.019 523.801 254.019C524.036 254.019 524.579 253.856 524.995 253.639Z" fill="#EB8F44"/>
<path d="M100.491 248.463C117.282 248.137 133.585 244.681 156.292 236.647C169.337 232.052 182.491 226.985 194.922 221.811C207.117 216.745 211.839 214.881 217.213 213.072C223.166 211.045 224.595 210.665 225.21 210.955C226.423 211.515 228.322 212.058 229.698 212.221C232.52 212.565 233.353 212.366 243.774 208.874C248.931 207.137 253.219 205.707 253.292 205.707C253.382 205.707 254.232 208.096 255.21 211.009C257.091 216.636 257.779 218.21 259.19 220.001C260.945 222.245 263.949 224.217 266.771 224.977C268.382 225.411 271.729 225.52 273.285 225.194C274.19 224.995 291.505 219.278 298.073 216.998C298.164 216.962 298.544 217.432 298.887 218.029C300.48 220.834 303.863 222.715 307.265 222.715C310.92 222.697 314.575 220.472 316.04 217.36C316.366 216.672 316.692 216.003 316.782 215.858C316.854 215.713 331.691 210.629 349.948 204.477L382.986 193.331L381.105 187.795C380.073 184.737 379.223 182.15 379.223 182.059C379.223 181.951 385.719 179.689 393.644 177.029C401.587 174.369 408.48 171.981 408.951 171.728C409.439 171.456 410.272 170.787 410.796 170.208C412.407 168.471 413.022 166.155 412.443 163.911C411.737 161.161 410.344 159.315 408.281 158.357C407.286 157.904 406.997 157.85 405.278 157.868H403.378L388.903 162.789C380.942 165.485 374.392 167.639 374.32 167.566C374.157 167.385 364.187 137.621 364.26 137.549C364.296 137.513 370.882 135.287 378.879 132.591C386.877 129.895 393.788 127.489 394.204 127.236C395.381 126.566 396.394 125.426 397.009 124.123C398.692 120.559 396.955 115.656 393.445 114.045C392.178 113.466 390.73 113.213 389.627 113.358C389.12 113.43 382.226 115.656 374.265 118.334C366.322 121.011 359.718 123.201 359.591 123.201C359.465 123.201 358.56 120.812 357.312 117.157L355.267 111.114L340.05 116.235C331.691 119.057 316.872 124.051 307.12 127.326L289.406 133.297L288.61 132.754C284.756 130.094 279.238 130.691 275.945 134.129C273.955 136.21 273.14 138.417 273.231 141.548L273.285 143.52L261.162 147.609C254.486 149.871 248.75 151.861 248.406 152.042C246.525 153.037 244.281 155.027 243.123 156.728C241.44 159.207 240.608 161.83 240.59 164.816C240.554 167.295 240.699 167.874 242.797 174.152L244.571 179.454L240.662 180.756C232.05 183.615 225.826 185.768 225.066 186.166C223.039 187.198 221.284 188.718 219.963 190.581C219.366 191.413 219.185 191.522 216.996 192.409C213.395 193.874 210.048 195.231 193.764 201.89C160.544 215.496 149 219.947 138.036 223.349C107.656 232.757 83.5557 233.246 62.6757 224.85C48.418 219.115 40.9453 211.534 38.937 200.768C38.5027 198.398 38.5027 192.752 38.937 190.056C39.5883 186.058 40.8006 182.005 42.3928 178.386C43.8403 175.129 45.7401 172.071 52.1815 162.645C60.5588 150.341 63.689 142.398 63.9785 132.7C64.3403 120.722 59.817 109.793 51.3853 102.266C43.2613 95.0109 32.2061 90.1618 15.2705 86.3984C8.93777 84.9871 2.4422 83.7929 2.31555 84.01C2.17078 84.2814 1.35657 88.9857 1.44705 89.0581C1.48325 89.0943 4.28775 89.6552 7.67123 90.3247C20.2282 92.8035 28.316 95.1376 35.3001 98.322C47.5133 103.877 54.7145 111.675 57.4286 122.206C58.4056 126.005 58.659 128.321 58.5504 132.519C58.4418 136.644 58.0438 138.942 56.8134 142.724C54.986 148.26 52.7966 152.169 45.3964 163.007C39.3169 171.927 37.3085 175.69 35.3906 181.788C32.6404 190.455 32.4413 199.103 34.8116 206.359C37.7066 215.17 44.9259 222.516 55.764 227.691C65.4802 232.323 75.7936 235.019 87.2287 235.924C90.3951 236.159 99.2248 236.159 102.608 235.924C118.386 234.766 134.634 230.803 155.405 223.041C162.227 220.49 178.999 213.759 200.404 205.002C209.668 201.22 217.303 198.108 217.358 198.108C217.412 198.108 217.466 198.524 217.466 199.013C217.466 200.985 218.317 203.862 219.457 205.671L219.981 206.504L216.146 207.806C209.795 209.941 204.71 211.914 192.588 217.016C178.855 222.77 160.001 229.88 147.517 233.988C126.618 240.881 111.709 243.469 94.8823 243.107C76.3002 242.709 61.174 238.945 49.1779 231.744C35.3725 223.457 27.1399 211.895 25.1135 197.927C24.7878 195.738 24.842 189.604 25.2039 187.198C26.7238 176.902 30.831 167.639 39.3712 155.226C45.6135 146.107 47.5133 142.543 48.8703 137.332C49.3589 135.504 49.4312 134.835 49.5036 132.067C49.6122 128.502 49.3951 126.838 48.4723 124.069C46.6991 118.768 42.6823 113.828 37.0914 110.101C32.0614 106.736 19.4864 101.633 10.6386 99.3353C7.76172 98.5753 1.80893 97.3269 1.13947 97.3269C0.777588 97.3269 0.723297 97.5259 0.343323 99.8781C0.126221 101.271 -0.0185242 102.447 -0.000427246 102.465C0.0357361 102.502 1.04898 102.701 2.24316 102.918C5.77142 103.551 11.489 105.035 15.2343 106.265C22.4718 108.653 30.3968 112.127 33.9793 114.48C42.6642 120.197 45.9753 127.995 43.4784 136.861C42.4833 140.353 40.5111 144.026 36.44 149.979C32.6042 155.588 30.7586 158.429 29.076 161.378C24.2631 169.755 21.3138 177.662 20.0472 185.533C19.5225 188.898 19.3778 194.67 19.7758 198C21.929 216.545 35.0287 232.269 55.583 240.972C67.8143 246.147 83.7005 248.806 100.491 248.463ZM267.35 218.065C265.921 217.378 264.401 216.021 263.732 214.772C263.135 213.705 247.61 167.639 247.339 166.173C246.76 163.097 248.642 159.442 251.518 158.049C253.219 157.235 275.565 149.816 275.655 150.033C275.691 150.16 276.325 152.042 277.067 154.231C277.808 156.421 280.522 164.49 283.11 172.144C285.697 179.816 289.66 191.558 291.921 198.253C294.183 204.966 295.956 210.52 295.884 210.593C295.739 210.719 274.534 217.903 272.471 218.536C272.127 218.644 271.096 218.699 270.209 218.681C268.816 218.644 268.4 218.554 267.35 218.065ZM305.401 217.269C304.424 216.835 303.501 215.985 303.049 215.116C302.741 214.519 298.2 201.112 284.033 158.954C277.736 140.209 277.881 140.77 278.695 139.033C279.726 136.789 282.368 135.649 284.72 136.427C285.48 136.68 286.855 137.875 287.253 138.635C287.543 139.214 289.045 143.61 302.796 184.357C311.68 210.647 312.005 211.642 312.005 212.945C312.005 214.103 311.933 214.429 311.517 215.152C310.232 217.305 307.554 218.246 305.401 217.269ZM314.756 204.043C313.815 201.22 310.504 191.395 307.391 182.186C295.269 146.216 292.79 138.743 292.935 138.671C293.061 138.58 325.612 127.597 345.062 121.066C348.5 119.908 351.359 118.985 351.413 119.039C351.648 119.347 360.388 145.727 360.279 145.818C360.207 145.89 352.553 148.496 343.307 151.608C334.043 154.72 326.408 157.325 326.317 157.416C326.227 157.488 327.349 161.071 328.923 165.703L331.673 173.827L347.451 168.525C356.117 165.612 363.807 163.007 364.549 162.753C365.291 162.482 365.96 162.337 366.015 162.409C366.214 162.645 375.152 189.387 375.061 189.477C374.917 189.604 317.09 209.091 316.764 209.127C316.529 209.145 316.113 208.078 314.756 204.043ZM228.576 206.25C224.668 204.893 222.334 200.696 223.274 196.679C223.745 194.58 225.373 192.427 227.201 191.45C227.78 191.142 232.339 189.514 237.315 187.831L246.362 184.773L248.967 192.517C250.397 196.769 251.537 200.279 251.482 200.316C251.247 200.515 233.262 206.485 232.52 206.612C231.416 206.811 229.77 206.648 228.576 206.25ZM377.287 174.731C376.78 173.302 376.418 172.09 376.491 172.017C376.563 171.945 382.914 169.737 390.622 167.132C400.067 163.947 404.88 162.409 405.386 162.409C406.743 162.409 407.757 163.549 407.956 165.268C408.046 166.137 407.666 167.023 406.997 167.458C406.671 167.675 378.789 177.228 378.3 177.282C378.246 177.301 377.775 176.143 377.287 174.731ZM333.754 166.408C333.41 165.377 332.795 163.549 332.397 162.337L331.673 160.148L334.876 159.062C343.868 156.004 361.745 149.997 361.781 150.033C361.781 150.052 362.414 151.879 363.174 154.105L364.567 158.139L364.061 158.32C363.047 158.718 334.803 168.236 334.604 168.236C334.496 168.254 334.116 167.421 333.754 166.408ZM362.305 130.239C361.835 128.846 361.491 127.67 361.546 127.616C361.745 127.398 390.025 117.954 390.441 117.954C391.762 117.954 392.811 119.238 392.938 121.029C393.01 121.988 392.974 122.097 392.413 122.676C391.834 123.273 391.002 123.581 381.123 126.91C375.242 128.882 368.855 131.035 366.919 131.705C364.983 132.374 363.337 132.881 363.264 132.845C363.21 132.808 362.776 131.65 362.305 130.239Z" fill="#2E3421"/>
<path d="M274.399 202.851C274.96 202.76 275.539 201.982 275.539 201.313C275.539 201.005 273.621 195.088 271.269 188.159C266.13 173.087 266.384 173.756 265.895 173.412C264.882 172.707 263.416 173.43 263.416 174.643C263.416 175.511 272.391 201.892 272.843 202.38C273.241 202.796 273.748 202.959 274.399 202.851Z" fill="#2E3421"/>
<path d="M282.752 199.813C283.168 199.469 283.312 199.197 283.312 198.763C283.312 198.437 281.268 192.159 278.771 184.795C275.442 175.006 274.121 171.297 273.795 170.99C272.891 170.049 271.136 170.736 271.136 172.021C271.136 172.292 273.18 178.589 275.695 186.007C279.296 196.574 280.363 199.559 280.707 199.885C281.304 200.41 282.064 200.392 282.752 199.813Z" fill="#2E3421"/>
<path d="M327.113 200.37C328.452 199.918 329.664 199.429 329.773 199.248C329.899 199.085 330.008 198.633 330.008 198.253C330.008 197.367 329.501 196.842 328.633 196.842C327.656 196.842 322.988 198.416 322.77 198.832C322.463 199.411 322.553 200.424 322.951 200.822C323.494 201.365 324.381 201.275 327.113 200.37Z" fill="#2E3421"/>
<path d="M336.875 197.205C337.925 196.843 344.547 194.6 351.622 192.23C360.723 189.172 364.595 187.779 364.866 187.489C365.626 186.747 365.192 185.282 364.142 185.01C363.835 184.938 358.986 186.494 348.709 189.968C332.388 195.468 332.732 195.324 332.967 196.554C333.112 197.278 333.854 197.929 334.487 197.911C334.758 197.893 335.826 197.585 336.875 197.205Z" fill="#2E3421"/>
<path d="M382.745 246.763C383.812 246.221 411.061 216.203 411.405 215.172C412.093 213.254 410.157 211.228 408.203 211.843C407.841 211.951 407.407 212.15 407.244 212.277C406.393 212.946 379.307 242.964 379.108 243.452C378.764 244.266 378.782 244.719 379.235 245.623C379.506 246.184 379.814 246.492 380.375 246.763C381.334 247.234 381.84 247.234 382.745 246.763Z" fill="#EB8F44"/>
<path d="M773.838 208.606C789.832 207.882 806.895 203.304 827.485 194.167C834.705 190.964 842.195 187.346 852.907 181.827C861.881 177.213 866.043 174.97 873.986 170.428C887.248 162.847 892.93 160.061 899.552 157.871C901.832 157.111 902.555 156.605 902.863 155.591C903.406 153.818 902.176 152.154 900.33 152.154C899.461 152.154 895.173 153.619 891.717 155.085C886.289 157.401 882.019 159.626 870.548 166.176C860.216 172.057 855.585 174.517 842.412 181.103C823.07 190.784 809.554 196.23 796.364 199.649C771.106 206.235 749.429 203.938 729.653 192.575C721.746 188.033 716.644 183.401 713.134 177.575C707.669 168.528 707.398 156.93 712.301 142.564C713.912 137.842 715.703 133.68 719.503 125.828C723.23 118.156 725.184 113.976 725.799 112.438C727.319 108.602 728.387 104.803 728.893 101.311C729.328 98.2891 729.165 93.4581 728.531 90.7803C727.373 85.8046 724.985 81.6068 721.095 77.6986C714.816 71.3659 706.964 67.8195 694.678 65.775C682.773 63.7847 669.13 64.1646 655.958 66.8606C652.032 67.6567 646.712 69.0318 643.455 70.0812C642.044 70.5336 640.85 70.9135 640.796 70.9135C640.759 70.9135 640.615 70.5336 640.506 70.0631C640.235 69.0499 639.221 66.7882 638.679 66.0283L638.281 65.4855L639.258 65.0512C643.709 63.079 651.833 60.564 657.966 59.2432C665.982 57.5243 673.093 56.7824 681.651 56.7824C690.77 56.7824 699.129 57.7052 705.77 59.4241C721.023 63.4047 732.693 74.1704 735.751 87.0711C736.456 90.0565 736.619 92.1011 736.511 96.1179C736.366 101.401 735.606 105.508 733.634 111.606C731.879 117.034 729.888 121.793 726.016 129.808C719.684 142.926 717.802 148.173 717.006 154.94C716.734 157.238 716.897 162.268 717.295 164.095C718.616 170.103 721.312 174.789 726.089 179.385C730.16 183.293 734.9 186.188 741.631 188.848C750.859 192.502 759.58 194.131 769.93 194.131C781.6 194.131 793.071 192.014 806.714 187.364C818.981 183.166 829.548 178.335 853.721 165.869C860.379 162.431 867.4 158.83 869.318 157.889C880.083 152.497 889.926 148.191 897.326 145.658C900.04 144.717 900.674 144.355 901.144 143.433C901.976 141.822 900.656 139.669 898.828 139.669C897.435 139.669 888.424 143.089 880.409 146.653C875.288 148.933 861.972 155.519 851.604 160.893C826.96 173.703 814.223 179.403 801.105 183.528C789.724 187.111 780.026 188.757 770.129 188.757C761.769 188.757 755.129 187.744 747.783 185.337C739.333 182.587 733.109 179.023 728.767 174.463C721.602 166.918 720.353 158.125 724.75 145.911C725.781 142.998 727.373 139.434 730.087 133.807C734.502 124.67 736.746 119.368 738.61 113.687C741.106 106.124 742.138 99.8271 741.939 93.44C741.758 87.5958 740.636 83.0724 738.049 77.7891C732.241 65.9559 719.304 56.6739 704.322 53.5618C693.158 51.2458 680.511 50.7392 668.262 52.1143C658.184 53.2361 647.852 55.8235 638.498 59.5508C634.807 61.0344 633.92 61.4506 634.065 61.6858C634.119 61.7763 633.721 61.6496 633.178 61.4144C630.917 60.4193 628.112 60.0393 625.832 60.4193C625.072 60.5459 621.092 61.8125 616.713 63.3323C612.425 64.816 608.879 65.974 608.824 65.9016C608.752 65.8111 608.227 64.3818 607.666 62.681C607.087 60.9983 606.291 58.9537 605.911 58.1576C604.265 54.7741 601.261 52.2229 597.606 51.1011C596.267 50.703 593.445 50.5583 591.961 50.8116C591.31 50.9201 585.628 52.8019 579.35 54.9912C573.053 57.1805 567.806 58.9718 567.661 58.9718C567.517 58.9718 566.883 58.5556 566.268 58.049C564.839 56.891 561.256 55.1359 559.248 54.5931C557.909 54.2313 557.276 54.177 554.453 54.177C551.848 54.177 550.961 54.2493 550.02 54.5027C549.369 54.7017 539.58 58.0671 528.254 61.9934L507.681 69.1404L506.957 68.489C505.456 67.132 503.339 66.3901 501.005 66.3901C499.684 66.3901 499.159 66.4987 497.44 67.0777C496.336 67.4577 494.998 68.0367 494.491 68.3623C491.686 70.1717 490.022 73.7542 490.492 77.0473C490.673 78.3681 516.71 153.565 517.669 155.555C519.152 158.649 522.699 160.658 526.227 160.422C527.693 160.314 529.991 159.644 531.492 158.885C532.686 158.269 533.971 157.166 534.695 156.098C535.437 155.031 536.269 152.986 536.269 152.244C536.269 152.009 536.414 151.738 536.577 151.629C536.758 151.539 546.094 148.282 557.348 144.373C578.391 137.064 579.82 136.521 582.082 134.802C583.511 133.716 585.538 131.581 586.443 130.206C587.836 128.107 589.102 124.923 589.5 122.589C589.555 122.245 590.242 121.992 606.291 116.437C613.854 113.813 614.596 113.452 616.604 111.443C619.246 108.82 620.44 105.907 620.44 102.125C620.458 99.7004 620.35 99.23 618.848 94.9056C618.197 93.042 617.726 91.4317 617.817 91.3593C617.889 91.2688 621.363 90.0204 625.507 88.5729C629.65 87.1435 633.649 85.6417 634.372 85.2798C635.947 84.4475 638.263 82.222 639.203 80.6479C639.529 80.0689 640.036 78.929 640.325 78.1148L640.832 76.613L643.148 75.835C655.994 71.5106 670.74 69.3575 683.135 69.9727C694.769 70.5698 704.72 72.94 710.872 76.5587C717.241 80.3041 721.547 85.4608 723.085 91.1964C724.352 95.937 723.972 101.13 721.927 107.282C720.751 110.774 719.865 112.782 715.794 121.123C710.655 131.672 708.665 136.322 706.747 142.202C702.911 153.945 702.422 164.475 705.263 173.178C708.23 182.207 714.527 189.607 724.442 195.777C735.19 202.436 747.403 206.706 759.851 208.153C762.077 208.407 769.061 208.805 770.309 208.75C770.599 208.732 772.191 208.678 773.838 208.606ZM524.201 155.031C523.386 154.723 522.355 153.583 521.975 152.552C521.758 151.991 517.56 139.922 512.621 125.737C507.699 111.552 501.873 94.779 499.684 88.4643C497.476 82.1497 495.649 76.5949 495.595 76.1245C495.522 75.4369 495.613 75.057 496.011 74.2608C496.59 73.0667 497.277 72.5601 499.159 71.9087C500.824 71.3478 501.547 71.3478 502.723 71.8906C503.447 72.2163 503.701 72.4696 503.863 72.9219C504.135 73.6819 508.568 86.4197 521.324 123.114C530.624 149.856 531.203 151.539 531.004 152.118C530.696 153.022 529.701 154.054 528.67 154.488C526.697 155.338 525.431 155.483 524.201 155.031ZM526.824 120.399C522.047 106.666 516.511 90.726 514.521 84.9722C512.512 79.2366 510.92 74.4961 510.956 74.4599C510.992 74.4237 520.075 71.2573 531.148 67.4215C544.303 62.8438 551.721 60.3469 552.589 60.2202C557.927 59.3879 563.681 62.3372 566.105 67.1863C566.413 67.8014 567.444 70.5336 568.403 73.2657C579.187 104.242 583.312 116.238 583.475 117.143C583.964 119.784 583.566 122.589 582.317 125.104C580.96 127.854 579.259 129.663 576.708 131.02C575.586 131.618 536.197 145.441 535.744 145.387C535.581 145.369 532.578 136.991 526.824 120.399ZM589.211 114.971C589.12 114.573 586.768 107.698 584 99.6823C577.993 82.403 578.246 83.1086 574.989 73.718C573.578 69.647 572.221 65.8292 571.968 65.2502C571.714 64.6893 571.533 64.1827 571.57 64.1465C571.787 63.9656 592.251 56.9634 593.065 56.7824C595.507 56.2577 598.782 57.8862 600.212 60.3107C600.447 60.7088 601.858 64.5627 603.36 68.8328C604.844 73.121 607.938 81.9506 610.199 88.4643L614.343 100.316V102.125C614.343 103.717 614.27 104.061 613.854 104.984C613.185 106.395 612.443 107.3 611.394 107.987C610.507 108.548 590.188 115.786 589.645 115.731C589.5 115.713 589.319 115.388 589.211 114.971ZM615.917 86.5283C611.52 73.7904 610.417 70.5155 610.561 70.3707C610.76 70.1717 625.108 65.2141 626.194 64.9607C628.745 64.3637 631.767 65.3045 633.793 67.3129C636.725 70.1898 637.358 75.057 635.241 78.3862C634.517 79.5442 633.323 80.666 632.201 81.2812C631.459 81.6792 616.695 86.9806 616.206 87.0168C616.152 87.0168 616.026 86.7997 615.917 86.5283Z" fill="#2E3421"/>
<path d="M547.667 136.321C551.792 134.892 559.029 132.395 563.734 130.785C572.78 127.691 573.233 127.492 574.934 125.773C577.25 123.457 578.046 119.53 576.526 118.011C575.712 117.196 574.988 117.196 574.137 118.047C573.522 118.662 573.504 118.698 573.631 119.802C573.757 121.05 573.613 121.629 572.871 122.715C571.821 124.235 571.785 124.253 554.814 130.061C537.498 135.996 537.896 135.815 537.896 137.154C537.896 137.913 538.927 138.945 539.633 138.927C539.922 138.909 543.541 137.733 547.667 136.321Z" fill="#2E3421"/>
<path d="M595.744 101.4C596.667 100.749 596.685 100.803 591.655 86.3825C589.068 78.946 586.806 72.7037 586.625 72.5228C585.775 71.6543 584.164 72.1428 583.947 73.3008C583.857 73.7893 584.762 76.5576 588.561 87.4681C591.89 97.0396 593.392 101.129 593.646 101.364C594.116 101.744 595.22 101.762 595.744 101.4Z" fill="#2E3421"/>
<path d="M603.141 98.8857C603.467 98.7409 603.793 98.3971 603.938 98.0534C604.209 97.3839 604.734 98.9942 598.365 80.7016C594.746 70.2978 594.601 69.9178 594.022 69.5922C593.642 69.3569 593.28 69.2846 592.973 69.3569C592.303 69.5379 591.634 70.2797 591.634 70.8225C591.634 71.0939 593.389 76.3592 595.542 82.5472C597.695 88.7352 599.776 94.7603 600.174 95.9364C601.151 98.8314 601.803 99.4828 603.141 98.8857Z" fill="#2E3421"/>
<path d="M568.787 203.358C569.583 202.942 570.289 201.856 570.289 201.006C570.289 200.337 569.62 199.124 569.059 198.799C568.389 198.401 527.842 183.437 527.1 183.329C526.177 183.166 524.983 183.853 524.53 184.794C524.313 185.21 524.15 185.753 524.15 185.988C524.15 186.658 524.82 187.87 525.381 188.196C526.159 188.666 566.67 203.575 567.394 203.666C567.81 203.72 568.281 203.612 568.787 203.358Z" fill="#EB8F44"/>
<path d="M375.955 85.7661C377.131 85.3862 377.945 84.3548 377.945 83.2149C377.945 82.5274 377.565 81.5865 377.113 81.2066C376.462 80.6457 339.243 61.4846 338.61 61.376C337.633 61.2131 336.439 61.8826 335.986 62.8416C335.769 63.2577 335.606 63.8005 335.606 64.0357C335.606 64.6509 336.258 65.8994 336.728 66.1889C338.194 67.1117 374.471 85.7481 374.924 85.8204C375.249 85.8747 375.702 85.8385 375.955 85.7661Z" fill="#EB8F44"/>
<path d="M408.705 57.9168C409.519 57.4825 410.207 56.234 410.098 55.3475C410.026 54.7685 390.81 11.0725 390.105 9.89638C389.779 9.33548 388.567 8.66602 387.897 8.66602C387.662 8.66602 387.119 8.82886 386.703 9.04598C385.762 9.49832 385.075 10.6925 385.237 11.6334C385.328 12.2305 404.362 55.4741 405.14 56.8673C405.846 58.1339 407.402 58.5862 408.705 57.9168Z" fill="#EB8F44"/>
<path d="M487.324 53.3624C487.776 53.1453 488.265 52.6748 488.608 52.1501C488.916 51.6616 494.055 43.6642 499.989 34.3641C510.086 18.6046 510.827 17.3923 510.882 16.5419C511.044 14.4793 508.964 13.1042 507.046 14.0269C506.593 14.226 506.087 14.8412 505.182 16.2344C501.998 21.1377 483.976 49.3999 483.723 49.8884C483.09 51.1007 483.633 52.7291 484.881 53.3624C485.768 53.8147 486.401 53.8147 487.324 53.3624Z" fill="#EB8F44"/>
<path d="M449.206 48.513C449.947 48.115 450.454 47.355 450.581 46.5046C450.635 46.1428 451.105 36.0104 451.63 23.9962C452.571 2.12109 452.571 2.12109 452.227 1.46972C451.196 -0.412011 448.88 -0.502479 447.559 1.28879C447.215 1.74113 447.143 3.00768 446.22 24.1953C445.225 46.3418 445.225 46.6494 445.551 47.3189C445.75 47.6988 446.112 48.1693 446.383 48.3502C447.052 48.8568 448.446 48.9292 449.206 48.513Z" fill="#EB8F44"/>
</svg>
