<svg width="994" height="418" viewBox="0 0 994 418" fill="none" xmlns="http://www.w3.org/2000/svg">
<path d="M787.5 383C734.5 372.526 713.906 331.145 707 313.174C695.5 283.249 676 229.383 616 208.934C616 208.934 662.5 215.036 699 229.5C735.5 243.964 749.5 269.782 834 269.782H902" stroke="url(#paint0_linear_1402_3231)" stroke-width="10"/>
<circle cx="497" cy="207" r="124" stroke="url(#paint1_linear_1402_3231)" stroke-width="14"/>
<rect x="783" y="350" width="102" height="67" rx="10" fill="url(#paint2_linear_1402_3231)"/>
<path d="M842.917 387C843.083 385.625 843.208 384.25 843.208 382.833C843.208 381.417 843.083 380.042 842.917 378.667H849.958C850.292 380 850.5 381.396 850.5 382.833C850.5 384.271 850.292 385.667 849.958 387M839.229 398.583C840.479 396.271 841.438 393.771 842.104 391.167H848.25C846.232 394.642 843.029 397.275 839.229 398.583ZM838.708 387H828.958C828.75 385.625 828.625 384.25 828.625 382.833C828.625 381.417 828.75 380.021 828.958 378.667H838.708C838.896 380.021 839.042 381.417 839.042 382.833C839.042 384.25 838.896 385.625 838.708 387ZM833.833 399.417C832.104 396.917 830.708 394.146 829.854 391.167H837.813C836.958 394.146 835.563 396.917 833.833 399.417ZM825.5 374.5H819.417C821.414 371.015 824.614 368.378 828.417 367.083C827.167 369.396 826.229 371.896 825.5 374.5ZM819.417 391.167H825.5C826.229 393.771 827.167 396.271 828.417 398.583C824.621 397.276 821.426 394.642 819.417 391.167ZM817.708 387C817.375 385.667 817.167 384.271 817.167 382.833C817.167 381.396 817.375 380 817.708 378.667H824.75C824.583 380.042 824.458 381.417 824.458 382.833C824.458 384.25 824.583 385.625 824.75 387M833.833 366.229C835.563 368.729 836.958 371.521 837.813 374.5H829.854C830.708 371.521 832.104 368.729 833.833 366.229ZM848.25 374.5H842.104C841.451 371.92 840.486 369.429 839.229 367.083C843.063 368.396 846.25 371.042 848.25 374.5ZM833.833 362C822.312 362 813 371.375 813 382.833C813 388.359 815.195 393.658 819.102 397.565C821.036 399.499 823.333 401.034 825.861 402.081C828.388 403.128 831.097 403.667 833.833 403.667C839.359 403.667 844.658 401.472 848.565 397.565C852.472 393.658 854.667 388.359 854.667 382.833C854.667 380.097 854.128 377.388 853.081 374.861C852.034 372.333 850.499 370.036 848.565 368.102C846.63 366.167 844.334 364.633 841.806 363.586C839.278 362.539 836.569 362 833.833 362Z" fill="#444444"/>
<rect x="892" y="235" width="102" height="67" rx="10" fill="url(#paint3_linear_1402_3231)"/>
<path d="M951.917 272C952.083 270.625 952.208 269.25 952.208 267.833C952.208 266.417 952.083 265.042 951.917 263.667H958.958C959.292 265 959.5 266.396 959.5 267.833C959.5 269.271 959.292 270.667 958.958 272M948.229 283.583C949.479 281.271 950.438 278.771 951.104 276.167H957.25C955.232 279.642 952.029 282.275 948.229 283.583ZM947.708 272H937.958C937.75 270.625 937.625 269.25 937.625 267.833C937.625 266.417 937.75 265.021 937.958 263.667H947.708C947.896 265.021 948.042 266.417 948.042 267.833C948.042 269.25 947.896 270.625 947.708 272ZM942.833 284.417C941.104 281.917 939.708 279.146 938.854 276.167H946.813C945.958 279.146 944.563 281.917 942.833 284.417ZM934.5 259.5H928.417C930.414 256.015 933.614 253.378 937.417 252.083C936.167 254.396 935.229 256.896 934.5 259.5ZM928.417 276.167H934.5C935.229 278.771 936.167 281.271 937.417 283.583C933.621 282.276 930.426 279.642 928.417 276.167ZM926.708 272C926.375 270.667 926.167 269.271 926.167 267.833C926.167 266.396 926.375 265 926.708 263.667H933.75C933.583 265.042 933.458 266.417 933.458 267.833C933.458 269.25 933.583 270.625 933.75 272M942.833 251.229C944.563 253.729 945.958 256.521 946.813 259.5H938.854C939.708 256.521 941.104 253.729 942.833 251.229ZM957.25 259.5H951.104C950.451 256.92 949.486 254.429 948.229 252.083C952.063 253.396 955.25 256.042 957.25 259.5ZM942.833 247C931.313 247 922 256.375 922 267.833C922 273.359 924.195 278.658 928.102 282.565C930.036 284.499 932.333 286.034 934.861 287.081C937.388 288.128 940.097 288.667 942.833 288.667C948.359 288.667 953.658 286.472 957.565 282.565C961.472 278.658 963.667 273.359 963.667 267.833C963.667 265.097 963.128 262.388 962.081 259.861C961.034 257.333 959.499 255.036 957.565 253.102C955.63 251.167 953.334 249.633 950.806 248.586C948.278 247.539 945.569 247 942.833 247Z" fill="#444444"/>
<path d="M787.5 34.8652C734.5 45.3393 713.906 86.7216 707 104.692C695.5 134.618 676 188.485 616 208.935C616 208.935 662.5 202.833 699 188.368C735.5 173.904 749.5 148.085 834 148.085H902" stroke="url(#paint4_linear_1402_3231)" stroke-width="10"/>
<rect width="102" height="67.0014" rx="10" transform="matrix(1 0 0 -1 783 67.8682)" fill="url(#paint5_linear_1402_3231)"/>
<path d="M842.917 30.8667C843.083 32.2417 843.208 33.6167 843.208 35.0334C843.208 36.4501 843.083 37.8251 842.917 39.2002H849.958C850.292 37.8668 850.5 36.471 850.5 35.0334C850.5 33.5959 850.292 32.2 849.958 30.8667M839.229 19.2831C840.479 21.5957 841.438 24.0957 842.104 26.6999H848.25C846.232 23.2243 843.029 20.5915 839.229 19.2831ZM838.708 30.8667H828.958C828.75 32.2417 828.625 33.6167 828.625 35.0334C828.625 36.4501 828.75 37.846 828.958 39.2002H838.708C838.896 37.846 839.042 36.4501 839.042 35.0334C839.042 33.6167 838.896 32.2417 838.708 30.8667ZM833.833 18.4498C832.104 20.9498 830.708 23.7207 829.854 26.6999H837.813C836.958 23.7207 835.563 20.9498 833.833 18.4498ZM825.5 43.3669H819.417C821.414 46.8523 824.614 49.4895 828.417 50.7837C827.167 48.4712 826.229 45.9712 825.5 43.3669ZM819.417 26.6999H825.5C826.229 24.0957 827.167 21.5957 828.417 19.2831C824.621 20.5908 821.426 23.2245 819.417 26.6999ZM817.708 30.8667C817.375 32.2 817.167 33.5959 817.167 35.0334C817.167 36.471 817.375 37.8668 817.708 39.2002H824.75C824.583 37.8251 824.458 36.4501 824.458 35.0334C824.458 33.6167 824.583 32.2417 824.75 30.8667M833.833 51.6379C835.563 49.1379 836.958 46.3462 837.813 43.3669H829.854C830.708 46.3462 832.104 49.1379 833.833 51.6379ZM848.25 43.3669H842.104C841.451 45.947 840.486 48.4376 839.229 50.7837C843.063 49.4712 846.25 46.8253 848.25 43.3669ZM833.833 55.8672C822.313 55.8672 813 46.492 813 35.0334C813 29.508 815.195 24.2088 819.102 20.3017C821.036 18.3671 823.333 16.8325 825.861 15.7855C828.388 14.7385 831.097 14.1997 833.833 14.1997C839.359 14.1997 844.658 16.3946 848.565 20.3017C852.472 24.2088 854.667 29.508 854.667 35.0334C854.667 37.7694 854.128 40.4785 853.081 43.0062C852.034 45.5338 850.499 47.8305 848.565 49.7651C846.63 51.6997 844.334 53.2343 841.806 54.2813C839.278 55.3283 836.569 55.8672 833.833 55.8672Z" fill="#444444"/>
<rect width="102" height="67.0014" rx="10" transform="matrix(1 0 0 -1 892 182.869)" fill="url(#paint6_linear_1402_3231)"/>
<path d="M951.917 145.868C952.083 147.243 952.208 148.618 952.208 150.034C952.208 151.451 952.083 152.826 951.917 154.201H958.958C959.292 152.868 959.5 151.472 959.5 150.034C959.5 148.597 959.292 147.201 958.958 145.868M948.229 134.284C949.479 136.597 950.438 139.097 951.104 141.701H957.25C955.232 138.225 952.029 135.592 948.229 134.284ZM947.708 145.868H937.958C937.75 147.243 937.625 148.618 937.625 150.034C937.625 151.451 937.75 152.847 937.958 154.201H947.708C947.896 152.847 948.042 151.451 948.042 150.034C948.042 148.618 947.896 147.243 947.708 145.868ZM942.833 133.451C941.104 135.951 939.708 138.722 938.854 141.701H946.813C945.958 138.722 944.563 135.951 942.833 133.451ZM934.5 158.368H928.417C930.414 161.853 933.614 164.49 937.417 165.785C936.167 163.472 935.229 160.972 934.5 158.368ZM928.417 141.701H934.5C935.229 139.097 936.167 136.597 937.417 134.284C933.621 135.592 930.426 138.225 928.417 141.701ZM926.708 145.868C926.375 147.201 926.167 148.597 926.167 150.034C926.167 151.472 926.375 152.868 926.708 154.201H933.75C933.583 152.826 933.458 151.451 933.458 150.034C933.458 148.618 933.583 147.243 933.75 145.868M942.833 166.639C944.563 164.139 945.958 161.347 946.813 158.368H938.854C939.708 161.347 941.104 164.139 942.833 166.639ZM957.25 158.368H951.104C950.451 160.948 949.486 163.439 948.229 165.785C952.063 164.472 955.25 161.826 957.25 158.368ZM942.833 170.868C931.313 170.868 922 161.493 922 150.034C922 144.509 924.195 139.21 928.102 135.303C930.036 133.368 932.333 131.834 934.861 130.787C937.388 129.74 940.097 129.201 942.833 129.201C948.359 129.201 953.658 131.396 957.565 135.303C961.472 139.21 963.667 144.509 963.667 150.034C963.667 152.77 963.128 155.479 962.081 158.007C961.034 160.535 959.499 162.832 957.565 164.766C955.63 166.701 953.334 168.235 950.806 169.282C948.278 170.329 945.569 170.868 942.833 170.868Z" fill="#444444"/>
<path d="M206.5 34.998C259.5 45.4721 280.094 86.8544 287 104.825C298.5 134.751 318 188.618 378 209.067C378 209.067 331.5 202.965 295 188.501C258.5 174.037 244.5 148.218 160 148.218H92" stroke="url(#paint7_linear_1402_3231)" stroke-width="10"/>
<rect x="211" y="68.001" width="102" height="67.0014" rx="10" transform="rotate(180 211 68.001)" fill="url(#paint8_linear_1402_3231)"/>
<rect x="211" y="68.001" width="102" height="67.0014" rx="10" transform="rotate(180 211 68.001)" fill="url(#paint9_linear_1402_3231)"/>
<rect x="102" y="183.002" width="102" height="67.0014" rx="10" transform="rotate(180 102 183.002)" fill="url(#paint10_linear_1402_3231)"/>
<rect x="102" y="183.002" width="102" height="67.0014" rx="10" transform="rotate(180 102 183.002)" fill="url(#paint11_linear_1402_3231)"/>
<g clip-path="url(#clip0_1402_3231)">
<path d="M134 47.1355H142.672L144.442 42.3498L140.46 34.1963L134 47.1355Z" fill="white"/>
<path d="M157.019 40.6657L147.373 21.2568L144.453 27.9037L153.567 47.1353H160.133L157.019 40.6657Z" fill="white"/>
<path fill-rule="evenodd" clip-rule="evenodd" d="M173 47.1348C180.18 47.1348 186 41.3144 186 34.1348C186 26.9551 180.18 21.1348 173 21.1348C165.82 21.1348 160 26.9551 160 34.1348C160 41.3144 165.82 47.1348 173 47.1348ZM173 42.032C177.362 42.032 180.897 38.4963 180.897 34.1348C180.897 29.7733 177.362 26.2376 173 26.2376C168.638 26.2376 165.103 29.7733 165.103 34.1348C165.103 38.4963 168.638 42.032 173 42.032Z" fill="white"/>
</g>
<g clip-path="url(#clip1_1402_3231)">
<path d="M25 162.136H33.6719L35.4417 157.35L31.4597 149.196L25 162.136Z" fill="white"/>
<path d="M48.0185 155.666L38.3733 136.257L35.4531 142.904L44.5675 162.135H51.133L48.0185 155.666Z" fill="white"/>
<path fill-rule="evenodd" clip-rule="evenodd" d="M64 162.135C71.1796 162.135 77 156.314 77 149.135C77 141.955 71.1796 136.135 64 136.135C56.8204 136.135 51 141.955 51 149.135C51 156.314 56.8204 162.135 64 162.135ZM64 157.032C68.3616 157.032 71.8972 153.496 71.8972 149.135C71.8972 144.773 68.3616 141.238 64 141.238C59.6384 141.238 56.1028 144.773 56.1028 149.135C56.1028 153.496 59.6384 157.032 64 157.032Z" fill="white"/>
</g>
<path d="M206.5 383.139C259.5 372.664 280.094 331.282 287 313.311C298.5 283.384 318 229.517 378 209.067C378 209.067 331.5 215.169 295 229.634C258.5 244.098 244.5 269.918 160 269.918H92" stroke="url(#paint12_linear_1402_3231)" stroke-width="10"/>
<rect width="102" height="67.0021" rx="10" transform="matrix(-1 0 0 1 211 350.136)" fill="url(#paint13_linear_1402_3231)"/>
<rect width="102" height="67.0021" rx="10" transform="matrix(-1 0 0 1 211 350.136)" fill="url(#paint14_linear_1402_3231)"/>
<rect width="102" height="67.0021" rx="10" transform="matrix(-1 0 0 1 102 235.133)" fill="url(#paint15_linear_1402_3231)"/>
<rect width="102" height="67.0021" rx="10" transform="matrix(-1 0 0 1 102 235.133)" fill="url(#paint16_linear_1402_3231)"/>
<g clip-path="url(#clip2_1402_3231)">
<path d="M25 282.001H33.6719L35.4417 277.215L31.4597 269.062L25 282.001Z" fill="white"/>
<path d="M48.0185 275.531L38.3733 256.122L35.4531 262.769L44.5675 282.001H51.133L48.0185 275.531Z" fill="white"/>
<path fill-rule="evenodd" clip-rule="evenodd" d="M64 282C71.1796 282 77 276.18 77 269C77 261.82 71.1796 256 64 256C56.8204 256 51 261.82 51 269C51 276.18 56.8204 282 64 282ZM64 276.897C68.3616 276.897 71.8972 273.362 71.8972 269C71.8972 264.638 68.3616 261.103 64 261.103C59.6384 261.103 56.1028 264.638 56.1028 269C56.1028 273.362 59.6384 276.897 64 276.897Z" fill="white"/>
</g>
<g clip-path="url(#clip3_1402_3231)">
<path d="M134 397.001H142.672L144.442 392.215L140.46 384.062L134 397.001Z" fill="white"/>
<path d="M157.019 390.531L147.373 371.122L144.453 377.769L153.567 397.001H160.133L157.019 390.531Z" fill="white"/>
<path fill-rule="evenodd" clip-rule="evenodd" d="M173 397C180.18 397 186 391.18 186 384C186 376.82 180.18 371 173 371C165.82 371 160 376.82 160 384C160 391.18 165.82 397 173 397ZM173 391.897C177.362 391.897 180.897 388.362 180.897 384C180.897 379.638 177.362 376.103 173 376.103C168.638 376.103 165.103 379.638 165.103 384C165.103 388.362 168.638 391.897 173 391.897Z" fill="white"/>
</g>
<defs>
<linearGradient id="paint0_linear_1402_3231" x1="942.873" y1="287.077" x2="604.526" y2="305.122" gradientUnits="userSpaceOnUse">
<stop offset="0.0437441" stop-color="#EB8F44" stop-opacity="0.28"/>
<stop offset="0.331293" stop-color="#E57D28"/>
<stop offset="1" stop-color="#D28440"/>
</linearGradient>
<linearGradient id="paint1_linear_1402_3231" x1="382" y1="224.5" x2="607" y2="110" gradientUnits="userSpaceOnUse">
<stop stop-color="#2E3421"/>
<stop offset="0.489261" stop-color="#67522D"/>
<stop offset="1" stop-color="#EB8F44"/>
</linearGradient>
<linearGradient id="paint2_linear_1402_3231" x1="885" y1="384" x2="783" y2="384" gradientUnits="userSpaceOnUse">
<stop stop-color="#E0A87A"/>
<stop offset="1" stop-color="#BB651E"/>
</linearGradient>
<linearGradient id="paint3_linear_1402_3231" x1="994" y1="269" x2="892" y2="269" gradientUnits="userSpaceOnUse">
<stop stop-color="#E0A87A"/>
<stop offset="1" stop-color="#BB651E"/>
</linearGradient>
<linearGradient id="paint4_linear_1402_3231" x1="942.873" y1="130.79" x2="604.526" y2="112.746" gradientUnits="userSpaceOnUse">
<stop offset="0.0437441" stop-color="#EB8F44" stop-opacity="0.28"/>
<stop offset="0.331293" stop-color="#E57D28"/>
<stop offset="1" stop-color="#D28440"/>
</linearGradient>
<linearGradient id="paint5_linear_1402_3231" x1="102" y1="34.0007" x2="1.70933e-06" y2="34.0007" gradientUnits="userSpaceOnUse">
<stop stop-color="#E0A87A"/>
<stop offset="1" stop-color="#BB651E"/>
</linearGradient>
<linearGradient id="paint6_linear_1402_3231" x1="102" y1="34.0007" x2="1.70933e-06" y2="34.0007" gradientUnits="userSpaceOnUse">
<stop stop-color="#E0A87A"/>
<stop offset="1" stop-color="#BB651E"/>
</linearGradient>
<linearGradient id="paint7_linear_1402_3231" x1="-28.525" y1="192.471" x2="386.401" y2="201.774" gradientUnits="userSpaceOnUse">
<stop stop-color="#B5B9A6" stop-opacity="0.33"/>
<stop offset="1" stop-color="#2F3522"/>
</linearGradient>
<linearGradient id="paint8_linear_1402_3231" x1="313" y1="102.002" x2="211" y2="102.002" gradientUnits="userSpaceOnUse">
<stop stop-color="#E0A87A"/>
<stop offset="1" stop-color="#BB651E"/>
</linearGradient>
<linearGradient id="paint9_linear_1402_3231" x1="211" y1="97.0016" x2="313" y2="96.5016" gradientUnits="userSpaceOnUse">
<stop stop-color="#899470"/>
<stop offset="1" stop-color="#5E644F"/>
</linearGradient>
<linearGradient id="paint10_linear_1402_3231" x1="204" y1="217.003" x2="102" y2="217.003" gradientUnits="userSpaceOnUse">
<stop stop-color="#E0A87A"/>
<stop offset="1" stop-color="#BB651E"/>
</linearGradient>
<linearGradient id="paint11_linear_1402_3231" x1="102" y1="212.003" x2="204" y2="211.503" gradientUnits="userSpaceOnUse">
<stop stop-color="#899470"/>
<stop offset="1" stop-color="#5E644F"/>
</linearGradient>
<linearGradient id="paint12_linear_1402_3231" x1="-28.525" y1="225.664" x2="386.401" y2="216.361" gradientUnits="userSpaceOnUse">
<stop stop-color="#B5B9A6" stop-opacity="0.33"/>
<stop offset="1" stop-color="#2F3522"/>
</linearGradient>
<linearGradient id="paint13_linear_1402_3231" x1="102" y1="34.0011" x2="1.70933e-06" y2="34.0011" gradientUnits="userSpaceOnUse">
<stop stop-color="#E0A87A"/>
<stop offset="1" stop-color="#BB651E"/>
</linearGradient>
<linearGradient id="paint14_linear_1402_3231" x1="-2.93091e-09" y1="29.0009" x2="102" y2="28.5009" gradientUnits="userSpaceOnUse">
<stop stop-color="#899470"/>
<stop offset="1" stop-color="#5E644F"/>
</linearGradient>
<linearGradient id="paint15_linear_1402_3231" x1="102" y1="34.0011" x2="1.70933e-06" y2="34.0011" gradientUnits="userSpaceOnUse">
<stop stop-color="#E0A87A"/>
<stop offset="1" stop-color="#BB651E"/>
</linearGradient>
<linearGradient id="paint16_linear_1402_3231" x1="-2.93091e-09" y1="29.0009" x2="102" y2="28.5009" gradientUnits="userSpaceOnUse">
<stop stop-color="#899470"/>
<stop offset="1" stop-color="#5E644F"/>
</linearGradient>
<clipPath id="clip0_1402_3231">
<rect width="52.1303" height="26" fill="white" transform="translate(134 21.1348)"/>
</clipPath>
<clipPath id="clip1_1402_3231">
<rect width="52.1303" height="26" fill="white" transform="translate(25 136.135)"/>
</clipPath>
<clipPath id="clip2_1402_3231">
<rect width="52.1303" height="26" fill="white" transform="translate(25 256)"/>
</clipPath>
<clipPath id="clip3_1402_3231">
<rect width="52.1303" height="26" fill="white" transform="translate(134 371)"/>
</clipPath>
</defs>
</svg>
