<svg width="48" height="48" viewBox="0 0 48 48" fill="none" xmlns="http://www.w3.org/2000/svg">
<circle cx="24" cy="24" r="24" fill="#444444"/>
<g filter="url(#filter0_d_1383_3061)">
<path d="M14.808 10.0492C14.5535 10.1283 14.3147 10.3551 14.1641 10.6662L14.0187 10.9721L14.0031 23.4861C13.9927 32.5987 14.0083 36.0634 14.0498 36.2216C14.0862 36.364 14.1797 36.5116 14.3147 36.6382C14.7301 37.0232 13.9512 36.9968 24.3258 36.9968C34.7004 36.9968 33.9215 37.0232 34.3369 36.6382C34.4719 36.5116 34.5654 36.364 34.6017 36.2216C34.6952 35.8788 34.6589 16.1454 34.5654 15.9292C34.4615 15.6919 29.0717 10.2285 28.8121 10.1019C28.6044 9.99648 28.4694 9.99648 21.7763 10.0018C18.0221 10.0018 14.8858 10.0281 14.808 10.0492ZM28.2202 13.6616V16.3827L27.9865 16.2403C27.8359 16.1507 27.6438 16.0926 27.4465 16.0768C27.1661 16.0505 27.1245 16.061 27.0051 16.1823C26.8493 16.3405 26.8234 16.6042 26.948 16.7835C26.9947 16.8468 27.1505 16.9311 27.3115 16.9839C27.488 17.0313 27.623 17.1104 27.6698 17.1843C27.7269 17.2739 27.7476 17.585 27.7632 18.5132C27.784 19.6786 27.7892 19.7366 27.919 20.0214C27.9917 20.1796 28.1267 20.4011 28.215 20.5066L28.3863 20.7017L28.1994 20.9232C27.8411 21.3451 27.7892 21.5771 27.758 22.9482C27.7217 24.3299 27.7165 24.3562 27.3271 24.4195C27.0415 24.4722 26.8701 24.6515 26.8701 24.8941C26.8701 25.3265 27.3426 25.4742 27.8827 25.2158C28.1838 25.0734 28.3707 24.8836 28.5421 24.5513C28.6563 24.3246 28.6615 24.2455 28.6875 23.0484C28.7031 22.1994 28.7342 21.7458 28.7758 21.672C28.8329 21.5718 29.1808 21.229 29.2275 21.229C29.2379 21.229 29.3677 21.2027 29.5235 21.1763C29.8766 21.1077 30.0375 20.9601 30.0375 20.7017C30.0375 20.4486 29.8766 20.2956 29.5287 20.2271C29.3781 20.2007 29.2119 20.1532 29.16 20.1269C29.0873 20.0847 28.8277 19.821 28.729 19.6839C28.729 19.6786 28.7083 19.0933 28.6927 18.3813C28.6615 17.0946 28.6615 17.0893 28.5161 16.8309C28.4382 16.6886 28.3811 16.5673 28.3915 16.5567C28.4019 16.5462 29.6014 16.5303 31.0657 16.5251L33.7242 16.5093V22.3207V28.1373H24.3258H14.9274V19.6786C14.9274 14.3049 14.9481 11.1672 14.9793 11.0828L15.0312 10.9457H21.6257H28.2202V13.6616ZM31.102 13.6352L33.0232 15.5864H31.0864H29.1548V13.6352C29.1548 12.5594 29.16 11.684 29.1704 11.684C29.1756 11.684 30.0479 12.5594 31.102 13.6352ZM33.7242 32.5038C33.7242 35.0931 33.7086 35.9368 33.6619 35.9843C33.5736 36.0739 15.078 36.0739 14.9897 35.9843C14.943 35.9368 14.9274 35.0931 14.9274 32.5038V29.0866H24.3258H33.7242V32.5038Z" fill="#93B607"/>
<path d="M20.4071 16.1401C20.0904 16.2614 19.8152 16.5145 19.6594 16.8415C19.514 17.1368 19.514 17.1526 19.4881 18.3813C19.4621 19.4993 19.4517 19.6364 19.3582 19.7946C19.2232 20.0214 18.9948 20.1638 18.6521 20.2271C17.9563 20.3589 17.9615 21.0445 18.6573 21.1763C19.0155 21.2448 19.2544 21.4083 19.3842 21.6825C19.4777 21.8724 19.4881 22.0042 19.4881 22.9324C19.4881 23.5019 19.514 24.0873 19.5452 24.2349C19.6698 24.8256 20.1475 25.2738 20.7187 25.3265C20.9887 25.3529 21.0406 25.3424 21.1704 25.2263C21.2795 25.1314 21.3158 25.0523 21.3158 24.9047C21.3158 24.641 21.2016 24.5197 20.8589 24.4195C20.4383 24.2982 20.4227 24.2402 20.4227 22.9851C20.4227 21.6245 20.3552 21.3345 19.9087 20.8441L19.7788 20.7017L19.9346 20.5277C20.3552 20.0741 20.4227 19.7735 20.4227 18.4182C20.4227 17.2528 20.4539 17.1157 20.7395 17.0155C20.8329 16.9839 20.9472 16.9575 20.9939 16.9575C21.1029 16.9575 21.295 16.7518 21.3054 16.6147C21.3262 16.4038 21.3002 16.3194 21.1756 16.1928C21.0302 16.0399 20.7291 16.0188 20.4071 16.1401Z" fill="#93B607"/>
<path d="M23.8276 18.4445C23.6199 18.5605 23.4901 18.7187 23.433 18.9244C23.3292 19.3252 23.6667 19.7523 24.0873 19.7523C24.3365 19.7523 24.6013 19.5888 24.7052 19.3621C24.8142 19.1248 24.809 18.9877 24.674 18.7451C24.5027 18.4339 24.0977 18.2916 23.8276 18.4445Z" fill="#93B607"/>
<path d="M23.7782 21.1273C23.6536 21.3065 23.6484 21.3409 23.6484 22.4364C23.6484 23.5182 23.6536 23.5664 23.7731 23.7455C23.934 24.0005 24.2092 24.0074 24.4013 23.7731C24.5312 23.6146 24.5312 23.6008 24.5312 22.4502C24.5312 21.3065 24.5312 21.2858 24.4013 21.1204C24.2248 20.8793 23.9444 20.8862 23.7782 21.1273Z" fill="#93B607"/>
<path d="M18.5054 32.256V34.1597L18.36 34.3074C18.1004 34.5658 17.7109 34.5605 16.8698 34.2863C16.7867 34.2599 16.7347 34.2968 16.6153 34.492C16.5374 34.6238 16.4751 34.7398 16.4855 34.7504C16.5686 34.8242 16.984 34.9982 17.2436 35.0668C17.8719 35.2302 18.5833 35.1406 18.926 34.8506C19.2739 34.55 19.2843 34.5025 19.2843 32.314V30.3523H18.8948H18.5054V32.256Z" fill="#93B607"/>
<path d="M21.5504 30.3839C21.1039 30.4999 20.9429 30.5843 20.7248 30.8321C20.4652 31.1274 20.351 31.4913 20.4029 31.8394C20.4756 32.2982 20.7352 32.5829 21.4518 32.989C22.0593 33.3265 22.2358 33.4794 22.2929 33.6904C22.3968 34.0806 22.1683 34.4445 21.7789 34.5236C21.5296 34.571 21.0416 34.5025 20.7508 34.3812C20.5067 34.2757 20.4963 34.281 20.434 34.5236C20.3561 34.8136 20.3873 34.8716 20.6781 35.0035C21.0571 35.1722 21.7737 35.1986 22.1527 35.0509C22.8797 34.7714 23.2328 33.9751 22.9212 33.3265C22.7758 33.0154 22.5526 32.8308 21.945 32.5144C21.3531 32.2085 21.1091 31.9712 21.1091 31.7075C21.1091 31.486 21.27 31.2224 21.4725 31.1169C21.6595 31.0167 22.2358 30.9956 22.3916 31.0853C22.5526 31.1696 22.5474 31.1696 22.698 30.8743C22.8485 30.5737 22.8382 30.5526 22.511 30.4577C22.2826 30.3944 21.6854 30.3522 21.5504 30.3839Z" fill="#93B607"/>
<path d="M25.3052 30.4048C24.5783 30.5314 23.9811 31.1801 23.8098 32.008C23.7267 32.4088 23.7319 33.1787 23.815 33.532C23.9759 34.2229 24.3134 34.7028 24.8327 34.9717C25.1079 35.1088 25.1806 35.1246 25.6531 35.1246C26.1256 35.1246 26.1983 35.1088 26.4787 34.9664C27.1901 34.6026 27.5536 33.859 27.5536 32.7779C27.5536 31.7707 27.2316 31.0377 26.6137 30.6422C26.2658 30.4207 25.7466 30.3257 25.3052 30.4048ZM26.1464 31.1379C26.3904 31.2592 26.6449 31.6547 26.7228 32.0291C26.8162 32.4562 26.8058 33.2104 26.6916 33.6059C26.5878 33.9803 26.3229 34.3336 26.0581 34.4444C25.8037 34.5551 25.3883 34.5393 25.165 34.4074C24.6613 34.1174 24.3913 33.2314 24.5315 32.3033C24.6925 31.2328 25.3779 30.7371 26.1464 31.1379Z" fill="#93B607"/>
<path d="M28.6406 32.8044V35.1564L29.0197 35.1406L29.3935 35.1247L29.4195 33.5532L29.4455 31.9765L30.3282 33.5532L31.2109 35.1247L31.59 35.1406L31.9638 35.1564V32.8044V30.4577H31.6003H31.2369V32.0503C31.2317 33.4372 31.2213 33.6376 31.159 33.548C31.1226 33.4952 30.7072 32.778 30.2451 31.9554L29.4091 30.4577H29.0249H28.6406V32.8044Z" fill="#93B607"/>
</g>
<defs>
<filter id="filter0_d_1383_3061" x="14" y="10" width="20.6562" height="26.9972" filterUnits="userSpaceOnUse" color-interpolation-filters="sRGB">
<feFlood flood-opacity="0" result="BackgroundImageFix"/>
<feColorMatrix in="SourceAlpha" type="matrix" values="0 0 0 0 0 0 0 0 0 0 0 0 0 0 0 0 0 0 127 0" result="hardAlpha"/>
<feOffset/>
<feComposite in2="hardAlpha" operator="out"/>
<feColorMatrix type="matrix" values="0 0 0 0 0 0 0 0 0 0 0 0 0 0 0 0 0 0 1 0"/>
<feBlend mode="normal" in2="BackgroundImageFix" result="effect1_dropShadow_1383_3061"/>
<feBlend mode="normal" in="SourceGraphic" in2="effect1_dropShadow_1383_3061" result="shape"/>
</filter>
</defs>
</svg>
