<svg width="48" height="48" viewBox="0 0 48 48" fill="none" xmlns="http://www.w3.org/2000/svg">
<circle cx="24" cy="24" r="24" fill="#444444"/>
<path d="M28.9167 20.3958H31.5C31.5 16.7314 27.9415 15.06 25.0417 14.675V12H22.4583V14.675C19.5585 15.06 16 16.7314 16 20.3958C16 23.8911 19.4436 25.7085 22.4583 26.1179V32.5375C20.588 32.2133 18.5833 31.2148 18.5833 29.4375H16C16 32.7816 19.1323 34.7579 22.4583 35.1673V37.8333H25.0417V35.1596C27.9415 34.7747 31.5 33.102 31.5 29.4375C31.5 25.773 27.9415 24.1016 25.0417 23.7167V17.2958C26.7596 17.6045 28.9167 18.5113 28.9167 20.3958ZM18.5833 20.3958C18.5833 18.5113 20.7404 17.6045 22.4583 17.2958V23.4945C20.6875 23.1678 18.5833 22.2003 18.5833 20.3958ZM28.9167 29.4375C28.9167 31.322 26.7596 32.2288 25.0417 32.5375V26.3375C26.7596 26.6462 28.9167 27.553 28.9167 29.4375Z" fill="#93B607"/>
</svg>
