<svg width="48" height="48" viewBox="0 0 48 48" fill="none" xmlns="http://www.w3.org/2000/svg">
<circle cx="24" cy="24" r="24" fill="#444444"/>
<path d="M22.2031 15.1654V22.9154C22.2031 24.3427 19.6004 25.4987 16.3906 25.4987C13.1808 25.4987 10.5781 24.3427 10.5781 22.9154V15.1654" stroke="#EB8F44" stroke-width="2.58333" stroke-linecap="round" stroke-linejoin="round"/>
<path d="M22.2031 19.0404C22.2031 20.4677 19.6004 21.6237 16.3906 21.6237C13.1808 21.6237 10.5781 20.4677 10.5781 19.0404M36.4115 28.082V35.832C36.4115 37.2593 33.8088 38.4154 30.599 38.4154C27.3892 38.4154 24.7865 37.2593 24.7865 35.832V28.082M22.2031 15.1654C22.2031 16.5927 19.6004 17.7487 16.3906 17.7487C13.1808 17.7487 10.5781 16.5927 10.5781 15.1654C10.5781 13.7381 13.1808 12.582 16.3906 12.582C19.6004 12.582 22.2031 13.7381 22.2031 15.1654Z" stroke="#EB8F44" stroke-width="2.58333" stroke-linecap="round" stroke-linejoin="round"/>
<path d="M36.4089 31.957C36.4089 33.3843 33.8061 34.5404 30.5964 34.5404C27.3866 34.5404 24.7839 33.3843 24.7839 31.957M28.6589 13.8737H32.5339C33.219 13.8737 33.8761 14.1459 34.3605 14.6303C34.845 15.1148 35.1172 15.7719 35.1172 16.457V20.332M18.3255 37.1237H14.4505C13.7654 37.1237 13.1083 36.8515 12.6238 36.367C12.1394 35.8826 11.8672 35.2255 11.8672 34.5404V30.6654M36.4089 28.082C36.4089 29.5093 33.8061 30.6654 30.5964 30.6654C27.3866 30.6654 24.7839 29.5093 24.7839 28.082C24.7839 26.6547 27.3866 25.4987 30.5964 25.4987C33.8061 25.4987 36.4089 26.6547 36.4089 28.082Z" stroke="#EB8F44" stroke-width="2.58333" stroke-linecap="round" stroke-linejoin="round"/>
</svg>
