<svg width="48" height="48" viewBox="0 0 48 48" fill="none" xmlns="http://www.w3.org/2000/svg">
<circle cx="24" cy="24" r="24" fill="#444444"/>
<path d="M23.9609 7.01493C23.2189 7.05449 22.5001 7.38593 21.9736 7.93151C21.7377 8.17702 21.5849 8.39526 21.4294 8.7117C21.2071 9.16589 21.1102 9.62282 21.128 10.1439C21.1362 10.3798 21.1689 10.6212 21.2194 10.8013C21.233 10.8517 21.2412 10.8981 21.2357 10.9036C21.2248 10.9145 14.3109 14.9082 14.2673 14.9273C14.24 14.9409 14.225 14.93 14.1309 14.8427C13.6385 14.3803 13.0602 14.1075 12.3945 14.023C12.2063 13.9984 11.819 14.0025 11.6253 14.0298C10.4632 14.1962 9.51659 14.9832 9.1565 16.0825C9.05148 16.4072 9.00783 16.68 9.00783 17.025C9.00647 17.4601 9.08421 17.8448 9.25062 18.2321C9.6107 19.071 10.3445 19.7134 11.2147 19.9507L11.3238 19.9807L11.3279 24.0276C11.3307 27.2588 11.3279 28.0745 11.3143 28.0786C11.3047 28.0813 11.2079 28.1113 11.0988 28.1468C10.4523 28.3541 9.88076 28.7933 9.49886 29.3757C9.32018 29.6485 9.15105 30.0563 9.08148 30.3823C8.81551 31.614 9.34064 32.8879 10.3963 33.5726C10.6459 33.7349 11.006 33.8904 11.3034 33.9641C12.3154 34.2137 13.393 33.9313 14.124 33.2234C14.2168 33.1334 14.2413 33.1157 14.2604 33.1279C14.2727 33.1361 15.8495 34.0459 17.7631 35.1507L21.2439 37.1584L21.218 37.2594C21.1102 37.6808 21.0952 38.1855 21.1798 38.6097C21.4362 39.8905 22.466 40.8534 23.7618 41.0239C23.9691 41.0512 24.3346 41.0498 24.5502 41.0225C25.8391 40.8561 26.8839 39.8659 27.1308 38.5729C27.2099 38.1569 27.1894 37.644 27.0762 37.2253C27.0571 37.1544 27.0394 37.0875 27.0394 37.0766C27.038 37.0657 28.3774 36.2841 30.5134 35.0498L33.9901 33.042L34.1142 33.1661C35.1018 34.1509 36.6362 34.3378 37.8324 33.6162C38.2361 33.3735 38.6235 32.9861 38.8567 32.5919C39.1459 32.1022 39.2741 31.6631 39.2877 31.1147C39.3027 30.5705 39.2168 30.1682 38.9849 29.6894C38.8472 29.4043 38.674 29.1588 38.4421 28.9201C38.0452 28.5109 37.606 28.2572 36.9895 28.0786C36.9758 28.0745 36.9731 27.2575 36.9758 24.0276L36.9799 19.9807L37.089 19.9507C37.6905 19.7816 38.2225 19.4324 38.6235 18.94C38.8104 18.7123 39.0027 18.3767 39.1063 18.0971C39.1745 17.9171 39.2441 17.6388 39.2727 17.441C39.3 17.2474 39.3041 16.8423 39.2796 16.6704C39.1991 16.0975 39.0027 15.6161 38.6685 15.181C38.1925 14.5604 37.4737 14.1443 36.6799 14.0298C36.4834 14.0011 36.0852 13.9984 35.8956 14.023C35.2409 14.1089 34.6557 14.3871 34.1702 14.8454L34.0597 14.9491L30.5625 12.9304C28.6379 11.8188 27.0626 10.909 27.0612 10.9077C27.0585 10.9063 27.0721 10.8477 27.0898 10.7767C27.158 10.5108 27.173 10.3703 27.1717 10.0347C27.1717 9.69102 27.1567 9.55872 27.0844 9.27637C26.9862 8.89037 26.8075 8.52347 26.5484 8.17975C26.4351 8.02972 26.1364 7.7351 25.9796 7.6178C25.3876 7.17724 24.7125 6.97538 23.9609 7.01493ZM22.0132 12.1789C22.0336 12.1993 22.0514 12.2225 22.0514 12.2321C22.0514 12.243 12.9169 28.0786 12.8924 28.1113C12.891 28.1127 12.861 28.1072 12.8256 28.0977L12.7628 28.0813V24.029V19.978L12.9851 19.9057C13.9604 19.5906 14.7119 18.7914 14.9656 17.797C15.0393 17.5092 15.0597 17.3415 15.0584 17.0319C15.0584 16.7454 15.042 16.5913 14.9833 16.3431C14.967 16.2721 14.952 16.2094 14.952 16.2039C14.952 16.1944 21.9504 12.1448 21.9682 12.1421C21.9723 12.1421 21.9927 12.1584 22.0132 12.1789ZM29.8028 14.1498C31.7028 15.2451 33.2781 16.1562 33.3054 16.1739L33.3545 16.2039L33.3231 16.328C33.2413 16.6636 33.2181 17.1328 33.2686 17.4615C33.4473 18.6222 34.2275 19.5525 35.3186 19.9057L35.5409 19.978V24.0303V28.0827L35.4782 28.0963C35.4223 28.1099 35.4155 28.1086 35.3977 28.0813C35.3773 28.0472 26.341 12.3985 26.2837 12.2948L26.2456 12.2266L26.2783 12.1912C26.2974 12.1721 26.3206 12.1557 26.3301 12.1557C26.341 12.1557 27.9041 13.0532 29.8028 14.1498ZM23.7291 13.0382C24.0646 13.0873 24.5447 13.0627 24.8707 12.9809C24.943 12.9618 25.003 12.9482 25.0044 12.9509C25.0125 12.9632 34.1361 28.7687 34.1483 28.7933C34.1633 28.8219 34.1565 28.8342 34.0542 28.9433C33.7255 29.2952 33.4759 29.7344 33.3491 30.1804L33.3122 30.31H24.1519H14.9915L14.9547 30.1804C14.8292 29.7385 14.5973 29.3293 14.2591 28.9556L14.139 28.8233L18.7029 20.915C21.2139 16.5667 23.2762 12.9945 23.2871 12.9795L23.3049 12.9495L23.4385 12.9823C23.5122 13 23.6431 13.0259 23.7291 13.0382ZM33.3313 31.7994C33.3395 31.8322 33.3532 31.8786 33.3613 31.9031C33.3682 31.9277 33.3722 31.9508 33.3695 31.9522C33.345 31.9754 26.4079 35.9704 26.3956 35.9704C26.386 35.9704 26.3615 35.95 26.341 35.9254C26.2797 35.8518 26.0764 35.6745 25.9318 35.5681C25.5281 35.2748 25.0589 35.0866 24.5406 35.0129C24.3578 34.987 23.9064 34.9911 23.7181 35.0198C23.0894 35.118 22.5506 35.3771 22.0677 35.8163L21.96 35.9145L18.4601 33.8931C16.5342 32.7815 14.9588 31.8663 14.9588 31.8581C14.9588 31.8513 14.9656 31.8213 14.9738 31.7926L14.9874 31.7422H24.1519H33.3163L33.3313 31.7994Z" fill="#93B607"/>
</svg>
