<svg width="48" height="48" viewBox="0 0 48 48" fill="none" xmlns="http://www.w3.org/2000/svg">
<circle cx="24" cy="24" r="24" fill="#444444"/>
<path d="M24.0034 18.4304V30.1772M29.9521 28.7088V31.6456C29.9521 33.2033 29.3254 34.6972 28.2098 35.7987C27.0942 36.9002 25.5811 37.519 24.0034 37.519C22.4257 37.519 20.9126 36.9002 19.797 35.7987C18.6814 34.6972 18.0547 33.2033 18.0547 31.6456V28.7088M29.9521 19.8987V16.962C29.9521 15.4043 29.3254 13.9104 28.2098 12.8089C27.0942 11.7074 25.5811 11.0886 24.0034 11.0886C22.4257 11.0886 20.9126 11.7074 19.797 12.8089C18.6814 13.9104 18.0547 15.4043 18.0547 16.962V19.8987" stroke="#93B607" stroke-width="2.76057" stroke-linecap="round" stroke-linejoin="round"/>
</svg>
