<svg width="48" height="48" viewBox="0 0 48 48" fill="none" xmlns="http://www.w3.org/2000/svg">
<circle cx="24" cy="24" r="24" fill="#444444"/>
<mask id="path-2-inside-1_1400_3408" fill="white">
<path d="M29.8594 23.2523V23.8792H31.0761H32.2929V23.2523V22.6255H31.0761H29.8594V23.2523Z"/>
</mask>
<path d="M29.8594 23.8792V26.0616H27.6769V23.8792H29.8594ZM32.2929 23.8792H34.4754V26.0616H32.2929V23.8792ZM32.2929 22.6255V20.443H34.4754V22.6255H32.2929ZM29.8594 22.6255H27.6769V20.443H29.8594V22.6255ZM32.0419 23.2523V23.8792H27.6769V23.2523H32.0419ZM29.8594 21.6967H31.0761V26.0616H29.8594V21.6967ZM31.0761 21.6967H32.2929V26.0616H31.0761V21.6967ZM30.1104 23.8792V23.2523H34.4754V23.8792H30.1104ZM30.1104 23.2523V22.6255H34.4754V23.2523H30.1104ZM32.2929 24.808H31.0761V20.443H32.2929V24.808ZM31.0761 24.808H29.8594V20.443H31.0761V24.808ZM32.0419 22.6255V23.2523H27.6769V22.6255H32.0419Z" fill="url(#paint0_linear_1400_3408)" mask="url(#path-2-inside-1_1400_3408)"/>
<mask id="path-4-inside-2_1400_3408" fill="white">
<path d="M33.5391 23.2523V23.8792H34.7558H35.9726V23.2523V22.6255H34.7558H33.5391V23.2523Z"/>
</mask>
<path d="M33.5391 23.8792V26.0616H31.3566V23.8792H33.5391ZM35.9726 23.8792H38.1551V26.0616H35.9726V23.8792ZM35.9726 22.6255V20.443H38.1551V22.6255H35.9726ZM33.5391 22.6255H31.3566V20.443H33.5391V22.6255ZM35.7216 23.2523V23.8792H31.3566V23.2523H35.7216ZM33.5391 21.6967H34.7558V26.0616H33.5391V21.6967ZM34.7558 21.6967H35.9726V26.0616H34.7558V21.6967ZM33.7901 23.8792V23.2523H38.1551V23.8792H33.7901ZM33.7901 23.2523V22.6255H38.1551V23.2523H33.7901ZM35.9726 24.808H34.7558V20.443H35.9726V24.808ZM34.7558 24.808H33.5391V20.443H34.7558V24.808ZM35.7216 22.6255V23.2523H31.3566V22.6255H35.7216Z" fill="url(#paint1_linear_1400_3408)" mask="url(#path-4-inside-2_1400_3408)"/>
<mask id="path-6-inside-3_1400_3408" fill="white">
<path d="M29.8594 25.6854V26.3123H32.9197H35.9874L35.9653 25.7002L35.9432 25.0955L32.905 25.0734L29.8594 25.0586V25.6854Z"/>
</mask>
<path d="M29.8594 26.3123V28.4948H27.6769V26.3123H29.8594ZM35.9874 26.3123L38.1685 26.2334L38.2502 28.4948H35.9874V26.3123ZM35.9653 25.7002L38.1463 25.6204L38.1464 25.6214L35.9653 25.7002ZM35.9432 25.0955L35.9591 22.9131L38.0479 22.9283L38.1242 25.0157L35.9432 25.0955ZM32.905 25.0734L32.9155 22.8909L32.9209 22.8909L32.905 25.0734ZM29.8594 25.0586H27.6769V22.8655L29.8699 22.8762L29.8594 25.0586ZM32.0419 25.6854V26.3123H27.6769V25.6854H32.0419ZM29.8594 24.1298H32.9197V28.4948H29.8594V24.1298ZM32.9197 24.1298H35.9874V28.4948H32.9197V24.1298ZM33.8064 26.3911L33.7842 25.779L38.1464 25.6214L38.1685 26.2334L33.8064 26.3911ZM33.7843 25.78L33.7621 25.1753L38.1242 25.0157L38.1463 25.6204L33.7843 25.78ZM35.9273 27.2779L32.8891 27.2558L32.9209 22.8909L35.9591 22.9131L35.9273 27.2779ZM32.8944 27.2558L29.8488 27.2411L29.8699 22.8762L32.9155 22.8909L32.8944 27.2558ZM32.0419 25.0586V25.6854H27.6769V25.0586H32.0419Z" fill="url(#paint2_linear_1400_3408)" mask="url(#path-6-inside-3_1400_3408)"/>
<mask id="path-8-inside-4_1400_3408" fill="white">
<path d="M30.6797 27.8425V28.4694H33.1132H35.5541L35.532 27.8573L35.5099 27.2526L33.0985 27.2305L30.6797 27.2157V27.8425Z"/>
</mask>
<path d="M30.6797 28.4694V30.6519H28.4972V28.4694H30.6797ZM35.5541 28.4694L37.7352 28.3905L37.8169 30.6519H35.5541V28.4694ZM35.532 27.8573L37.713 27.7775L37.7131 27.7785L35.532 27.8573ZM35.5099 27.2526L35.5299 25.0702L37.6147 25.0893L37.6909 27.1728L35.5099 27.2526ZM33.0985 27.2305L33.1118 25.048L33.1185 25.0481L33.0985 27.2305ZM30.6797 27.2157H28.4972V25.0199L30.693 25.0333L30.6797 27.2157ZM32.8622 27.8425V28.4694H28.4972V27.8425H32.8622ZM30.6797 26.2869H33.1132V30.6519H30.6797V26.2869ZM33.1132 26.2869H35.5541V30.6519H33.1132V26.2869ZM33.373 28.5482L33.3509 27.9361L37.7131 27.7785L37.7352 28.3905L33.373 28.5482ZM33.3509 27.9371L33.3288 27.3324L37.6909 27.1728L37.713 27.7775L33.3509 27.9371ZM35.4898 29.435L33.0784 29.4129L33.1185 25.0481L35.5299 25.0702L35.4898 29.435ZM33.0852 29.4129L30.6664 29.3982L30.693 25.0333L33.1118 25.048L33.0852 29.4129ZM32.8622 27.2157V27.8425H28.4972V27.2157H32.8622Z" fill="url(#paint3_linear_1400_3408)" mask="url(#path-8-inside-4_1400_3408)"/>
<mask id="path-10-outside-5_1400_3408" maskUnits="userSpaceOnUse" x="9" y="9.02402" width="30" height="30" fill="black">
<rect fill="white" x="9" y="9.02402" width="30" height="30"/>
<path d="M17.7213 11.4541C17.677 11.5278 17.4115 11.9039 17.1239 12.2874C16.8363 12.6782 16.4086 13.4083 16.1505 13.9245L15.6933 14.861L14.0857 14.8684H12.4781L12.7141 14.5144C13.3704 13.5631 14.8305 12.3832 15.9809 11.8965C16.3718 11.7269 17.4779 11.3803 17.7802 11.3287C17.7876 11.3287 17.7655 11.3877 17.7213 11.4541ZM21.6665 11.6606C22.2048 11.8375 23.0013 12.2358 23.547 12.5971C24.1074 12.9584 25.1841 14.013 25.5307 14.5144L25.7666 14.8684H24.159L22.5514 14.861L22.0942 13.9245C21.8361 13.4083 21.4084 12.6782 21.1208 12.2874C20.3539 11.2623 20.376 11.3213 20.8775 11.4393C21.1134 11.4983 21.4674 11.5942 21.6665 11.6606ZM19.8377 12.5823C20.3981 13.3493 21.1798 14.6472 21.1872 14.8094C21.1872 14.8463 20.258 14.8684 19.1224 14.8684C17.9867 14.8684 17.0576 14.8463 17.0576 14.8094C17.0649 14.5292 18.938 11.6974 19.1224 11.6974C19.1592 11.6974 19.4763 12.0956 19.8377 12.5823ZM15.0812 16.9479C14.9338 17.6559 14.9043 17.9877 14.9043 19.1455C14.9043 20.3033 14.9338 20.6351 15.0812 21.3357L15.2582 22.169H13.5326H11.8144L11.7112 21.9256C11.6596 21.7929 11.5342 21.402 11.4457 21.0628C11.2982 20.5171 11.2761 20.259 11.2761 19.1455C11.2761 18.032 11.2982 17.7739 11.4457 17.2282C11.5342 16.8889 11.6596 16.4981 11.7112 16.3654L11.8144 16.122H13.5326H15.2582L15.0812 16.9479ZM21.8066 16.5055C22.0647 17.4273 22.109 17.8107 22.109 19.1455C22.109 20.4802 22.0647 20.8637 21.8066 21.7781L21.696 22.169H19.1224H16.5487L16.4381 21.7781C16.18 20.8637 16.1358 20.4802 16.1358 19.1455C16.1358 17.8107 16.18 17.4273 16.4381 16.5055L16.5487 16.122H19.1224H21.696L21.8066 16.5055ZM26.5336 16.3654C26.5852 16.4981 26.7106 16.8889 26.799 17.2282C26.9465 17.7739 26.9687 18.032 26.9687 19.1455C26.9687 20.259 26.9465 20.5171 26.799 21.0628C26.7106 21.402 26.5852 21.7929 26.5336 21.9256L26.4303 22.169H24.7121H22.9865L23.1635 21.3357C23.311 20.6351 23.3405 20.3033 23.3405 19.1455C23.3405 17.9877 23.311 17.6559 23.1635 16.9479L22.9865 16.122H24.7121H26.4303L26.5336 16.3654ZM36.747 28.8796V36.7701H30.6632H24.5794V34.9634V33.1567H27.6397C29.3211 33.1567 30.7001 33.1714 30.7001 33.1862C30.7001 33.2083 30.3387 33.5106 29.8963 33.8572L29.0851 34.4988L29.4612 34.9708C29.6972 35.2657 29.8741 35.4206 29.9258 35.3837C29.9774 35.3542 30.7959 34.7053 31.7546 33.9384L33.4949 32.5446L31.6735 31.0919L29.8594 29.6391L29.5054 30.0816C29.3137 30.3249 29.1515 30.5462 29.1515 30.5757C29.1515 30.6052 29.498 30.9001 29.9258 31.2394C30.3535 31.5786 30.7001 31.8662 30.7001 31.8809C30.7001 31.8883 29.3211 31.903 27.6397 31.903H26.1096L24.5794 31.8809V29.204L24.7121 26.8516L25.6412 26.0036C26.9022 24.8016 27.6471 23.2972 28.0822 21.7781L28.2297 20.9891H32.4183H36.747V28.8796ZM16.1505 24.3665C16.4086 24.8827 16.8363 25.6128 17.1239 26.0036C17.8909 27.0286 17.8687 26.9696 17.3673 26.8516C16.3865 26.623 15.6638 26.3059 14.7863 25.7381C14.1005 25.2957 13.1049 24.3517 12.7141 23.7692L12.4781 23.4226H14.0857L15.6933 23.43L16.1505 24.3665ZM21.1872 23.4742C21.1798 23.7618 19.3067 26.5935 19.1224 26.5935C18.938 26.5935 17.0649 23.7618 17.0576 23.4742C17.0576 23.4447 17.9867 23.4226 19.1224 23.4226C20.258 23.4226 21.1872 23.4447 21.1872 23.4742ZM25.5307 23.7692C25.1398 24.3517 24.1443 25.2957 23.4585 25.7381C22.5809 26.3059 21.8582 26.623 20.8775 26.8516C20.376 26.9696 20.3539 27.036 21.1134 26.0036C21.401 25.6201 21.8361 24.8827 22.0942 24.3665L22.5514 23.43H24.159L25.7666 23.4226L25.5307 23.7692Z"/>
</mask>
<path d="M10.1626 17.3019L9.45292 17.1418L9.45679 17.1246L9.4615 17.1076L10.1626 17.3019ZM10 18.5187L9.2725 18.519L9.2725 18.5042L9.27309 18.4894L10 18.5187ZM10.0003 19.4257L9.27379 19.4627L9.27285 19.4443L9.27285 19.426L10.0003 19.4257ZM18.6283 28.2601L18.6785 27.5344L18.6792 27.5344L18.6283 28.2601ZM22.7579 27.5153L23.0463 28.1832L23.045 28.1838L22.7579 27.5153ZM23.3995 29.5801L24.127 29.5801L24.127 29.5813L23.3995 29.5801ZM23.4142 35.2067L24.1417 35.1989L24.1417 35.1989L23.4142 35.2067ZM23.4363 37.2642L22.8603 37.7085L22.7115 37.5156L22.7089 37.272L23.4363 37.2642ZM23.6354 37.5223L24.2115 37.0779L24.2136 37.0806L23.6354 37.5223ZM37.0125 38.0237L37.3495 38.6684L37.1911 38.7512H37.0125V38.0237ZM37.3369 37.8541L36.9999 37.2094L37.0097 37.2043L37.0196 37.1995L37.3369 37.8541ZM37.8384 37.36L38.4891 37.6854L38.4851 37.6932L37.8384 37.36ZM38.0006 37.0356H38.7281V37.2073L38.6513 37.3609L38.0006 37.0356ZM32.6985 19.7354L32.7045 19.0079L32.7166 19.0082L32.6985 19.7354ZM28.2297 19.6986L28.2237 20.426L27.5087 20.4201L27.5022 19.7052L28.2297 19.6986ZM28.2223 18.8874L28.9497 18.8781L28.9498 18.8808L28.2223 18.8874ZM19.6164 10.0308L19.5664 10.7566L19.5655 10.7565L19.6164 10.0308ZM15.82 10.5609L15.5316 9.89303L15.5329 9.89244L15.82 10.5609ZM14.8674 11.0337L14.5598 10.3745L14.706 10.3062H14.8674V11.0337ZM13.4556 12.0159L12.9615 11.482L12.9831 11.462L13.0063 11.4438L13.4556 12.0159ZM12.7878 12.634L12.2627 12.1305L12.2777 12.1148L12.2937 12.1L12.7878 12.634ZM10.3322 16.6898L9.63111 16.4956L9.63133 16.4948L10.3322 16.6898ZM36.1941 19.8226L36.2122 19.0953L36.1941 19.8226ZM10.8722 17.462C10.7698 17.916 10.745 18.0979 10.7269 18.548L9.27309 18.4894C9.29494 17.9468 9.3321 17.6773 9.45292 17.1418L10.8722 17.462ZM10.7275 18.5184L10.7278 19.4254L9.27285 19.426L9.2725 18.519L10.7275 18.5184ZM10.7269 19.3887C10.8436 21.6806 11.6585 23.5431 13.1916 25.0762L12.1628 26.1051C10.3627 24.305 9.40786 22.0969 9.27379 19.4627L10.7269 19.3887ZM13.1916 25.0762C14.6713 26.5558 16.5032 27.3839 18.6785 27.5344L18.5781 28.9859C16.0633 28.8119 13.8984 27.8406 12.1628 26.1051L13.1916 25.0762ZM18.6792 27.5344C19.8136 27.614 21.3131 27.344 22.4709 26.8469L23.045 28.1838C21.6954 28.7633 19.965 29.0832 18.5774 28.9858L18.6792 27.5344ZM22.4695 26.8474C22.633 26.7768 22.787 26.7111 22.9032 26.6625C22.9607 26.6385 23.0121 26.6173 23.0518 26.6016C23.0708 26.594 23.0926 26.5856 23.1131 26.5782C23.1225 26.5748 23.1393 26.5688 23.159 26.5628C23.1685 26.5599 23.1867 26.5545 23.2095 26.5492C23.2161 26.5476 23.2869 26.5297 23.3773 26.5297V27.9847C23.431 27.9847 23.4727 27.9787 23.4909 27.9757C23.5128 27.9723 23.5303 27.9684 23.5409 27.9659C23.5618 27.9611 23.5775 27.9563 23.584 27.9544C23.5919 27.952 23.5977 27.95 23.6006 27.949C23.6037 27.948 23.6058 27.9472 23.6065 27.9469C23.6076 27.9466 23.6025 27.9484 23.5881 27.9541C23.561 27.9649 23.5193 27.982 23.4644 28.0049C23.3556 28.0504 23.2073 28.1137 23.0463 28.1832L22.4695 26.8474ZM23.3773 26.5297C23.668 26.5297 23.8493 26.6937 23.9192 26.7716C23.9915 26.8522 24.0282 26.9298 24.0423 26.9614C24.073 27.03 24.0857 27.088 24.0891 27.1033C24.0984 27.1454 24.1022 27.1806 24.1033 27.191C24.1064 27.22 24.1081 27.2484 24.1091 27.2671C24.1112 27.3088 24.1129 27.3631 24.1143 27.4237C24.1172 27.5473 24.1196 27.7223 24.1214 27.9339C24.1251 28.3582 24.127 28.9413 24.127 29.5801H22.672C22.672 28.9432 22.6701 28.3649 22.6665 27.9466C22.6646 27.7369 22.6624 27.5705 22.6597 27.4578C22.6584 27.4003 22.6571 27.3628 22.656 27.3424C22.6554 27.3299 22.6553 27.3346 22.6568 27.3476C22.657 27.35 22.6599 27.3791 22.6684 27.4173C22.6713 27.4305 22.6836 27.487 22.7137 27.5545C22.7276 27.5856 22.7641 27.6629 22.8362 27.7432C22.9058 27.8209 23.087 27.9847 23.3773 27.9847V26.5297ZM24.127 29.5813L24.1211 33.2964L22.6661 33.2941L22.672 29.579L24.127 29.5813ZM24.1196 33.1488L24.1417 35.1989L22.6868 35.2146L22.6646 33.1645L24.1196 33.1488ZM24.1417 35.1989L24.1638 37.2563L22.7089 37.272L22.6868 35.2146L24.1417 35.1989ZM24.0124 36.8198L24.2115 37.0779L23.0594 37.9666L22.8603 37.7085L24.0124 36.8198ZM24.2136 37.0806C24.3942 37.3171 24.3145 37.2142 24.2708 37.1898C24.2433 37.1744 24.3007 37.2168 24.7168 37.2464C25.5115 37.303 27.1293 37.2962 30.6779 37.2962V38.7512C27.1768 38.7512 25.4761 38.7592 24.6134 38.6978C24.2008 38.6684 23.8447 38.6187 23.5603 38.4595C23.2596 38.2912 23.0795 37.9929 23.0573 37.9639L24.2136 37.0806ZM30.6779 37.2962H37.0125V38.7512H30.6779V37.2962ZM36.6755 37.379L36.9999 37.2094L37.674 38.4988L37.3495 38.6684L36.6755 37.379ZM37.0196 37.1995C37.0897 37.1655 37.112 37.1451 37.1205 37.1367C37.1298 37.1275 37.1526 37.1028 37.1917 37.0269L38.4851 37.6932C38.3989 37.8606 38.2925 38.024 38.1433 38.1715C37.9933 38.3198 37.8275 38.4248 37.6543 38.5087L37.0196 37.1995ZM37.1877 37.0347L37.3499 36.7102L38.6513 37.3609L38.4891 37.6854L37.1877 37.0347ZM37.2731 37.0356V28.8869H38.7281V37.0356H37.2731ZM37.2731 28.8869C37.2731 24.8928 37.2731 22.8628 37.2548 21.7933C37.2455 21.2522 37.2318 20.9867 37.2156 20.8445C37.208 20.7779 37.2022 20.7609 37.2039 20.7669C37.2081 20.7809 37.2145 20.7923 37.2058 20.7753L38.5005 20.1114C38.6678 20.4376 38.6921 20.7477 38.7096 21.7684C38.7282 22.8541 38.7281 24.9021 38.7281 28.8869H37.2731ZM36.1759 20.5499L32.6804 20.4627L32.7166 19.0082L36.2122 19.0953L36.1759 20.5499ZM32.6925 20.4629L28.2237 20.426L28.2357 18.9711L32.7045 19.008L32.6925 20.4629ZM27.5022 19.7052L27.4948 18.894L28.9498 18.8808L28.9571 19.6919L27.5022 19.7052ZM27.4949 18.8967C27.4679 16.7914 26.6045 14.7661 25.0605 13.2221L26.0893 12.1933C27.8933 13.9973 28.9177 16.3818 28.9497 18.8781L27.4949 18.8967ZM25.0605 13.2221C23.5658 11.7275 21.7485 10.9071 19.5664 10.7566L19.6665 9.30506C22.1892 9.47903 24.3393 10.4433 26.0893 12.1933L25.0605 13.2221ZM19.5655 10.7565C18.3674 10.6725 17.2144 10.7539 16.107 11.2294L15.5329 9.89244C16.9328 9.29131 18.3434 9.21221 19.6674 9.30512L19.5655 10.7565ZM16.1084 11.2288C15.9721 11.2876 15.7588 11.3947 15.5603 11.4968C15.4618 11.5475 15.3799 11.5902 15.3106 11.626C15.2783 11.6427 15.2476 11.6584 15.2236 11.6704C15.2124 11.676 15.1966 11.6837 15.1805 11.6911C15.1735 11.6943 15.1576 11.7016 15.138 11.7093C15.1289 11.7129 15.1089 11.7206 15.0833 11.7286C15.0829 11.7287 14.9886 11.7612 14.8674 11.7612V10.3062C14.7932 10.3062 14.7362 10.3179 14.715 10.3224C14.6877 10.3283 14.6661 10.3346 14.6538 10.3384C14.6291 10.346 14.6105 10.3533 14.603 10.3562C14.5866 10.3627 14.575 10.3681 14.5734 10.3688C14.5681 10.3713 14.5673 10.3718 14.5749 10.368C14.5885 10.3612 14.6107 10.3499 14.6431 10.3331C14.703 10.3022 14.7976 10.2529 14.8948 10.2029C15.0878 10.1037 15.3434 9.9743 15.5316 9.89303L16.1084 11.2288ZM13.9498 12.5498L13.282 13.1679L12.2937 12.1L12.9615 11.482L13.9498 12.5498ZM13.313 13.1374C12.2165 14.2813 11.4264 15.4715 11.0331 16.8849L9.63133 16.4948C10.1081 14.7815 11.0572 13.3881 12.2627 12.1305L13.313 13.1374ZM11.0333 16.8841L10.8637 17.4962L9.4615 17.1076L9.63111 16.4956L11.0333 16.8841ZM15.175 11.693C14.7816 11.8765 14.3971 12.2016 13.9049 12.5881L13.0063 11.4438C13.4153 11.1226 13.9723 10.6486 14.5598 10.3745L15.175 11.693ZM37.1968 20.7572C37.1931 20.7494 37.1665 20.6888 36.9613 20.6322C36.752 20.5746 36.4851 20.5576 36.1759 20.5499L36.2122 19.0953C36.5173 19.1029 36.9474 19.1192 37.3478 19.2295C37.7523 19.3409 38.2481 19.583 38.5094 20.1295L37.1968 20.7572ZM17.7213 11.4541L16.4736 10.7055L16.4914 10.6758L16.5106 10.647L17.7213 11.4541ZM17.1239 12.2874L15.952 11.425L15.9599 11.4144L17.1239 12.2874ZM16.1505 13.9245L14.843 13.2861L14.8491 13.2738L16.1505 13.9245ZM15.6933 14.861L17.0008 15.4993L16.6042 16.3118L15.7 16.316L15.6933 14.861ZM14.0857 14.8684L14.0924 16.3234H14.0857V14.8684ZM12.4781 14.8684V16.3234H9.75942L11.2675 14.0613L12.4781 14.8684ZM12.7141 14.5144L11.5035 13.7073L11.5099 13.6977L11.5165 13.6881L12.7141 14.5144ZM15.9809 11.8965L16.5602 13.2313L16.5478 13.2365L15.9809 11.8965ZM17.7802 11.3287L17.5354 9.89447L17.6569 9.87371H17.7802V11.3287ZM21.6665 11.6606L21.2121 13.0428L21.2064 13.0409L21.6665 11.6606ZM23.547 12.5971L22.7585 13.82L22.7511 13.8151L22.7437 13.8102L23.547 12.5971ZM25.5307 14.5144L26.7276 13.6871L26.7345 13.6972L26.7413 13.7073L25.5307 14.5144ZM25.7666 14.8684L26.9773 14.0613L28.4854 16.3234H25.7666V14.8684ZM24.159 14.8684L24.159 16.3234L24.1524 16.3234L24.159 14.8684ZM22.5514 14.861L22.5447 16.316L21.6406 16.3118L21.2439 15.4993L22.5514 14.861ZM22.0942 13.9245L23.3957 13.2737L23.4017 13.2862L22.0942 13.9245ZM21.1208 12.2874L22.2858 11.4157L22.2927 11.425L21.1208 12.2874ZM20.8775 11.4393L21.2107 10.023L21.2205 10.0253L21.2303 10.0278L20.8775 11.4393ZM19.8377 12.5823L21.0059 11.715L21.0124 11.7239L19.8377 12.5823ZM21.1872 14.8094L22.6407 14.7433L22.6422 14.7763V14.8094H21.1872ZM17.0576 14.8094H15.6026V14.7902L15.6031 14.7711L17.0576 14.8094ZM15.0812 16.9479L13.6568 16.6512L13.6585 16.6431L15.0812 16.9479ZM15.0812 21.3357L13.658 21.6379L13.6575 21.6354L15.0812 21.3357ZM15.2582 22.169L16.6815 21.8667L17.0547 23.6239H15.2582V22.169ZM11.8144 22.169V23.6239H10.8512L10.475 22.7372L11.8144 22.169ZM11.7112 21.9256L10.3717 22.4938L10.3631 22.4735L10.3551 22.453L11.7112 21.9256ZM11.4457 21.0628L12.8504 20.6832L12.8536 20.6955L11.4457 21.0628ZM11.4457 17.2282L12.8536 17.5954L12.8503 17.6078L11.4457 17.2282ZM11.7112 16.3654L10.3551 15.838L10.3631 15.8174L10.3717 15.7971L11.7112 16.3654ZM11.8144 16.122L10.475 15.5538L10.8512 14.667H11.8144V16.122ZM15.2582 16.122V14.667H17.058L16.6809 16.4269L15.2582 16.122ZM21.8066 16.5055L23.2047 16.1022L23.2077 16.1132L21.8066 16.5055ZM21.8066 21.7781L23.2069 22.1734L23.2066 22.1743L21.8066 21.7781ZM21.696 22.169L23.096 22.5652L22.7964 23.6239H21.696V22.169ZM16.5487 22.169V23.6239H15.4484L15.1487 22.5652L16.5487 22.169ZM16.4381 21.7781L15.0381 22.1743L15.0378 22.1734L16.4381 21.7781ZM16.4381 16.5055L15.037 16.1132L15.0401 16.1022L16.4381 16.5055ZM16.5487 16.122L15.1507 15.7187L15.4541 14.667H16.5487V16.122ZM21.696 16.122V14.667H22.7906L23.094 15.7187L21.696 16.122ZM26.5336 16.3654L27.873 15.7971L27.8816 15.8174L27.8896 15.838L26.5336 16.3654ZM26.799 17.2282L25.3944 17.6078L25.3912 17.5954L26.799 17.2282ZM26.799 21.0628L25.3911 20.6955L25.3944 20.6832L26.799 21.0628ZM26.5336 21.9256L27.8896 22.453L27.8816 22.4735L27.873 22.4938L26.5336 21.9256ZM26.4303 22.169L27.7698 22.7372L27.3936 23.6239H26.4303V22.169ZM22.9865 22.169V23.6239H21.19L21.5633 21.8667L22.9865 22.169ZM23.1635 21.3357L24.5873 21.6354L24.5867 21.6379L23.1635 21.3357ZM23.1635 16.9479L24.5862 16.6431L24.5879 16.6512L23.1635 16.9479ZM22.9865 16.122L21.5638 16.4269L21.1867 14.667H22.9865V16.122ZM26.4303 16.122V14.667H27.3936L27.7698 15.5538L26.4303 16.122ZM36.747 36.7701H38.202V38.2251H36.747V36.7701ZM24.5794 36.7701V38.2251H23.1244V36.7701H24.5794ZM24.5794 33.1567H23.1244V31.7017H24.5794V33.1567ZM29.8963 33.8572L28.9937 32.716L28.999 32.7118L29.8963 33.8572ZM29.0851 34.4988L27.9472 35.4056L27.0371 34.2635L28.1825 33.3576L29.0851 34.4988ZM29.4612 34.9708L28.325 35.8797L28.3233 35.8775L29.4612 34.9708ZM29.9258 35.3837L29.0801 34.1997L29.14 34.1569L29.2039 34.1204L29.9258 35.3837ZM31.7546 33.9384L32.6641 35.074L32.6635 35.0745L31.7546 33.9384ZM33.4949 32.5446L34.4022 31.4071L35.8255 32.5423L34.4044 33.6803L33.4949 32.5446ZM31.6735 31.0919L30.7662 32.2294L30.764 32.2276L31.6735 31.0919ZM29.8594 29.6391L28.7232 28.7302L29.6326 27.5935L30.7689 28.5034L29.8594 29.6391ZM29.5054 30.0816L28.3625 29.1811L28.3693 29.1727L29.5054 30.0816ZM24.5794 31.8809L24.5583 33.3358L23.1244 33.315V31.8809H24.5794ZM24.5794 29.204H23.1244V29.163L23.1267 29.1221L24.5794 29.204ZM24.7121 26.8516L23.2594 26.7697L23.2929 26.1771L23.7312 25.777L24.7121 26.8516ZM25.6412 26.0036L26.6451 27.0568L26.6337 27.0676L26.6221 27.0782L25.6412 26.0036ZM28.0822 21.7781L29.5124 22.0454L29.4998 22.1128L29.4809 22.1787L28.0822 21.7781ZM28.2297 20.9891L26.7994 20.7217L27.0214 19.5341H28.2297V20.9891ZM36.747 20.9891V19.5341H38.202V20.9891H36.747ZM16.1505 24.3665L14.8491 25.0172L14.843 25.0048L16.1505 24.3665ZM17.1239 26.0036L15.9589 26.8753L15.952 26.8659L17.1239 26.0036ZM17.3673 26.8516L17.6976 25.4346L17.7005 25.4353L17.3673 26.8516ZM14.7863 25.7381L15.5751 24.5155L15.5767 24.5165L14.7863 25.7381ZM12.7141 23.7692L13.9168 22.9503L13.9224 22.9586L12.7141 23.7692ZM12.4781 23.4226L11.2754 24.2414L9.72726 21.9676H12.4781V23.4226ZM14.0857 23.4226L14.0857 21.9676L14.0924 21.9676L14.0857 23.4226ZM15.6933 23.43L15.7 21.975L16.6042 21.9791L17.0008 22.7916L15.6933 23.43ZM21.1872 23.4742H22.6422V23.4929L22.6417 23.5115L21.1872 23.4742ZM17.0576 23.4742L15.603 23.5115L15.6026 23.4929V23.4742H17.0576ZM25.5307 23.7692L24.3224 22.9585L24.328 22.9503L25.5307 23.7692ZM23.4585 25.7381L22.668 24.5165L22.6697 24.5155L23.4585 25.7381ZM20.8775 26.8516L20.5442 25.4353L20.5472 25.4346L20.8775 26.8516ZM21.1134 26.0036L19.9414 25.1413L19.9494 25.1306L21.1134 26.0036ZM22.0942 24.3665L23.4018 25.0048L23.3956 25.0172L22.0942 24.3665ZM22.5514 23.43L21.2439 22.7916L21.6426 21.975H22.5514V23.43ZM24.159 23.43L24.1657 24.885H24.159V23.43ZM25.7666 23.4226L25.76 21.9676L28.5262 21.9549L26.9693 24.2415L25.7666 23.4226ZM26.1096 31.903V33.358H26.099L26.0885 33.3579L26.1096 31.903ZM18.9689 12.2027C18.8787 12.353 18.5646 12.7915 18.2879 13.1604L15.9599 11.4144C16.0963 11.2326 16.2277 11.052 16.3294 10.9096C16.3803 10.8382 16.422 10.7789 16.452 10.7353C16.4917 10.6777 16.4902 10.6779 16.4736 10.7055L18.9689 12.2027ZM18.2958 13.1497C18.0727 13.4529 17.6867 14.1055 17.4519 14.5752L14.8491 13.2738C15.1305 12.711 15.5999 11.9035 15.952 11.425L18.2958 13.1497ZM17.458 14.5628L17.0008 15.4993L14.3858 14.2227L14.843 13.2862L17.458 14.5628ZM15.7 16.316L14.0924 16.3234L14.079 13.4134L15.6866 13.406L15.7 16.316ZM14.0857 16.3234H12.4781V13.4134H14.0857V16.3234ZM11.2675 14.0613L11.5035 13.7073L13.9247 15.3215L13.6887 15.6755L11.2675 14.0613ZM11.5165 13.6881C11.9517 13.0573 12.5948 12.4241 13.2509 11.897C13.9102 11.3673 14.6784 10.8677 15.414 10.5565L16.5478 13.2365C16.133 13.4121 15.596 13.7458 15.0735 14.1655C14.5479 14.5878 14.1328 15.0202 13.9117 15.3407L11.5165 13.6881ZM15.4017 10.5618C15.6732 10.444 16.1113 10.2956 16.477 10.1805C16.8228 10.0716 17.2699 9.93979 17.5354 9.89447L18.0251 12.763C18.0304 12.7621 17.9684 12.7748 17.8167 12.8171C17.6834 12.8542 17.5205 12.9028 17.3506 12.9563C16.9898 13.0698 16.6795 13.1795 16.5601 13.2313L15.4017 10.5618ZM17.7802 9.87371C18.035 9.87371 18.3188 9.94146 18.5795 10.1127C18.8315 10.2781 18.9847 10.4892 19.0732 10.6601C19.2303 10.9633 19.2359 11.2371 19.2366 11.3193C19.2383 11.5202 19.1965 11.6749 19.1875 11.7092C19.158 11.8211 19.1209 11.9093 19.1019 11.9525C19.0564 12.0559 18.9987 12.161 18.9319 12.2612L16.5106 10.647C16.4881 10.6808 16.4635 10.7232 16.4383 10.7805C16.4294 10.8007 16.3992 10.8699 16.3733 10.9687C16.3659 10.9965 16.3251 11.146 16.3267 11.3434C16.3274 11.4239 16.3327 11.6964 16.4894 11.9987C16.5777 12.1692 16.7306 12.3799 16.9822 12.5451C17.2426 12.7161 17.5259 12.7837 17.7802 12.7837V9.87371ZM22.1209 10.2783C22.8027 10.5025 23.7155 10.9636 24.3503 11.3839L22.7437 13.8102C22.287 13.5079 21.607 13.1726 21.2121 13.0428L22.1209 10.2783ZM24.3354 11.3742C24.7417 11.6362 25.2353 12.0735 25.6326 12.4594C26.0288 12.8441 26.4698 13.3142 26.7276 13.6871L24.3337 15.3417C24.2449 15.2132 23.9743 14.9053 23.6054 14.547C23.2377 14.19 22.9127 13.9193 22.7585 13.82L24.3354 11.3742ZM26.7413 13.7073L26.9773 14.0613L24.556 15.6755L24.32 15.3215L26.7413 13.7073ZM25.7666 16.3234H24.159V13.4134H25.7666V16.3234ZM24.1524 16.3234L22.5447 16.316L22.5581 13.406L24.1657 13.4134L24.1524 16.3234ZM21.2439 15.4993L20.7867 14.5628L23.4017 13.2862L23.8589 14.2227L21.2439 15.4993ZM20.7928 14.5752C20.558 14.1055 20.172 13.4529 19.9489 13.1497L22.2927 11.425C22.6448 11.9035 23.1142 12.711 23.3956 13.2738L20.7928 14.5752ZM19.9558 13.159C19.7731 12.9149 19.6154 12.7061 19.5057 12.553C19.4505 12.4758 19.3891 12.3875 19.3347 12.2988C19.2972 12.2378 19.1875 12.0592 19.1225 11.8275C19.0888 11.7073 19.0336 11.4596 19.0873 11.153C19.1506 10.7919 19.3508 10.4415 19.6853 10.2022C19.972 9.99706 20.2559 9.94674 20.3973 9.9311C20.5491 9.91431 20.6742 9.92342 20.7419 9.93025C20.9287 9.94906 21.1955 10.0194 21.2107 10.023L20.5442 12.8556C20.4319 12.8292 20.4499 12.8325 20.3843 12.8174C20.3374 12.8065 20.3789 12.8184 20.4502 12.8256C20.4877 12.8294 20.5868 12.8379 20.7172 12.8235C20.8371 12.8102 21.1041 12.7652 21.3785 12.5689C21.7006 12.3384 21.8932 12.0002 21.9536 11.6554C22.0045 11.365 21.9512 11.1374 21.9245 11.0419C21.8942 10.9342 21.8581 10.8587 21.8438 10.8301C21.8271 10.7966 21.8149 10.7769 21.8145 10.7761C21.8131 10.774 21.8165 10.7795 21.8272 10.7952C21.8375 10.8104 21.8519 10.8311 21.8717 10.8587C21.9579 10.9791 22.085 11.1473 22.2858 11.4157L19.9558 13.159ZM21.2303 10.0278C21.4744 10.0888 21.8726 10.1956 22.1266 10.2802L21.2064 13.0409C21.0622 12.9928 20.7524 12.9078 20.5246 12.8509L21.2303 10.0278ZM21.0124 11.7239C21.3249 12.1515 21.6841 12.7054 21.9649 13.1698C22.1058 13.4028 22.2367 13.6294 22.3371 13.8185C22.3862 13.911 22.4378 14.0128 22.4812 14.1111C22.5025 14.1594 22.5304 14.226 22.5558 14.3016C22.571 14.3466 22.6306 14.5207 22.6407 14.7433L19.7337 14.8755C19.7429 15.0778 19.7955 15.2227 19.7981 15.2305C19.8052 15.2518 19.8111 15.2669 19.8141 15.2743C19.8157 15.2783 19.8169 15.2813 19.8177 15.2832C19.8185 15.285 19.8189 15.286 19.8189 15.286C19.8189 15.2861 19.8187 15.2854 19.818 15.284C19.8174 15.2826 19.8164 15.2806 19.8152 15.2779C19.8127 15.2726 19.8092 15.2653 19.8046 15.2561C19.7952 15.2373 19.7828 15.213 19.7669 15.1831C19.7012 15.0593 19.6003 14.8831 19.4747 14.6754C19.2227 14.2586 18.9109 13.7801 18.6629 13.4408L21.0124 11.7239ZM22.6422 14.8094C22.6422 15.621 22.0294 16.0004 21.957 16.0458C21.7961 16.1466 21.6525 16.1919 21.6058 16.2063C21.4912 16.2417 21.3932 16.2566 21.3604 16.2615C21.2739 16.2744 21.1865 16.2814 21.1247 16.2857C20.9889 16.2951 20.813 16.3019 20.62 16.3072C20.2278 16.3178 19.6973 16.3234 19.1224 16.3234V13.4134C19.6831 13.4134 20.185 13.4079 20.5412 13.3982C20.7226 13.3933 20.8499 13.3877 20.9238 13.3826C20.9668 13.3797 20.9609 13.3789 20.9297 13.3835C20.9245 13.3843 20.8475 13.3949 20.7471 13.4259C20.7075 13.4381 20.5692 13.4813 20.412 13.5798C20.3318 13.6301 20.1847 13.7326 20.0463 13.9073C19.8984 14.0938 19.7322 14.4024 19.7322 14.8094H22.6422ZM19.1224 16.3234C18.5474 16.3234 18.0169 16.3178 17.6247 16.3072C17.4318 16.3019 17.2558 16.2951 17.12 16.2857C17.0582 16.2814 16.9709 16.2744 16.8844 16.2615C16.8515 16.2566 16.7535 16.2417 16.6389 16.2063C16.5922 16.1919 16.4486 16.1466 16.2878 16.0458C16.2153 16.0004 15.6026 15.621 15.6026 14.8094H18.5126C18.5126 14.4024 18.3464 14.0938 18.1985 13.9073C18.06 13.7326 17.913 13.6301 17.8328 13.5798C17.6755 13.4813 17.5372 13.4381 17.4976 13.4259C17.3972 13.3949 17.3203 13.3843 17.315 13.3835C17.2838 13.3789 17.2779 13.3797 17.321 13.3826C17.3948 13.3877 17.5222 13.3933 17.7035 13.3982C18.0597 13.4079 18.5617 13.4134 19.1224 13.4134V16.3234ZM15.6031 14.7711C15.6109 14.4738 15.7104 14.2351 15.7254 14.1971C15.7622 14.1031 15.8044 14.0145 15.8402 13.9429C15.9137 13.7966 16.0068 13.6311 16.1036 13.4667C16.3001 13.133 16.5554 12.73 16.8107 12.3447C17.0655 11.9601 17.3336 11.5729 17.5575 11.2733C17.6665 11.1274 17.7825 10.9787 17.8905 10.8564C17.941 10.7993 18.0187 10.7146 18.1123 10.633C18.1573 10.5937 18.2403 10.5247 18.3521 10.4577C18.4215 10.4161 18.7106 10.2424 19.1224 10.2424V13.1524C19.5226 13.1524 19.7969 12.9843 19.8484 12.9535C19.9423 12.8972 20.0043 12.8441 20.0255 12.8256C20.0714 12.7856 20.09 12.762 20.0715 12.7829C20.0418 12.8165 19.9812 12.8913 19.8886 13.0152C19.7091 13.2553 19.474 13.5936 19.2365 13.9519C18.9996 14.3096 18.7737 14.6671 18.6112 14.9432C18.5285 15.0836 18.4726 15.1854 18.4414 15.2475C18.425 15.2802 18.426 15.2811 18.4345 15.2594C18.4388 15.2485 18.4518 15.2146 18.4657 15.1647C18.4758 15.1282 18.5078 15.0094 18.5121 14.8477L15.6031 14.7711ZM19.1224 10.2424C19.4217 10.2424 19.6426 10.3349 19.7281 10.3737C19.833 10.4213 19.9111 10.4718 19.9542 10.5012C20.0406 10.5604 20.1039 10.6171 20.1325 10.6433C20.1956 10.7013 20.2482 10.7583 20.279 10.7924C20.3471 10.8679 20.4217 10.9579 20.492 11.0453C20.6371 11.2256 20.8189 11.4631 21.0059 11.715L18.6694 13.4497C18.4951 13.2148 18.3377 13.0099 18.2247 12.8695C18.166 12.7965 18.1318 12.7565 18.1188 12.7421C18.109 12.7313 18.1279 12.7534 18.1653 12.7876C18.1809 12.802 18.2333 12.8497 18.3109 12.9028C18.3495 12.9292 18.4237 12.9774 18.5252 13.0234C18.5777 13.0473 18.6516 13.0771 18.7432 13.1019C18.833 13.1263 18.9634 13.1524 19.1224 13.1524V10.2424ZM16.5057 17.2447C16.3861 17.8186 16.3593 18.0417 16.3593 19.1455H13.4493C13.4493 17.9337 13.4814 17.4931 13.6568 16.6512L16.5057 17.2447ZM16.3593 19.1455C16.3593 20.2501 16.3862 20.4716 16.505 21.0359L13.6575 21.6354C13.4813 20.7986 13.4493 20.3564 13.4493 19.1455H16.3593ZM16.5045 21.0334L16.6815 21.8667L13.835 22.4712L13.658 21.6379L16.5045 21.0334ZM15.2582 23.6239H13.5326V20.714H15.2582V23.6239ZM13.5326 23.6239H11.8144V20.714H13.5326V23.6239ZM10.475 22.7372L10.3717 22.4938L13.0506 21.3573L13.1539 21.6007L10.475 22.7372ZM10.3551 22.453C10.2762 22.2501 10.1347 21.8014 10.0378 21.4301L12.8536 20.6955C12.8907 20.8379 12.9375 20.9979 12.9813 21.1386C13.003 21.2082 13.023 21.2696 13.0394 21.3184C13.0476 21.3428 13.0544 21.3625 13.0597 21.3775C13.0654 21.3934 13.0678 21.3995 13.0673 21.3982L10.3551 22.453ZM10.0411 21.4424C9.84141 20.7035 9.8211 20.2867 9.8211 19.1455H12.7311C12.7311 19.7096 12.7375 19.9906 12.755 20.1893C12.7692 20.3503 12.7909 20.4633 12.8503 20.6832L10.0411 21.4424ZM9.8211 19.1455C9.8211 18.0043 9.84141 17.5874 10.0411 16.8485L12.8503 17.6078C12.7909 17.8277 12.7692 17.9407 12.755 18.1016C12.7375 18.3003 12.7311 18.5813 12.7311 19.1455H9.8211ZM10.0378 16.8609C10.1347 16.4896 10.2762 16.0408 10.3551 15.838L13.0673 16.8927C13.0678 16.8914 13.0654 16.8976 13.0597 16.9135C13.0544 16.9285 13.0476 16.9482 13.0394 16.9725C13.023 17.0213 13.003 17.0828 12.9813 17.1524C12.9375 17.2931 12.8907 17.4531 12.8536 17.5954L10.0378 16.8609ZM10.3717 15.7971L10.475 15.5538L13.1539 16.6903L13.0506 16.9336L10.3717 15.7971ZM11.8144 14.667H13.5326V17.577H11.8144V14.667ZM13.5326 14.667H15.2582V17.577H13.5326V14.667ZM16.6809 16.4269L16.5039 17.2528L13.6585 16.6431L13.8355 15.8172L16.6809 16.4269ZM23.2077 16.1132C23.5124 17.2014 23.564 17.7255 23.564 19.1455H20.654C20.654 17.896 20.617 17.6531 20.4055 16.8978L23.2077 16.1132ZM23.564 19.1455C23.564 20.5648 23.5126 21.0904 23.2069 22.1734L20.4063 21.3829C20.6169 20.637 20.654 20.3957 20.654 19.1455H23.564ZM23.2066 22.1743L23.096 22.5652L20.296 21.7727L20.4066 21.3819L23.2066 22.1743ZM21.696 23.6239H19.1224V20.714H21.696V23.6239ZM19.1224 23.6239H16.5487V20.714H19.1224V23.6239ZM15.1487 22.5652L15.0381 22.1743L17.8381 21.3819L17.9487 21.7727L15.1487 22.5652ZM15.0378 22.1734C14.7321 21.0904 14.6808 20.5648 14.6808 19.1455H17.5908C17.5908 20.3957 17.6279 20.637 17.8384 21.3829L15.0378 22.1734ZM14.6808 19.1455C14.6808 17.7255 14.7323 17.2014 15.037 16.1132L17.8392 16.8978C17.6277 17.6531 17.5908 17.896 17.5908 19.1455H14.6808ZM15.0401 16.1022L15.1507 15.7187L17.9467 16.5253L17.8361 16.9087L15.0401 16.1022ZM16.5487 14.667H19.1224V17.577H16.5487V14.667ZM19.1224 14.667H21.696V17.577H19.1224V14.667ZM23.094 15.7187L23.2046 16.1022L20.4086 16.9087L20.298 16.5253L23.094 15.7187ZM27.8896 15.838C27.9685 16.0408 28.1101 16.4896 28.2069 16.8609L25.3912 17.5954C25.354 17.4531 25.3073 17.2931 25.2634 17.1524C25.2417 17.0828 25.2218 17.0213 25.2054 16.9725C25.1972 16.9482 25.1904 16.9285 25.185 16.9135C25.1794 16.8976 25.177 16.8914 25.1775 16.8927L27.8896 15.838ZM28.2037 16.8485C28.4033 17.5874 28.4237 18.0043 28.4237 19.1455H25.5137C25.5137 18.5813 25.5073 18.3003 25.4898 18.1016C25.4756 17.9407 25.4539 17.8277 25.3944 17.6078L28.2037 16.8485ZM28.4237 19.1455C28.4237 20.2867 28.4033 20.7035 28.2037 21.4424L25.3944 20.6832C25.4539 20.4633 25.4756 20.3503 25.4898 20.1893C25.5073 19.9906 25.5137 19.7096 25.5137 19.1455H28.4237ZM28.2069 21.4301C28.1101 21.8014 27.9685 22.2501 27.8896 22.453L25.1775 21.3982C25.177 21.3995 25.1794 21.3934 25.185 21.3775C25.1904 21.3625 25.1972 21.3428 25.2054 21.3185C25.2218 21.2696 25.2417 21.2082 25.2634 21.1386C25.3073 20.9979 25.354 20.8379 25.3912 20.6955L28.2069 21.4301ZM27.873 22.4938L27.7698 22.7372L25.0909 21.6007L25.1941 21.3574L27.873 22.4938ZM26.4303 23.6239H24.7121V20.714H26.4303V23.6239ZM24.7121 23.6239H22.9865V20.714H24.7121V23.6239ZM21.5633 21.8667L21.7402 21.0334L24.5867 21.6379L24.4098 22.4712L21.5633 21.8667ZM21.7397 21.0359C21.8585 20.4716 21.8855 20.2501 21.8855 19.1455H24.7955C24.7955 20.3564 24.7634 20.7986 24.5873 21.6354L21.7397 21.0359ZM21.8855 19.1455C21.8855 18.0417 21.8586 17.8186 21.7391 17.2447L24.5879 16.6512C24.7633 17.4931 24.7955 17.9337 24.7955 19.1455H21.8855ZM21.7408 17.2528L21.5638 16.4269L24.4092 15.8171L24.5862 16.6431L21.7408 17.2528ZM22.9865 14.667H24.7121V17.577H22.9865V14.667ZM24.7121 14.667H26.4303V17.577H24.7121V14.667ZM27.7698 15.5538L27.873 15.7971L25.1941 16.9336L25.0909 16.6903L27.7698 15.5538ZM38.202 28.8796V36.7701H35.292V28.8796H38.202ZM36.747 38.2251H30.6632V35.3151H36.747V38.2251ZM30.6632 38.2251H24.5794V35.3151H30.6632V38.2251ZM23.1244 36.7701V34.9634H26.0344V36.7701H23.1244ZM23.1244 34.9634V33.1567H26.0344V34.9634H23.1244ZM24.5794 31.7017H27.6397V34.6117H24.5794V31.7017ZM27.6397 31.7017C28.4841 31.7017 29.2541 31.7054 29.8149 31.711C30.0944 31.7138 30.3263 31.7171 30.4906 31.7207C30.5711 31.7225 30.6444 31.7246 30.7019 31.7271C30.7272 31.7282 30.7681 31.7302 30.8108 31.7339C30.8256 31.7352 30.8792 31.7399 30.9442 31.7511C30.966 31.7549 31.0593 31.7707 31.1727 31.8097C31.2197 31.8259 31.3637 31.8767 31.5233 31.9863C31.6202 32.0528 32.1551 32.4326 32.1551 33.1862H29.2451C29.2451 33.9395 29.7797 34.319 29.8763 34.3853C30.0356 34.4947 30.1791 34.5453 30.2254 34.5612C30.3374 34.5998 30.4287 34.6152 30.4479 34.6185C30.5076 34.6288 30.5532 34.6325 30.5575 34.6329C30.5792 34.6348 30.5888 34.6349 30.5732 34.6342C30.5486 34.6332 30.5011 34.6317 30.426 34.63C30.2793 34.6267 30.0613 34.6236 29.7859 34.6208C29.2369 34.6153 28.4767 34.6117 27.6397 34.6117V31.7017ZM32.1551 33.1862C32.1551 33.5897 31.9835 33.8736 31.9652 33.9059C31.9141 33.9961 31.8642 34.0616 31.841 34.0911C31.7914 34.1545 31.746 34.2017 31.7273 34.2209C31.6836 34.266 31.6402 34.3058 31.6124 34.331C31.5509 34.3866 31.4751 34.4513 31.3969 34.5166C31.2368 34.6504 31.0235 34.8225 30.7935 35.0027L28.999 32.7118C29.2115 32.5454 29.4001 32.393 29.5312 32.2834C29.5987 32.2271 29.6409 32.1904 29.661 32.1723C29.6739 32.1606 29.6623 32.1704 29.64 32.1934C29.6321 32.2015 29.5949 32.2397 29.5507 32.296C29.5303 32.322 29.4825 32.3845 29.4328 32.4722C29.4076 32.5169 29.3683 32.5917 29.3326 32.6896C29.3005 32.7779 29.2451 32.955 29.2451 33.1862H32.1551ZM30.7988 34.9984L29.9877 35.64L28.1825 33.3576L28.9937 32.716L30.7988 34.9984ZM30.223 33.592L30.5991 34.064L28.3233 35.8775L27.9472 35.4056L30.223 33.592ZM30.5973 34.0618C30.6916 34.1796 30.7357 34.2199 30.7269 34.2121C30.7216 34.2074 30.7046 34.1926 30.6771 34.1725C30.6522 34.1543 30.5991 34.1172 30.5218 34.0781C30.4551 34.0443 30.2995 33.9722 30.0814 33.9449C29.85 33.916 29.4572 33.9303 29.0801 34.1997L30.7715 36.5677C30.3814 36.8463 29.9717 36.8639 29.7199 36.8324C29.4814 36.8025 29.3016 36.7221 29.2074 36.6743C29.0165 36.5777 28.8736 36.4579 28.7983 36.3912C28.6291 36.2415 28.4667 36.0568 28.325 35.8797L30.5973 34.0618ZM29.2039 34.1204C29.1519 34.1501 29.1143 34.1762 29.111 34.1785C29.0997 34.1862 29.0924 34.1915 29.0912 34.1924C29.0885 34.1943 29.0914 34.1923 29.1025 34.1838C29.1238 34.1678 29.1576 34.1418 29.2053 34.1047C29.2995 34.0315 29.4329 33.9265 29.5973 33.7965C29.9253 33.537 30.3674 33.1848 30.8457 32.8022L32.6635 35.0745C32.1831 35.4588 31.7366 35.8146 31.4027 36.0787C31.2362 36.2104 31.0954 36.3212 30.9917 36.4019C30.9403 36.4418 30.8943 36.4773 30.8571 36.5054C30.8391 36.519 30.8181 36.5347 30.7973 36.5497C30.7871 36.5571 30.7721 36.5679 30.7547 36.5798C30.7452 36.5863 30.7028 36.6155 30.6476 36.647L29.2039 34.1204ZM30.8451 32.8027L32.5854 31.4089L34.4044 33.6803L32.6641 35.074L30.8451 32.8027ZM32.5877 33.6821L30.7662 32.2294L32.5807 29.9544L34.4022 31.4071L32.5877 33.6821ZM30.764 32.2276L28.9499 30.7748L30.7689 28.5034L32.583 29.9562L30.764 32.2276ZM30.9956 30.5481L30.6416 30.9905L28.3693 29.1727L28.7232 28.7302L30.9956 30.5481ZM30.6483 30.982C30.5595 31.0948 30.4846 31.1935 30.4364 31.2603C30.4104 31.2962 30.4037 31.3072 30.4083 31.2998C30.409 31.2988 30.4283 31.2688 30.4525 31.2217C30.4641 31.1993 30.4898 31.1479 30.516 31.0779C30.5294 31.0421 30.5488 30.9859 30.566 30.915C30.5817 30.8504 30.6065 30.7297 30.6065 30.5757H27.6965C27.6965 30.3028 27.7754 30.0986 27.7906 30.0579C27.8193 29.9814 27.8487 29.9219 27.8651 29.8902C27.8989 29.8244 27.9324 29.7704 27.9513 29.7407C27.9923 29.6759 28.0381 29.6108 28.0767 29.5574C28.1575 29.4454 28.2596 29.3118 28.3625 29.1811L30.6483 30.982ZM30.6065 30.5757C30.6065 30.4044 30.5761 30.2664 30.5509 30.1781C30.5248 30.0866 30.4942 30.0137 30.471 29.964C30.4261 29.8677 30.3801 29.7975 30.3564 29.7628C30.3079 29.6919 30.2649 29.6435 30.2526 29.6297C30.2224 29.596 30.2032 29.5786 30.2128 29.5877C30.2254 29.5996 30.2604 29.6313 30.3239 29.6856C30.4461 29.7901 30.6249 29.9368 30.8299 30.0994L29.0216 32.3793C28.7989 32.2027 28.5905 32.0323 28.4325 31.8971C28.3559 31.8316 28.2775 31.7628 28.2118 31.7005C28.1822 31.6725 28.1325 31.6246 28.0818 31.5677C28.0592 31.5424 28.0083 31.4844 27.9545 31.4057C27.9281 31.3671 27.8802 31.2936 27.8339 31.1944C27.8002 31.1221 27.6965 30.8916 27.6965 30.5757H30.6065ZM30.8299 30.0994C31.0496 30.2736 31.2516 30.4371 31.4019 30.5616C31.4756 30.6228 31.5442 30.6806 31.5983 30.728C31.623 30.7496 31.6586 30.7813 31.694 30.8153C31.7085 30.8293 31.7458 30.8655 31.7877 30.9131C31.806 30.9338 31.8528 30.9877 31.9036 31.0626C31.9284 31.0993 31.9748 31.1709 32.0198 31.268C32.0522 31.3378 32.1551 31.5666 32.1551 31.8809H29.2451C29.2451 32.0524 29.2754 32.1903 29.3004 32.2783C29.3263 32.3695 29.3567 32.4423 29.3798 32.492C29.4245 32.5884 29.4703 32.6592 29.4945 32.6949C29.5439 32.7678 29.5888 32.8192 29.6044 32.8369C29.641 32.8785 29.6705 32.9067 29.6747 32.9107C29.6894 32.9249 29.6947 32.929 29.6802 32.9164C29.6559 32.8951 29.6111 32.857 29.5447 32.802C29.4147 32.6942 29.2296 32.5443 29.0216 32.3793L30.8299 30.0994ZM32.1551 31.8809C32.1551 32.6325 31.6225 33.0121 31.527 33.0781C31.3684 33.1877 31.2254 33.2387 31.1787 33.255C31.0663 33.2942 30.9741 33.3102 30.9532 33.3139C30.8904 33.3251 30.8399 33.3295 30.829 33.3305C30.7943 33.3337 30.7651 33.3352 30.7551 33.3357C30.7283 33.337 30.6999 33.3378 30.6769 33.3385C30.6274 33.3398 30.5603 33.3411 30.481 33.3423C30.3204 33.3448 30.0916 33.3474 29.8125 33.3497C29.2534 33.3543 28.4843 33.358 27.6397 33.358V30.448C28.4765 30.448 29.2375 30.4444 29.7883 30.4398C30.0641 30.4375 30.2851 30.435 30.4357 30.4327C30.5119 30.4315 30.5657 30.4304 30.5982 30.4295C30.6161 30.429 30.619 30.4288 30.6132 30.4291C30.611 30.4292 30.6061 30.4295 30.5994 30.4299C30.5936 30.4303 30.5804 30.4311 30.5631 30.4327C30.5548 30.4335 30.5064 30.4377 30.4449 30.4486C30.4247 30.4522 30.3329 30.4681 30.2209 30.5072C30.1744 30.5234 30.0315 30.5744 29.873 30.6839C29.7775 30.7498 29.2451 31.1294 29.2451 31.8809H32.1551ZM23.1244 31.8809V29.204H26.0344V31.8809H23.1244ZM23.1267 29.1221L23.2594 26.7697L26.1648 26.9336L26.0321 29.286L23.1267 29.1221ZM23.7312 25.777L24.6603 24.9289L26.6221 27.0782L25.693 27.9263L23.7312 25.777ZM24.6373 24.9504C25.6612 23.9744 26.2979 22.7236 26.6834 21.3775L29.4809 22.1787C28.9963 23.8709 28.1432 25.6288 26.6451 27.0568L24.6373 24.9504ZM26.652 21.5108L26.7994 20.7217L29.6599 21.2564L29.5124 22.0454L26.652 21.5108ZM28.2297 19.5341H32.4183V22.4441H28.2297V19.5341ZM32.4183 19.5341H36.747V22.4441H32.4183V19.5341ZM38.202 20.9891V28.8796H35.292V20.9891H38.202ZM17.4519 23.7158C17.6867 24.1854 18.0727 24.838 18.2958 25.1412L15.952 26.8659C15.5999 26.3875 15.1305 25.58 14.8491 25.0172L17.4519 23.7158ZM18.2889 25.1319C18.4716 25.3761 18.6293 25.5849 18.739 25.738C18.7942 25.8151 18.8557 25.9035 18.9101 25.9921C18.9475 26.0531 19.0573 26.2317 19.1222 26.4635C19.1559 26.5836 19.2112 26.8314 19.1574 27.138C19.0941 27.4991 18.8939 27.8495 18.5595 28.0888C18.2727 28.2939 17.9889 28.3442 17.8475 28.3599C17.6957 28.3767 17.5706 28.3676 17.5028 28.3607C17.3161 28.3419 17.0492 28.2715 17.034 28.268L17.7005 25.4353C17.8129 25.4617 17.7948 25.4584 17.8604 25.4736C17.9073 25.4845 17.8658 25.4726 17.7945 25.4654C17.7571 25.4616 17.6579 25.4531 17.5276 25.4675C17.4076 25.4808 17.1407 25.5258 16.8663 25.7221C16.5441 25.9526 16.3516 26.2908 16.2911 26.6356C16.2402 26.926 16.2935 27.1535 16.3203 27.249C16.3505 27.3568 16.3866 27.4322 16.4009 27.4609C16.4176 27.4944 16.4298 27.5141 16.4303 27.5148C16.4316 27.517 16.4282 27.5115 16.4176 27.4958C16.4072 27.4805 16.3928 27.4598 16.373 27.4322C16.2868 27.3118 16.1597 27.1436 15.9589 26.8753L18.2889 25.1319ZM17.037 28.2687C15.8795 27.9989 15.0025 27.6111 13.9958 26.9597L15.5767 24.5165C16.3251 25.0008 16.8935 25.2472 17.6976 25.4346L17.037 28.2687ZM13.9975 26.9607C13.5517 26.6732 13.0588 26.2611 12.6377 25.8613C12.2247 25.4691 11.7889 25.0018 11.5058 24.5798L13.9224 22.9586C14.0301 23.1191 14.2876 23.4151 14.6414 23.7511C14.9873 24.0795 15.335 24.3606 15.5751 24.5155L13.9975 26.9607ZM11.5114 24.588L11.2754 24.2414L13.6808 22.6037L13.9168 22.9503L11.5114 24.588ZM12.4781 21.9676H14.0857V24.8776H12.4781V21.9676ZM14.0924 21.9676L15.7 21.975L15.6866 24.8849L14.079 24.8776L14.0924 21.9676ZM17.0008 22.7916L17.458 23.7282L14.843 25.0048L14.3858 24.0683L17.0008 22.7916ZM22.6417 23.5115C22.6342 23.8053 22.5375 24.0412 22.5214 24.0827C22.4845 24.1777 22.4423 24.2672 22.4063 24.3396C22.3326 24.4874 22.2392 24.6541 22.1423 24.8193C21.9455 25.1546 21.6899 25.5587 21.4345 25.9446C21.1796 26.3299 20.9114 26.7175 20.6875 27.0173C20.5784 27.1633 20.4624 27.3121 20.3543 27.4344C20.3039 27.4916 20.2261 27.5763 20.1325 27.6579C20.0875 27.6973 20.0045 27.7663 19.8927 27.8333C19.8233 27.8749 19.5342 28.0485 19.1224 28.0485V25.1385C18.7221 25.1385 18.4478 25.3066 18.3963 25.3375C18.3024 25.3938 18.2404 25.4469 18.2192 25.4654C18.1733 25.5055 18.1547 25.529 18.1731 25.5082C18.2028 25.4745 18.2634 25.3998 18.356 25.2759C18.5354 25.0358 18.7704 24.6974 19.0077 24.3388C19.2446 23.9808 19.4702 23.6231 19.6325 23.3465C19.715 23.2059 19.7706 23.1041 19.8015 23.042C19.8178 23.0094 19.8167 23.0086 19.8082 23.0306C19.8039 23.0417 19.7911 23.0755 19.7775 23.1252C19.7673 23.1624 19.7367 23.2787 19.7327 23.4369L22.6417 23.5115ZM19.1224 28.0485C18.7106 28.0485 18.4214 27.8749 18.3521 27.8333C18.2403 27.7663 18.1573 27.6973 18.1122 27.6579C18.0186 27.5763 17.9409 27.4916 17.8904 27.4344C17.7824 27.3121 17.6664 27.1633 17.5573 27.0173C17.3334 26.7175 17.0651 26.3299 16.8102 25.9446C16.5548 25.5587 16.2993 25.1546 16.1025 24.8193C16.0055 24.6541 15.9121 24.4874 15.8385 24.3396C15.8025 24.2672 15.7602 24.1777 15.7234 24.0827C15.7073 24.0412 15.6106 23.8053 15.603 23.5115L18.5121 23.4369C18.508 23.2787 18.4774 23.1624 18.4672 23.1252C18.4537 23.0755 18.4408 23.0417 18.4365 23.0306C18.428 23.0086 18.4269 23.0094 18.4432 23.042C18.4741 23.1041 18.5297 23.2059 18.6123 23.3465C18.7745 23.6231 19.0001 23.9808 19.237 24.3388C19.4743 24.6974 19.7094 25.0358 19.8887 25.2759C19.9813 25.3998 20.0419 25.4745 20.0716 25.5082C20.09 25.529 20.0714 25.5055 20.0255 25.4654C20.0043 25.4469 19.9423 25.3938 19.8484 25.3375C19.7969 25.3066 19.5226 25.1385 19.1224 25.1385V28.0485ZM15.6026 23.4742C15.6026 22.9598 15.8625 22.6131 16.0223 22.4511C16.178 22.2933 16.333 22.2088 16.4034 22.1731C16.5502 22.0989 16.6767 22.0669 16.7132 22.0578C16.8095 22.0335 16.8918 22.0232 16.9205 22.0196C16.9958 22.0102 17.0742 22.0048 17.1343 22.0013C17.2645 21.9935 17.4359 21.9875 17.6283 21.9828C18.0181 21.9732 18.5469 21.9676 19.1224 21.9676V24.8776C18.5622 24.8776 18.0586 24.8831 17.6999 24.8919C17.518 24.8964 17.3862 24.9014 17.3067 24.9061C17.2619 24.9088 17.2588 24.9099 17.2789 24.9074C17.28 24.9073 17.3412 24.9004 17.4234 24.8798C17.4528 24.8724 17.5739 24.8422 17.7171 24.7698C17.7857 24.735 17.9394 24.6514 18.0942 24.4945C18.253 24.3334 18.5126 23.9877 18.5126 23.4742H15.6026ZM19.1224 21.9676C19.6978 21.9676 20.2266 21.9732 20.6165 21.9828C20.8088 21.9875 20.9803 21.9935 21.1104 22.0013C21.1705 22.0048 21.2489 22.0102 21.3242 22.0196C21.3529 22.0232 21.4352 22.0335 21.5315 22.0578C21.5681 22.0669 21.6946 22.0989 21.8413 22.1731C21.9118 22.2088 22.0668 22.2933 22.2224 22.4511C22.3822 22.6131 22.6422 22.9598 22.6422 23.4742H19.7322C19.7322 23.9877 19.9917 24.3334 20.1505 24.4945C20.3053 24.6514 20.459 24.735 20.5277 24.7698C20.6708 24.8422 20.7919 24.8724 20.8214 24.8798C20.9035 24.9004 20.9648 24.9073 20.9659 24.9074C20.9859 24.9099 20.9828 24.9088 20.9381 24.9061C20.8585 24.9014 20.7267 24.8964 20.5448 24.8919C20.1861 24.8831 19.6825 24.8776 19.1224 24.8776V21.9676ZM26.7389 24.5798C26.4558 25.0018 26.0201 25.4691 25.607 25.8613C25.186 26.2611 24.693 26.6732 24.2473 26.9607L22.6697 24.5155C22.9097 24.3606 23.2574 24.0795 23.6033 23.7511C23.9572 23.415 24.2147 23.1191 24.3224 22.9586L26.7389 24.5798ZM24.2489 26.9597C23.2422 27.6111 22.3652 27.9989 21.2077 28.2687L20.5472 25.4346C21.3513 25.2472 21.9196 25.0008 22.668 24.5165L24.2489 26.9597ZM21.2107 28.268C21.2006 28.2703 20.9331 28.3408 20.7551 28.3604C20.6892 28.3676 20.5668 28.3778 20.418 28.3635C20.2807 28.3503 19.9988 28.3058 19.7103 28.1085C19.3713 27.8768 19.16 27.5283 19.0903 27.1599C19.0313 26.8485 19.086 26.596 19.1191 26.4751C19.183 26.2417 19.2926 26.0616 19.3289 26.0018C19.3825 25.9135 19.4431 25.8253 19.4974 25.7485C19.605 25.5963 19.7613 25.3862 19.9414 25.1413L22.2854 26.8658C22.0858 27.1372 21.9601 27.3059 21.8738 27.428C21.8541 27.4559 21.8397 27.4768 21.8294 27.4922C21.8187 27.5081 21.8153 27.5137 21.8166 27.5116C21.817 27.511 21.8291 27.4912 21.8457 27.4574C21.8598 27.4287 21.8961 27.3522 21.926 27.243C21.9524 27.1464 22.0054 26.9139 21.9494 26.6184C21.8827 26.266 21.6792 25.9295 21.3526 25.7062C21.0765 25.5175 20.8117 25.4779 20.6959 25.4668C20.5687 25.4546 20.4724 25.4639 20.4368 25.4678C20.3693 25.4753 20.3303 25.4866 20.3791 25.4751C20.3955 25.4713 20.4143 25.4667 20.4442 25.4594C20.4719 25.4526 20.5065 25.4442 20.5442 25.4353L21.2107 28.268ZM19.9494 25.1306C20.1677 24.8396 20.5587 24.1841 20.7928 23.7158L23.3956 25.0172C23.1135 25.5813 22.6343 26.4007 22.2774 26.8766L19.9494 25.1306ZM20.7867 23.7282L21.2439 22.7916L23.8589 24.0683L23.4017 25.0048L20.7867 23.7282ZM22.5514 21.975H24.159V24.885H22.5514V21.975ZM24.1524 21.975L25.76 21.9676L25.7733 24.8776L24.1657 24.8849L24.1524 21.975ZM26.9693 24.2415L26.7334 24.588L24.328 22.9503L24.564 22.6037L26.9693 24.2415ZM27.6397 33.358H26.1096V30.448H27.6397V33.358ZM26.0885 33.3579L24.5583 33.3358L24.6004 30.4261L26.1306 30.4482L26.0885 33.3579Z" fill="#EB8F44" mask="url(#path-10-outside-5_1400_3408)"/>
<path d="M10.1626 17.3019L9.45292 17.1418L9.45679 17.1246L9.4615 17.1076L10.1626 17.3019ZM10 18.5187L9.2725 18.519L9.2725 18.5042L9.27309 18.4894L10 18.5187ZM10.0003 19.4257L9.27379 19.4627L9.27285 19.4443L9.27285 19.426L10.0003 19.4257ZM18.6283 28.2601L18.6785 27.5344L18.6792 27.5344L18.6283 28.2601ZM22.7579 27.5153L23.0463 28.1832L23.045 28.1838L22.7579 27.5153ZM23.3995 29.5801L24.127 29.5801L24.127 29.5813L23.3995 29.5801ZM23.4142 35.2067L24.1417 35.1989L24.1417 35.1989L23.4142 35.2067ZM23.4363 37.2642L22.8603 37.7085L22.7115 37.5156L22.7089 37.272L23.4363 37.2642ZM23.6354 37.5223L24.2115 37.0779L24.2136 37.0806L23.6354 37.5223ZM37.0125 38.0237L37.3495 38.6684L37.1911 38.7512H37.0125V38.0237ZM37.3369 37.8541L36.9999 37.2094L37.0097 37.2043L37.0196 37.1995L37.3369 37.8541ZM37.8384 37.36L38.4891 37.6854L38.4851 37.6932L37.8384 37.36ZM38.0006 37.0356H38.7281V37.2073L38.6513 37.3609L38.0006 37.0356ZM32.6985 19.7354L32.7045 19.0079L32.7166 19.0082L32.6985 19.7354ZM28.2297 19.6986L28.2237 20.426L27.5087 20.4201L27.5022 19.7052L28.2297 19.6986ZM28.2223 18.8874L28.9497 18.8781L28.9498 18.8808L28.2223 18.8874ZM19.6164 10.0308L19.5664 10.7566L19.5655 10.7565L19.6164 10.0308ZM15.82 10.5609L15.5316 9.89303L15.5329 9.89244L15.82 10.5609ZM14.8674 11.0337L14.5598 10.3745L14.706 10.3062H14.8674V11.0337ZM13.4556 12.0159L12.9615 11.482L12.9831 11.462L13.0063 11.4438L13.4556 12.0159ZM12.7878 12.634L12.2627 12.1305L12.2777 12.1148L12.2937 12.1L12.7878 12.634ZM10.3322 16.6898L9.63111 16.4956L9.63133 16.4948L10.3322 16.6898ZM36.1941 19.8226L36.2122 19.0953L36.1941 19.8226ZM10.8722 17.462C10.7698 17.916 10.745 18.0979 10.7269 18.548L9.27309 18.4894C9.29494 17.9468 9.3321 17.6773 9.45292 17.1418L10.8722 17.462ZM10.7275 18.5184L10.7278 19.4254L9.27285 19.426L9.2725 18.519L10.7275 18.5184ZM10.7269 19.3887C10.8436 21.6806 11.6585 23.5431 13.1916 25.0762L12.1628 26.1051C10.3627 24.305 9.40786 22.0969 9.27379 19.4627L10.7269 19.3887ZM13.1916 25.0762C14.6713 26.5558 16.5032 27.3839 18.6785 27.5344L18.5781 28.9859C16.0633 28.8119 13.8984 27.8406 12.1628 26.1051L13.1916 25.0762ZM18.6792 27.5344C19.8136 27.614 21.3131 27.344 22.4709 26.8469L23.045 28.1838C21.6954 28.7633 19.965 29.0832 18.5774 28.9858L18.6792 27.5344ZM22.4695 26.8474C22.633 26.7768 22.787 26.7111 22.9032 26.6625C22.9607 26.6385 23.0121 26.6173 23.0518 26.6016C23.0708 26.594 23.0926 26.5856 23.1131 26.5782C23.1225 26.5748 23.1393 26.5688 23.159 26.5628C23.1685 26.5599 23.1867 26.5545 23.2095 26.5492C23.2161 26.5476 23.2869 26.5297 23.3773 26.5297V27.9847C23.431 27.9847 23.4727 27.9787 23.4909 27.9757C23.5128 27.9723 23.5303 27.9684 23.5409 27.9659C23.5618 27.9611 23.5775 27.9563 23.584 27.9544C23.5919 27.952 23.5977 27.95 23.6006 27.949C23.6037 27.948 23.6058 27.9472 23.6065 27.9469C23.6076 27.9466 23.6025 27.9484 23.5881 27.9541C23.561 27.9649 23.5193 27.982 23.4644 28.0049C23.3556 28.0504 23.2073 28.1137 23.0463 28.1832L22.4695 26.8474ZM23.3773 26.5297C23.668 26.5297 23.8493 26.6937 23.9192 26.7716C23.9915 26.8522 24.0282 26.9298 24.0423 26.9614C24.073 27.03 24.0857 27.088 24.0891 27.1033C24.0984 27.1454 24.1022 27.1806 24.1033 27.191C24.1064 27.22 24.1081 27.2484 24.1091 27.2671C24.1112 27.3088 24.1129 27.3631 24.1143 27.4237C24.1172 27.5473 24.1196 27.7223 24.1214 27.9339C24.1251 28.3582 24.127 28.9413 24.127 29.5801H22.672C22.672 28.9432 22.6701 28.3649 22.6665 27.9466C22.6646 27.7369 22.6624 27.5705 22.6597 27.4578C22.6584 27.4003 22.6571 27.3628 22.656 27.3424C22.6554 27.3299 22.6553 27.3346 22.6568 27.3476C22.657 27.35 22.6599 27.3791 22.6684 27.4173C22.6713 27.4305 22.6836 27.487 22.7137 27.5545C22.7276 27.5856 22.7641 27.6629 22.8362 27.7432C22.9058 27.8209 23.087 27.9847 23.3773 27.9847V26.5297ZM24.127 29.5813L24.1211 33.2964L22.6661 33.2941L22.672 29.579L24.127 29.5813ZM24.1196 33.1488L24.1417 35.1989L22.6868 35.2146L22.6646 33.1645L24.1196 33.1488ZM24.1417 35.1989L24.1638 37.2563L22.7089 37.272L22.6868 35.2146L24.1417 35.1989ZM24.0124 36.8198L24.2115 37.0779L23.0594 37.9666L22.8603 37.7085L24.0124 36.8198ZM24.2136 37.0806C24.3942 37.3171 24.3145 37.2142 24.2708 37.1898C24.2433 37.1744 24.3007 37.2168 24.7168 37.2464C25.5115 37.303 27.1293 37.2962 30.6779 37.2962V38.7512C27.1768 38.7512 25.4761 38.7592 24.6134 38.6978C24.2008 38.6684 23.8447 38.6187 23.5603 38.4595C23.2596 38.2912 23.0795 37.9929 23.0573 37.9639L24.2136 37.0806ZM30.6779 37.2962H37.0125V38.7512H30.6779V37.2962ZM36.6755 37.379L36.9999 37.2094L37.674 38.4988L37.3495 38.6684L36.6755 37.379ZM37.0196 37.1995C37.0897 37.1655 37.112 37.1451 37.1205 37.1367C37.1298 37.1275 37.1526 37.1028 37.1917 37.0269L38.4851 37.6932C38.3989 37.8606 38.2925 38.024 38.1433 38.1715C37.9933 38.3198 37.8275 38.4248 37.6543 38.5087L37.0196 37.1995ZM37.1877 37.0347L37.3499 36.7102L38.6513 37.3609L38.4891 37.6854L37.1877 37.0347ZM37.2731 37.0356V28.8869H38.7281V37.0356H37.2731ZM37.2731 28.8869C37.2731 24.8928 37.2731 22.8628 37.2548 21.7933C37.2455 21.2522 37.2318 20.9867 37.2156 20.8445C37.208 20.7779 37.2022 20.7609 37.2039 20.7669C37.2081 20.7809 37.2145 20.7923 37.2058 20.7753L38.5005 20.1114C38.6678 20.4376 38.6921 20.7477 38.7096 21.7684C38.7282 22.8541 38.7281 24.9021 38.7281 28.8869H37.2731ZM36.1759 20.5499L32.6804 20.4627L32.7166 19.0082L36.2122 19.0953L36.1759 20.5499ZM32.6925 20.4629L28.2237 20.426L28.2357 18.9711L32.7045 19.008L32.6925 20.4629ZM27.5022 19.7052L27.4948 18.894L28.9498 18.8808L28.9571 19.6919L27.5022 19.7052ZM27.4949 18.8967C27.4679 16.7914 26.6045 14.7661 25.0605 13.2221L26.0893 12.1933C27.8933 13.9973 28.9177 16.3818 28.9497 18.8781L27.4949 18.8967ZM25.0605 13.2221C23.5658 11.7275 21.7485 10.9071 19.5664 10.7566L19.6665 9.30506C22.1892 9.47903 24.3393 10.4433 26.0893 12.1933L25.0605 13.2221ZM19.5655 10.7565C18.3674 10.6725 17.2144 10.7539 16.107 11.2294L15.5329 9.89244C16.9328 9.29131 18.3434 9.21221 19.6674 9.30512L19.5655 10.7565ZM16.1084 11.2288C15.9721 11.2876 15.7588 11.3947 15.5603 11.4968C15.4618 11.5475 15.3799 11.5902 15.3106 11.626C15.2783 11.6427 15.2476 11.6584 15.2236 11.6704C15.2124 11.676 15.1966 11.6837 15.1805 11.6911C15.1735 11.6943 15.1576 11.7016 15.138 11.7093C15.1289 11.7129 15.1089 11.7206 15.0833 11.7286C15.0829 11.7287 14.9886 11.7612 14.8674 11.7612V10.3062C14.7932 10.3062 14.7362 10.3179 14.715 10.3224C14.6877 10.3283 14.6661 10.3346 14.6538 10.3384C14.6291 10.346 14.6105 10.3533 14.603 10.3562C14.5866 10.3627 14.575 10.3681 14.5734 10.3688C14.5681 10.3713 14.5673 10.3718 14.5749 10.368C14.5885 10.3612 14.6107 10.3499 14.6431 10.3331C14.703 10.3022 14.7976 10.2529 14.8948 10.2029C15.0878 10.1037 15.3434 9.9743 15.5316 9.89303L16.1084 11.2288ZM13.9498 12.5498L13.282 13.1679L12.2937 12.1L12.9615 11.482L13.9498 12.5498ZM13.313 13.1374C12.2165 14.2813 11.4264 15.4715 11.0331 16.8849L9.63133 16.4948C10.1081 14.7815 11.0572 13.3881 12.2627 12.1305L13.313 13.1374ZM11.0333 16.8841L10.8637 17.4962L9.4615 17.1076L9.63111 16.4956L11.0333 16.8841ZM15.175 11.693C14.7816 11.8765 14.3971 12.2016 13.9049 12.5881L13.0063 11.4438C13.4153 11.1226 13.9723 10.6486 14.5598 10.3745L15.175 11.693ZM37.1968 20.7572C37.1931 20.7494 37.1665 20.6888 36.9613 20.6322C36.752 20.5746 36.4851 20.5576 36.1759 20.5499L36.2122 19.0953C36.5173 19.1029 36.9474 19.1192 37.3478 19.2295C37.7523 19.3409 38.2481 19.583 38.5094 20.1295L37.1968 20.7572ZM17.7213 11.4541L16.4736 10.7055L16.4914 10.6758L16.5106 10.647L17.7213 11.4541ZM17.1239 12.2874L15.952 11.425L15.9599 11.4144L17.1239 12.2874ZM16.1505 13.9245L14.843 13.2861L14.8491 13.2738L16.1505 13.9245ZM15.6933 14.861L17.0008 15.4993L16.6042 16.3118L15.7 16.316L15.6933 14.861ZM14.0857 14.8684L14.0924 16.3234H14.0857V14.8684ZM12.4781 14.8684V16.3234H9.75942L11.2675 14.0613L12.4781 14.8684ZM12.7141 14.5144L11.5035 13.7073L11.5099 13.6977L11.5165 13.6881L12.7141 14.5144ZM15.9809 11.8965L16.5602 13.2313L16.5478 13.2365L15.9809 11.8965ZM17.7802 11.3287L17.5354 9.89447L17.6569 9.87371H17.7802V11.3287ZM21.6665 11.6606L21.2121 13.0428L21.2064 13.0409L21.6665 11.6606ZM23.547 12.5971L22.7585 13.82L22.7511 13.8151L22.7437 13.8102L23.547 12.5971ZM25.5307 14.5144L26.7276 13.6871L26.7345 13.6972L26.7413 13.7073L25.5307 14.5144ZM25.7666 14.8684L26.9773 14.0613L28.4854 16.3234H25.7666V14.8684ZM24.159 14.8684L24.159 16.3234L24.1524 16.3234L24.159 14.8684ZM22.5514 14.861L22.5447 16.316L21.6406 16.3118L21.2439 15.4993L22.5514 14.861ZM22.0942 13.9245L23.3957 13.2737L23.4017 13.2862L22.0942 13.9245ZM21.1208 12.2874L22.2858 11.4157L22.2927 11.425L21.1208 12.2874ZM20.8775 11.4393L21.2107 10.023L21.2205 10.0253L21.2303 10.0278L20.8775 11.4393ZM19.8377 12.5823L21.0059 11.715L21.0124 11.7239L19.8377 12.5823ZM21.1872 14.8094L22.6407 14.7433L22.6422 14.7763V14.8094H21.1872ZM17.0576 14.8094H15.6026V14.7902L15.6031 14.7711L17.0576 14.8094ZM15.0812 16.9479L13.6568 16.6512L13.6585 16.6431L15.0812 16.9479ZM15.0812 21.3357L13.658 21.6379L13.6575 21.6354L15.0812 21.3357ZM15.2582 22.169L16.6815 21.8667L17.0547 23.6239H15.2582V22.169ZM11.8144 22.169V23.6239H10.8512L10.475 22.7372L11.8144 22.169ZM11.7112 21.9256L10.3717 22.4938L10.3631 22.4735L10.3551 22.453L11.7112 21.9256ZM11.4457 21.0628L12.8504 20.6832L12.8536 20.6955L11.4457 21.0628ZM11.4457 17.2282L12.8536 17.5954L12.8503 17.6078L11.4457 17.2282ZM11.7112 16.3654L10.3551 15.838L10.3631 15.8174L10.3717 15.7971L11.7112 16.3654ZM11.8144 16.122L10.475 15.5538L10.8512 14.667H11.8144V16.122ZM15.2582 16.122V14.667H17.058L16.6809 16.4269L15.2582 16.122ZM21.8066 16.5055L23.2047 16.1022L23.2077 16.1132L21.8066 16.5055ZM21.8066 21.7781L23.2069 22.1734L23.2066 22.1743L21.8066 21.7781ZM21.696 22.169L23.096 22.5652L22.7964 23.6239H21.696V22.169ZM16.5487 22.169V23.6239H15.4484L15.1487 22.5652L16.5487 22.169ZM16.4381 21.7781L15.0381 22.1743L15.0378 22.1734L16.4381 21.7781ZM16.4381 16.5055L15.037 16.1132L15.0401 16.1022L16.4381 16.5055ZM16.5487 16.122L15.1507 15.7187L15.4541 14.667H16.5487V16.122ZM21.696 16.122V14.667H22.7906L23.094 15.7187L21.696 16.122ZM26.5336 16.3654L27.873 15.7971L27.8816 15.8174L27.8896 15.838L26.5336 16.3654ZM26.799 17.2282L25.3944 17.6078L25.3912 17.5954L26.799 17.2282ZM26.799 21.0628L25.3911 20.6955L25.3944 20.6832L26.799 21.0628ZM26.5336 21.9256L27.8896 22.453L27.8816 22.4735L27.873 22.4938L26.5336 21.9256ZM26.4303 22.169L27.7698 22.7372L27.3936 23.6239H26.4303V22.169ZM22.9865 22.169V23.6239H21.19L21.5633 21.8667L22.9865 22.169ZM23.1635 21.3357L24.5873 21.6354L24.5867 21.6379L23.1635 21.3357ZM23.1635 16.9479L24.5862 16.6431L24.5879 16.6512L23.1635 16.9479ZM22.9865 16.122L21.5638 16.4269L21.1867 14.667H22.9865V16.122ZM26.4303 16.122V14.667H27.3936L27.7698 15.5538L26.4303 16.122ZM36.747 36.7701H38.202V38.2251H36.747V36.7701ZM24.5794 36.7701V38.2251H23.1244V36.7701H24.5794ZM24.5794 33.1567H23.1244V31.7017H24.5794V33.1567ZM29.8963 33.8572L28.9937 32.716L28.999 32.7118L29.8963 33.8572ZM29.0851 34.4988L27.9472 35.4056L27.0371 34.2635L28.1825 33.3576L29.0851 34.4988ZM29.4612 34.9708L28.325 35.8797L28.3233 35.8775L29.4612 34.9708ZM29.9258 35.3837L29.0801 34.1997L29.14 34.1569L29.2039 34.1204L29.9258 35.3837ZM31.7546 33.9384L32.6641 35.074L32.6635 35.0745L31.7546 33.9384ZM33.4949 32.5446L34.4022 31.4071L35.8255 32.5423L34.4044 33.6803L33.4949 32.5446ZM31.6735 31.0919L30.7662 32.2294L30.764 32.2276L31.6735 31.0919ZM29.8594 29.6391L28.7232 28.7302L29.6326 27.5935L30.7689 28.5034L29.8594 29.6391ZM29.5054 30.0816L28.3625 29.1811L28.3693 29.1727L29.5054 30.0816ZM24.5794 31.8809L24.5583 33.3358L23.1244 33.315V31.8809H24.5794ZM24.5794 29.204H23.1244V29.163L23.1267 29.1221L24.5794 29.204ZM24.7121 26.8516L23.2594 26.7697L23.2929 26.1771L23.7312 25.777L24.7121 26.8516ZM25.6412 26.0036L26.6451 27.0568L26.6337 27.0676L26.6221 27.0782L25.6412 26.0036ZM28.0822 21.7781L29.5124 22.0454L29.4998 22.1128L29.4809 22.1787L28.0822 21.7781ZM28.2297 20.9891L26.7994 20.7217L27.0214 19.5341H28.2297V20.9891ZM36.747 20.9891V19.5341H38.202V20.9891H36.747ZM16.1505 24.3665L14.8491 25.0172L14.843 25.0048L16.1505 24.3665ZM17.1239 26.0036L15.9589 26.8753L15.952 26.8659L17.1239 26.0036ZM17.3673 26.8516L17.6976 25.4346L17.7005 25.4353L17.3673 26.8516ZM14.7863 25.7381L15.5751 24.5155L15.5767 24.5165L14.7863 25.7381ZM12.7141 23.7692L13.9168 22.9503L13.9224 22.9586L12.7141 23.7692ZM12.4781 23.4226L11.2754 24.2414L9.72726 21.9676H12.4781V23.4226ZM14.0857 23.4226L14.0857 21.9676L14.0924 21.9676L14.0857 23.4226ZM15.6933 23.43L15.7 21.975L16.6042 21.9791L17.0008 22.7916L15.6933 23.43ZM21.1872 23.4742H22.6422V23.4929L22.6417 23.5115L21.1872 23.4742ZM17.0576 23.4742L15.603 23.5115L15.6026 23.4929V23.4742H17.0576ZM25.5307 23.7692L24.3224 22.9585L24.328 22.9503L25.5307 23.7692ZM23.4585 25.7381L22.668 24.5165L22.6697 24.5155L23.4585 25.7381ZM20.8775 26.8516L20.5442 25.4353L20.5472 25.4346L20.8775 26.8516ZM21.1134 26.0036L19.9414 25.1413L19.9494 25.1306L21.1134 26.0036ZM22.0942 24.3665L23.4018 25.0048L23.3956 25.0172L22.0942 24.3665ZM22.5514 23.43L21.2439 22.7916L21.6426 21.975H22.5514V23.43ZM24.159 23.43L24.1657 24.885H24.159V23.43ZM25.7666 23.4226L25.76 21.9676L28.5262 21.9549L26.9693 24.2415L25.7666 23.4226ZM26.1096 31.903V33.358H26.099L26.0885 33.3579L26.1096 31.903ZM18.9689 12.2027C18.8787 12.353 18.5646 12.7915 18.2879 13.1604L15.9599 11.4144C16.0963 11.2326 16.2277 11.052 16.3294 10.9096C16.3803 10.8382 16.422 10.7789 16.452 10.7353C16.4917 10.6777 16.4902 10.6779 16.4736 10.7055L18.9689 12.2027ZM18.2958 13.1497C18.0727 13.4529 17.6867 14.1055 17.4519 14.5752L14.8491 13.2738C15.1305 12.711 15.5999 11.9035 15.952 11.425L18.2958 13.1497ZM17.458 14.5628L17.0008 15.4993L14.3858 14.2227L14.843 13.2862L17.458 14.5628ZM15.7 16.316L14.0924 16.3234L14.079 13.4134L15.6866 13.406L15.7 16.316ZM14.0857 16.3234H12.4781V13.4134H14.0857V16.3234ZM11.2675 14.0613L11.5035 13.7073L13.9247 15.3215L13.6887 15.6755L11.2675 14.0613ZM11.5165 13.6881C11.9517 13.0573 12.5948 12.4241 13.2509 11.897C13.9102 11.3673 14.6784 10.8677 15.414 10.5565L16.5478 13.2365C16.133 13.4121 15.596 13.7458 15.0735 14.1655C14.5479 14.5878 14.1328 15.0202 13.9117 15.3407L11.5165 13.6881ZM15.4017 10.5618C15.6732 10.444 16.1113 10.2956 16.477 10.1805C16.8228 10.0716 17.2699 9.93979 17.5354 9.89447L18.0251 12.763C18.0304 12.7621 17.9684 12.7748 17.8167 12.8171C17.6834 12.8542 17.5205 12.9028 17.3506 12.9563C16.9898 13.0698 16.6795 13.1795 16.5601 13.2313L15.4017 10.5618ZM17.7802 9.87371C18.035 9.87371 18.3188 9.94146 18.5795 10.1127C18.8315 10.2781 18.9847 10.4892 19.0732 10.6601C19.2303 10.9633 19.2359 11.2371 19.2366 11.3193C19.2383 11.5202 19.1965 11.6749 19.1875 11.7092C19.158 11.8211 19.1209 11.9093 19.1019 11.9525C19.0564 12.0559 18.9987 12.161 18.9319 12.2612L16.5106 10.647C16.4881 10.6808 16.4635 10.7232 16.4383 10.7805C16.4294 10.8007 16.3992 10.8699 16.3733 10.9687C16.3659 10.9965 16.3251 11.146 16.3267 11.3434C16.3274 11.4239 16.3327 11.6964 16.4894 11.9987C16.5777 12.1692 16.7306 12.3799 16.9822 12.5451C17.2426 12.7161 17.5259 12.7837 17.7802 12.7837V9.87371ZM22.1209 10.2783C22.8027 10.5025 23.7155 10.9636 24.3503 11.3839L22.7437 13.8102C22.287 13.5079 21.607 13.1726 21.2121 13.0428L22.1209 10.2783ZM24.3354 11.3742C24.7417 11.6362 25.2353 12.0735 25.6326 12.4594C26.0288 12.8441 26.4698 13.3142 26.7276 13.6871L24.3337 15.3417C24.2449 15.2132 23.9743 14.9053 23.6054 14.547C23.2377 14.19 22.9127 13.9193 22.7585 13.82L24.3354 11.3742ZM26.7413 13.7073L26.9773 14.0613L24.556 15.6755L24.32 15.3215L26.7413 13.7073ZM25.7666 16.3234H24.159V13.4134H25.7666V16.3234ZM24.1524 16.3234L22.5447 16.316L22.5581 13.406L24.1657 13.4134L24.1524 16.3234ZM21.2439 15.4993L20.7867 14.5628L23.4017 13.2862L23.8589 14.2227L21.2439 15.4993ZM20.7928 14.5752C20.558 14.1055 20.172 13.4529 19.9489 13.1497L22.2927 11.425C22.6448 11.9035 23.1142 12.711 23.3956 13.2738L20.7928 14.5752ZM19.9558 13.159C19.7731 12.9149 19.6154 12.7061 19.5057 12.553C19.4505 12.4758 19.3891 12.3875 19.3347 12.2988C19.2972 12.2378 19.1875 12.0592 19.1225 11.8275C19.0888 11.7073 19.0336 11.4596 19.0873 11.153C19.1506 10.7919 19.3508 10.4415 19.6853 10.2022C19.972 9.99706 20.2559 9.94674 20.3973 9.9311C20.5491 9.91431 20.6742 9.92342 20.7419 9.93025C20.9287 9.94906 21.1955 10.0194 21.2107 10.023L20.5442 12.8556C20.4319 12.8292 20.4499 12.8325 20.3843 12.8174C20.3374 12.8065 20.3789 12.8184 20.4502 12.8256C20.4877 12.8294 20.5868 12.8379 20.7172 12.8235C20.8371 12.8102 21.1041 12.7652 21.3785 12.5689C21.7006 12.3384 21.8932 12.0002 21.9536 11.6554C22.0045 11.365 21.9512 11.1374 21.9245 11.0419C21.8942 10.9342 21.8581 10.8587 21.8438 10.8301C21.8271 10.7966 21.8149 10.7769 21.8145 10.7761C21.8131 10.774 21.8165 10.7795 21.8272 10.7952C21.8375 10.8104 21.8519 10.8311 21.8717 10.8587C21.9579 10.9791 22.085 11.1473 22.2858 11.4157L19.9558 13.159ZM21.2303 10.0278C21.4744 10.0888 21.8726 10.1956 22.1266 10.2802L21.2064 13.0409C21.0622 12.9928 20.7524 12.9078 20.5246 12.8509L21.2303 10.0278ZM21.0124 11.7239C21.3249 12.1515 21.6841 12.7054 21.9649 13.1698C22.1058 13.4028 22.2367 13.6294 22.3371 13.8185C22.3862 13.911 22.4378 14.0128 22.4812 14.1111C22.5025 14.1594 22.5304 14.226 22.5558 14.3016C22.571 14.3466 22.6306 14.5207 22.6407 14.7433L19.7337 14.8755C19.7429 15.0778 19.7955 15.2227 19.7981 15.2305C19.8052 15.2518 19.8111 15.2669 19.8141 15.2743C19.8157 15.2783 19.8169 15.2813 19.8177 15.2832C19.8185 15.285 19.8189 15.286 19.8189 15.286C19.8189 15.2861 19.8187 15.2854 19.818 15.284C19.8174 15.2826 19.8164 15.2806 19.8152 15.2779C19.8127 15.2726 19.8092 15.2653 19.8046 15.2561C19.7952 15.2373 19.7828 15.213 19.7669 15.1831C19.7012 15.0593 19.6003 14.8831 19.4747 14.6754C19.2227 14.2586 18.9109 13.7801 18.6629 13.4408L21.0124 11.7239ZM22.6422 14.8094C22.6422 15.621 22.0294 16.0004 21.957 16.0458C21.7961 16.1466 21.6525 16.1919 21.6058 16.2063C21.4912 16.2417 21.3932 16.2566 21.3604 16.2615C21.2739 16.2744 21.1865 16.2814 21.1247 16.2857C20.9889 16.2951 20.813 16.3019 20.62 16.3072C20.2278 16.3178 19.6973 16.3234 19.1224 16.3234V13.4134C19.6831 13.4134 20.185 13.4079 20.5412 13.3982C20.7226 13.3933 20.8499 13.3877 20.9238 13.3826C20.9668 13.3797 20.9609 13.3789 20.9297 13.3835C20.9245 13.3843 20.8475 13.3949 20.7471 13.4259C20.7075 13.4381 20.5692 13.4813 20.412 13.5798C20.3318 13.6301 20.1847 13.7326 20.0463 13.9073C19.8984 14.0938 19.7322 14.4024 19.7322 14.8094H22.6422ZM19.1224 16.3234C18.5474 16.3234 18.0169 16.3178 17.6247 16.3072C17.4318 16.3019 17.2558 16.2951 17.12 16.2857C17.0582 16.2814 16.9709 16.2744 16.8844 16.2615C16.8515 16.2566 16.7535 16.2417 16.6389 16.2063C16.5922 16.1919 16.4486 16.1466 16.2878 16.0458C16.2153 16.0004 15.6026 15.621 15.6026 14.8094H18.5126C18.5126 14.4024 18.3464 14.0938 18.1985 13.9073C18.06 13.7326 17.913 13.6301 17.8328 13.5798C17.6755 13.4813 17.5372 13.4381 17.4976 13.4259C17.3972 13.3949 17.3203 13.3843 17.315 13.3835C17.2838 13.3789 17.2779 13.3797 17.321 13.3826C17.3948 13.3877 17.5222 13.3933 17.7035 13.3982C18.0597 13.4079 18.5617 13.4134 19.1224 13.4134V16.3234ZM15.6031 14.7711C15.6109 14.4738 15.7104 14.2351 15.7254 14.1971C15.7622 14.1031 15.8044 14.0145 15.8402 13.9429C15.9137 13.7966 16.0068 13.6311 16.1036 13.4667C16.3001 13.133 16.5554 12.73 16.8107 12.3447C17.0655 11.9601 17.3336 11.5729 17.5575 11.2733C17.6665 11.1274 17.7825 10.9787 17.8905 10.8564C17.941 10.7993 18.0187 10.7146 18.1123 10.633C18.1573 10.5937 18.2403 10.5247 18.3521 10.4577C18.4215 10.4161 18.7106 10.2424 19.1224 10.2424V13.1524C19.5226 13.1524 19.7969 12.9843 19.8484 12.9535C19.9423 12.8972 20.0043 12.8441 20.0255 12.8256C20.0714 12.7856 20.09 12.762 20.0715 12.7829C20.0418 12.8165 19.9812 12.8913 19.8886 13.0152C19.7091 13.2553 19.474 13.5936 19.2365 13.9519C18.9996 14.3096 18.7737 14.6671 18.6112 14.9432C18.5285 15.0836 18.4726 15.1854 18.4414 15.2475C18.425 15.2802 18.426 15.2811 18.4345 15.2594C18.4388 15.2485 18.4518 15.2146 18.4657 15.1647C18.4758 15.1282 18.5078 15.0094 18.5121 14.8477L15.6031 14.7711ZM19.1224 10.2424C19.4217 10.2424 19.6426 10.3349 19.7281 10.3737C19.833 10.4213 19.9111 10.4718 19.9542 10.5012C20.0406 10.5604 20.1039 10.6171 20.1325 10.6433C20.1956 10.7013 20.2482 10.7583 20.279 10.7924C20.3471 10.8679 20.4217 10.9579 20.492 11.0453C20.6371 11.2256 20.8189 11.4631 21.0059 11.715L18.6694 13.4497C18.4951 13.2148 18.3377 13.0099 18.2247 12.8695C18.166 12.7965 18.1318 12.7565 18.1188 12.7421C18.109 12.7313 18.1279 12.7534 18.1653 12.7876C18.1809 12.802 18.2333 12.8497 18.3109 12.9028C18.3495 12.9292 18.4237 12.9774 18.5252 13.0234C18.5777 13.0473 18.6516 13.0771 18.7432 13.1019C18.833 13.1263 18.9634 13.1524 19.1224 13.1524V10.2424ZM16.5057 17.2447C16.3861 17.8186 16.3593 18.0417 16.3593 19.1455H13.4493C13.4493 17.9337 13.4814 17.4931 13.6568 16.6512L16.5057 17.2447ZM16.3593 19.1455C16.3593 20.2501 16.3862 20.4716 16.505 21.0359L13.6575 21.6354C13.4813 20.7986 13.4493 20.3564 13.4493 19.1455H16.3593ZM16.5045 21.0334L16.6815 21.8667L13.835 22.4712L13.658 21.6379L16.5045 21.0334ZM15.2582 23.6239H13.5326V20.714H15.2582V23.6239ZM13.5326 23.6239H11.8144V20.714H13.5326V23.6239ZM10.475 22.7372L10.3717 22.4938L13.0506 21.3573L13.1539 21.6007L10.475 22.7372ZM10.3551 22.453C10.2762 22.2501 10.1347 21.8014 10.0378 21.4301L12.8536 20.6955C12.8907 20.8379 12.9375 20.9979 12.9813 21.1386C13.003 21.2082 13.023 21.2696 13.0394 21.3184C13.0476 21.3428 13.0544 21.3625 13.0597 21.3775C13.0654 21.3934 13.0678 21.3995 13.0673 21.3982L10.3551 22.453ZM10.0411 21.4424C9.84141 20.7035 9.8211 20.2867 9.8211 19.1455H12.7311C12.7311 19.7096 12.7375 19.9906 12.755 20.1893C12.7692 20.3503 12.7909 20.4633 12.8503 20.6832L10.0411 21.4424ZM9.8211 19.1455C9.8211 18.0043 9.84141 17.5874 10.0411 16.8485L12.8503 17.6078C12.7909 17.8277 12.7692 17.9407 12.755 18.1016C12.7375 18.3003 12.7311 18.5813 12.7311 19.1455H9.8211ZM10.0378 16.8609C10.1347 16.4896 10.2762 16.0408 10.3551 15.838L13.0673 16.8927C13.0678 16.8914 13.0654 16.8976 13.0597 16.9135C13.0544 16.9285 13.0476 16.9482 13.0394 16.9725C13.023 17.0213 13.003 17.0828 12.9813 17.1524C12.9375 17.2931 12.8907 17.4531 12.8536 17.5954L10.0378 16.8609ZM10.3717 15.7971L10.475 15.5538L13.1539 16.6903L13.0506 16.9336L10.3717 15.7971ZM11.8144 14.667H13.5326V17.577H11.8144V14.667ZM13.5326 14.667H15.2582V17.577H13.5326V14.667ZM16.6809 16.4269L16.5039 17.2528L13.6585 16.6431L13.8355 15.8172L16.6809 16.4269ZM23.2077 16.1132C23.5124 17.2014 23.564 17.7255 23.564 19.1455H20.654C20.654 17.896 20.617 17.6531 20.4055 16.8978L23.2077 16.1132ZM23.564 19.1455C23.564 20.5648 23.5126 21.0904 23.2069 22.1734L20.4063 21.3829C20.6169 20.637 20.654 20.3957 20.654 19.1455H23.564ZM23.2066 22.1743L23.096 22.5652L20.296 21.7727L20.4066 21.3819L23.2066 22.1743ZM21.696 23.6239H19.1224V20.714H21.696V23.6239ZM19.1224 23.6239H16.5487V20.714H19.1224V23.6239ZM15.1487 22.5652L15.0381 22.1743L17.8381 21.3819L17.9487 21.7727L15.1487 22.5652ZM15.0378 22.1734C14.7321 21.0904 14.6808 20.5648 14.6808 19.1455H17.5908C17.5908 20.3957 17.6279 20.637 17.8384 21.3829L15.0378 22.1734ZM14.6808 19.1455C14.6808 17.7255 14.7323 17.2014 15.037 16.1132L17.8392 16.8978C17.6277 17.6531 17.5908 17.896 17.5908 19.1455H14.6808ZM15.0401 16.1022L15.1507 15.7187L17.9467 16.5253L17.8361 16.9087L15.0401 16.1022ZM16.5487 14.667H19.1224V17.577H16.5487V14.667ZM19.1224 14.667H21.696V17.577H19.1224V14.667ZM23.094 15.7187L23.2046 16.1022L20.4086 16.9087L20.298 16.5253L23.094 15.7187ZM27.8896 15.838C27.9685 16.0408 28.1101 16.4896 28.2069 16.8609L25.3912 17.5954C25.354 17.4531 25.3073 17.2931 25.2634 17.1524C25.2417 17.0828 25.2218 17.0213 25.2054 16.9725C25.1972 16.9482 25.1904 16.9285 25.185 16.9135C25.1794 16.8976 25.177 16.8914 25.1775 16.8927L27.8896 15.838ZM28.2037 16.8485C28.4033 17.5874 28.4237 18.0043 28.4237 19.1455H25.5137C25.5137 18.5813 25.5073 18.3003 25.4898 18.1016C25.4756 17.9407 25.4539 17.8277 25.3944 17.6078L28.2037 16.8485ZM28.4237 19.1455C28.4237 20.2867 28.4033 20.7035 28.2037 21.4424L25.3944 20.6832C25.4539 20.4633 25.4756 20.3503 25.4898 20.1893C25.5073 19.9906 25.5137 19.7096 25.5137 19.1455H28.4237ZM28.2069 21.4301C28.1101 21.8014 27.9685 22.2501 27.8896 22.453L25.1775 21.3982C25.177 21.3995 25.1794 21.3934 25.185 21.3775C25.1904 21.3625 25.1972 21.3428 25.2054 21.3185C25.2218 21.2696 25.2417 21.2082 25.2634 21.1386C25.3073 20.9979 25.354 20.8379 25.3912 20.6955L28.2069 21.4301ZM27.873 22.4938L27.7698 22.7372L25.0909 21.6007L25.1941 21.3574L27.873 22.4938ZM26.4303 23.6239H24.7121V20.714H26.4303V23.6239ZM24.7121 23.6239H22.9865V20.714H24.7121V23.6239ZM21.5633 21.8667L21.7402 21.0334L24.5867 21.6379L24.4098 22.4712L21.5633 21.8667ZM21.7397 21.0359C21.8585 20.4716 21.8855 20.2501 21.8855 19.1455H24.7955C24.7955 20.3564 24.7634 20.7986 24.5873 21.6354L21.7397 21.0359ZM21.8855 19.1455C21.8855 18.0417 21.8586 17.8186 21.7391 17.2447L24.5879 16.6512C24.7633 17.4931 24.7955 17.9337 24.7955 19.1455H21.8855ZM21.7408 17.2528L21.5638 16.4269L24.4092 15.8171L24.5862 16.6431L21.7408 17.2528ZM22.9865 14.667H24.7121V17.577H22.9865V14.667ZM24.7121 14.667H26.4303V17.577H24.7121V14.667ZM27.7698 15.5538L27.873 15.7971L25.1941 16.9336L25.0909 16.6903L27.7698 15.5538ZM38.202 28.8796V36.7701H35.292V28.8796H38.202ZM36.747 38.2251H30.6632V35.3151H36.747V38.2251ZM30.6632 38.2251H24.5794V35.3151H30.6632V38.2251ZM23.1244 36.7701V34.9634H26.0344V36.7701H23.1244ZM23.1244 34.9634V33.1567H26.0344V34.9634H23.1244ZM24.5794 31.7017H27.6397V34.6117H24.5794V31.7017ZM27.6397 31.7017C28.4841 31.7017 29.2541 31.7054 29.8149 31.711C30.0944 31.7138 30.3263 31.7171 30.4906 31.7207C30.5711 31.7225 30.6444 31.7246 30.7019 31.7271C30.7272 31.7282 30.7681 31.7302 30.8108 31.7339C30.8256 31.7352 30.8792 31.7399 30.9442 31.7511C30.966 31.7549 31.0593 31.7707 31.1727 31.8097C31.2197 31.8259 31.3637 31.8767 31.5233 31.9863C31.6202 32.0528 32.1551 32.4326 32.1551 33.1862H29.2451C29.2451 33.9395 29.7797 34.319 29.8763 34.3853C30.0356 34.4947 30.1791 34.5453 30.2254 34.5612C30.3374 34.5998 30.4287 34.6152 30.4479 34.6185C30.5076 34.6288 30.5532 34.6325 30.5575 34.6329C30.5792 34.6348 30.5888 34.6349 30.5732 34.6342C30.5486 34.6332 30.5011 34.6317 30.426 34.63C30.2793 34.6267 30.0613 34.6236 29.7859 34.6208C29.2369 34.6153 28.4767 34.6117 27.6397 34.6117V31.7017ZM32.1551 33.1862C32.1551 33.5897 31.9835 33.8736 31.9652 33.9059C31.9141 33.9961 31.8642 34.0616 31.841 34.0911C31.7914 34.1545 31.746 34.2017 31.7273 34.2209C31.6836 34.266 31.6402 34.3058 31.6124 34.331C31.5509 34.3866 31.4751 34.4513 31.3969 34.5166C31.2368 34.6504 31.0235 34.8225 30.7935 35.0027L28.999 32.7118C29.2115 32.5454 29.4001 32.393 29.5312 32.2834C29.5987 32.2271 29.6409 32.1904 29.661 32.1723C29.6739 32.1606 29.6623 32.1704 29.64 32.1934C29.6321 32.2015 29.5949 32.2397 29.5507 32.296C29.5303 32.322 29.4825 32.3845 29.4328 32.4722C29.4076 32.5169 29.3683 32.5917 29.3326 32.6896C29.3005 32.7779 29.2451 32.955 29.2451 33.1862H32.1551ZM30.7988 34.9984L29.9877 35.64L28.1825 33.3576L28.9937 32.716L30.7988 34.9984ZM30.223 33.592L30.5991 34.064L28.3233 35.8775L27.9472 35.4056L30.223 33.592ZM30.5973 34.0618C30.6916 34.1796 30.7357 34.2199 30.7269 34.2121C30.7216 34.2074 30.7046 34.1926 30.6771 34.1725C30.6522 34.1543 30.5991 34.1172 30.5218 34.0781C30.4551 34.0443 30.2995 33.9722 30.0814 33.9449C29.85 33.916 29.4572 33.9303 29.0801 34.1997L30.7715 36.5677C30.3814 36.8463 29.9717 36.8639 29.7199 36.8324C29.4814 36.8025 29.3016 36.7221 29.2074 36.6743C29.0165 36.5777 28.8736 36.4579 28.7983 36.3912C28.6291 36.2415 28.4667 36.0568 28.325 35.8797L30.5973 34.0618ZM29.2039 34.1204C29.1519 34.1501 29.1143 34.1762 29.111 34.1785C29.0997 34.1862 29.0924 34.1915 29.0912 34.1924C29.0885 34.1943 29.0914 34.1923 29.1025 34.1838C29.1238 34.1678 29.1576 34.1418 29.2053 34.1047C29.2995 34.0315 29.4329 33.9265 29.5973 33.7965C29.9253 33.537 30.3674 33.1848 30.8457 32.8022L32.6635 35.0745C32.1831 35.4588 31.7366 35.8146 31.4027 36.0787C31.2362 36.2104 31.0954 36.3212 30.9917 36.4019C30.9403 36.4418 30.8943 36.4773 30.8571 36.5054C30.8391 36.519 30.8181 36.5347 30.7973 36.5497C30.7871 36.5571 30.7721 36.5679 30.7547 36.5798C30.7452 36.5863 30.7028 36.6155 30.6476 36.647L29.2039 34.1204ZM30.8451 32.8027L32.5854 31.4089L34.4044 33.6803L32.6641 35.074L30.8451 32.8027ZM32.5877 33.6821L30.7662 32.2294L32.5807 29.9544L34.4022 31.4071L32.5877 33.6821ZM30.764 32.2276L28.9499 30.7748L30.7689 28.5034L32.583 29.9562L30.764 32.2276ZM30.9956 30.5481L30.6416 30.9905L28.3693 29.1727L28.7232 28.7302L30.9956 30.5481ZM30.6483 30.982C30.5595 31.0948 30.4846 31.1935 30.4364 31.2603C30.4104 31.2962 30.4037 31.3072 30.4083 31.2998C30.409 31.2988 30.4283 31.2688 30.4525 31.2217C30.4641 31.1993 30.4898 31.1479 30.516 31.0779C30.5294 31.0421 30.5488 30.9859 30.566 30.915C30.5817 30.8504 30.6065 30.7297 30.6065 30.5757H27.6965C27.6965 30.3028 27.7754 30.0986 27.7906 30.0579C27.8193 29.9814 27.8487 29.9219 27.8651 29.8902C27.8989 29.8244 27.9324 29.7704 27.9513 29.7407C27.9923 29.6759 28.0381 29.6108 28.0767 29.5574C28.1575 29.4454 28.2596 29.3118 28.3625 29.1811L30.6483 30.982ZM30.6065 30.5757C30.6065 30.4044 30.5761 30.2664 30.5509 30.1781C30.5248 30.0866 30.4942 30.0137 30.471 29.964C30.4261 29.8677 30.3801 29.7975 30.3564 29.7628C30.3079 29.6919 30.2649 29.6435 30.2526 29.6297C30.2224 29.596 30.2032 29.5786 30.2128 29.5877C30.2254 29.5996 30.2604 29.6313 30.3239 29.6856C30.4461 29.7901 30.6249 29.9368 30.8299 30.0994L29.0216 32.3793C28.7989 32.2027 28.5905 32.0323 28.4325 31.8971C28.3559 31.8316 28.2775 31.7628 28.2118 31.7005C28.1822 31.6725 28.1325 31.6246 28.0818 31.5677C28.0592 31.5424 28.0083 31.4844 27.9545 31.4057C27.9281 31.3671 27.8802 31.2936 27.8339 31.1944C27.8002 31.1221 27.6965 30.8916 27.6965 30.5757H30.6065ZM30.8299 30.0994C31.0496 30.2736 31.2516 30.4371 31.4019 30.5616C31.4756 30.6228 31.5442 30.6806 31.5983 30.728C31.623 30.7496 31.6586 30.7813 31.694 30.8153C31.7085 30.8293 31.7458 30.8655 31.7877 30.9131C31.806 30.9338 31.8528 30.9877 31.9036 31.0626C31.9284 31.0993 31.9748 31.1709 32.0198 31.268C32.0522 31.3378 32.1551 31.5666 32.1551 31.8809H29.2451C29.2451 32.0524 29.2754 32.1903 29.3004 32.2783C29.3263 32.3695 29.3567 32.4423 29.3798 32.492C29.4245 32.5884 29.4703 32.6592 29.4945 32.6949C29.5439 32.7678 29.5888 32.8192 29.6044 32.8369C29.641 32.8785 29.6705 32.9067 29.6747 32.9107C29.6894 32.9249 29.6947 32.929 29.6802 32.9164C29.6559 32.8951 29.6111 32.857 29.5447 32.802C29.4147 32.6942 29.2296 32.5443 29.0216 32.3793L30.8299 30.0994ZM32.1551 31.8809C32.1551 32.6325 31.6225 33.0121 31.527 33.0781C31.3684 33.1877 31.2254 33.2387 31.1787 33.255C31.0663 33.2942 30.9741 33.3102 30.9532 33.3139C30.8904 33.3251 30.8399 33.3295 30.829 33.3305C30.7943 33.3337 30.7651 33.3352 30.7551 33.3357C30.7283 33.337 30.6999 33.3378 30.6769 33.3385C30.6274 33.3398 30.5603 33.3411 30.481 33.3423C30.3204 33.3448 30.0916 33.3474 29.8125 33.3497C29.2534 33.3543 28.4843 33.358 27.6397 33.358V30.448C28.4765 30.448 29.2375 30.4444 29.7883 30.4398C30.0641 30.4375 30.2851 30.435 30.4357 30.4327C30.5119 30.4315 30.5657 30.4304 30.5982 30.4295C30.6161 30.429 30.619 30.4288 30.6132 30.4291C30.611 30.4292 30.6061 30.4295 30.5994 30.4299C30.5936 30.4303 30.5804 30.4311 30.5631 30.4327C30.5548 30.4335 30.5064 30.4377 30.4449 30.4486C30.4247 30.4522 30.3329 30.4681 30.2209 30.5072C30.1744 30.5234 30.0315 30.5744 29.873 30.6839C29.7775 30.7498 29.2451 31.1294 29.2451 31.8809H32.1551ZM23.1244 31.8809V29.204H26.0344V31.8809H23.1244ZM23.1267 29.1221L23.2594 26.7697L26.1648 26.9336L26.0321 29.286L23.1267 29.1221ZM23.7312 25.777L24.6603 24.9289L26.6221 27.0782L25.693 27.9263L23.7312 25.777ZM24.6373 24.9504C25.6612 23.9744 26.2979 22.7236 26.6834 21.3775L29.4809 22.1787C28.9963 23.8709 28.1432 25.6288 26.6451 27.0568L24.6373 24.9504ZM26.652 21.5108L26.7994 20.7217L29.6599 21.2564L29.5124 22.0454L26.652 21.5108ZM28.2297 19.5341H32.4183V22.4441H28.2297V19.5341ZM32.4183 19.5341H36.747V22.4441H32.4183V19.5341ZM38.202 20.9891V28.8796H35.292V20.9891H38.202ZM17.4519 23.7158C17.6867 24.1854 18.0727 24.838 18.2958 25.1412L15.952 26.8659C15.5999 26.3875 15.1305 25.58 14.8491 25.0172L17.4519 23.7158ZM18.2889 25.1319C18.4716 25.3761 18.6293 25.5849 18.739 25.738C18.7942 25.8151 18.8557 25.9035 18.9101 25.9921C18.9475 26.0531 19.0573 26.2317 19.1222 26.4635C19.1559 26.5836 19.2112 26.8314 19.1574 27.138C19.0941 27.4991 18.8939 27.8495 18.5595 28.0888C18.2727 28.2939 17.9889 28.3442 17.8475 28.3599C17.6957 28.3767 17.5706 28.3676 17.5028 28.3607C17.3161 28.3419 17.0492 28.2715 17.034 28.268L17.7005 25.4353C17.8129 25.4617 17.7948 25.4584 17.8604 25.4736C17.9073 25.4845 17.8658 25.4726 17.7945 25.4654C17.7571 25.4616 17.6579 25.4531 17.5276 25.4675C17.4076 25.4808 17.1407 25.5258 16.8663 25.7221C16.5441 25.9526 16.3516 26.2908 16.2911 26.6356C16.2402 26.926 16.2935 27.1535 16.3203 27.249C16.3505 27.3568 16.3866 27.4322 16.4009 27.4609C16.4176 27.4944 16.4298 27.5141 16.4303 27.5148C16.4316 27.517 16.4282 27.5115 16.4176 27.4958C16.4072 27.4805 16.3928 27.4598 16.373 27.4322C16.2868 27.3118 16.1597 27.1436 15.9589 26.8753L18.2889 25.1319ZM17.037 28.2687C15.8795 27.9989 15.0025 27.6111 13.9958 26.9597L15.5767 24.5165C16.3251 25.0008 16.8935 25.2472 17.6976 25.4346L17.037 28.2687ZM13.9975 26.9607C13.5517 26.6732 13.0588 26.2611 12.6377 25.8613C12.2247 25.4691 11.7889 25.0018 11.5058 24.5798L13.9224 22.9586C14.0301 23.1191 14.2876 23.4151 14.6414 23.7511C14.9873 24.0795 15.335 24.3606 15.5751 24.5155L13.9975 26.9607ZM11.5114 24.588L11.2754 24.2414L13.6808 22.6037L13.9168 22.9503L11.5114 24.588ZM12.4781 21.9676H14.0857V24.8776H12.4781V21.9676ZM14.0924 21.9676L15.7 21.975L15.6866 24.8849L14.079 24.8776L14.0924 21.9676ZM17.0008 22.7916L17.458 23.7282L14.843 25.0048L14.3858 24.0683L17.0008 22.7916ZM22.6417 23.5115C22.6342 23.8053 22.5375 24.0412 22.5214 24.0827C22.4845 24.1777 22.4423 24.2672 22.4063 24.3396C22.3326 24.4874 22.2392 24.6541 22.1423 24.8193C21.9455 25.1546 21.6899 25.5587 21.4345 25.9446C21.1796 26.3299 20.9114 26.7175 20.6875 27.0173C20.5784 27.1633 20.4624 27.3121 20.3543 27.4344C20.3039 27.4916 20.2261 27.5763 20.1325 27.6579C20.0875 27.6973 20.0045 27.7663 19.8927 27.8333C19.8233 27.8749 19.5342 28.0485 19.1224 28.0485V25.1385C18.7221 25.1385 18.4478 25.3066 18.3963 25.3375C18.3024 25.3938 18.2404 25.4469 18.2192 25.4654C18.1733 25.5055 18.1547 25.529 18.1731 25.5082C18.2028 25.4745 18.2634 25.3998 18.356 25.2759C18.5354 25.0358 18.7704 24.6974 19.0077 24.3388C19.2446 23.9808 19.4702 23.6231 19.6325 23.3465C19.715 23.2059 19.7706 23.1041 19.8015 23.042C19.8178 23.0094 19.8167 23.0086 19.8082 23.0306C19.8039 23.0417 19.7911 23.0755 19.7775 23.1252C19.7673 23.1624 19.7367 23.2787 19.7327 23.4369L22.6417 23.5115ZM19.1224 28.0485C18.7106 28.0485 18.4214 27.8749 18.3521 27.8333C18.2403 27.7663 18.1573 27.6973 18.1122 27.6579C18.0186 27.5763 17.9409 27.4916 17.8904 27.4344C17.7824 27.3121 17.6664 27.1633 17.5573 27.0173C17.3334 26.7175 17.0651 26.3299 16.8102 25.9446C16.5548 25.5587 16.2993 25.1546 16.1025 24.8193C16.0055 24.6541 15.9121 24.4874 15.8385 24.3396C15.8025 24.2672 15.7602 24.1777 15.7234 24.0827C15.7073 24.0412 15.6106 23.8053 15.603 23.5115L18.5121 23.4369C18.508 23.2787 18.4774 23.1624 18.4672 23.1252C18.4537 23.0755 18.4408 23.0417 18.4365 23.0306C18.428 23.0086 18.4269 23.0094 18.4432 23.042C18.4741 23.1041 18.5297 23.2059 18.6123 23.3465C18.7745 23.6231 19.0001 23.9808 19.237 24.3388C19.4743 24.6974 19.7094 25.0358 19.8887 25.2759C19.9813 25.3998 20.0419 25.4745 20.0716 25.5082C20.09 25.529 20.0714 25.5055 20.0255 25.4654C20.0043 25.4469 19.9423 25.3938 19.8484 25.3375C19.7969 25.3066 19.5226 25.1385 19.1224 25.1385V28.0485ZM15.6026 23.4742C15.6026 22.9598 15.8625 22.6131 16.0223 22.4511C16.178 22.2933 16.333 22.2088 16.4034 22.1731C16.5502 22.0989 16.6767 22.0669 16.7132 22.0578C16.8095 22.0335 16.8918 22.0232 16.9205 22.0196C16.9958 22.0102 17.0742 22.0048 17.1343 22.0013C17.2645 21.9935 17.4359 21.9875 17.6283 21.9828C18.0181 21.9732 18.5469 21.9676 19.1224 21.9676V24.8776C18.5622 24.8776 18.0586 24.8831 17.6999 24.8919C17.518 24.8964 17.3862 24.9014 17.3067 24.9061C17.2619 24.9088 17.2588 24.9099 17.2789 24.9074C17.28 24.9073 17.3412 24.9004 17.4234 24.8798C17.4528 24.8724 17.5739 24.8422 17.7171 24.7698C17.7857 24.735 17.9394 24.6514 18.0942 24.4945C18.253 24.3334 18.5126 23.9877 18.5126 23.4742H15.6026ZM19.1224 21.9676C19.6978 21.9676 20.2266 21.9732 20.6165 21.9828C20.8088 21.9875 20.9803 21.9935 21.1104 22.0013C21.1705 22.0048 21.2489 22.0102 21.3242 22.0196C21.3529 22.0232 21.4352 22.0335 21.5315 22.0578C21.5681 22.0669 21.6946 22.0989 21.8413 22.1731C21.9118 22.2088 22.0668 22.2933 22.2224 22.4511C22.3822 22.6131 22.6422 22.9598 22.6422 23.4742H19.7322C19.7322 23.9877 19.9917 24.3334 20.1505 24.4945C20.3053 24.6514 20.459 24.735 20.5277 24.7698C20.6708 24.8422 20.7919 24.8724 20.8214 24.8798C20.9035 24.9004 20.9648 24.9073 20.9659 24.9074C20.9859 24.9099 20.9828 24.9088 20.9381 24.9061C20.8585 24.9014 20.7267 24.8964 20.5448 24.8919C20.1861 24.8831 19.6825 24.8776 19.1224 24.8776V21.9676ZM26.7389 24.5798C26.4558 25.0018 26.0201 25.4691 25.607 25.8613C25.186 26.2611 24.693 26.6732 24.2473 26.9607L22.6697 24.5155C22.9097 24.3606 23.2574 24.0795 23.6033 23.7511C23.9572 23.415 24.2147 23.1191 24.3224 22.9586L26.7389 24.5798ZM24.2489 26.9597C23.2422 27.6111 22.3652 27.9989 21.2077 28.2687L20.5472 25.4346C21.3513 25.2472 21.9196 25.0008 22.668 24.5165L24.2489 26.9597ZM21.2107 28.268C21.2006 28.2703 20.9331 28.3408 20.7551 28.3604C20.6892 28.3676 20.5668 28.3778 20.418 28.3635C20.2807 28.3503 19.9988 28.3058 19.7103 28.1085C19.3713 27.8768 19.16 27.5283 19.0903 27.1599C19.0313 26.8485 19.086 26.596 19.1191 26.4751C19.183 26.2417 19.2926 26.0616 19.3289 26.0018C19.3825 25.9135 19.4431 25.8253 19.4974 25.7485C19.605 25.5963 19.7613 25.3862 19.9414 25.1413L22.2854 26.8658C22.0858 27.1372 21.9601 27.3059 21.8738 27.428C21.8541 27.4559 21.8397 27.4768 21.8294 27.4922C21.8187 27.5081 21.8153 27.5137 21.8166 27.5116C21.817 27.511 21.8291 27.4912 21.8457 27.4574C21.8598 27.4287 21.8961 27.3522 21.926 27.243C21.9524 27.1464 22.0054 26.9139 21.9494 26.6184C21.8827 26.266 21.6792 25.9295 21.3526 25.7062C21.0765 25.5175 20.8117 25.4779 20.6959 25.4668C20.5687 25.4546 20.4724 25.4639 20.4368 25.4678C20.3693 25.4753 20.3303 25.4866 20.3791 25.4751C20.3955 25.4713 20.4143 25.4667 20.4442 25.4594C20.4719 25.4526 20.5065 25.4442 20.5442 25.4353L21.2107 28.268ZM19.9494 25.1306C20.1677 24.8396 20.5587 24.1841 20.7928 23.7158L23.3956 25.0172C23.1135 25.5813 22.6343 26.4007 22.2774 26.8766L19.9494 25.1306ZM20.7867 23.7282L21.2439 22.7916L23.8589 24.0683L23.4017 25.0048L20.7867 23.7282ZM22.5514 21.975H24.159V24.885H22.5514V21.975ZM24.1524 21.975L25.76 21.9676L25.7733 24.8776L24.1657 24.8849L24.1524 21.975ZM26.9693 24.2415L26.7334 24.588L24.328 22.9503L24.564 22.6037L26.9693 24.2415ZM27.6397 33.358H26.1096V30.448H27.6397V33.358ZM26.0885 33.3579L24.5583 33.3358L24.6004 30.4261L26.1306 30.4482L26.0885 33.3579Z" fill="url(#paint4_linear_1400_3408)" mask="url(#path-10-outside-5_1400_3408)"/>
<defs>
<linearGradient id="paint0_linear_1400_3408" x1="31.0761" y1="23.8792" x2="31.0761" y2="22.6255" gradientUnits="userSpaceOnUse">
<stop stop-color="#E0904E"/>
<stop offset="1" stop-color="#DEB696"/>
</linearGradient>
<linearGradient id="paint1_linear_1400_3408" x1="34.7558" y1="23.8792" x2="34.7558" y2="22.6255" gradientUnits="userSpaceOnUse">
<stop stop-color="#E0904E"/>
<stop offset="1" stop-color="#DEB696"/>
</linearGradient>
<linearGradient id="paint2_linear_1400_3408" x1="32.9234" y1="26.3123" x2="32.9234" y2="25.0586" gradientUnits="userSpaceOnUse">
<stop stop-color="#E0904E"/>
<stop offset="1" stop-color="#DEB696"/>
</linearGradient>
<linearGradient id="paint3_linear_1400_3408" x1="33.1169" y1="28.4694" x2="33.1169" y2="27.2157" gradientUnits="userSpaceOnUse">
<stop stop-color="#E0904E"/>
<stop offset="1" stop-color="#DEB696"/>
</linearGradient>
<linearGradient id="paint4_linear_1400_3408" x1="24.0003" y1="38.024" x2="24.0003" y2="10" gradientUnits="userSpaceOnUse">
<stop stop-color="#E0904E"/>
<stop offset="1" stop-color="#DEB696"/>
</linearGradient>
</defs>
</svg>
