<svg width="360" height="190" viewBox="0 0 360 190" fill="none" xmlns="http://www.w3.org/2000/svg">
<g clip-path="url(#clip0_2068_6210)">
<rect width="360" height="190" fill="#E3E7D3"/>
<g clip-path="url(#clip1_2068_6210)">
<g clip-path="url(#clip2_2068_6210)">
<mask id="mask0_2068_6210" style="mask-type:alpha" maskUnits="userSpaceOnUse" x="-16" y="3" width="582" height="263">
<rect x="-15.998" y="3.00195" width="581.704" height="262.373" fill="url(#paint0_linear_2068_6210)"/>
</mask>
<g mask="url(#mask0_2068_6210)">
<line y1="-0.151486" x2="584.431" y2="-0.151486" transform="matrix(-0.866025 0.5 -0.866025 -0.5 269.496 -162.117)" stroke="#E86800" stroke-opacity="0.79" stroke-width="0.302971"/>
<line y1="-0.151486" x2="584.431" y2="-0.151486" transform="matrix(-0.866025 0.5 -0.866025 -0.5 287.338 -151.816)" stroke="#E86800" stroke-opacity="0.79" stroke-width="0.302971"/>
<line y1="-0.151486" x2="584.431" y2="-0.151486" transform="matrix(-0.866025 0.5 -0.866025 -0.5 305.18 -141.516)" stroke="#E86800" stroke-opacity="0.79" stroke-width="0.302971"/>
<line y1="-0.151486" x2="584.431" y2="-0.151486" transform="matrix(-0.866025 0.5 -0.866025 -0.5 323.021 -131.214)" stroke="#E86800" stroke-opacity="0.79" stroke-width="0.302971"/>
<line y1="-0.151486" x2="584.431" y2="-0.151486" transform="matrix(-0.866025 0.5 -0.866025 -0.5 340.863 -120.913)" stroke="#E86800" stroke-opacity="0.79" stroke-width="0.302971"/>
<line y1="-0.151486" x2="584.431" y2="-0.151486" transform="matrix(-0.866025 0.5 -0.866025 -0.5 358.705 -110.612)" stroke="#E86800" stroke-opacity="0.79" stroke-width="0.302971"/>
<line y1="-0.151486" x2="584.431" y2="-0.151486" transform="matrix(-0.866025 0.5 -0.866025 -0.5 376.547 -100.312)" stroke="#E86800" stroke-opacity="0.79" stroke-width="0.302971"/>
<line y1="-0.151486" x2="584.431" y2="-0.151486" transform="matrix(-0.866025 0.5 -0.866025 -0.5 394.389 -90.0098)" stroke="#E86800" stroke-opacity="0.79" stroke-width="0.302971"/>
<line y1="-0.151486" x2="584.431" y2="-0.151486" transform="matrix(-0.866025 0.5 -0.866025 -0.5 412.23 -79.709)" stroke="#E86800" stroke-opacity="0.79" stroke-width="0.302971"/>
<line y1="-0.151486" x2="584.431" y2="-0.151486" transform="matrix(-0.866025 0.5 -0.866025 -0.5 430.072 -69.4082)" stroke="#E86800" stroke-opacity="0.79" stroke-width="0.302971"/>
<line y1="-0.151486" x2="584.431" y2="-0.151486" transform="matrix(-0.866025 0.5 -0.866025 -0.5 447.914 -59.1074)" stroke="#E86800" stroke-opacity="0.79" stroke-width="0.302971"/>
<line y1="-0.151486" x2="584.431" y2="-0.151486" transform="matrix(-0.866025 0.5 -0.866025 -0.5 465.756 -48.8057)" stroke="#E86800" stroke-opacity="0.79" stroke-width="0.302971"/>
<line y1="-0.151486" x2="584.431" y2="-0.151486" transform="matrix(-0.866025 0.5 -0.866025 -0.5 483.6 -38.5049)" stroke="#E86800" stroke-opacity="0.79" stroke-width="0.302971"/>
<line y1="-0.151486" x2="584.431" y2="-0.151486" transform="matrix(-0.866025 0.5 -0.866025 -0.5 501.441 -28.2041)" stroke="#E86800" stroke-opacity="0.79" stroke-width="0.302971"/>
<line y1="-0.151486" x2="584.431" y2="-0.151486" transform="matrix(-0.866025 0.5 -0.866025 -0.5 519.283 -17.9033)" stroke="#E86800" stroke-opacity="0.79" stroke-width="0.302971"/>
<line y1="-0.151486" x2="584.431" y2="-0.151486" transform="matrix(-0.866025 0.5 -0.866025 -0.5 537.125 -7.60156)" stroke="#E86800" stroke-opacity="0.79" stroke-width="0.302971"/>
<line y1="-0.151486" x2="584.431" y2="-0.151486" transform="matrix(-0.866025 0.5 -0.866025 -0.5 554.967 2.69922)" stroke="#E86800" stroke-opacity="0.79" stroke-width="0.302971"/>
<line y1="-0.151486" x2="584.431" y2="-0.151486" transform="matrix(-0.866025 0.5 -0.866025 -0.5 572.809 13)" stroke="#E86800" stroke-opacity="0.79" stroke-width="0.302971"/>
<line y1="-0.151486" x2="584.431" y2="-0.151486" transform="matrix(-0.866025 0.5 -0.866025 -0.5 590.65 23.3008)" stroke="#E86800" stroke-opacity="0.79" stroke-width="0.302971"/>
<line y1="-0.151486" x2="584.431" y2="-0.151486" transform="matrix(-0.866025 0.5 -0.866025 -0.5 608.492 33.6025)" stroke="#E86800" stroke-opacity="0.79" stroke-width="0.302971"/>
<line y1="-0.151486" x2="584.431" y2="-0.151486" transform="matrix(-0.866025 0.5 -0.866025 -0.5 626.334 43.9033)" stroke="#E86800" stroke-opacity="0.79" stroke-width="0.302971"/>
<line y1="-0.151486" x2="584.431" y2="-0.151486" transform="matrix(-0.866025 0.5 -0.866025 -0.5 644.176 54.2041)" stroke="#E86800" stroke-opacity="0.79" stroke-width="0.302971"/>
<line y1="-0.151486" x2="584.431" y2="-0.151486" transform="matrix(-0.866025 0.5 -0.866025 -0.5 662.018 64.5049)" stroke="#E86800" stroke-opacity="0.79" stroke-width="0.302971"/>
<line y1="-0.151486" x2="584.431" y2="-0.151486" transform="matrix(-0.866025 0.5 -0.866025 -0.5 679.859 74.8057)" stroke="#E86800" stroke-opacity="0.79" stroke-width="0.302971"/>
<line y1="-0.151486" x2="584.431" y2="-0.151486" transform="matrix(-0.866025 0.5 -0.866025 -0.5 697.701 85.1074)" stroke="#E86800" stroke-opacity="0.79" stroke-width="0.302971"/>
<line y1="-0.151486" x2="584.431" y2="-0.151486" transform="matrix(-0.866025 0.5 -0.866025 -0.5 715.543 95.4082)" stroke="#E86800" stroke-opacity="0.79" stroke-width="0.302971"/>
<line y1="-0.151486" x2="584.431" y2="-0.151486" transform="matrix(-0.866025 0.5 -0.866025 -0.5 733.385 105.709)" stroke="#E86800" stroke-opacity="0.79" stroke-width="0.302971"/>
<line y1="-0.151486" x2="584.431" y2="-0.151486" transform="matrix(-0.866025 0.5 -0.866025 -0.5 751.227 116.01)" stroke="#E86800" stroke-opacity="0.79" stroke-width="0.302971"/>
<line y1="-0.151486" x2="584.431" y2="-0.151486" transform="matrix(-0.866025 0.5 -0.866025 -0.5 769.068 126.312)" stroke="#E86800" stroke-opacity="0.79" stroke-width="0.302971"/>
<line y1="-0.151486" x2="584.431" y2="-0.151486" transform="matrix(-0.866025 0.5 -0.866025 -0.5 786.91 136.612)" stroke="#E86800" stroke-opacity="0.79" stroke-width="0.302971"/>
<line y1="-0.151486" x2="606.245" y2="-0.151486" transform="matrix(0.866025 0.5 -0.866025 0.5 -235.336 129.652)" stroke="#E86800" stroke-opacity="0.79" stroke-width="0.302971"/>
<line y1="-0.151486" x2="606.245" y2="-0.151486" transform="matrix(0.866025 0.5 -0.866025 0.5 -216.627 118.852)" stroke="#E86800" stroke-opacity="0.79" stroke-width="0.302971"/>
<line y1="-0.151486" x2="606.245" y2="-0.151486" transform="matrix(0.866025 0.5 -0.866025 0.5 -197.92 108.05)" stroke="#E86800" stroke-opacity="0.79" stroke-width="0.302971"/>
<line y1="-0.151486" x2="606.245" y2="-0.151486" transform="matrix(0.866025 0.5 -0.866025 0.5 -179.211 97.249)" stroke="#E86800" stroke-opacity="0.79" stroke-width="0.302971"/>
<line y1="-0.151486" x2="606.245" y2="-0.151486" transform="matrix(0.866025 0.5 -0.866025 0.5 -160.504 86.4482)" stroke="#E86800" stroke-opacity="0.79" stroke-width="0.302971"/>
<line y1="-0.151486" x2="606.245" y2="-0.151486" transform="matrix(0.866025 0.5 -0.866025 0.5 -141.797 75.6475)" stroke="#E86800" stroke-opacity="0.79" stroke-width="0.302971"/>
<line y1="-0.151486" x2="606.245" y2="-0.151486" transform="matrix(0.866025 0.5 -0.866025 0.5 -123.088 64.8457)" stroke="#E86800" stroke-opacity="0.79" stroke-width="0.302971"/>
<line y1="-0.151486" x2="606.245" y2="-0.151486" transform="matrix(0.866025 0.5 -0.866025 0.5 -104.381 54.0449)" stroke="#E86800" stroke-opacity="0.79" stroke-width="0.302971"/>
<line y1="-0.151486" x2="606.245" y2="-0.151486" transform="matrix(0.866025 0.5 -0.866025 0.5 -85.6719 43.2441)" stroke="#E86800" stroke-opacity="0.79" stroke-width="0.302971"/>
<line y1="-0.151486" x2="606.245" y2="-0.151486" transform="matrix(0.866025 0.5 -0.866025 0.5 -66.9648 32.4434)" stroke="#E86800" stroke-opacity="0.79" stroke-width="0.302971"/>
<line y1="-0.151486" x2="606.245" y2="-0.151486" transform="matrix(0.866025 0.5 -0.866025 0.5 -48.2559 21.6416)" stroke="#E86800" stroke-opacity="0.79" stroke-width="0.302971"/>
<line y1="-0.151486" x2="606.245" y2="-0.151486" transform="matrix(0.866025 0.5 -0.866025 0.5 -29.5488 10.8408)" stroke="#E86800" stroke-opacity="0.79" stroke-width="0.302971"/>
<line y1="-0.151486" x2="606.245" y2="-0.151486" transform="matrix(0.866025 0.5 -0.866025 0.5 -10.8398 0.0400391)" stroke="#E86800" stroke-opacity="0.79" stroke-width="0.302971"/>
<line y1="-0.151486" x2="606.245" y2="-0.151486" transform="matrix(0.866025 0.5 -0.866025 0.5 7.86719 -10.7607)" stroke="#E86800" stroke-opacity="0.79" stroke-width="0.302971"/>
<line y1="-0.151486" x2="606.245" y2="-0.151486" transform="matrix(0.866025 0.5 -0.866025 0.5 26.5742 -21.5625)" stroke="#E86800" stroke-opacity="0.79" stroke-width="0.302971"/>
<line y1="-0.151486" x2="606.245" y2="-0.151486" transform="matrix(0.866025 0.5 -0.866025 0.5 45.2832 -32.3633)" stroke="#E86800" stroke-opacity="0.79" stroke-width="0.302971"/>
<line y1="-0.151486" x2="606.245" y2="-0.151486" transform="matrix(0.866025 0.5 -0.866025 0.5 63.9902 -43.1641)" stroke="#E86800" stroke-opacity="0.79" stroke-width="0.302971"/>
<line y1="-0.151486" x2="606.245" y2="-0.151486" transform="matrix(0.866025 0.5 -0.866025 0.5 82.6992 -53.9648)" stroke="#E86800" stroke-opacity="0.79" stroke-width="0.302971"/>
<line y1="-0.151486" x2="606.245" y2="-0.151486" transform="matrix(0.866025 0.5 -0.866025 0.5 101.406 -64.7666)" stroke="#E86800" stroke-opacity="0.79" stroke-width="0.302971"/>
<line y1="-0.151486" x2="606.245" y2="-0.151486" transform="matrix(0.866025 0.5 -0.866025 0.5 120.115 -75.5674)" stroke="#E86800" stroke-opacity="0.79" stroke-width="0.302971"/>
<line y1="-0.151486" x2="606.245" y2="-0.151486" transform="matrix(0.866025 0.5 -0.866025 0.5 138.822 -86.3682)" stroke="#E86800" stroke-opacity="0.79" stroke-width="0.302971"/>
<line y1="-0.151486" x2="606.245" y2="-0.151486" transform="matrix(0.866025 0.5 -0.866025 0.5 157.531 -97.1689)" stroke="#E86800" stroke-opacity="0.79" stroke-width="0.302971"/>
<line y1="-0.151486" x2="606.245" y2="-0.151486" transform="matrix(0.866025 0.5 -0.866025 0.5 176.238 -107.971)" stroke="#E86800" stroke-opacity="0.79" stroke-width="0.302971"/>
<line y1="-0.151486" x2="606.245" y2="-0.151486" transform="matrix(0.866025 0.5 -0.866025 0.5 194.945 -118.771)" stroke="#E86800" stroke-opacity="0.79" stroke-width="0.302971"/>
<line y1="-0.151486" x2="606.245" y2="-0.151486" transform="matrix(0.866025 0.5 -0.866025 0.5 213.654 -129.572)" stroke="#E86800" stroke-opacity="0.79" stroke-width="0.302971"/>
<line y1="-0.151486" x2="606.245" y2="-0.151486" transform="matrix(0.866025 0.5 -0.866025 0.5 232.361 -140.373)" stroke="#E86800" stroke-opacity="0.79" stroke-width="0.302971"/>
<line y1="-0.151486" x2="606.245" y2="-0.151486" transform="matrix(0.866025 0.5 -0.866025 0.5 251.07 -151.175)" stroke="#E86800" stroke-opacity="0.79" stroke-width="0.302971"/>
<line y1="-0.151486" x2="606.245" y2="-0.151486" transform="matrix(0.866025 0.5 -0.866025 0.5 269.777 -161.976)" stroke="#E86800" stroke-opacity="0.79" stroke-width="0.302971"/>
<line y1="-0.151486" x2="606.245" y2="-0.151486" transform="matrix(0.866025 0.5 -0.866025 0.5 288.486 -172.776)" stroke="#E86800" stroke-opacity="0.79" stroke-width="0.302971"/>
</g>
</g>
</g>
<g filter="url(#filter0_d_2068_6210)">
<path d="M74.5819 103.994V117H72.4303V100.026H74.2472L84.6229 113.294V100.05H86.7746V117H84.8142L74.5819 103.994ZM102.351 115.087V117H90.8276V100.026H102.136V101.938H92.9792V107.437H100.94V109.23H92.9792V115.087H102.351ZM111.519 100.122H113.551L115.798 106.027L118.069 100.122H120.101L117.161 107.509L120.077 114.514L125.815 100.026H128.158L121.057 117H119.193L115.822 108.991L112.427 117H110.562L103.486 100.026H105.805L111.566 114.514L114.459 107.509L111.519 100.122ZM139.926 103.588C139.735 103.365 139.48 103.15 139.161 102.943C138.842 102.735 138.484 102.552 138.085 102.393C137.687 102.217 137.249 102.082 136.77 101.986C136.308 101.875 135.822 101.819 135.312 101.819C134.005 101.819 133.041 102.066 132.419 102.56C131.798 103.054 131.487 103.732 131.487 104.592C131.487 105.198 131.646 105.676 131.965 106.027C132.284 106.377 132.77 106.664 133.423 106.887C134.093 107.11 134.938 107.341 135.958 107.581C137.137 107.836 138.157 108.146 139.018 108.513C139.878 108.88 140.54 109.374 141.002 109.995C141.464 110.601 141.695 111.414 141.695 112.434C141.695 113.247 141.536 113.956 141.217 114.561C140.914 115.151 140.484 115.645 139.926 116.044C139.368 116.426 138.715 116.713 137.966 116.904C137.217 117.08 136.404 117.167 135.527 117.167C134.667 117.167 133.822 117.08 132.993 116.904C132.18 116.713 131.407 116.442 130.674 116.092C129.941 115.741 129.256 115.303 128.618 114.777L129.646 112.96C129.901 113.231 130.228 113.502 130.626 113.773C131.041 114.028 131.503 114.267 132.013 114.49C132.539 114.713 133.105 114.896 133.71 115.04C134.316 115.167 134.938 115.231 135.575 115.231C136.786 115.231 137.727 115.016 138.396 114.585C139.066 114.139 139.4 113.494 139.4 112.649C139.4 112.011 139.209 111.501 138.826 111.119C138.46 110.736 137.91 110.418 137.177 110.163C136.444 109.908 135.551 109.653 134.499 109.398C133.352 109.111 132.387 108.8 131.607 108.465C130.826 108.114 130.236 107.66 129.837 107.102C129.455 106.545 129.264 105.819 129.264 104.927C129.264 103.843 129.527 102.927 130.053 102.178C130.579 101.428 131.304 100.863 132.228 100.48C133.153 100.098 134.196 99.9064 135.36 99.9064C136.125 99.9064 136.834 99.9861 137.488 100.145C138.157 100.305 138.779 100.528 139.352 100.815C139.926 101.102 140.452 101.444 140.93 101.843L139.926 103.588ZM150.572 117V100.026H161.785V101.938H152.724V107.604H160.35V109.398H152.724V117H150.572ZM176.034 115.087V117H164.51V100.026H175.818V101.938H166.662V107.437H174.623V109.23H166.662V115.087H176.034ZM190.509 115.087V117H178.985V100.026H190.293V101.938H181.137V107.437H189.098V109.23H181.137V115.087H190.509ZM193.46 117V100.026H199.342C201.159 100.026 202.673 100.408 203.884 101.173C205.111 101.923 206.028 102.943 206.633 104.234C207.239 105.509 207.542 106.927 207.542 108.489C207.542 110.21 207.207 111.709 206.538 112.984C205.868 114.259 204.92 115.247 203.693 115.948C202.465 116.649 201.015 117 199.342 117H193.46ZM205.366 108.489C205.366 107.214 205.127 106.082 204.649 105.094C204.187 104.106 203.509 103.333 202.617 102.775C201.724 102.217 200.633 101.938 199.342 101.938H195.612V115.087H199.342C200.648 115.087 201.748 114.801 202.641 114.227C203.533 113.637 204.211 112.848 204.673 111.86C205.135 110.856 205.366 109.732 205.366 108.489ZM223.506 117.12C222.31 117.12 221.227 116.88 220.254 116.402C219.282 115.924 218.437 115.279 217.72 114.466C217.019 113.637 216.477 112.713 216.095 111.693C215.712 110.657 215.521 109.597 215.521 108.513C215.521 107.381 215.72 106.306 216.118 105.285C216.533 104.249 217.099 103.333 217.816 102.536C218.549 101.723 219.402 101.086 220.374 100.624C221.346 100.145 222.406 99.9064 223.554 99.9064C224.749 99.9064 225.833 100.153 226.805 100.647C227.777 101.142 228.614 101.803 229.315 102.632C230.016 103.461 230.558 104.385 230.941 105.405C231.323 106.425 231.515 107.469 231.515 108.537C231.515 109.668 231.315 110.752 230.917 111.788C230.519 112.808 229.953 113.725 229.22 114.538C228.502 115.334 227.658 115.964 226.685 116.426C225.713 116.888 224.653 117.12 223.506 117.12ZM217.696 108.513C217.696 109.374 217.832 110.21 218.103 111.023C218.39 111.82 218.788 112.529 219.298 113.151C219.808 113.773 220.422 114.267 221.139 114.633C221.856 115 222.653 115.183 223.53 115.183C224.438 115.183 225.251 114.992 225.968 114.609C226.685 114.227 227.291 113.717 227.785 113.079C228.295 112.442 228.678 111.724 228.933 110.928C229.204 110.131 229.339 109.326 229.339 108.513C229.339 107.652 229.196 106.824 228.909 106.027C228.638 105.23 228.239 104.52 227.713 103.899C227.203 103.261 226.59 102.767 225.873 102.417C225.171 102.05 224.39 101.867 223.53 101.867C222.621 101.867 221.808 102.058 221.091 102.441C220.374 102.807 219.76 103.309 219.25 103.947C218.756 104.584 218.374 105.301 218.103 106.098C217.832 106.879 217.696 107.684 217.696 108.513ZM236.656 103.994V117H234.504V100.026H236.321L246.697 113.294V100.05H248.849V117H246.888L236.656 103.994Z" fill="#25291C"/>
<path d="M263.365 100.026H265.182L272.115 117H269.82L267.812 112.027H260.688L258.703 117H256.408L263.365 100.026ZM267.334 110.354L264.274 102.512L261.118 110.354H267.334ZM280.636 117.12C279.44 117.12 278.356 116.88 277.384 116.402C276.412 115.924 275.567 115.279 274.85 114.466C274.149 113.637 273.607 112.713 273.224 111.693C272.842 110.657 272.651 109.597 272.651 108.513C272.651 107.381 272.85 106.306 273.248 105.285C273.663 104.249 274.228 103.333 274.946 102.536C275.679 101.723 276.531 101.086 277.504 100.624C278.476 100.145 279.536 99.9064 280.683 99.9064C281.879 99.9064 282.963 100.153 283.935 100.647C284.907 101.142 285.744 101.803 286.445 102.632C287.146 103.461 287.688 104.385 288.071 105.405C288.453 106.425 288.644 107.469 288.644 108.537C288.644 109.668 288.445 110.752 288.047 111.788C287.648 112.808 287.083 113.725 286.349 114.538C285.632 115.334 284.787 115.964 283.815 116.426C282.843 116.888 281.783 117.12 280.636 117.12ZM274.826 108.513C274.826 109.374 274.962 110.21 275.233 111.023C275.519 111.82 275.918 112.529 276.428 113.151C276.938 113.773 277.552 114.267 278.269 114.633C278.986 115 279.783 115.183 280.659 115.183C281.568 115.183 282.381 114.992 283.098 114.609C283.815 114.227 284.421 113.717 284.915 113.079C285.425 112.442 285.807 111.724 286.062 110.928C286.333 110.131 286.469 109.326 286.469 108.513C286.469 107.652 286.325 106.824 286.039 106.027C285.768 105.23 285.369 104.52 284.843 103.899C284.333 103.261 283.72 102.767 283.002 102.417C282.301 102.05 281.52 101.867 280.659 101.867C279.751 101.867 278.938 102.058 278.221 102.441C277.504 102.807 276.89 103.309 276.38 103.947C275.886 104.584 275.503 105.301 275.233 106.098C274.962 106.879 274.826 107.684 274.826 108.513Z" fill="#E28132"/>
</g>
<path d="M163.534 69.5125L163.534 60.2254C163.534 55.6179 159.686 51.8829 154.94 51.8828C150.451 51.8828 146.69 55.2865 146.649 59.6435C146.648 59.846 146.646 60.0437 146.646 60.2352" stroke="#EB8F44" stroke-width="1.99854"/>
<path d="M146.62 64.957C147.232 64.9602 147.73 64.4819 147.733 63.8886C147.737 63.2953 147.244 62.8118 146.632 62.8086C146.021 62.8053 145.523 63.2837 145.519 63.8769C145.516 64.4702 146.009 64.9538 146.62 64.957Z" fill="#EB8F44"/>
<path d="M150.222 64.9658C150.833 64.969 151.332 64.4907 151.335 63.8974C151.338 63.3041 150.845 62.8206 150.234 62.8174C149.623 62.8141 149.124 63.2925 149.121 63.8857C149.118 64.479 149.61 64.9626 150.222 64.9658Z" fill="#25291C"/>
<path d="M146.116 69.7002L146.073 75.4724C146.037 80.1181 149.872 83.9194 154.658 83.9818C159.41 84.0443 163.335 80.3963 163.477 75.7859L163.505 74.8774" stroke="#25291C" stroke-width="1.99854"/>
<path d="M159.616 67.0657L159.604 75.2184C159.6 77.7716 157.448 79.8299 154.818 79.7954C152.222 79.7614 150.141 77.6989 150.161 75.1785L150.21 68.8488C150.223 67.2052 148.284 66.2647 146.937 67.261C146.432 67.6352 146.135 68.2171 146.135 68.8343V69.8542" stroke="#25291C" stroke-width="1.99854"/>
<path d="M154.915 56.0548L154.898 55.0833L154.915 55.083L154.931 55.0833L154.915 56.0548ZM151.279 63.6662C151.279 64.2028 150.831 64.6379 150.278 64.6379C149.726 64.6379 149.277 64.2028 149.277 63.6662H151.279ZM154.931 57.0263L154.653 57.0308L154.62 55.0877L154.898 55.0833L154.931 57.0263ZM151.279 60.3604V63.6662H149.277V60.3604H151.279ZM158.62 67.229V61.9301H160.622V67.229H158.62ZM158.62 61.9301V60.698H160.622V61.9301H158.62ZM149.277 60.3604C149.277 57.4819 151.655 55.1352 154.62 55.0877L154.653 57.0308C152.781 57.0608 151.279 58.5427 151.279 60.3604H149.277ZM154.931 55.0833C158.089 55.1331 160.622 57.6322 160.622 60.698H158.62C158.62 58.6932 156.964 57.0589 154.899 57.0263L154.931 55.0833Z" fill="#25291C"/>
<path d="M163.519 76.0595C164.266 76.0634 164.875 75.4804 164.879 74.7572C164.883 74.0341 164.281 73.4447 163.534 73.4407C162.787 73.4368 162.178 74.0198 162.174 74.743C162.17 75.4661 162.772 76.0555 163.519 76.0595Z" fill="#25291C"/>
<path d="M163.62 70.9521C164.357 70.9521 164.955 70.2996 164.955 69.4946C164.955 68.6897 164.357 68.0371 163.62 68.0371C162.883 68.0371 162.285 68.6897 162.285 69.4946C162.285 70.2996 162.883 70.9521 163.62 70.9521Z" fill="#EB8F44"/>
<path d="M146.606 61.2356C147.343 61.2356 147.941 60.6556 147.941 59.9401C147.941 59.2246 147.343 58.6445 146.606 58.6445C145.869 58.6445 145.271 59.2246 145.271 59.9401C145.271 60.6556 145.869 61.2356 146.606 61.2356Z" fill="#EB8F44"/>
<path d="M169.874 75.1755C169.937 74.0269 170.248 73 170.807 72.0948C171.385 71.1897 172.124 70.4801 173.024 69.9658C173.943 69.4517 174.957 69.1975 176.064 69.2032C176.942 69.2077 177.619 69.3317 178.095 69.575C178.571 69.8184 178.75 70.1714 178.633 70.6341C178.555 70.9117 178.421 71.0963 178.229 71.188C178.057 71.2798 177.837 71.3157 177.57 71.2958C177.322 71.2759 177.036 71.256 176.711 71.2358C175.642 71.1376 174.688 71.2439 173.846 71.5545C173.023 71.8468 172.362 72.3067 171.862 72.9342C171.382 73.5618 171.139 74.3111 171.134 75.182L169.874 75.1755ZM169.995 84.5439C169.651 84.5421 169.384 84.4483 169.194 84.2618C169.004 84.0758 168.91 83.8156 168.912 83.4819L168.984 70.3898C168.986 70.0562 169.083 69.7972 169.274 69.6129C169.466 69.4286 169.734 69.3373 170.078 69.3391C170.421 69.3409 170.688 69.4349 170.878 69.6212C171.068 69.8075 171.162 70.0674 171.16 70.401L171.088 83.4931C171.086 83.8268 170.99 84.0857 170.798 84.27C170.606 84.4543 170.338 84.5456 169.995 84.5439ZM188.236 84.7768C186.746 84.7695 185.402 84.4289 184.203 83.7553C183.023 83.0822 182.083 82.1693 181.383 81.0169C180.702 79.8459 180.356 78.5376 180.345 77.092L180.417 63.9719C180.419 63.6383 180.516 63.3794 180.708 63.1951C180.918 62.9923 181.196 62.8918 181.54 62.8936C181.864 62.8953 182.121 62.9985 182.311 63.2033C182.52 63.3897 182.624 63.6497 182.622 63.9833L182.577 72.1555C183.212 71.2878 184.046 70.5972 185.08 70.0836C186.133 69.5516 187.299 69.2889 188.578 69.2955C190.048 69.3031 191.363 69.6527 192.524 70.3444C193.685 71.0176 194.596 71.9396 195.258 73.1105C195.939 74.2815 196.276 75.599 196.268 77.0629C196.26 78.5454 195.899 79.8688 195.186 81.0324C194.493 82.1964 193.543 83.118 192.336 83.7976C191.13 84.4586 189.763 84.785 188.236 84.7768ZM188.246 82.8312C189.353 82.8368 190.347 82.5917 191.229 82.0961C192.11 81.5819 192.8 80.8903 193.302 80.0221C193.822 79.1539 194.085 78.1634 194.091 77.0517C194.097 75.9584 193.845 74.9749 193.334 74.1013C192.843 73.2092 192.159 72.5107 191.284 72.0059C190.408 71.501 189.417 71.2457 188.31 71.24C187.221 71.2344 186.237 71.4795 185.356 71.9753C184.475 72.4711 183.784 73.1625 183.283 74.0494C182.781 74.9178 182.528 75.8987 182.522 76.992C182.516 78.104 182.759 79.0966 183.25 79.97C183.742 80.8437 184.426 81.5423 185.301 82.0655C186.176 82.5702 187.158 82.8256 188.246 82.8312ZM200.408 84.7011C200.064 84.6989 199.788 84.605 199.579 84.4185C199.389 84.2136 199.295 83.9444 199.297 83.6111L199.368 70.5743C199.37 70.2408 199.467 69.9818 199.659 69.7974C199.87 69.5947 200.147 69.4942 200.491 69.496C200.816 69.4977 201.073 69.6009 201.262 69.8058C201.471 69.9921 201.575 70.2521 201.573 70.5857L201.502 83.6223C201.5 83.956 201.394 84.2243 201.182 84.4267C200.99 84.611 200.732 84.7023 200.408 84.7011ZM200.478 66.605C200.058 66.6028 199.696 66.4527 199.392 66.1546C199.088 65.8565 198.938 65.4944 198.94 65.0682C198.943 64.6049 199.097 64.2443 199.404 63.9865C199.73 63.7102 200.103 63.5731 200.523 63.5752C200.924 63.5773 201.277 63.7181 201.58 63.9977C201.904 64.2588 202.064 64.621 202.061 65.0843C202.059 65.5105 201.904 65.8711 201.597 66.166C201.29 66.4609 200.917 66.6072 200.478 66.605ZM211.521 84.7583C210.509 84.7532 209.603 84.5167 208.804 84.0491C208.024 83.5818 207.407 82.9487 206.953 82.1495C206.499 81.3317 206.275 80.4041 206.281 79.3662L206.355 65.7736C206.357 65.4585 206.454 65.1996 206.646 64.9967C206.857 64.794 207.125 64.6934 207.449 64.6951C207.774 64.6968 208.041 64.8001 208.249 65.005C208.458 65.2099 208.562 65.4699 208.56 65.7849L208.486 79.3774C208.481 80.3227 208.763 81.1026 209.332 81.7171C209.902 82.3131 210.635 82.6133 211.532 82.618L212.305 82.6219C212.611 82.6232 212.859 82.7265 213.048 82.9315C213.238 83.1361 213.332 83.3962 213.33 83.711C213.328 84.0262 213.213 84.285 212.982 84.4879C212.753 84.6718 212.466 84.7631 212.122 84.7613L211.521 84.7583ZM204.46 71.9349C204.174 71.9334 203.935 71.8487 203.745 71.681C203.556 71.4947 203.462 71.2718 203.463 71.0124C203.464 70.7344 203.561 70.5125 203.753 70.3467C203.945 70.1624 204.184 70.071 204.47 70.0725L211.773 70.1101C212.059 70.1116 212.297 70.2055 212.487 70.3918C212.677 70.5596 212.771 70.7824 212.769 71.0604C212.768 71.3198 212.671 71.5417 212.48 71.7261C212.288 71.8919 212.049 71.974 211.762 71.9725L204.46 71.9349Z" fill="#25291C"/>
<path d="M200.728 66.867C201.708 66.867 202.502 66.0958 202.502 65.1445C202.502 64.1931 201.708 63.4219 200.728 63.4219C199.748 63.4219 198.953 64.1931 198.953 65.1445C198.953 66.0958 199.748 66.867 200.728 66.867Z" fill="#EB8F44"/>
</g>
<defs>
<filter id="filter0_d_2068_6210" x="72.191" y="98.4739" width="220.034" height="21.0803" filterUnits="userSpaceOnUse" color-interpolation-filters="sRGB">
<feFlood flood-opacity="0" result="BackgroundImageFix"/>
<feColorMatrix in="SourceAlpha" type="matrix" values="0 0 0 0 0 0 0 0 0 0 0 0 0 0 0 0 0 0 127 0" result="hardAlpha"/>
<feOffset dx="1.67104" dy="0.477439"/>
<feGaussianBlur stdDeviation="0.954878"/>
<feComposite in2="hardAlpha" operator="out"/>
<feColorMatrix type="matrix" values="0 0 0 0 0.145098 0 0 0 0 0.160784 0 0 0 0 0.109804 0 0 0 0.25 0"/>
<feBlend mode="normal" in2="BackgroundImageFix" result="effect1_dropShadow_2068_6210"/>
<feBlend mode="normal" in="SourceGraphic" in2="effect1_dropShadow_2068_6210" result="shape"/>
</filter>
<linearGradient id="paint0_linear_2068_6210" x1="274.854" y1="3.00195" x2="274.854" y2="265.375" gradientUnits="userSpaceOnUse">
<stop stop-color="#C4C4C4" stop-opacity="0"/>
<stop offset="0.526042" stop-color="#C4C4C4"/>
<stop offset="1" stop-color="#C4C4C4" stop-opacity="0"/>
</linearGradient>
<clipPath id="clip0_2068_6210">
<rect width="360" height="190" fill="white"/>
</clipPath>
<clipPath id="clip1_2068_6210">
<rect width="409" height="187.458" fill="white" transform="translate(-16 3)"/>
</clipPath>
<clipPath id="clip2_2068_6210">
<rect width="581.704" height="262.979" fill="white" transform="translate(-16 3)"/>
</clipPath>
</defs>
</svg>
