<svg width="360" height="190" viewBox="0 0 360 190" fill="none" xmlns="http://www.w3.org/2000/svg">
<g clip-path="url(#clip0_624_2273)">
<rect width="360" height="190" fill="#E3E5DE"/>
<g clip-path="url(#clip1_624_2273)">
<g clip-path="url(#clip2_624_2273)">
<mask id="mask0_624_2273" style="mask-type:alpha" maskUnits="userSpaceOnUse" x="-16" y="3" width="582" height="263">
<rect x="-16" y="3.00195" width="581.704" height="262.373" fill="url(#paint0_linear_624_2273)"/>
</mask>
<g mask="url(#mask0_624_2273)">
<line y1="-0.151486" x2="584.431" y2="-0.151486" transform="matrix(-0.866025 0.5 -0.866025 -0.5 269.496 -162.117)" stroke="#E86800" stroke-opacity="0.79" stroke-width="0.302971"/>
<line y1="-0.151486" x2="584.431" y2="-0.151486" transform="matrix(-0.866025 0.5 -0.866025 -0.5 287.34 -151.816)" stroke="#E86800" stroke-opacity="0.79" stroke-width="0.302971"/>
<line y1="-0.151486" x2="584.431" y2="-0.151486" transform="matrix(-0.866025 0.5 -0.866025 -0.5 305.18 -141.516)" stroke="#E86800" stroke-opacity="0.79" stroke-width="0.302971"/>
<line y1="-0.151486" x2="584.431" y2="-0.151486" transform="matrix(-0.866025 0.5 -0.866025 -0.5 323.023 -131.214)" stroke="#E86800" stroke-opacity="0.79" stroke-width="0.302971"/>
<line y1="-0.151486" x2="584.431" y2="-0.151486" transform="matrix(-0.866025 0.5 -0.866025 -0.5 340.863 -120.913)" stroke="#E86800" stroke-opacity="0.79" stroke-width="0.302971"/>
<line y1="-0.151486" x2="584.431" y2="-0.151486" transform="matrix(-0.866025 0.5 -0.866025 -0.5 358.707 -110.612)" stroke="#E86800" stroke-opacity="0.79" stroke-width="0.302971"/>
<line y1="-0.151486" x2="584.431" y2="-0.151486" transform="matrix(-0.866025 0.5 -0.866025 -0.5 376.547 -100.312)" stroke="#E86800" stroke-opacity="0.79" stroke-width="0.302971"/>
<line y1="-0.151486" x2="584.431" y2="-0.151486" transform="matrix(-0.866025 0.5 -0.866025 -0.5 394.391 -90.0098)" stroke="#E86800" stroke-opacity="0.79" stroke-width="0.302971"/>
<line y1="-0.151486" x2="584.431" y2="-0.151486" transform="matrix(-0.866025 0.5 -0.866025 -0.5 412.23 -79.709)" stroke="#E86800" stroke-opacity="0.79" stroke-width="0.302971"/>
<line y1="-0.151486" x2="584.431" y2="-0.151486" transform="matrix(-0.866025 0.5 -0.866025 -0.5 430.074 -69.4082)" stroke="#E86800" stroke-opacity="0.79" stroke-width="0.302971"/>
<line y1="-0.151486" x2="584.431" y2="-0.151486" transform="matrix(-0.866025 0.5 -0.866025 -0.5 447.914 -59.1074)" stroke="#E86800" stroke-opacity="0.79" stroke-width="0.302971"/>
<line y1="-0.151486" x2="584.431" y2="-0.151486" transform="matrix(-0.866025 0.5 -0.866025 -0.5 465.758 -48.8057)" stroke="#E86800" stroke-opacity="0.79" stroke-width="0.302971"/>
<line y1="-0.151486" x2="584.431" y2="-0.151486" transform="matrix(-0.866025 0.5 -0.866025 -0.5 483.598 -38.5049)" stroke="#E86800" stroke-opacity="0.79" stroke-width="0.302971"/>
<line y1="-0.151486" x2="584.431" y2="-0.151486" transform="matrix(-0.866025 0.5 -0.866025 -0.5 501.441 -28.2041)" stroke="#E86800" stroke-opacity="0.79" stroke-width="0.302971"/>
<line y1="-0.151486" x2="584.431" y2="-0.151486" transform="matrix(-0.866025 0.5 -0.866025 -0.5 519.281 -17.9033)" stroke="#E86800" stroke-opacity="0.79" stroke-width="0.302971"/>
<line y1="-0.151486" x2="584.431" y2="-0.151486" transform="matrix(-0.866025 0.5 -0.866025 -0.5 537.125 -7.60156)" stroke="#E86800" stroke-opacity="0.79" stroke-width="0.302971"/>
<line y1="-0.151486" x2="584.431" y2="-0.151486" transform="matrix(-0.866025 0.5 -0.866025 -0.5 554.965 2.69922)" stroke="#E86800" stroke-opacity="0.79" stroke-width="0.302971"/>
<line y1="-0.151486" x2="584.431" y2="-0.151486" transform="matrix(-0.866025 0.5 -0.866025 -0.5 572.809 13)" stroke="#E86800" stroke-opacity="0.79" stroke-width="0.302971"/>
<line y1="-0.151486" x2="584.431" y2="-0.151486" transform="matrix(-0.866025 0.5 -0.866025 -0.5 590.648 23.3008)" stroke="#E86800" stroke-opacity="0.79" stroke-width="0.302971"/>
<line y1="-0.151486" x2="584.431" y2="-0.151486" transform="matrix(-0.866025 0.5 -0.866025 -0.5 608.492 33.6025)" stroke="#E86800" stroke-opacity="0.79" stroke-width="0.302971"/>
<line y1="-0.151486" x2="584.431" y2="-0.151486" transform="matrix(-0.866025 0.5 -0.866025 -0.5 626.332 43.9033)" stroke="#E86800" stroke-opacity="0.79" stroke-width="0.302971"/>
<line y1="-0.151486" x2="584.431" y2="-0.151486" transform="matrix(-0.866025 0.5 -0.866025 -0.5 644.176 54.2041)" stroke="#E86800" stroke-opacity="0.79" stroke-width="0.302971"/>
<line y1="-0.151486" x2="584.431" y2="-0.151486" transform="matrix(-0.866025 0.5 -0.866025 -0.5 662.016 64.5049)" stroke="#E86800" stroke-opacity="0.79" stroke-width="0.302971"/>
<line y1="-0.151486" x2="584.431" y2="-0.151486" transform="matrix(-0.866025 0.5 -0.866025 -0.5 679.859 74.8057)" stroke="#E86800" stroke-opacity="0.79" stroke-width="0.302971"/>
<line y1="-0.151486" x2="584.431" y2="-0.151486" transform="matrix(-0.866025 0.5 -0.866025 -0.5 697.699 85.1074)" stroke="#E86800" stroke-opacity="0.79" stroke-width="0.302971"/>
<line y1="-0.151486" x2="584.431" y2="-0.151486" transform="matrix(-0.866025 0.5 -0.866025 -0.5 715.543 95.4082)" stroke="#E86800" stroke-opacity="0.79" stroke-width="0.302971"/>
<line y1="-0.151486" x2="584.431" y2="-0.151486" transform="matrix(-0.866025 0.5 -0.866025 -0.5 733.387 105.709)" stroke="#E86800" stroke-opacity="0.79" stroke-width="0.302971"/>
<line y1="-0.151486" x2="584.431" y2="-0.151486" transform="matrix(-0.866025 0.5 -0.866025 -0.5 751.227 116.01)" stroke="#E86800" stroke-opacity="0.79" stroke-width="0.302971"/>
<line y1="-0.151486" x2="584.431" y2="-0.151486" transform="matrix(-0.866025 0.5 -0.866025 -0.5 769.07 126.312)" stroke="#E86800" stroke-opacity="0.79" stroke-width="0.302971"/>
<line y1="-0.151486" x2="584.431" y2="-0.151486" transform="matrix(-0.866025 0.5 -0.866025 -0.5 786.91 136.612)" stroke="#E86800" stroke-opacity="0.79" stroke-width="0.302971"/>
<line y1="-0.151486" x2="606.245" y2="-0.151486" transform="matrix(0.866025 0.5 -0.866025 0.5 -235.34 129.652)" stroke="#E86800" stroke-opacity="0.79" stroke-width="0.302971"/>
<line y1="-0.151486" x2="606.245" y2="-0.151486" transform="matrix(0.866025 0.5 -0.866025 0.5 -216.633 118.852)" stroke="#E86800" stroke-opacity="0.79" stroke-width="0.302971"/>
<line y1="-0.151486" x2="606.245" y2="-0.151486" transform="matrix(0.866025 0.5 -0.866025 0.5 -197.922 108.05)" stroke="#E86800" stroke-opacity="0.79" stroke-width="0.302971"/>
<line y1="-0.151486" x2="606.245" y2="-0.151486" transform="matrix(0.866025 0.5 -0.866025 0.5 -179.215 97.249)" stroke="#E86800" stroke-opacity="0.79" stroke-width="0.302971"/>
<line y1="-0.151486" x2="606.245" y2="-0.151486" transform="matrix(0.866025 0.5 -0.866025 0.5 -160.508 86.4482)" stroke="#E86800" stroke-opacity="0.79" stroke-width="0.302971"/>
<line y1="-0.151486" x2="606.245" y2="-0.151486" transform="matrix(0.866025 0.5 -0.866025 0.5 -141.801 75.6475)" stroke="#E86800" stroke-opacity="0.79" stroke-width="0.302971"/>
<line y1="-0.151486" x2="606.245" y2="-0.151486" transform="matrix(0.866025 0.5 -0.866025 0.5 -123.094 64.8457)" stroke="#E86800" stroke-opacity="0.79" stroke-width="0.302971"/>
<line y1="-0.151486" x2="606.245" y2="-0.151486" transform="matrix(0.866025 0.5 -0.866025 0.5 -104.383 54.0449)" stroke="#E86800" stroke-opacity="0.79" stroke-width="0.302971"/>
<line y1="-0.151486" x2="606.245" y2="-0.151486" transform="matrix(0.866025 0.5 -0.866025 0.5 -85.6758 43.2441)" stroke="#E86800" stroke-opacity="0.79" stroke-width="0.302971"/>
<line y1="-0.151486" x2="606.245" y2="-0.151486" transform="matrix(0.866025 0.5 -0.866025 0.5 -66.9688 32.4434)" stroke="#E86800" stroke-opacity="0.79" stroke-width="0.302971"/>
<line y1="-0.151486" x2="606.245" y2="-0.151486" transform="matrix(0.866025 0.5 -0.866025 0.5 -48.2617 21.6416)" stroke="#E86800" stroke-opacity="0.79" stroke-width="0.302971"/>
<line y1="-0.151486" x2="606.245" y2="-0.151486" transform="matrix(0.866025 0.5 -0.866025 0.5 -29.5508 10.8408)" stroke="#E86800" stroke-opacity="0.79" stroke-width="0.302971"/>
<line y1="-0.151486" x2="606.245" y2="-0.151486" transform="matrix(0.866025 0.5 -0.866025 0.5 -10.8438 0.0400391)" stroke="#E86800" stroke-opacity="0.79" stroke-width="0.302971"/>
<line y1="-0.151486" x2="606.245" y2="-0.151486" transform="matrix(0.866025 0.5 -0.866025 0.5 7.86328 -10.7607)" stroke="#E86800" stroke-opacity="0.79" stroke-width="0.302971"/>
<line y1="-0.151486" x2="606.245" y2="-0.151486" transform="matrix(0.866025 0.5 -0.866025 0.5 26.5703 -21.5625)" stroke="#E86800" stroke-opacity="0.79" stroke-width="0.302971"/>
<line y1="-0.151486" x2="606.245" y2="-0.151486" transform="matrix(0.866025 0.5 -0.866025 0.5 45.2773 -32.3633)" stroke="#E86800" stroke-opacity="0.79" stroke-width="0.302971"/>
<line y1="-0.151486" x2="606.245" y2="-0.151486" transform="matrix(0.866025 0.5 -0.866025 0.5 63.9883 -43.1641)" stroke="#E86800" stroke-opacity="0.79" stroke-width="0.302971"/>
<line y1="-0.151486" x2="606.245" y2="-0.151486" transform="matrix(0.866025 0.5 -0.866025 0.5 82.6953 -53.9648)" stroke="#E86800" stroke-opacity="0.79" stroke-width="0.302971"/>
<line y1="-0.151486" x2="606.245" y2="-0.151486" transform="matrix(0.866025 0.5 -0.866025 0.5 101.402 -64.7666)" stroke="#E86800" stroke-opacity="0.79" stroke-width="0.302971"/>
<line y1="-0.151486" x2="606.245" y2="-0.151486" transform="matrix(0.866025 0.5 -0.866025 0.5 120.109 -75.5674)" stroke="#E86800" stroke-opacity="0.79" stroke-width="0.302971"/>
<line y1="-0.151486" x2="606.245" y2="-0.151486" transform="matrix(0.866025 0.5 -0.866025 0.5 138.82 -86.3682)" stroke="#E86800" stroke-opacity="0.79" stroke-width="0.302971"/>
<line y1="-0.151486" x2="606.245" y2="-0.151486" transform="matrix(0.866025 0.5 -0.866025 0.5 157.527 -97.1689)" stroke="#E86800" stroke-opacity="0.79" stroke-width="0.302971"/>
<line y1="-0.151486" x2="606.245" y2="-0.151486" transform="matrix(0.866025 0.5 -0.866025 0.5 176.234 -107.971)" stroke="#E86800" stroke-opacity="0.79" stroke-width="0.302971"/>
<line y1="-0.151486" x2="606.245" y2="-0.151486" transform="matrix(0.866025 0.5 -0.866025 0.5 194.941 -118.771)" stroke="#E86800" stroke-opacity="0.79" stroke-width="0.302971"/>
<line y1="-0.151486" x2="606.245" y2="-0.151486" transform="matrix(0.866025 0.5 -0.866025 0.5 213.648 -129.572)" stroke="#E86800" stroke-opacity="0.79" stroke-width="0.302971"/>
<line y1="-0.151486" x2="606.245" y2="-0.151486" transform="matrix(0.866025 0.5 -0.866025 0.5 232.359 -140.373)" stroke="#E86800" stroke-opacity="0.79" stroke-width="0.302971"/>
<line y1="-0.151486" x2="606.245" y2="-0.151486" transform="matrix(0.866025 0.5 -0.866025 0.5 251.066 -151.175)" stroke="#E86800" stroke-opacity="0.79" stroke-width="0.302971"/>
<line y1="-0.151486" x2="606.245" y2="-0.151486" transform="matrix(0.866025 0.5 -0.866025 0.5 269.773 -161.976)" stroke="#E86800" stroke-opacity="0.79" stroke-width="0.302971"/>
<line y1="-0.151486" x2="606.245" y2="-0.151486" transform="matrix(0.866025 0.5 -0.866025 0.5 288.48 -172.776)" stroke="#E86800" stroke-opacity="0.79" stroke-width="0.302971"/>
</g>
</g>
</g>
<g filter="url(#filter0_d_624_2273)">
<path d="M77.0898 101.625C77.0898 102.502 76.8667 103.267 76.4204 103.92C75.9742 104.574 75.3685 105.084 74.6035 105.45C73.8544 105.817 73.0256 106 72.1171 106H64.0604V89.0259H72.4996C73.2966 89.0259 73.9819 89.2411 74.5557 89.6714C75.1454 90.0858 75.5916 90.6277 75.8945 91.2971C76.2132 91.9505 76.3726 92.6359 76.3726 93.3531C76.3726 94.1819 76.1574 94.9628 75.7271 95.696C75.3127 96.4132 74.715 96.9471 73.9341 97.2978C74.9063 97.5847 75.6713 98.1186 76.2292 98.8996C76.8029 99.6646 77.0898 100.573 77.0898 101.625ZM74.9143 101.242C74.9143 100.717 74.7947 100.23 74.5557 99.7841C74.3325 99.3379 74.0217 98.9793 73.6233 98.7083C73.2408 98.4374 72.7945 98.3019 72.2845 98.3019H66.2121V104.135H72.1171C72.6431 104.135 73.1133 104 73.5277 103.729C73.958 103.458 74.2927 103.107 74.5318 102.677C74.7868 102.231 74.9143 101.752 74.9143 101.242ZM66.2121 90.8907V96.5567H71.6151C72.1251 96.5567 72.5714 96.4292 72.9539 96.1741C73.3523 95.9191 73.6631 95.5765 73.8863 95.1461C74.1253 94.7158 74.2449 94.2456 74.2449 93.7356C74.2449 93.1937 74.1333 92.7156 73.9102 92.3012C73.703 91.8709 73.4081 91.5282 73.0256 91.2732C72.659 91.0182 72.2367 90.8907 71.7585 90.8907H66.2121ZM79.6455 101.003V93.5204H81.7493V100.597C81.7493 101.872 81.9724 102.828 82.4187 103.466C82.865 104.103 83.5264 104.422 84.403 104.422C84.9768 104.422 85.5266 104.303 86.0526 104.064C86.5945 103.809 87.0806 103.45 87.5109 102.988C87.9413 102.525 88.276 101.976 88.515 101.338V93.5204H90.6189V103.609C90.6189 103.864 90.6667 104.056 90.7623 104.183C90.8739 104.295 91.0492 104.358 91.2883 104.374V106C91.0492 106.032 90.8579 106.048 90.7145 106.048C90.587 106.064 90.4595 106.072 90.332 106.072C89.9335 106.072 89.5909 105.952 89.304 105.713C89.0171 105.458 88.8657 105.147 88.8497 104.781L88.8019 103.322C88.26 104.247 87.5269 104.964 86.6025 105.474C85.694 105.984 84.6979 106.239 83.6141 106.239C82.3071 106.239 81.319 105.801 80.6496 104.924C79.9802 104.032 79.6455 102.725 79.6455 101.003ZM94.1233 106V93.5204H96.2272V106H94.1233ZM94.1233 91.1775V88.5478H96.2272V91.1775H94.1233ZM99.681 88.5478H101.785V102.773C101.785 103.458 101.88 103.88 102.072 104.04C102.263 104.199 102.494 104.279 102.765 104.279C103.1 104.279 103.418 104.247 103.721 104.183C104.024 104.103 104.279 104.024 104.486 103.944L104.821 105.665C104.47 105.809 104.056 105.928 103.578 106.024C103.1 106.12 102.677 106.167 102.311 106.167C101.498 106.167 100.852 105.936 100.374 105.474C99.9121 105.012 99.681 104.366 99.681 103.538V88.5478ZM105.661 99.7841C105.661 98.6047 105.9 97.5289 106.378 96.5567C106.872 95.5685 107.542 94.7796 108.386 94.1898C109.247 93.6001 110.227 93.3053 111.327 93.3053C112.331 93.3053 113.232 93.5683 114.028 94.0942C114.825 94.6202 115.447 95.2577 115.893 96.0068V88.5478H117.997V103.609C117.997 103.864 118.045 104.056 118.141 104.183C118.252 104.295 118.427 104.358 118.666 104.374V106C118.268 106.064 117.957 106.096 117.734 106.096C117.32 106.096 116.953 105.952 116.634 105.665C116.332 105.378 116.18 105.06 116.18 104.709V103.657C115.686 104.454 115.025 105.084 114.196 105.546C113.367 106.008 112.506 106.239 111.614 106.239C110.753 106.239 109.956 106.072 109.223 105.737C108.506 105.386 107.876 104.908 107.334 104.303C106.809 103.697 106.394 103.012 106.091 102.247C105.804 101.466 105.661 100.645 105.661 99.7841ZM115.893 101.625V98.0389C115.702 97.497 115.391 97.0109 114.961 96.5806C114.531 96.1343 114.044 95.7837 113.503 95.5287C112.977 95.2577 112.451 95.1222 111.925 95.1222C111.303 95.1222 110.737 95.2577 110.227 95.5287C109.733 95.7837 109.303 96.1343 108.936 96.5806C108.586 97.0109 108.315 97.505 108.123 98.0628C107.932 98.6206 107.837 99.2024 107.837 99.808C107.837 100.43 107.94 101.019 108.147 101.577C108.37 102.135 108.673 102.629 109.056 103.059C109.454 103.49 109.908 103.824 110.419 104.064C110.944 104.303 111.51 104.422 112.116 104.422C112.498 104.422 112.889 104.35 113.287 104.207C113.702 104.064 114.092 103.864 114.459 103.609C114.825 103.354 115.136 103.059 115.391 102.725C115.646 102.374 115.814 102.007 115.893 101.625ZM121.509 106V93.5204H123.613V106H121.509ZM121.509 91.1775V88.5478H123.613V91.1775H121.509ZM137.849 106H135.745V99.0191C135.745 97.6962 135.538 96.732 135.124 96.1263C134.725 95.5047 134.112 95.194 133.283 95.194C132.709 95.194 132.135 95.3374 131.561 95.6243C131.004 95.9112 130.502 96.3017 130.055 96.7957C129.625 97.2739 129.314 97.8317 129.123 98.4692V106H127.019V93.5204H128.932V96.1981C129.266 95.6083 129.697 95.0983 130.223 94.668C130.749 94.2377 131.346 93.903 132.016 93.6639C132.685 93.4248 133.386 93.3053 134.119 93.3053C134.837 93.3053 135.434 93.4408 135.913 93.7117C136.407 93.9667 136.789 94.3333 137.06 94.8114C137.347 95.2736 137.546 95.8235 137.658 96.461C137.785 97.0986 137.849 97.7919 137.849 98.541V106ZM146.093 106.143C145.249 106.143 144.468 105.976 143.75 105.641C143.049 105.291 142.443 104.821 141.933 104.231C141.423 103.625 141.025 102.94 140.738 102.175C140.467 101.41 140.332 100.613 140.332 99.7841C140.332 98.9075 140.467 98.0788 140.738 97.2978C141.025 96.5168 141.423 95.8315 141.933 95.2418C142.459 94.6361 143.073 94.1659 143.774 93.8312C144.476 93.4806 145.257 93.3053 146.117 93.3053C147.153 93.3053 148.054 93.5603 148.819 94.0703C149.6 94.5803 150.253 95.2258 150.779 96.0068V93.5204H152.644V105.857C152.644 107.036 152.357 108.032 151.783 108.845C151.225 109.658 150.46 110.271 149.488 110.686C148.532 111.116 147.464 111.331 146.285 111.331C144.882 111.331 143.734 111.084 142.842 110.59C141.949 110.096 141.208 109.427 140.619 108.582L141.838 107.506C142.332 108.239 142.969 108.789 143.75 109.156C144.547 109.522 145.392 109.706 146.285 109.706C147.05 109.706 147.751 109.562 148.388 109.275C149.042 109.004 149.56 108.582 149.942 108.008C150.341 107.434 150.54 106.717 150.54 105.857V103.657C150.078 104.422 149.44 105.028 148.627 105.474C147.831 105.92 146.986 106.143 146.093 106.143ZM146.739 104.422C147.185 104.422 147.615 104.342 148.03 104.183C148.444 104.024 148.827 103.816 149.177 103.561C149.528 103.291 149.823 102.988 150.062 102.653C150.301 102.318 150.46 101.976 150.54 101.625V98.0389C150.317 97.4651 149.998 96.9631 149.584 96.5328C149.169 96.0865 148.699 95.7438 148.173 95.5047C147.647 95.2497 147.105 95.1222 146.547 95.1222C145.91 95.1222 145.336 95.2577 144.826 95.5287C144.332 95.7996 143.91 96.1662 143.559 96.6284C143.208 97.0746 142.938 97.5767 142.746 98.1345C142.555 98.6924 142.459 99.2582 142.459 99.8319C142.459 100.454 142.571 101.043 142.794 101.601C143.017 102.143 143.32 102.629 143.703 103.059C144.085 103.49 144.539 103.824 145.065 104.064C145.591 104.303 146.149 104.422 146.739 104.422ZM162.421 106V89.0259H173.633V90.9385H164.572V96.6045H172.199V98.3975H164.572V106H162.421ZM181.712 95.3613C180.66 95.3772 179.728 95.6482 178.915 96.1741C178.118 96.6842 177.552 97.3934 177.217 98.3019V106H175.114V93.5204H177.074V96.4132C177.504 95.5526 178.07 94.8592 178.771 94.3333C179.489 93.7914 180.238 93.4886 181.019 93.4248C181.178 93.4248 181.314 93.4248 181.425 93.4248C181.537 93.4248 181.632 93.4328 181.712 93.4487V95.3613ZM188.946 106.239C188.006 106.239 187.153 106.072 186.388 105.737C185.623 105.386 184.961 104.916 184.404 104.326C183.846 103.721 183.415 103.028 183.113 102.247C182.81 101.466 182.658 100.645 182.658 99.7841C182.658 98.9075 182.81 98.0788 183.113 97.2978C183.415 96.5168 183.846 95.8315 184.404 95.2418C184.961 94.6361 185.623 94.1659 186.388 93.8312C187.169 93.4806 188.022 93.3053 188.946 93.3053C189.886 93.3053 190.739 93.4806 191.504 93.8312C192.269 94.1659 192.93 94.6361 193.488 95.2418C194.062 95.8315 194.5 96.5168 194.803 97.2978C195.106 98.0788 195.257 98.9075 195.257 99.7841C195.257 100.645 195.106 101.466 194.803 102.247C194.5 103.028 194.07 103.721 193.512 104.326C192.954 104.916 192.285 105.386 191.504 105.737C190.739 106.072 189.886 106.239 188.946 106.239ZM184.81 99.808C184.81 100.669 184.993 101.45 185.36 102.151C185.742 102.852 186.244 103.41 186.866 103.824C187.488 104.223 188.181 104.422 188.946 104.422C189.711 104.422 190.404 104.215 191.026 103.801C191.663 103.386 192.165 102.828 192.532 102.127C192.915 101.41 193.106 100.621 193.106 99.7602C193.106 98.8996 192.915 98.1186 192.532 97.4173C192.165 96.716 191.663 96.1582 191.026 95.7438C190.404 95.3294 189.711 95.1222 188.946 95.1222C188.181 95.1222 187.488 95.3374 186.866 95.7677C186.244 96.1821 185.742 96.7399 185.36 97.4412C184.993 98.1425 184.81 98.9314 184.81 99.808ZM208.637 106H206.533V99.0191C206.533 97.6962 206.326 96.732 205.911 96.1263C205.513 95.5047 204.899 95.194 204.07 95.194C203.497 95.194 202.923 95.3374 202.349 95.6243C201.791 95.9112 201.289 96.3017 200.843 96.7957C200.413 97.2739 200.102 97.8317 199.911 98.4692V106H197.807V93.5204H199.719V96.1981C200.054 95.6083 200.484 95.0983 201.01 94.668C201.536 94.2377 202.134 93.903 202.803 93.6639C203.473 93.4248 204.174 93.3053 204.907 93.3053C205.624 93.3053 206.222 93.4408 206.7 93.7117C207.194 93.9667 207.577 94.3333 207.848 94.8114C208.135 95.2736 208.334 95.8235 208.445 96.461C208.573 97.0986 208.637 97.7919 208.637 98.541V106ZM218.246 105.378C218.071 105.458 217.832 105.562 217.529 105.689C217.226 105.817 216.876 105.928 216.477 106.024C216.079 106.12 215.657 106.167 215.21 106.167C214.7 106.167 214.23 106.08 213.8 105.904C213.369 105.713 213.027 105.426 212.772 105.044C212.517 104.645 212.389 104.151 212.389 103.561V95.17H210.692V93.5204H212.389V89.3606H214.493V93.5204H217.29V95.17H214.493V102.916C214.525 103.362 214.676 103.697 214.947 103.92C215.218 104.127 215.537 104.231 215.904 104.231C216.318 104.231 216.7 104.159 217.051 104.016C217.402 103.872 217.633 103.769 217.744 103.705L218.246 105.378ZM225.556 106.239C224.615 106.239 223.755 106.072 222.974 105.737C222.209 105.386 221.539 104.916 220.965 104.326C220.407 103.721 219.969 103.028 219.65 102.247C219.348 101.466 219.196 100.637 219.196 99.7602C219.196 98.5808 219.467 97.505 220.009 96.5328C220.551 95.5605 221.3 94.7796 222.256 94.1898C223.229 93.6001 224.336 93.3053 225.579 93.3053C226.839 93.3053 227.93 93.6081 228.855 94.2138C229.795 94.8035 230.52 95.5844 231.03 96.5567C231.556 97.5129 231.819 98.5489 231.819 99.6646C231.819 99.824 231.811 99.9834 231.795 100.143C231.795 100.286 231.787 100.398 231.771 100.477H221.42C221.483 101.29 221.706 102.015 222.089 102.653C222.487 103.275 222.997 103.769 223.619 104.135C224.241 104.486 224.91 104.661 225.627 104.661C226.392 104.661 227.109 104.47 227.779 104.087C228.464 103.705 228.934 103.203 229.189 102.581L231.006 103.083C230.735 103.689 230.329 104.231 229.787 104.709C229.261 105.187 228.632 105.562 227.898 105.833C227.181 106.104 226.4 106.239 225.556 106.239ZM221.348 99.0191H229.859C229.795 98.2063 229.564 97.489 229.165 96.8675C228.767 96.2459 228.257 95.7598 227.635 95.4091C227.014 95.0585 226.329 94.8832 225.579 94.8832C224.846 94.8832 224.169 95.0585 223.547 95.4091C222.926 95.7598 222.416 96.2459 222.017 96.8675C221.635 97.489 221.412 98.2063 221.348 99.0191ZM244.988 106H242.884V99.0191C242.884 97.6962 242.677 96.732 242.262 96.1263C241.864 95.5047 241.25 95.194 240.421 95.194C239.848 95.194 239.274 95.3374 238.7 95.6243C238.142 95.9112 237.64 96.3017 237.194 96.7957C236.764 97.2739 236.453 97.8317 236.262 98.4692V106H234.158V93.5204H236.07V96.1981C236.405 95.6083 236.835 95.0983 237.361 94.668C237.887 94.2377 238.485 93.903 239.154 93.6639C239.824 93.4248 240.525 93.3053 241.258 93.3053C241.975 93.3053 242.573 93.4408 243.051 93.7117C243.545 93.9667 243.928 94.3333 244.199 94.8114C244.486 95.2736 244.685 95.8235 244.796 96.461C244.924 97.0986 244.988 97.7919 244.988 98.541V106ZM247.446 99.7841C247.446 98.6047 247.686 97.5289 248.164 96.5567C248.658 95.5685 249.327 94.7796 250.172 94.1898C251.033 93.6001 252.013 93.3053 253.112 93.3053C254.117 93.3053 255.017 93.5683 255.814 94.0942C256.611 94.6202 257.232 95.2577 257.679 96.0068V88.5478H259.783V103.609C259.783 103.864 259.83 104.056 259.926 104.183C260.038 104.295 260.213 104.358 260.452 104.374V106C260.054 106.064 259.743 106.096 259.52 106.096C259.105 106.096 258.739 105.952 258.42 105.665C258.117 105.378 257.966 105.06 257.966 104.709V103.657C257.472 104.454 256.81 105.084 255.981 105.546C255.153 106.008 254.292 106.239 253.399 106.239C252.539 106.239 251.742 106.072 251.009 105.737C250.291 105.386 249.662 104.908 249.12 104.303C248.594 103.697 248.18 103.012 247.877 102.247C247.59 101.466 247.446 100.645 247.446 99.7841ZM257.679 101.625V98.0389C257.488 97.497 257.177 97.0109 256.746 96.5806C256.316 96.1343 255.83 95.7837 255.288 95.5287C254.762 95.2577 254.236 95.1222 253.71 95.1222C253.089 95.1222 252.523 95.2577 252.013 95.5287C251.519 95.7837 251.088 96.1343 250.722 96.5806C250.371 97.0109 250.1 97.505 249.909 98.0628C249.718 98.6206 249.622 99.2024 249.622 99.808C249.622 100.43 249.726 101.019 249.933 101.577C250.156 102.135 250.459 102.629 250.841 103.059C251.24 103.49 251.694 103.824 252.204 104.064C252.73 104.303 253.296 104.422 253.901 104.422C254.284 104.422 254.674 104.35 255.073 104.207C255.487 104.064 255.878 103.864 256.244 103.609C256.611 103.354 256.922 103.059 257.177 102.725C257.432 102.374 257.599 102.007 257.679 101.625ZM270.011 106V95.17H268.314V93.5204H270.011V93.2575C270.011 92.2374 270.162 91.3608 270.465 90.6277C270.784 89.8786 271.23 89.3048 271.804 88.9064C272.378 88.5079 273.055 88.3087 273.836 88.3087C274.33 88.3087 274.816 88.3804 275.294 88.5238C275.773 88.6513 276.203 88.8346 276.585 89.0737L276.059 90.6277C275.836 90.4683 275.557 90.3408 275.223 90.2452C274.904 90.1495 274.585 90.1017 274.266 90.1017C273.581 90.1017 273.047 90.3727 272.665 90.9146C272.298 91.4405 272.115 92.1976 272.115 93.1857V93.5204H275.438V95.17H272.115V106H270.011ZM282.684 106.239C281.743 106.239 280.891 106.072 280.126 105.737C279.361 105.386 278.699 104.916 278.141 104.326C277.583 103.721 277.153 103.028 276.85 102.247C276.547 101.466 276.396 100.645 276.396 99.7841C276.396 98.9075 276.547 98.0788 276.85 97.2978C277.153 96.5168 277.583 95.8315 278.141 95.2418C278.699 94.6361 279.361 94.1659 280.126 93.8312C280.907 93.4806 281.759 93.3053 282.684 93.3053C283.624 93.3053 284.477 93.4806 285.242 93.8312C286.007 94.1659 286.668 94.6361 287.226 95.2418C287.8 95.8315 288.238 96.5168 288.541 97.2978C288.844 98.0788 288.995 98.9075 288.995 99.7841C288.995 100.645 288.844 101.466 288.541 102.247C288.238 103.028 287.808 103.721 287.25 104.326C286.692 104.916 286.023 105.386 285.242 105.737C284.477 106.072 283.624 106.239 282.684 106.239ZM278.548 99.808C278.548 100.669 278.731 101.45 279.098 102.151C279.48 102.852 279.982 103.41 280.604 103.824C281.225 104.223 281.919 104.422 282.684 104.422C283.449 104.422 284.142 104.215 284.764 103.801C285.401 103.386 285.903 102.828 286.27 102.127C286.652 101.41 286.843 100.621 286.843 99.7602C286.843 98.8996 286.652 98.1186 286.27 97.4173C285.903 96.716 285.401 96.1582 284.764 95.7438C284.142 95.3294 283.449 95.1222 282.684 95.1222C281.919 95.1222 281.225 95.3374 280.604 95.7677C279.982 96.1821 279.48 96.7399 279.098 97.4412C278.731 98.1425 278.548 98.9314 278.548 99.808ZM298.143 95.3613C297.091 95.3772 296.158 95.6482 295.346 96.1741C294.549 96.6842 293.983 97.3934 293.648 98.3019V106H291.544V93.5204H293.505V96.4132C293.935 95.5526 294.501 94.8592 295.202 94.3333C295.919 93.7914 296.669 93.4886 297.449 93.4248C297.609 93.4248 297.744 93.4248 297.856 93.4248C297.967 93.4248 298.063 93.4328 298.143 93.4487V95.3613Z" fill="#25291C"/>
<path d="M50.7214 120.994V134H48.5698V117.026H50.3867L60.7624 130.294V117.05H62.9141V134H60.9537L50.7214 120.994ZM78.4904 132.087V134H66.9671V117.026H78.2752V118.938H69.1187V124.437H77.0798V126.23H69.1187V132.087H78.4904ZM87.658 117.122H89.6901L91.9374 123.027L94.2086 117.122H96.2407L93.3001 124.509L96.2168 131.514L101.955 117.026H104.297L97.197 134H95.3322L91.9613 125.991L88.5665 134H86.7017L79.6252 117.026H81.9442L87.7058 131.514L90.5986 124.509L87.658 117.122ZM116.066 120.588C115.874 120.365 115.619 120.15 115.301 119.943C114.982 119.735 114.623 119.552 114.225 119.393C113.826 119.217 113.388 119.082 112.91 118.986C112.448 118.875 111.962 118.819 111.452 118.819C110.145 118.819 109.18 119.066 108.559 119.56C107.937 120.054 107.627 120.732 107.627 121.592C107.627 122.198 107.786 122.676 108.105 123.027C108.423 123.377 108.91 123.664 109.563 123.887C110.232 124.11 111.077 124.341 112.097 124.581C113.277 124.836 114.297 125.146 115.157 125.513C116.018 125.88 116.679 126.374 117.142 126.995C117.604 127.601 117.835 128.414 117.835 129.434C117.835 130.247 117.675 130.956 117.357 131.561C117.054 132.151 116.624 132.645 116.066 133.044C115.508 133.426 114.854 133.713 114.105 133.904C113.356 134.08 112.543 134.167 111.667 134.167C110.806 134.167 109.961 134.08 109.133 133.904C108.32 133.713 107.547 133.442 106.814 133.092C106.081 132.741 105.395 132.303 104.758 131.777L105.786 129.96C106.041 130.231 106.367 130.502 106.766 130.773C107.18 131.028 107.642 131.267 108.152 131.49C108.678 131.713 109.244 131.896 109.85 132.04C110.456 132.167 111.077 132.231 111.715 132.231C112.926 132.231 113.866 132.016 114.536 131.585C115.205 131.139 115.54 130.494 115.54 129.649C115.54 129.011 115.349 128.501 114.966 128.119C114.599 127.736 114.05 127.418 113.316 127.163C112.583 126.908 111.691 126.653 110.639 126.398C109.491 126.111 108.527 125.8 107.746 125.465C106.965 125.114 106.375 124.66 105.977 124.102C105.594 123.545 105.403 122.819 105.403 121.927C105.403 120.843 105.666 119.927 106.192 119.178C106.718 118.428 107.443 117.863 108.368 117.48C109.292 117.098 110.336 116.906 111.499 116.906C112.264 116.906 112.974 116.986 113.627 117.145C114.297 117.305 114.918 117.528 115.492 117.815C116.066 118.102 116.592 118.444 117.07 118.843L116.066 120.588ZM126.712 134V117.026H137.924V118.938H128.863V124.604H136.49V126.398H128.863V134H126.712ZM145.067 134.239C144.127 134.239 143.266 134.072 142.485 133.737C141.72 133.386 141.051 132.916 140.477 132.326C139.919 131.721 139.481 131.028 139.162 130.247C138.859 129.466 138.708 128.637 138.708 127.76C138.708 126.581 138.979 125.505 139.521 124.533C140.063 123.561 140.812 122.78 141.768 122.19C142.74 121.6 143.848 121.305 145.091 121.305C146.35 121.305 147.442 121.608 148.366 122.214C149.307 122.803 150.032 123.584 150.542 124.557C151.068 125.513 151.331 126.549 151.331 127.665C151.331 127.824 151.323 127.983 151.307 128.143C151.307 128.286 151.299 128.398 151.283 128.477H140.931C140.995 129.29 141.218 130.015 141.601 130.653C141.999 131.275 142.509 131.769 143.131 132.135C143.752 132.486 144.422 132.661 145.139 132.661C145.904 132.661 146.621 132.47 147.291 132.087C147.976 131.705 148.446 131.203 148.701 130.581L150.518 131.083C150.247 131.689 149.841 132.231 149.299 132.709C148.773 133.187 148.143 133.562 147.41 133.833C146.693 134.104 145.912 134.239 145.067 134.239ZM140.86 127.019H149.371C149.307 126.206 149.076 125.489 148.677 124.867C148.279 124.246 147.769 123.76 147.147 123.409C146.526 123.058 145.84 122.883 145.091 122.883C144.358 122.883 143.681 123.058 143.059 123.409C142.437 123.76 141.927 124.246 141.529 124.867C141.146 125.489 140.923 126.206 140.86 127.019ZM159.192 134.239C158.252 134.239 157.391 134.072 156.61 133.737C155.845 133.386 155.176 132.916 154.602 132.326C154.044 131.721 153.606 131.028 153.287 130.247C152.984 129.466 152.833 128.637 152.833 127.76C152.833 126.581 153.104 125.505 153.646 124.533C154.187 123.561 154.937 122.78 155.893 122.19C156.865 121.6 157.973 121.305 159.216 121.305C160.475 121.305 161.567 121.608 162.491 122.214C163.432 122.803 164.157 123.584 164.667 124.557C165.193 125.513 165.456 126.549 165.456 127.665C165.456 127.824 165.448 127.983 165.432 128.143C165.432 128.286 165.424 128.398 165.408 128.477H155.056C155.12 129.29 155.343 130.015 155.726 130.653C156.124 131.275 156.634 131.769 157.256 132.135C157.877 132.486 158.547 132.661 159.264 132.661C160.029 132.661 160.746 132.47 161.415 132.087C162.101 131.705 162.571 131.203 162.826 130.581L164.643 131.083C164.372 131.689 163.966 132.231 163.424 132.709C162.898 133.187 162.268 133.562 161.535 133.833C160.818 134.104 160.037 134.239 159.192 134.239ZM154.984 127.019H163.495C163.432 126.206 163.201 125.489 162.802 124.867C162.404 124.246 161.894 123.76 161.272 123.409C160.65 123.058 159.965 122.883 159.216 122.883C158.483 122.883 157.805 123.058 157.184 123.409C156.562 123.76 156.052 124.246 155.654 124.867C155.271 125.489 155.048 126.206 154.984 127.019ZM166.982 127.784C166.982 126.605 167.221 125.529 167.699 124.557C168.193 123.568 168.862 122.78 169.707 122.19C170.568 121.6 171.548 121.305 172.648 121.305C173.652 121.305 174.552 121.568 175.349 122.094C176.146 122.62 176.768 123.258 177.214 124.007V116.548H179.318V131.609C179.318 131.864 179.365 132.056 179.461 132.183C179.573 132.295 179.748 132.358 179.987 132.374V134C179.589 134.064 179.278 134.096 179.055 134.096C178.64 134.096 178.274 133.952 177.955 133.665C177.652 133.378 177.501 133.06 177.501 132.709V131.657C177.007 132.454 176.345 133.084 175.516 133.546C174.688 134.008 173.827 134.239 172.934 134.239C172.074 134.239 171.277 134.072 170.544 133.737C169.826 133.386 169.197 132.908 168.655 132.303C168.129 131.697 167.715 131.012 167.412 130.247C167.125 129.466 166.982 128.645 166.982 127.784ZM177.214 129.625V126.039C177.023 125.497 176.712 125.011 176.281 124.581C175.851 124.134 175.365 123.784 174.823 123.529C174.297 123.258 173.771 123.122 173.245 123.122C172.624 123.122 172.058 123.258 171.548 123.529C171.054 123.784 170.623 124.134 170.257 124.581C169.906 125.011 169.635 125.505 169.444 126.063C169.253 126.621 169.157 127.202 169.157 127.808C169.157 128.43 169.261 129.019 169.468 129.577C169.691 130.135 169.994 130.629 170.376 131.059C170.775 131.49 171.229 131.824 171.739 132.064C172.265 132.303 172.831 132.422 173.436 132.422C173.819 132.422 174.209 132.35 174.608 132.207C175.022 132.064 175.413 131.864 175.779 131.609C176.146 131.354 176.457 131.059 176.712 130.725C176.967 130.374 177.134 130.007 177.214 129.625ZM193.628 117.026H195.445L202.378 134H200.083L198.075 129.027H190.951L188.966 134H186.671L193.628 117.026ZM197.597 127.354L194.537 119.512L191.381 127.354H197.597ZM211.027 134.239C210.007 134.239 209.098 133.984 208.301 133.474C207.504 132.964 206.875 132.319 206.413 131.538V139.092H204.309V121.52H206.174V123.863C206.668 123.098 207.313 122.485 208.11 122.022C208.907 121.544 209.776 121.305 210.716 121.305C211.577 121.305 212.366 121.481 213.083 121.831C213.8 122.182 214.422 122.66 214.948 123.266C215.474 123.871 215.88 124.565 216.167 125.346C216.47 126.111 216.621 126.916 216.621 127.76C216.621 128.94 216.382 130.023 215.904 131.012C215.442 132 214.788 132.789 213.943 133.378C213.099 133.952 212.127 134.239 211.027 134.239ZM210.381 132.422C211.003 132.422 211.561 132.295 212.055 132.04C212.565 131.769 212.995 131.418 213.346 130.988C213.712 130.541 213.991 130.039 214.183 129.482C214.374 128.924 214.469 128.35 214.469 127.76C214.469 127.139 214.358 126.549 214.135 125.991C213.928 125.433 213.625 124.939 213.226 124.509C212.844 124.079 212.389 123.744 211.864 123.505C211.354 123.25 210.796 123.122 210.19 123.122C209.808 123.122 209.409 123.194 208.995 123.337C208.596 123.481 208.214 123.688 207.847 123.959C207.481 124.214 207.17 124.509 206.915 124.844C206.66 125.178 206.492 125.537 206.413 125.919V129.482C206.652 130.023 206.971 130.518 207.369 130.964C207.767 131.41 208.23 131.769 208.756 132.04C209.282 132.295 209.823 132.422 210.381 132.422ZM225.922 134.239C224.902 134.239 223.994 133.984 223.197 133.474C222.4 132.964 221.77 132.319 221.308 131.538V139.092H219.204V121.52H221.069V123.863C221.563 123.098 222.208 122.485 223.005 122.022C223.802 121.544 224.671 121.305 225.611 121.305C226.472 121.305 227.261 121.481 227.978 121.831C228.695 122.182 229.317 122.66 229.843 123.266C230.369 123.871 230.775 124.565 231.062 125.346C231.365 126.111 231.516 126.916 231.516 127.76C231.516 128.94 231.277 130.023 230.799 131.012C230.337 132 229.683 132.789 228.839 133.378C227.994 133.952 227.022 134.239 225.922 134.239ZM225.277 132.422C225.898 132.422 226.456 132.295 226.95 132.04C227.46 131.769 227.89 131.418 228.241 130.988C228.608 130.541 228.887 130.039 229.078 129.482C229.269 128.924 229.365 128.35 229.365 127.76C229.365 127.139 229.253 126.549 229.03 125.991C228.823 125.433 228.52 124.939 228.122 124.509C227.739 124.079 227.285 123.744 226.759 123.505C226.249 123.25 225.691 123.122 225.085 123.122C224.703 123.122 224.304 123.194 223.89 123.337C223.492 123.481 223.109 123.688 222.742 123.959C222.376 124.214 222.065 124.509 221.81 124.844C221.555 125.178 221.388 125.537 221.308 125.919V129.482C221.547 130.023 221.866 130.518 222.264 130.964C222.663 131.41 223.125 131.769 223.651 132.04C224.177 132.295 224.719 132.422 225.277 132.422ZM234.147 116.548H236.251V130.773C236.251 131.458 236.347 131.88 236.538 132.04C236.729 132.199 236.96 132.279 237.231 132.279C237.566 132.279 237.885 132.247 238.188 132.183C238.49 132.103 238.745 132.024 238.953 131.944L239.287 133.665C238.937 133.809 238.522 133.928 238.044 134.024C237.566 134.12 237.144 134.167 236.777 134.167C235.964 134.167 235.319 133.936 234.841 133.474C234.378 133.012 234.147 132.366 234.147 131.538V116.548ZM240.94 134V121.52H243.044V134H240.94ZM240.94 119.178V116.548H243.044V119.178H240.94ZM251.973 134.239C251.032 134.239 250.171 134.072 249.391 133.737C248.625 133.386 247.956 132.908 247.382 132.303C246.824 131.697 246.386 131.004 246.067 130.223C245.765 129.442 245.613 128.613 245.613 127.736C245.613 126.557 245.876 125.481 246.402 124.509C246.928 123.537 247.669 122.764 248.625 122.19C249.582 121.6 250.689 121.305 251.949 121.305C253.176 121.305 254.244 121.584 255.152 122.142C256.077 122.684 256.762 123.417 257.208 124.341L255.152 124.987C254.833 124.397 254.387 123.943 253.813 123.624C253.24 123.29 252.602 123.122 251.901 123.122C251.136 123.122 250.434 123.321 249.797 123.72C249.175 124.118 248.681 124.668 248.315 125.37C247.948 126.055 247.765 126.844 247.765 127.736C247.765 128.613 247.948 129.41 248.315 130.127C248.697 130.828 249.199 131.386 249.821 131.801C250.458 132.215 251.16 132.422 251.925 132.422C252.419 132.422 252.889 132.334 253.335 132.159C253.797 131.984 254.196 131.753 254.531 131.466C254.881 131.163 255.12 130.836 255.248 130.486L257.304 131.107C257.049 131.713 256.658 132.255 256.132 132.733C255.622 133.195 255.009 133.562 254.292 133.833C253.59 134.104 252.817 134.239 251.973 134.239ZM258.707 130.39C258.707 129.593 258.931 128.908 259.377 128.334C259.839 127.744 260.469 127.29 261.265 126.971C262.062 126.653 262.987 126.493 264.039 126.493C264.597 126.493 265.186 126.541 265.808 126.637C266.429 126.716 266.979 126.844 267.457 127.019V126.111C267.457 125.154 267.171 124.405 266.597 123.863C266.023 123.306 265.21 123.027 264.158 123.027C263.473 123.027 262.811 123.154 262.174 123.409C261.552 123.648 260.891 123.999 260.19 124.461L259.425 122.979C260.237 122.421 261.05 122.007 261.863 121.736C262.676 121.449 263.521 121.305 264.397 121.305C265.991 121.305 267.25 121.752 268.175 122.644C269.099 123.521 269.561 124.748 269.561 126.326V131.609C269.561 131.864 269.609 132.056 269.705 132.183C269.816 132.295 269.992 132.358 270.231 132.374V134C270.023 134.032 269.84 134.056 269.681 134.072C269.537 134.088 269.418 134.096 269.322 134.096C268.828 134.096 268.454 133.96 268.199 133.689C267.96 133.418 267.824 133.131 267.792 132.829L267.744 132.04C267.202 132.741 266.493 133.283 265.617 133.665C264.74 134.048 263.871 134.239 263.011 134.239C262.182 134.239 261.441 134.072 260.787 133.737C260.134 133.386 259.624 132.924 259.257 132.35C258.891 131.761 258.707 131.107 258.707 130.39ZM266.836 131.275C267.027 131.051 267.179 130.828 267.29 130.605C267.402 130.366 267.457 130.167 267.457 130.007V128.454C266.963 128.262 266.445 128.119 265.903 128.023C265.362 127.912 264.828 127.856 264.302 127.856C263.234 127.856 262.365 128.071 261.696 128.501C261.042 128.916 260.716 129.49 260.716 130.223C260.716 130.621 260.819 131.012 261.026 131.394C261.25 131.761 261.568 132.064 261.983 132.303C262.413 132.542 262.939 132.661 263.561 132.661C264.214 132.661 264.836 132.534 265.425 132.279C266.015 132.008 266.485 131.673 266.836 131.275ZM279.287 133.378C279.112 133.458 278.872 133.562 278.57 133.689C278.267 133.817 277.916 133.928 277.518 134.024C277.119 134.12 276.697 134.167 276.251 134.167C275.741 134.167 275.27 134.08 274.84 133.904C274.41 133.713 274.067 133.426 273.812 133.044C273.557 132.645 273.43 132.151 273.43 131.561V123.17H271.732V121.52H273.43V117.361H275.533V121.52H278.331V123.17H275.533V130.916C275.565 131.362 275.717 131.697 275.988 131.92C276.259 132.127 276.577 132.231 276.944 132.231C277.358 132.231 277.741 132.159 278.091 132.016C278.442 131.872 278.673 131.769 278.785 131.705L279.287 133.378ZM281.237 134V121.52H283.341V134H281.237ZM281.237 119.178V116.548H283.341V119.178H281.237ZM292.197 134.239C291.257 134.239 290.404 134.072 289.639 133.737C288.874 133.386 288.213 132.916 287.655 132.326C287.097 131.721 286.667 131.028 286.364 130.247C286.061 129.466 285.91 128.645 285.91 127.784C285.91 126.908 286.061 126.079 286.364 125.298C286.667 124.517 287.097 123.831 287.655 123.242C288.213 122.636 288.874 122.166 289.639 121.831C290.42 121.481 291.273 121.305 292.197 121.305C293.138 121.305 293.991 121.481 294.756 121.831C295.521 122.166 296.182 122.636 296.74 123.242C297.314 123.831 297.752 124.517 298.055 125.298C298.358 126.079 298.509 126.908 298.509 127.784C298.509 128.645 298.358 129.466 298.055 130.247C297.752 131.028 297.322 131.721 296.764 132.326C296.206 132.916 295.537 133.386 294.756 133.737C293.991 134.072 293.138 134.239 292.197 134.239ZM288.062 127.808C288.062 128.669 288.245 129.45 288.611 130.151C288.994 130.852 289.496 131.41 290.118 131.824C290.739 132.223 291.432 132.422 292.197 132.422C292.963 132.422 293.656 132.215 294.277 131.801C294.915 131.386 295.417 130.828 295.784 130.127C296.166 129.41 296.357 128.621 296.357 127.76C296.357 126.9 296.166 126.119 295.784 125.417C295.417 124.716 294.915 124.158 294.277 123.744C293.656 123.329 292.963 123.122 292.197 123.122C291.432 123.122 290.739 123.337 290.118 123.768C289.496 124.182 288.994 124.74 288.611 125.441C288.245 126.143 288.062 126.931 288.062 127.808ZM311.888 134H309.784V127.019C309.784 125.696 309.577 124.732 309.163 124.126C308.764 123.505 308.151 123.194 307.322 123.194C306.748 123.194 306.174 123.337 305.601 123.624C305.043 123.911 304.541 124.302 304.094 124.796C303.664 125.274 303.353 125.832 303.162 126.469V134H301.058V121.52H302.971V124.198C303.306 123.608 303.736 123.098 304.262 122.668C304.788 122.238 305.385 121.903 306.055 121.664C306.724 121.425 307.426 121.305 308.159 121.305C308.876 121.305 309.474 121.441 309.952 121.712C310.446 121.967 310.828 122.333 311.099 122.811C311.386 123.274 311.585 123.824 311.697 124.461C311.824 125.099 311.888 125.792 311.888 126.541V134Z" fill="#D1701F"/>
</g>
<path d="M163.532 65.5125L163.532 56.2254C163.532 51.6179 159.684 47.8829 154.938 47.8828C150.449 47.8828 146.688 51.2865 146.647 55.6435C146.646 55.846 146.645 56.0437 146.645 56.2352" stroke="#EB8F44" stroke-width="1.99854"/>
<path d="M146.618 60.957C147.23 60.9602 147.728 60.4819 147.731 59.8886C147.735 59.2953 147.242 58.8118 146.63 58.8086C146.019 58.8053 145.521 59.2837 145.517 59.8769C145.514 60.4702 146.007 60.9538 146.618 60.957Z" fill="#EB8F44"/>
<path d="M150.224 60.9658C150.835 60.969 151.334 60.4907 151.337 59.8974C151.34 59.3041 150.847 58.8206 150.236 58.8174C149.625 58.8141 149.126 59.2925 149.123 59.8857C149.119 60.479 149.612 60.9626 150.224 60.9658Z" fill="#25291C"/>
<path d="M146.114 65.7002L146.071 71.4724C146.035 76.1181 149.871 79.9194 154.656 79.9818C159.408 80.0443 163.333 76.3963 163.475 71.7859L163.503 70.8774" stroke="#25291C" stroke-width="1.99854"/>
<path d="M159.618 63.0657L159.606 71.2184C159.602 73.7716 157.45 75.8299 154.82 75.7954C152.224 75.7614 150.143 73.6989 150.163 71.1785L150.212 64.8488C150.225 63.2052 148.286 62.2647 146.939 63.261C146.434 63.6352 146.137 64.2171 146.137 64.8343V65.8542" stroke="#25291C" stroke-width="1.99854"/>
<path d="M154.915 52.0548L154.898 51.0833L154.915 51.083L154.931 51.0833L154.915 52.0548ZM151.279 59.6662C151.279 60.2028 150.831 60.6379 150.278 60.6379C149.726 60.6379 149.277 60.2028 149.277 59.6662H151.279ZM154.931 53.0263L154.653 53.0308L154.62 51.0877L154.898 51.0833L154.931 53.0263ZM151.279 56.3604V59.6662H149.277V56.3604H151.279ZM158.62 63.229V57.9301H160.622V63.229H158.62ZM158.62 57.9301V56.698H160.622V57.9301H158.62ZM149.277 56.3604C149.277 53.4819 151.655 51.1352 154.62 51.0877L154.653 53.0308C152.781 53.0608 151.279 54.5427 151.279 56.3604H149.277ZM154.931 51.0833C158.089 51.1331 160.622 53.6322 160.622 56.698H158.62C158.62 54.6932 156.964 53.0589 154.899 53.0263L154.931 51.0833Z" fill="#25291C"/>
<path d="M163.517 72.0595C164.264 72.0634 164.873 71.4804 164.877 70.7572C164.882 70.0341 164.279 69.4447 163.532 69.4407C162.785 69.4368 162.176 70.0198 162.172 70.743C162.168 71.4661 162.77 72.0555 163.517 72.0595Z" fill="#25291C"/>
<path d="M163.62 66.9521C164.357 66.9521 164.955 66.2996 164.955 65.4946C164.955 64.6897 164.357 64.0371 163.62 64.0371C162.883 64.0371 162.285 64.6897 162.285 65.4946C162.285 66.2996 162.883 66.9521 163.62 66.9521Z" fill="#EB8F44"/>
<path d="M146.608 57.2356C147.345 57.2356 147.943 56.6556 147.943 55.9401C147.943 55.2246 147.345 54.6445 146.608 54.6445C145.871 54.6445 145.273 55.2246 145.273 55.9401C145.273 56.6556 145.871 57.2356 146.608 57.2356Z" fill="#EB8F44"/>
<path d="M169.872 71.1755C169.935 70.0269 170.246 69 170.805 68.0948C171.383 67.1897 172.122 66.4801 173.022 65.9658C173.941 65.4517 174.955 65.1975 176.062 65.2032C176.94 65.2077 177.617 65.3317 178.093 65.575C178.569 65.8184 178.748 66.1714 178.631 66.6341C178.554 66.9117 178.419 67.0963 178.227 67.188C178.055 67.2798 177.835 67.3157 177.568 67.2958C177.32 67.2759 177.034 67.256 176.709 67.2358C175.64 67.1376 174.686 67.2439 173.844 67.5545C173.021 67.8468 172.36 68.3067 171.86 68.9342C171.38 69.5618 171.137 70.3111 171.132 71.182L169.872 71.1755ZM169.993 80.5439C169.649 80.5421 169.382 80.4483 169.192 80.2618C169.002 80.0758 168.908 79.8156 168.91 79.4819L168.982 66.3898C168.984 66.0562 169.081 65.7972 169.272 65.6129C169.464 65.4286 169.732 65.3373 170.076 65.3391C170.42 65.3409 170.686 65.4349 170.876 65.6212C171.066 65.8075 171.16 66.0674 171.158 66.401L171.086 79.4931C171.085 79.8268 170.988 80.0857 170.796 80.27C170.604 80.4543 170.336 80.5456 169.993 80.5439ZM188.234 80.7768C186.744 80.7695 185.4 80.4289 184.201 79.7553C183.021 79.0822 182.081 78.1693 181.381 77.0169C180.7 75.8459 180.354 74.5376 180.343 73.092L180.415 59.9719C180.417 59.6383 180.514 59.3794 180.706 59.1951C180.916 58.9923 181.194 58.8918 181.538 58.8936C181.862 58.8953 182.119 58.9985 182.309 59.2033C182.518 59.3897 182.622 59.6497 182.62 59.9833L182.575 68.1555C183.21 67.2878 184.044 66.5972 185.078 66.0836C186.131 65.5516 187.297 65.2889 188.576 65.2955C190.046 65.3031 191.361 65.6527 192.522 66.3444C193.683 67.0176 194.594 67.9396 195.256 69.1105C195.937 70.2815 196.274 71.599 196.266 73.0629C196.258 74.5454 195.897 75.8688 195.184 77.0324C194.491 78.1964 193.541 79.118 192.334 79.7976C191.128 80.4586 189.761 80.785 188.234 80.7768ZM188.244 78.8312C189.351 78.8368 190.345 78.5917 191.227 78.0961C192.108 77.5819 192.798 76.8903 193.3 76.0221C193.82 75.1539 194.083 74.1634 194.089 73.0517C194.095 71.9584 193.843 70.9749 193.332 70.1013C192.841 69.2092 192.157 68.5107 191.282 68.0059C190.406 67.501 189.415 67.2457 188.308 67.24C187.219 67.2344 186.235 67.4795 185.354 67.9753C184.473 68.4711 183.782 69.1625 183.281 70.0494C182.779 70.9178 182.526 71.8987 182.52 72.992C182.514 74.104 182.757 75.0966 183.248 75.97C183.74 76.8437 184.424 77.5423 185.299 78.0655C186.174 78.5702 187.156 78.8256 188.244 78.8312ZM200.406 80.7011C200.062 80.6989 199.786 80.605 199.577 80.4185C199.387 80.2136 199.293 79.9444 199.295 79.6111L199.366 66.5743C199.368 66.2408 199.465 65.9818 199.657 65.7974C199.868 65.5947 200.145 65.4942 200.489 65.496C200.814 65.4977 201.071 65.6009 201.26 65.8058C201.469 65.9921 201.573 66.2521 201.571 66.5857L201.5 79.6223C201.498 79.956 201.392 80.2243 201.18 80.4267C200.988 80.611 200.73 80.7023 200.406 80.7011ZM200.476 62.605C200.056 62.6028 199.694 62.4527 199.39 62.1546C199.086 61.8565 198.936 61.4944 198.938 61.0682C198.941 60.6049 199.095 60.2443 199.402 59.9865C199.728 59.7102 200.102 59.5731 200.521 59.5752C200.922 59.5773 201.275 59.7181 201.578 59.9977C201.902 60.2588 202.062 60.621 202.059 61.0843C202.057 61.5105 201.902 61.8711 201.595 62.166C201.288 62.4609 200.915 62.6072 200.476 62.605ZM211.519 80.7583C210.507 80.7532 209.601 80.5167 208.802 80.0491C208.022 79.5818 207.405 78.9487 206.951 78.1495C206.497 77.3317 206.273 76.4041 206.279 75.3662L206.353 61.7736C206.355 61.4585 206.452 61.1996 206.644 60.9967C206.855 60.794 207.123 60.6934 207.447 60.6951C207.772 60.6968 208.039 60.8001 208.248 61.005C208.456 61.2099 208.56 61.4699 208.558 61.7849L208.484 75.3774C208.479 76.3227 208.761 77.1026 209.33 77.7171C209.9 78.3131 210.633 78.6133 211.53 78.618L212.303 78.6219C212.609 78.6232 212.857 78.7265 213.046 78.9315C213.236 79.1361 213.33 79.3962 213.328 79.711C213.327 80.0262 213.211 80.285 212.98 80.4879C212.751 80.6718 212.464 80.7631 212.12 80.7613L211.519 80.7583ZM204.458 67.9349C204.172 67.9334 203.933 67.8487 203.744 67.681C203.554 67.4947 203.46 67.2718 203.461 67.0124C203.462 66.7344 203.559 66.5125 203.751 66.3467C203.943 66.1624 204.182 66.071 204.468 66.0725L211.771 66.1101C212.057 66.1116 212.295 66.2055 212.485 66.3918C212.675 66.5596 212.769 66.7824 212.768 67.0604C212.766 67.3198 212.669 67.5417 212.478 67.7261C212.286 67.8919 212.047 67.974 211.76 67.9725L204.458 67.9349Z" fill="#25291C"/>
<path d="M200.728 62.867C201.708 62.867 202.502 62.0958 202.502 61.1445C202.502 60.1931 201.708 59.4219 200.728 59.4219C199.748 59.4219 198.953 60.1931 198.953 61.1445C198.953 62.0958 199.748 62.867 200.728 62.867Z" fill="#EB8F44"/>
</g>
<defs>
<filter id="filter0_d_624_2273" x="48.3316" y="86.8763" width="267.136" height="54.6027" filterUnits="userSpaceOnUse" color-interpolation-filters="sRGB">
<feFlood flood-opacity="0" result="BackgroundImageFix"/>
<feColorMatrix in="SourceAlpha" type="matrix" values="0 0 0 0 0 0 0 0 0 0 0 0 0 0 0 0 0 0 127 0" result="hardAlpha"/>
<feOffset dx="1.67104" dy="0.477439"/>
<feGaussianBlur stdDeviation="0.954878"/>
<feComposite in2="hardAlpha" operator="out"/>
<feColorMatrix type="matrix" values="0 0 0 0 0.145098 0 0 0 0 0.160784 0 0 0 0 0.109804 0 0 0 0.25 0"/>
<feBlend mode="normal" in2="BackgroundImageFix" result="effect1_dropShadow_624_2273"/>
<feBlend mode="normal" in="SourceGraphic" in2="effect1_dropShadow_624_2273" result="shape"/>
</filter>
<linearGradient id="paint0_linear_624_2273" x1="274.852" y1="3.00195" x2="274.852" y2="265.375" gradientUnits="userSpaceOnUse">
<stop stop-color="#C4C4C4" stop-opacity="0"/>
<stop offset="0.526042" stop-color="#C4C4C4"/>
<stop offset="1" stop-color="#C4C4C4" stop-opacity="0"/>
</linearGradient>
<clipPath id="clip0_624_2273">
<rect width="360" height="190" fill="white"/>
</clipPath>
<clipPath id="clip1_624_2273">
<rect width="409" height="187.458" fill="white" transform="translate(-16 3)"/>
</clipPath>
<clipPath id="clip2_624_2273">
<rect width="581.704" height="262.979" fill="white" transform="translate(-16 3)"/>
</clipPath>
</defs>
</svg>
