<svg width="360" height="190" viewBox="0 0 360 190" fill="none" xmlns="http://www.w3.org/2000/svg">
<g clip-path="url(#clip0_624_2193)">
<rect width="360" height="190" fill="#E3E5DE"/>
<g clip-path="url(#clip1_624_2193)">
<g clip-path="url(#clip2_624_2193)">
<mask id="mask0_624_2193" style="mask-type:alpha" maskUnits="userSpaceOnUse" x="-16" y="3" width="582" height="263">
<rect x="-16" y="3.00195" width="581.704" height="262.373" fill="url(#paint0_linear_624_2193)"/>
</mask>
<g mask="url(#mask0_624_2193)">
<line y1="-0.151486" x2="584.431" y2="-0.151486" transform="matrix(-0.866025 0.5 -0.866025 -0.5 269.496 -162.117)" stroke="#E86800" stroke-opacity="0.79" stroke-width="0.302971"/>
<line y1="-0.151486" x2="584.431" y2="-0.151486" transform="matrix(-0.866025 0.5 -0.866025 -0.5 287.34 -151.816)" stroke="#E86800" stroke-opacity="0.79" stroke-width="0.302971"/>
<line y1="-0.151486" x2="584.431" y2="-0.151486" transform="matrix(-0.866025 0.5 -0.866025 -0.5 305.18 -141.516)" stroke="#E86800" stroke-opacity="0.79" stroke-width="0.302971"/>
<line y1="-0.151486" x2="584.431" y2="-0.151486" transform="matrix(-0.866025 0.5 -0.866025 -0.5 323.023 -131.214)" stroke="#E86800" stroke-opacity="0.79" stroke-width="0.302971"/>
<line y1="-0.151486" x2="584.431" y2="-0.151486" transform="matrix(-0.866025 0.5 -0.866025 -0.5 340.863 -120.913)" stroke="#E86800" stroke-opacity="0.79" stroke-width="0.302971"/>
<line y1="-0.151486" x2="584.431" y2="-0.151486" transform="matrix(-0.866025 0.5 -0.866025 -0.5 358.707 -110.612)" stroke="#E86800" stroke-opacity="0.79" stroke-width="0.302971"/>
<line y1="-0.151486" x2="584.431" y2="-0.151486" transform="matrix(-0.866025 0.5 -0.866025 -0.5 376.547 -100.312)" stroke="#E86800" stroke-opacity="0.79" stroke-width="0.302971"/>
<line y1="-0.151486" x2="584.431" y2="-0.151486" transform="matrix(-0.866025 0.5 -0.866025 -0.5 394.391 -90.0098)" stroke="#E86800" stroke-opacity="0.79" stroke-width="0.302971"/>
<line y1="-0.151486" x2="584.431" y2="-0.151486" transform="matrix(-0.866025 0.5 -0.866025 -0.5 412.23 -79.709)" stroke="#E86800" stroke-opacity="0.79" stroke-width="0.302971"/>
<line y1="-0.151486" x2="584.431" y2="-0.151486" transform="matrix(-0.866025 0.5 -0.866025 -0.5 430.074 -69.4082)" stroke="#E86800" stroke-opacity="0.79" stroke-width="0.302971"/>
<line y1="-0.151486" x2="584.431" y2="-0.151486" transform="matrix(-0.866025 0.5 -0.866025 -0.5 447.914 -59.1074)" stroke="#E86800" stroke-opacity="0.79" stroke-width="0.302971"/>
<line y1="-0.151486" x2="584.431" y2="-0.151486" transform="matrix(-0.866025 0.5 -0.866025 -0.5 465.758 -48.8057)" stroke="#E86800" stroke-opacity="0.79" stroke-width="0.302971"/>
<line y1="-0.151486" x2="584.431" y2="-0.151486" transform="matrix(-0.866025 0.5 -0.866025 -0.5 483.598 -38.5049)" stroke="#E86800" stroke-opacity="0.79" stroke-width="0.302971"/>
<line y1="-0.151486" x2="584.431" y2="-0.151486" transform="matrix(-0.866025 0.5 -0.866025 -0.5 501.441 -28.2041)" stroke="#E86800" stroke-opacity="0.79" stroke-width="0.302971"/>
<line y1="-0.151486" x2="584.431" y2="-0.151486" transform="matrix(-0.866025 0.5 -0.866025 -0.5 519.281 -17.9033)" stroke="#E86800" stroke-opacity="0.79" stroke-width="0.302971"/>
<line y1="-0.151486" x2="584.431" y2="-0.151486" transform="matrix(-0.866025 0.5 -0.866025 -0.5 537.125 -7.60156)" stroke="#E86800" stroke-opacity="0.79" stroke-width="0.302971"/>
<line y1="-0.151486" x2="584.431" y2="-0.151486" transform="matrix(-0.866025 0.5 -0.866025 -0.5 554.965 2.69922)" stroke="#E86800" stroke-opacity="0.79" stroke-width="0.302971"/>
<line y1="-0.151486" x2="584.431" y2="-0.151486" transform="matrix(-0.866025 0.5 -0.866025 -0.5 572.809 13)" stroke="#E86800" stroke-opacity="0.79" stroke-width="0.302971"/>
<line y1="-0.151486" x2="584.431" y2="-0.151486" transform="matrix(-0.866025 0.5 -0.866025 -0.5 590.648 23.3008)" stroke="#E86800" stroke-opacity="0.79" stroke-width="0.302971"/>
<line y1="-0.151486" x2="584.431" y2="-0.151486" transform="matrix(-0.866025 0.5 -0.866025 -0.5 608.492 33.6025)" stroke="#E86800" stroke-opacity="0.79" stroke-width="0.302971"/>
<line y1="-0.151486" x2="584.431" y2="-0.151486" transform="matrix(-0.866025 0.5 -0.866025 -0.5 626.332 43.9033)" stroke="#E86800" stroke-opacity="0.79" stroke-width="0.302971"/>
<line y1="-0.151486" x2="584.431" y2="-0.151486" transform="matrix(-0.866025 0.5 -0.866025 -0.5 644.176 54.2041)" stroke="#E86800" stroke-opacity="0.79" stroke-width="0.302971"/>
<line y1="-0.151486" x2="584.431" y2="-0.151486" transform="matrix(-0.866025 0.5 -0.866025 -0.5 662.016 64.5049)" stroke="#E86800" stroke-opacity="0.79" stroke-width="0.302971"/>
<line y1="-0.151486" x2="584.431" y2="-0.151486" transform="matrix(-0.866025 0.5 -0.866025 -0.5 679.859 74.8057)" stroke="#E86800" stroke-opacity="0.79" stroke-width="0.302971"/>
<line y1="-0.151486" x2="584.431" y2="-0.151486" transform="matrix(-0.866025 0.5 -0.866025 -0.5 697.699 85.1074)" stroke="#E86800" stroke-opacity="0.79" stroke-width="0.302971"/>
<line y1="-0.151486" x2="584.431" y2="-0.151486" transform="matrix(-0.866025 0.5 -0.866025 -0.5 715.543 95.4082)" stroke="#E86800" stroke-opacity="0.79" stroke-width="0.302971"/>
<line y1="-0.151486" x2="584.431" y2="-0.151486" transform="matrix(-0.866025 0.5 -0.866025 -0.5 733.387 105.709)" stroke="#E86800" stroke-opacity="0.79" stroke-width="0.302971"/>
<line y1="-0.151486" x2="584.431" y2="-0.151486" transform="matrix(-0.866025 0.5 -0.866025 -0.5 751.227 116.01)" stroke="#E86800" stroke-opacity="0.79" stroke-width="0.302971"/>
<line y1="-0.151486" x2="584.431" y2="-0.151486" transform="matrix(-0.866025 0.5 -0.866025 -0.5 769.07 126.312)" stroke="#E86800" stroke-opacity="0.79" stroke-width="0.302971"/>
<line y1="-0.151486" x2="584.431" y2="-0.151486" transform="matrix(-0.866025 0.5 -0.866025 -0.5 786.91 136.612)" stroke="#E86800" stroke-opacity="0.79" stroke-width="0.302971"/>
<line y1="-0.151486" x2="606.245" y2="-0.151486" transform="matrix(0.866025 0.5 -0.866025 0.5 -235.34 129.652)" stroke="#E86800" stroke-opacity="0.79" stroke-width="0.302971"/>
<line y1="-0.151486" x2="606.245" y2="-0.151486" transform="matrix(0.866025 0.5 -0.866025 0.5 -216.633 118.852)" stroke="#E86800" stroke-opacity="0.79" stroke-width="0.302971"/>
<line y1="-0.151486" x2="606.245" y2="-0.151486" transform="matrix(0.866025 0.5 -0.866025 0.5 -197.922 108.05)" stroke="#E86800" stroke-opacity="0.79" stroke-width="0.302971"/>
<line y1="-0.151486" x2="606.245" y2="-0.151486" transform="matrix(0.866025 0.5 -0.866025 0.5 -179.215 97.249)" stroke="#E86800" stroke-opacity="0.79" stroke-width="0.302971"/>
<line y1="-0.151486" x2="606.245" y2="-0.151486" transform="matrix(0.866025 0.5 -0.866025 0.5 -160.508 86.4482)" stroke="#E86800" stroke-opacity="0.79" stroke-width="0.302971"/>
<line y1="-0.151486" x2="606.245" y2="-0.151486" transform="matrix(0.866025 0.5 -0.866025 0.5 -141.801 75.6475)" stroke="#E86800" stroke-opacity="0.79" stroke-width="0.302971"/>
<line y1="-0.151486" x2="606.245" y2="-0.151486" transform="matrix(0.866025 0.5 -0.866025 0.5 -123.094 64.8457)" stroke="#E86800" stroke-opacity="0.79" stroke-width="0.302971"/>
<line y1="-0.151486" x2="606.245" y2="-0.151486" transform="matrix(0.866025 0.5 -0.866025 0.5 -104.383 54.0449)" stroke="#E86800" stroke-opacity="0.79" stroke-width="0.302971"/>
<line y1="-0.151486" x2="606.245" y2="-0.151486" transform="matrix(0.866025 0.5 -0.866025 0.5 -85.6758 43.2441)" stroke="#E86800" stroke-opacity="0.79" stroke-width="0.302971"/>
<line y1="-0.151486" x2="606.245" y2="-0.151486" transform="matrix(0.866025 0.5 -0.866025 0.5 -66.9688 32.4434)" stroke="#E86800" stroke-opacity="0.79" stroke-width="0.302971"/>
<line y1="-0.151486" x2="606.245" y2="-0.151486" transform="matrix(0.866025 0.5 -0.866025 0.5 -48.2617 21.6416)" stroke="#E86800" stroke-opacity="0.79" stroke-width="0.302971"/>
<line y1="-0.151486" x2="606.245" y2="-0.151486" transform="matrix(0.866025 0.5 -0.866025 0.5 -29.5508 10.8408)" stroke="#E86800" stroke-opacity="0.79" stroke-width="0.302971"/>
<line y1="-0.151486" x2="606.245" y2="-0.151486" transform="matrix(0.866025 0.5 -0.866025 0.5 -10.8438 0.0400391)" stroke="#E86800" stroke-opacity="0.79" stroke-width="0.302971"/>
<line y1="-0.151486" x2="606.245" y2="-0.151486" transform="matrix(0.866025 0.5 -0.866025 0.5 7.86328 -10.7607)" stroke="#E86800" stroke-opacity="0.79" stroke-width="0.302971"/>
<line y1="-0.151486" x2="606.245" y2="-0.151486" transform="matrix(0.866025 0.5 -0.866025 0.5 26.5703 -21.5625)" stroke="#E86800" stroke-opacity="0.79" stroke-width="0.302971"/>
<line y1="-0.151486" x2="606.245" y2="-0.151486" transform="matrix(0.866025 0.5 -0.866025 0.5 45.2773 -32.3633)" stroke="#E86800" stroke-opacity="0.79" stroke-width="0.302971"/>
<line y1="-0.151486" x2="606.245" y2="-0.151486" transform="matrix(0.866025 0.5 -0.866025 0.5 63.9883 -43.1641)" stroke="#E86800" stroke-opacity="0.79" stroke-width="0.302971"/>
<line y1="-0.151486" x2="606.245" y2="-0.151486" transform="matrix(0.866025 0.5 -0.866025 0.5 82.6953 -53.9648)" stroke="#E86800" stroke-opacity="0.79" stroke-width="0.302971"/>
<line y1="-0.151486" x2="606.245" y2="-0.151486" transform="matrix(0.866025 0.5 -0.866025 0.5 101.402 -64.7666)" stroke="#E86800" stroke-opacity="0.79" stroke-width="0.302971"/>
<line y1="-0.151486" x2="606.245" y2="-0.151486" transform="matrix(0.866025 0.5 -0.866025 0.5 120.109 -75.5674)" stroke="#E86800" stroke-opacity="0.79" stroke-width="0.302971"/>
<line y1="-0.151486" x2="606.245" y2="-0.151486" transform="matrix(0.866025 0.5 -0.866025 0.5 138.82 -86.3682)" stroke="#E86800" stroke-opacity="0.79" stroke-width="0.302971"/>
<line y1="-0.151486" x2="606.245" y2="-0.151486" transform="matrix(0.866025 0.5 -0.866025 0.5 157.527 -97.1689)" stroke="#E86800" stroke-opacity="0.79" stroke-width="0.302971"/>
<line y1="-0.151486" x2="606.245" y2="-0.151486" transform="matrix(0.866025 0.5 -0.866025 0.5 176.234 -107.971)" stroke="#E86800" stroke-opacity="0.79" stroke-width="0.302971"/>
<line y1="-0.151486" x2="606.245" y2="-0.151486" transform="matrix(0.866025 0.5 -0.866025 0.5 194.941 -118.771)" stroke="#E86800" stroke-opacity="0.79" stroke-width="0.302971"/>
<line y1="-0.151486" x2="606.245" y2="-0.151486" transform="matrix(0.866025 0.5 -0.866025 0.5 213.648 -129.572)" stroke="#E86800" stroke-opacity="0.79" stroke-width="0.302971"/>
<line y1="-0.151486" x2="606.245" y2="-0.151486" transform="matrix(0.866025 0.5 -0.866025 0.5 232.359 -140.373)" stroke="#E86800" stroke-opacity="0.79" stroke-width="0.302971"/>
<line y1="-0.151486" x2="606.245" y2="-0.151486" transform="matrix(0.866025 0.5 -0.866025 0.5 251.066 -151.175)" stroke="#E86800" stroke-opacity="0.79" stroke-width="0.302971"/>
<line y1="-0.151486" x2="606.245" y2="-0.151486" transform="matrix(0.866025 0.5 -0.866025 0.5 269.773 -161.976)" stroke="#E86800" stroke-opacity="0.79" stroke-width="0.302971"/>
<line y1="-0.151486" x2="606.245" y2="-0.151486" transform="matrix(0.866025 0.5 -0.866025 0.5 288.48 -172.776)" stroke="#E86800" stroke-opacity="0.79" stroke-width="0.302971"/>
</g>
</g>
</g>
<g filter="url(#filter0_d_624_2193)">
<path d="M136.997 103.625C136.997 104.502 136.774 105.267 136.328 105.92C135.882 106.574 135.276 107.084 134.511 107.45C133.762 107.817 132.933 108 132.025 108H123.968V91.0259H132.407C133.204 91.0259 133.89 91.2411 134.463 91.6714C135.053 92.0858 135.499 92.6277 135.802 93.2971C136.121 93.9505 136.28 94.6359 136.28 95.3531C136.28 96.1819 136.065 96.9628 135.635 97.696C135.22 98.4132 134.623 98.9471 133.842 99.2978C134.814 99.5847 135.579 100.119 136.137 100.9C136.711 101.665 136.997 102.573 136.997 103.625ZM134.822 103.242C134.822 102.717 134.702 102.23 134.463 101.784C134.24 101.338 133.929 100.979 133.531 100.708C133.148 100.437 132.702 100.302 132.192 100.302H126.12V106.135H132.025C132.551 106.135 133.021 106 133.435 105.729C133.866 105.458 134.2 105.107 134.439 104.677C134.694 104.231 134.822 103.752 134.822 103.242ZM126.12 92.8907V98.5567H131.523C132.033 98.5567 132.479 98.4292 132.862 98.1741C133.26 97.9191 133.571 97.5765 133.794 97.1461C134.033 96.7158 134.153 96.2456 134.153 95.7356C134.153 95.1937 134.041 94.7156 133.818 94.3012C133.611 93.8709 133.316 93.5282 132.933 93.2732C132.567 93.0182 132.144 92.8907 131.666 92.8907H126.12ZM139.553 103.003V95.5204H141.657V102.597C141.657 103.872 141.88 104.828 142.326 105.466C142.773 106.103 143.434 106.422 144.311 106.422C144.884 106.422 145.434 106.303 145.96 106.064C146.502 105.809 146.988 105.45 147.419 104.988C147.849 104.525 148.184 103.976 148.423 103.338V95.5204H150.527V105.609C150.527 105.864 150.574 106.056 150.67 106.183C150.782 106.295 150.957 106.358 151.196 106.374V108C150.957 108.032 150.766 108.048 150.622 108.048C150.495 108.064 150.367 108.072 150.24 108.072C149.841 108.072 149.499 107.952 149.212 107.713C148.925 107.458 148.773 107.147 148.757 106.781L148.71 105.322C148.168 106.247 147.435 106.964 146.51 107.474C145.602 107.984 144.606 108.239 143.522 108.239C142.215 108.239 141.227 107.801 140.557 106.924C139.888 106.032 139.553 104.725 139.553 103.003ZM154.031 108V95.5204H156.135V108H154.031ZM154.031 93.1775V90.5478H156.135V93.1775H154.031ZM159.589 90.5478H161.692V104.773C161.692 105.458 161.788 105.88 161.979 106.04C162.171 106.199 162.402 106.279 162.673 106.279C163.007 106.279 163.326 106.247 163.629 106.183C163.932 106.103 164.187 106.024 164.394 105.944L164.729 107.665C164.378 107.809 163.964 107.928 163.486 108.024C163.007 108.12 162.585 108.167 162.218 108.167C161.406 108.167 160.76 107.936 160.282 107.474C159.82 107.012 159.589 106.366 159.589 105.538V90.5478ZM165.569 101.784C165.569 100.605 165.808 99.5289 166.286 98.5567C166.78 97.5685 167.449 96.7796 168.294 96.1898C169.155 95.6001 170.135 95.3053 171.235 95.3053C172.239 95.3053 173.139 95.5683 173.936 96.0942C174.733 96.6202 175.355 97.2577 175.801 98.0068V90.5478H177.905V105.609C177.905 105.864 177.953 106.056 178.048 106.183C178.16 106.295 178.335 106.358 178.574 106.374V108C178.176 108.064 177.865 108.096 177.642 108.096C177.227 108.096 176.861 107.952 176.542 107.665C176.239 107.378 176.088 107.06 176.088 106.709V105.657C175.594 106.454 174.932 107.084 174.103 107.546C173.275 108.008 172.414 108.239 171.522 108.239C170.661 108.239 169.864 108.072 169.131 107.737C168.414 107.386 167.784 106.908 167.242 106.303C166.716 105.697 166.302 105.012 165.999 104.247C165.712 103.466 165.569 102.645 165.569 101.784ZM175.801 103.625V100.039C175.61 99.497 175.299 99.0109 174.869 98.5806C174.438 98.1343 173.952 97.7837 173.41 97.5287C172.884 97.2577 172.358 97.1222 171.832 97.1222C171.211 97.1222 170.645 97.2577 170.135 97.5287C169.641 97.7837 169.21 98.1343 168.844 98.5806C168.493 99.0109 168.222 99.505 168.031 100.063C167.84 100.621 167.744 101.202 167.744 101.808C167.744 102.43 167.848 103.019 168.055 103.577C168.278 104.135 168.581 104.629 168.963 105.059C169.362 105.49 169.816 105.824 170.326 106.064C170.852 106.303 171.418 106.422 172.024 106.422C172.406 106.422 172.797 106.35 173.195 106.207C173.609 106.064 174 105.864 174.366 105.609C174.733 105.354 175.044 105.059 175.299 104.725C175.554 104.374 175.721 104.007 175.801 103.625ZM181.417 108V95.5204H183.521V108H181.417ZM181.417 93.1775V90.5478H183.521V93.1775H181.417ZM197.757 108H195.653V101.019C195.653 99.6962 195.446 98.732 195.031 98.1263C194.633 97.5047 194.019 97.194 193.19 97.194C192.617 97.194 192.043 97.3374 191.469 97.6243C190.911 97.9112 190.409 98.3017 189.963 98.7957C189.533 99.2739 189.222 99.8317 189.031 100.469V108H186.927V95.5204H188.839V98.1981C189.174 97.6083 189.604 97.0983 190.13 96.668C190.656 96.2377 191.254 95.903 191.923 95.6639C192.593 95.4248 193.294 95.3053 194.027 95.3053C194.744 95.3053 195.342 95.4408 195.82 95.7117C196.314 95.9667 196.697 96.3333 196.968 96.8114C197.255 97.2736 197.454 97.8235 197.565 98.461C197.693 99.0986 197.757 99.7919 197.757 100.541V108ZM206.001 108.143C205.156 108.143 204.375 107.976 203.658 107.641C202.957 107.291 202.351 106.821 201.841 106.231C201.331 105.625 200.933 104.94 200.646 104.175C200.375 103.41 200.239 102.613 200.239 101.784C200.239 100.908 200.375 100.079 200.646 99.2978C200.933 98.5168 201.331 97.8315 201.841 97.2418C202.367 96.6361 202.981 96.1659 203.682 95.8312C204.383 95.4806 205.164 95.3053 206.025 95.3053C207.061 95.3053 207.961 95.5603 208.726 96.0703C209.507 96.5803 210.161 97.2258 210.687 98.0068V95.5204H212.551V107.857C212.551 109.036 212.265 110.032 211.691 110.845C211.133 111.658 210.368 112.271 209.396 112.686C208.439 113.116 207.372 113.331 206.192 113.331C204.79 113.331 203.642 113.084 202.75 112.59C201.857 112.096 201.116 111.427 200.526 110.582L201.745 109.506C202.24 110.239 202.877 110.789 203.658 111.156C204.455 111.522 205.3 111.706 206.192 111.706C206.957 111.706 207.658 111.562 208.296 111.275C208.949 111.004 209.467 110.582 209.85 110.008C210.248 109.434 210.448 108.717 210.448 107.857V105.657C209.985 106.422 209.348 107.028 208.535 107.474C207.738 107.92 206.893 108.143 206.001 108.143ZM206.646 106.422C207.093 106.422 207.523 106.342 207.937 106.183C208.352 106.024 208.734 105.816 209.085 105.561C209.436 105.291 209.73 104.988 209.97 104.653C210.209 104.318 210.368 103.976 210.448 103.625V100.039C210.225 99.4651 209.906 98.9631 209.491 98.5328C209.077 98.0865 208.607 97.7438 208.081 97.5047C207.555 97.2497 207.013 97.1222 206.455 97.1222C205.818 97.1222 205.244 97.2577 204.734 97.5287C204.24 97.7996 203.817 98.1662 203.467 98.6284C203.116 99.0746 202.845 99.5767 202.654 100.135C202.463 100.692 202.367 101.258 202.367 101.832C202.367 102.454 202.479 103.043 202.702 103.601C202.925 104.143 203.228 104.629 203.61 105.059C203.993 105.49 204.447 105.824 204.973 106.064C205.499 106.303 206.057 106.422 206.646 106.422ZM221.014 104.39C221.014 103.593 221.237 102.908 221.683 102.334C222.145 101.744 222.775 101.29 223.572 100.971C224.368 100.653 225.293 100.493 226.345 100.493C226.903 100.493 227.492 100.541 228.114 100.637C228.736 100.716 229.285 100.844 229.764 101.019V100.111C229.764 99.1543 229.477 98.4052 228.903 97.8634C228.329 97.3055 227.516 97.0266 226.464 97.0266C225.779 97.0266 225.118 97.1541 224.48 97.4091C223.858 97.6482 223.197 97.9988 222.496 98.461L221.731 96.9788C222.544 96.421 223.356 96.0066 224.169 95.7356C224.982 95.4487 225.827 95.3053 226.703 95.3053C228.297 95.3053 229.556 95.7515 230.481 96.6441C231.405 97.5207 231.867 98.7479 231.867 100.326V105.609C231.867 105.864 231.915 106.056 232.011 106.183C232.122 106.295 232.298 106.358 232.537 106.374V108C232.33 108.032 232.146 108.056 231.987 108.072C231.843 108.088 231.724 108.096 231.628 108.096C231.134 108.096 230.76 107.96 230.505 107.689C230.266 107.418 230.13 107.131 230.098 106.829L230.05 106.04C229.509 106.741 228.799 107.283 227.923 107.665C227.046 108.048 226.177 108.239 225.317 108.239C224.488 108.239 223.747 108.072 223.093 107.737C222.44 107.386 221.93 106.924 221.563 106.35C221.197 105.761 221.014 105.107 221.014 104.39ZM229.142 105.275C229.333 105.051 229.485 104.828 229.596 104.605C229.708 104.366 229.764 104.167 229.764 104.007V102.454C229.269 102.262 228.751 102.119 228.21 102.023C227.668 101.912 227.134 101.856 226.608 101.856C225.54 101.856 224.671 102.071 224.002 102.501C223.348 102.916 223.022 103.49 223.022 104.223C223.022 104.621 223.125 105.012 223.333 105.394C223.556 105.761 223.874 106.064 224.289 106.303C224.719 106.542 225.245 106.661 225.867 106.661C226.52 106.661 227.142 106.534 227.731 106.279C228.321 106.008 228.791 105.673 229.142 105.275Z" fill="#25291C"/>
<path d="M54.1843 136V119.026H61.2608C62.0099 119.026 62.6952 119.185 63.3168 119.504C63.9384 119.807 64.4803 120.221 64.9425 120.747C65.4047 121.257 65.7633 121.839 66.0183 122.492C66.2734 123.13 66.4009 123.783 66.4009 124.453C66.4009 125.377 66.1937 126.262 65.7793 127.107C65.3649 127.935 64.7831 128.613 64.034 129.139C63.285 129.649 62.4084 129.904 61.4043 129.904H56.3359V136H54.1843ZM56.3359 127.991H61.2847C61.8744 127.991 62.3845 127.832 62.8148 127.513C63.2611 127.194 63.6037 126.764 63.8428 126.222C64.0978 125.68 64.2253 125.09 64.2253 124.453C64.2253 123.783 64.0819 123.186 63.795 122.66C63.5081 122.118 63.1335 121.696 62.6713 121.393C62.2091 121.09 61.6991 120.938 61.1413 120.938H56.3359V127.991ZM75.3433 125.361C74.2914 125.377 73.359 125.648 72.5461 126.174C71.7492 126.684 71.1834 127.393 70.8487 128.302V136H68.7449V123.52H70.7053V126.413C71.1356 125.553 71.7014 124.859 72.4027 124.333C73.1199 123.791 73.869 123.489 74.65 123.425C74.8093 123.425 74.9448 123.425 75.0564 123.425C75.168 123.425 75.2636 123.433 75.3433 123.449V125.361ZM77.4299 136V123.52H79.5337V136H77.4299ZM77.4299 121.178V118.548H79.5337V121.178H77.4299ZM88.4623 136.239C87.522 136.239 86.6613 136.072 85.8804 135.737C85.1153 135.386 84.4459 134.908 83.8722 134.303C83.3143 133.697 82.876 133.004 82.5573 132.223C82.2544 131.442 82.103 130.613 82.103 129.736C82.103 128.557 82.366 127.481 82.892 126.509C83.4179 125.537 84.159 124.764 85.1153 124.19C86.0716 123.6 87.1793 123.305 88.4384 123.305C89.6657 123.305 90.7335 123.584 91.642 124.142C92.5664 124.684 93.2517 125.417 93.698 126.341L91.642 126.987C91.3232 126.397 90.877 125.943 90.3032 125.624C89.7294 125.29 89.0919 125.122 88.3906 125.122C87.6256 125.122 86.9243 125.321 86.2868 125.72C85.6652 126.118 85.1711 126.668 84.8045 127.37C84.438 128.055 84.2547 128.844 84.2547 129.736C84.2547 130.613 84.438 131.41 84.8045 132.127C85.1871 132.828 85.6891 133.386 86.3107 133.801C86.9482 134.215 87.6495 134.422 88.4145 134.422C88.9086 134.422 89.3788 134.334 89.8251 134.159C90.2873 133.984 90.6857 133.753 91.0204 133.466C91.371 133.163 91.6101 132.836 91.7376 132.486L93.7936 133.107C93.5386 133.713 93.1482 134.255 92.6222 134.733C92.1122 135.195 91.4986 135.562 90.7813 135.833C90.0801 136.104 89.3071 136.239 88.4623 136.239ZM101.583 136.239C100.643 136.239 99.7823 136.072 99.0013 135.737C98.2363 135.386 97.5669 134.916 96.9931 134.326C96.4353 133.721 95.997 133.028 95.6782 132.247C95.3754 131.466 95.224 130.637 95.224 129.76C95.224 128.581 95.4949 127.505 96.0368 126.533C96.5787 125.561 97.3278 124.78 98.2841 124.19C99.2563 123.6 100.364 123.305 101.607 123.305C102.866 123.305 103.958 123.608 104.882 124.214C105.823 124.803 106.548 125.584 107.058 126.557C107.584 127.513 107.847 128.549 107.847 129.665C107.847 129.824 107.839 129.983 107.823 130.143C107.823 130.286 107.815 130.398 107.799 130.477H97.4473C97.5111 131.29 97.7342 132.015 98.1167 132.653C98.5152 133.275 99.0252 133.769 99.6468 134.135C100.268 134.486 100.938 134.661 101.655 134.661C102.42 134.661 103.137 134.47 103.807 134.087C104.492 133.705 104.962 133.203 105.217 132.581L107.034 133.083C106.763 133.689 106.357 134.231 105.815 134.709C105.289 135.187 104.659 135.562 103.926 135.833C103.209 136.104 102.428 136.239 101.583 136.239ZM97.3756 129.019H105.887C105.823 128.206 105.592 127.489 105.193 126.867C104.795 126.246 104.285 125.76 103.663 125.409C103.042 125.058 102.356 124.883 101.607 124.883C100.874 124.883 100.197 125.058 99.5751 125.409C98.9535 125.76 98.4435 126.246 98.045 126.867C97.6625 127.489 97.4394 128.206 97.3756 129.019ZM116.567 136V119.026H127.78V120.938H118.719V126.604H126.345V128.398H118.719V136H116.567ZM134.923 136.239C133.982 136.239 133.122 136.072 132.341 135.737C131.576 135.386 130.906 134.916 130.332 134.326C129.775 133.721 129.336 133.028 129.018 132.247C128.715 131.466 128.563 130.637 128.563 129.76C128.563 128.581 128.834 127.505 129.376 126.533C129.918 125.561 130.667 124.78 131.623 124.19C132.596 123.6 133.703 123.305 134.947 123.305C136.206 123.305 137.297 123.608 138.222 124.214C139.162 124.803 139.887 125.584 140.397 126.557C140.923 127.513 141.186 128.549 141.186 129.665C141.186 129.824 141.178 129.983 141.162 130.143C141.162 130.286 141.154 130.398 141.138 130.477H130.787C130.85 131.29 131.074 132.015 131.456 132.653C131.855 133.275 132.365 133.769 132.986 134.135C133.608 134.486 134.277 134.661 134.994 134.661C135.759 134.661 136.477 134.47 137.146 134.087C137.831 133.705 138.301 133.203 138.557 132.581L140.373 133.083C140.102 133.689 139.696 134.231 139.154 134.709C138.628 135.187 137.999 135.562 137.266 135.833C136.548 136.104 135.767 136.239 134.923 136.239ZM130.715 129.019H139.226C139.162 128.206 138.931 127.489 138.533 126.867C138.134 126.246 137.624 125.76 137.003 125.409C136.381 125.058 135.696 124.883 134.947 124.883C134.213 124.883 133.536 125.058 132.914 125.409C132.293 125.76 131.783 126.246 131.384 126.867C131.002 127.489 130.779 128.206 130.715 129.019ZM149.047 136.239C148.107 136.239 147.246 136.072 146.465 135.737C145.7 135.386 145.031 134.916 144.457 134.326C143.899 133.721 143.461 133.028 143.142 132.247C142.84 131.466 142.688 130.637 142.688 129.76C142.688 128.581 142.959 127.505 143.501 126.533C144.043 125.561 144.792 124.78 145.748 124.19C146.72 123.6 147.828 123.305 149.071 123.305C150.33 123.305 151.422 123.608 152.347 124.214C153.287 124.803 154.012 125.584 154.522 126.557C155.048 127.513 155.311 128.549 155.311 129.665C155.311 129.824 155.303 129.983 155.287 130.143C155.287 130.286 155.279 130.398 155.263 130.477H144.912C144.975 131.29 145.198 132.015 145.581 132.653C145.979 133.275 146.489 133.769 147.111 134.135C147.733 134.486 148.402 134.661 149.119 134.661C149.884 134.661 150.601 134.47 151.271 134.087C151.956 133.705 152.426 133.203 152.681 132.581L154.498 133.083C154.227 133.689 153.821 134.231 153.279 134.709C152.753 135.187 152.124 135.562 151.39 135.833C150.673 136.104 149.892 136.239 149.047 136.239ZM144.84 129.019H153.351C153.287 128.206 153.056 127.489 152.657 126.867C152.259 126.246 151.749 125.76 151.127 125.409C150.506 125.058 149.82 124.883 149.071 124.883C148.338 124.883 147.661 125.058 147.039 125.409C146.418 125.76 145.908 126.246 145.509 126.867C145.127 127.489 144.904 128.206 144.84 129.019ZM156.837 129.784C156.837 128.605 157.076 127.529 157.554 126.557C158.048 125.568 158.718 124.78 159.562 124.19C160.423 123.6 161.403 123.305 162.503 123.305C163.507 123.305 164.408 123.568 165.204 124.094C166.001 124.62 166.623 125.258 167.069 126.007V118.548H169.173V133.609C169.173 133.864 169.221 134.056 169.316 134.183C169.428 134.295 169.603 134.358 169.842 134.374V136C169.444 136.064 169.133 136.096 168.91 136.096C168.496 136.096 168.129 135.952 167.81 135.665C167.507 135.378 167.356 135.06 167.356 134.709V133.657C166.862 134.454 166.201 135.084 165.372 135.546C164.543 136.008 163.682 136.239 162.79 136.239C161.929 136.239 161.132 136.072 160.399 135.737C159.682 135.386 159.052 134.908 158.51 134.303C157.984 133.697 157.57 133.012 157.267 132.247C156.98 131.466 156.837 130.645 156.837 129.784ZM167.069 131.625V128.039C166.878 127.497 166.567 127.011 166.137 126.581C165.706 126.134 165.22 125.784 164.678 125.529C164.152 125.258 163.627 125.122 163.101 125.122C162.479 125.122 161.913 125.258 161.403 125.529C160.909 125.784 160.479 126.134 160.112 126.581C159.762 127.011 159.491 127.505 159.299 128.063C159.108 128.621 159.012 129.202 159.012 129.808C159.012 130.43 159.116 131.019 159.323 131.577C159.546 132.135 159.849 132.629 160.232 133.059C160.63 133.49 161.084 133.824 161.594 134.064C162.12 134.303 162.686 134.422 163.292 134.422C163.674 134.422 164.065 134.35 164.463 134.207C164.878 134.064 165.268 133.864 165.635 133.609C166.001 133.354 166.312 133.059 166.567 132.725C166.822 132.374 166.989 132.007 167.069 131.625ZM183.484 119.026H185.3L192.234 136H189.938L187.93 131.027H180.806L178.822 136H176.527L183.484 119.026ZM187.452 129.354L184.392 121.512L181.236 129.354H187.452ZM200.882 136.239C199.862 136.239 198.954 135.984 198.157 135.474C197.36 134.964 196.73 134.319 196.268 133.538V141.092H194.164V123.52H196.029V125.863C196.523 125.098 197.169 124.485 197.965 124.022C198.762 123.544 199.631 123.305 200.571 123.305C201.432 123.305 202.221 123.481 202.938 123.831C203.655 124.182 204.277 124.66 204.803 125.266C205.329 125.871 205.735 126.565 206.022 127.346C206.325 128.111 206.476 128.916 206.476 129.76C206.476 130.94 206.237 132.023 205.759 133.012C205.297 134 204.644 134.789 203.799 135.378C202.954 135.952 201.982 136.239 200.882 136.239ZM200.237 134.422C200.858 134.422 201.416 134.295 201.91 134.04C202.42 133.769 202.851 133.418 203.201 132.988C203.568 132.541 203.847 132.039 204.038 131.482C204.229 130.924 204.325 130.35 204.325 129.76C204.325 129.139 204.213 128.549 203.99 127.991C203.783 127.433 203.48 126.939 203.082 126.509C202.699 126.079 202.245 125.744 201.719 125.505C201.209 125.25 200.651 125.122 200.045 125.122C199.663 125.122 199.264 125.194 198.85 125.337C198.452 125.481 198.069 125.688 197.703 125.959C197.336 126.214 197.025 126.509 196.77 126.844C196.515 127.178 196.348 127.537 196.268 127.919V131.482C196.507 132.023 196.826 132.518 197.224 132.964C197.623 133.41 198.085 133.769 198.611 134.04C199.137 134.295 199.679 134.422 200.237 134.422ZM215.777 136.239C214.757 136.239 213.849 135.984 213.052 135.474C212.255 134.964 211.626 134.319 211.163 133.538V141.092H209.06V123.52H210.924V125.863C211.418 125.098 212.064 124.485 212.861 124.022C213.658 123.544 214.526 123.305 215.467 123.305C216.327 123.305 217.116 123.481 217.833 123.831C218.551 124.182 219.172 124.66 219.698 125.266C220.224 125.871 220.631 126.565 220.917 127.346C221.22 128.111 221.372 128.916 221.372 129.76C221.372 130.94 221.133 132.023 220.655 133.012C220.192 134 219.539 134.789 218.694 135.378C217.849 135.952 216.877 136.239 215.777 136.239ZM215.132 134.422C215.754 134.422 216.311 134.295 216.805 134.04C217.315 133.769 217.746 133.418 218.096 132.988C218.463 132.541 218.742 132.039 218.933 131.482C219.124 130.924 219.22 130.35 219.22 129.76C219.22 129.139 219.109 128.549 218.885 127.991C218.678 127.433 218.375 126.939 217.977 126.509C217.594 126.079 217.14 125.744 216.614 125.505C216.104 125.25 215.546 125.122 214.941 125.122C214.558 125.122 214.16 125.194 213.745 125.337C213.347 125.481 212.964 125.688 212.598 125.959C212.231 126.214 211.92 126.509 211.665 126.844C211.41 127.178 211.243 127.537 211.163 127.919V131.482C211.402 132.023 211.721 132.518 212.12 132.964C212.518 133.41 212.98 133.769 213.506 134.04C214.032 134.295 214.574 134.422 215.132 134.422ZM224.003 118.548H226.106V132.773C226.106 133.458 226.202 133.88 226.393 134.04C226.585 134.199 226.816 134.279 227.087 134.279C227.421 134.279 227.74 134.247 228.043 134.183C228.346 134.103 228.601 134.024 228.808 133.944L229.143 135.665C228.792 135.809 228.378 135.928 227.9 136.024C227.421 136.12 226.999 136.167 226.632 136.167C225.82 136.167 225.174 135.936 224.696 135.474C224.234 135.012 224.003 134.366 224.003 133.538V118.548ZM230.795 136V123.52H232.899V136H230.795ZM230.795 121.178V118.548H232.899V121.178H230.795ZM241.828 136.239C240.888 136.239 240.027 136.072 239.246 135.737C238.481 135.386 237.811 134.908 237.238 134.303C236.68 133.697 236.242 133.004 235.923 132.223C235.62 131.442 235.469 130.613 235.469 129.736C235.469 128.557 235.732 127.481 236.258 126.509C236.783 125.537 237.525 124.764 238.481 124.19C239.437 123.6 240.545 123.305 241.804 123.305C243.031 123.305 244.099 123.584 245.008 124.142C245.932 124.684 246.617 125.417 247.064 126.341L245.008 126.987C244.689 126.397 244.243 125.943 243.669 125.624C243.095 125.29 242.457 125.122 241.756 125.122C240.991 125.122 240.29 125.321 239.652 125.72C239.031 126.118 238.537 126.668 238.17 127.37C237.804 128.055 237.62 128.844 237.62 129.736C237.62 130.613 237.804 131.41 238.17 132.127C238.553 132.828 239.055 133.386 239.676 133.801C240.314 134.215 241.015 134.422 241.78 134.422C242.274 134.422 242.744 134.334 243.191 134.159C243.653 133.984 244.051 133.753 244.386 133.466C244.737 133.163 244.976 132.836 245.103 132.486L247.159 133.107C246.904 133.713 246.514 134.255 245.988 134.733C245.478 135.195 244.864 135.562 244.147 135.833C243.446 136.104 242.673 136.239 241.828 136.239ZM248.563 132.39C248.563 131.593 248.786 130.908 249.232 130.334C249.694 129.744 250.324 129.29 251.121 128.971C251.918 128.653 252.842 128.493 253.894 128.493C254.452 128.493 255.042 128.541 255.663 128.637C256.285 128.716 256.835 128.844 257.313 129.019V128.111C257.313 127.154 257.026 126.405 256.452 125.863C255.878 125.306 255.066 125.027 254.014 125.027C253.328 125.027 252.667 125.154 252.029 125.409C251.408 125.648 250.746 125.999 250.045 126.461L249.28 124.979C250.093 124.421 250.906 124.007 251.719 123.736C252.531 123.449 253.376 123.305 254.253 123.305C255.847 123.305 257.106 123.752 258.03 124.644C258.954 125.521 259.417 126.748 259.417 128.326V133.609C259.417 133.864 259.464 134.056 259.56 134.183C259.672 134.295 259.847 134.358 260.086 134.374V136C259.879 136.032 259.696 136.056 259.536 136.072C259.393 136.088 259.273 136.096 259.178 136.096C258.684 136.096 258.309 135.96 258.054 135.689C257.815 135.418 257.679 135.131 257.648 134.829L257.6 134.04C257.058 134.741 256.349 135.283 255.472 135.665C254.595 136.048 253.727 136.239 252.866 136.239C252.037 136.239 251.296 136.072 250.643 135.737C249.989 135.386 249.479 134.924 249.113 134.35C248.746 133.761 248.563 133.107 248.563 132.39ZM256.691 133.275C256.882 133.051 257.034 132.828 257.145 132.605C257.257 132.366 257.313 132.167 257.313 132.007V130.454C256.819 130.262 256.301 130.119 255.759 130.023C255.217 129.912 254.683 129.856 254.157 129.856C253.089 129.856 252.221 130.071 251.551 130.501C250.898 130.916 250.571 131.49 250.571 132.223C250.571 132.621 250.675 133.012 250.882 133.394C251.105 133.761 251.424 134.064 251.838 134.303C252.268 134.542 252.794 134.661 253.416 134.661C254.069 134.661 254.691 134.534 255.281 134.279C255.87 134.008 256.341 133.673 256.691 133.275ZM269.142 135.378C268.967 135.458 268.728 135.562 268.425 135.689C268.122 135.817 267.772 135.928 267.373 136.024C266.975 136.12 266.552 136.167 266.106 136.167C265.596 136.167 265.126 136.08 264.695 135.904C264.265 135.713 263.922 135.426 263.667 135.044C263.412 134.645 263.285 134.151 263.285 133.561V125.17H261.588V123.52H263.285V119.361H265.389V123.52H268.186V125.17H265.389V132.916C265.421 133.362 265.572 133.697 265.843 133.92C266.114 134.127 266.433 134.231 266.799 134.231C267.214 134.231 267.596 134.159 267.947 134.016C268.297 133.872 268.529 133.769 268.64 133.705L269.142 135.378ZM271.092 136V123.52H273.196V136H271.092ZM271.092 121.178V118.548H273.196V121.178H271.092ZM282.053 136.239C281.113 136.239 280.26 136.072 279.495 135.737C278.73 135.386 278.068 134.916 277.51 134.326C276.953 133.721 276.522 133.028 276.219 132.247C275.917 131.466 275.765 130.645 275.765 129.784C275.765 128.908 275.917 128.079 276.219 127.298C276.522 126.517 276.953 125.831 277.51 125.242C278.068 124.636 278.73 124.166 279.495 123.831C280.276 123.481 281.128 123.305 282.053 123.305C282.993 123.305 283.846 123.481 284.611 123.831C285.376 124.166 286.037 124.636 286.595 125.242C287.169 125.831 287.607 126.517 287.91 127.298C288.213 128.079 288.364 128.908 288.364 129.784C288.364 130.645 288.213 131.466 287.91 132.247C287.607 133.028 287.177 133.721 286.619 134.326C286.061 134.916 285.392 135.386 284.611 135.737C283.846 136.072 282.993 136.239 282.053 136.239ZM277.917 129.808C277.917 130.669 278.1 131.45 278.467 132.151C278.849 132.852 279.351 133.41 279.973 133.824C280.595 134.223 281.288 134.422 282.053 134.422C282.818 134.422 283.511 134.215 284.133 133.801C284.77 133.386 285.272 132.828 285.639 132.127C286.021 131.41 286.213 130.621 286.213 129.76C286.213 128.9 286.021 128.119 285.639 127.417C285.272 126.716 284.77 126.158 284.133 125.744C283.511 125.329 282.818 125.122 282.053 125.122C281.288 125.122 280.595 125.337 279.973 125.768C279.351 126.182 278.849 126.74 278.467 127.441C278.1 128.143 277.917 128.931 277.917 129.808ZM301.744 136H299.64V129.019C299.64 127.696 299.433 126.732 299.018 126.126C298.62 125.505 298.006 125.194 297.177 125.194C296.604 125.194 296.03 125.337 295.456 125.624C294.898 125.911 294.396 126.302 293.95 126.796C293.52 127.274 293.209 127.832 293.017 128.469V136H290.914V123.52H292.826V126.198C293.161 125.608 293.591 125.098 294.117 124.668C294.643 124.238 295.241 123.903 295.91 123.664C296.58 123.425 297.281 123.305 298.014 123.305C298.731 123.305 299.329 123.441 299.807 123.712C300.301 123.967 300.684 124.333 300.955 124.811C301.242 125.274 301.441 125.824 301.552 126.461C301.68 127.099 301.744 127.792 301.744 128.541V136Z" fill="#D1701F"/>
</g>
<path d="M163.532 65.5125L163.532 56.2254C163.532 51.6179 159.684 47.8829 154.938 47.8828C150.449 47.8828 146.688 51.2865 146.647 55.6435C146.646 55.846 146.645 56.0437 146.645 56.2352" stroke="#EB8F44" stroke-width="1.99854"/>
<path d="M146.618 60.957C147.23 60.9602 147.728 60.4819 147.731 59.8886C147.735 59.2953 147.242 58.8118 146.63 58.8086C146.019 58.8053 145.521 59.2837 145.517 59.8769C145.514 60.4702 146.007 60.9538 146.618 60.957Z" fill="#EB8F44"/>
<path d="M150.224 60.9658C150.835 60.969 151.334 60.4907 151.337 59.8974C151.34 59.3041 150.847 58.8206 150.236 58.8174C149.625 58.8141 149.126 59.2925 149.123 59.8857C149.119 60.479 149.612 60.9626 150.224 60.9658Z" fill="#25291C"/>
<path d="M146.114 65.7002L146.071 71.4724C146.035 76.1181 149.871 79.9194 154.656 79.9818C159.408 80.0443 163.333 76.3963 163.475 71.7859L163.503 70.8774" stroke="#25291C" stroke-width="1.99854"/>
<path d="M159.618 63.0657L159.606 71.2184C159.602 73.7716 157.45 75.8299 154.82 75.7954C152.224 75.7614 150.143 73.6989 150.163 71.1785L150.212 64.8488C150.225 63.2052 148.286 62.2647 146.939 63.261C146.434 63.6352 146.137 64.2171 146.137 64.8343V65.8542" stroke="#25291C" stroke-width="1.99854"/>
<path d="M154.915 52.0548L154.898 51.0833L154.915 51.083L154.931 51.0833L154.915 52.0548ZM151.279 59.6662C151.279 60.2028 150.831 60.6379 150.278 60.6379C149.726 60.6379 149.277 60.2028 149.277 59.6662H151.279ZM154.931 53.0263L154.653 53.0308L154.62 51.0877L154.898 51.0833L154.931 53.0263ZM151.279 56.3604V59.6662H149.277V56.3604H151.279ZM158.62 63.229V57.9301H160.622V63.229H158.62ZM158.62 57.9301V56.698H160.622V57.9301H158.62ZM149.277 56.3604C149.277 53.4819 151.655 51.1352 154.62 51.0877L154.653 53.0308C152.781 53.0608 151.279 54.5427 151.279 56.3604H149.277ZM154.931 51.0833C158.089 51.1331 160.622 53.6322 160.622 56.698H158.62C158.62 54.6932 156.964 53.0589 154.899 53.0263L154.931 51.0833Z" fill="#25291C"/>
<path d="M163.517 72.0595C164.264 72.0634 164.873 71.4804 164.877 70.7572C164.882 70.0341 164.279 69.4447 163.532 69.4407C162.785 69.4368 162.176 70.0198 162.172 70.743C162.168 71.4661 162.77 72.0555 163.517 72.0595Z" fill="#25291C"/>
<path d="M163.62 66.9521C164.357 66.9521 164.955 66.2996 164.955 65.4946C164.955 64.6897 164.357 64.0371 163.62 64.0371C162.883 64.0371 162.285 64.6897 162.285 65.4946C162.285 66.2996 162.883 66.9521 163.62 66.9521Z" fill="#EB8F44"/>
<path d="M146.608 57.2356C147.345 57.2356 147.943 56.6556 147.943 55.9401C147.943 55.2246 147.345 54.6445 146.608 54.6445C145.871 54.6445 145.273 55.2246 145.273 55.9401C145.273 56.6556 145.871 57.2356 146.608 57.2356Z" fill="#EB8F44"/>
<path d="M169.872 71.1755C169.935 70.0269 170.246 69 170.805 68.0948C171.383 67.1897 172.122 66.4801 173.022 65.9658C173.941 65.4517 174.955 65.1975 176.062 65.2032C176.94 65.2077 177.617 65.3317 178.093 65.575C178.569 65.8184 178.748 66.1714 178.631 66.6341C178.554 66.9117 178.419 67.0963 178.227 67.188C178.055 67.2798 177.835 67.3157 177.568 67.2958C177.32 67.2759 177.034 67.256 176.709 67.2358C175.64 67.1376 174.686 67.2439 173.844 67.5545C173.021 67.8468 172.36 68.3067 171.86 68.9342C171.38 69.5618 171.137 70.3111 171.132 71.182L169.872 71.1755ZM169.993 80.5439C169.649 80.5421 169.382 80.4483 169.192 80.2618C169.002 80.0758 168.908 79.8156 168.91 79.4819L168.982 66.3898C168.984 66.0562 169.081 65.7972 169.272 65.6129C169.464 65.4286 169.732 65.3373 170.076 65.3391C170.42 65.3409 170.686 65.4349 170.876 65.6212C171.066 65.8075 171.16 66.0674 171.158 66.401L171.086 79.4931C171.085 79.8268 170.988 80.0857 170.796 80.27C170.604 80.4543 170.336 80.5456 169.993 80.5439ZM188.234 80.7768C186.744 80.7695 185.4 80.4289 184.201 79.7553C183.021 79.0822 182.081 78.1693 181.381 77.0169C180.7 75.8459 180.354 74.5376 180.343 73.092L180.415 59.9719C180.417 59.6383 180.514 59.3794 180.706 59.1951C180.916 58.9923 181.194 58.8918 181.538 58.8936C181.862 58.8953 182.119 58.9985 182.309 59.2033C182.518 59.3897 182.622 59.6497 182.62 59.9833L182.575 68.1555C183.21 67.2878 184.044 66.5972 185.078 66.0836C186.131 65.5516 187.297 65.2889 188.576 65.2955C190.046 65.3031 191.361 65.6527 192.522 66.3444C193.683 67.0176 194.594 67.9396 195.256 69.1105C195.937 70.2815 196.274 71.599 196.266 73.0629C196.258 74.5454 195.897 75.8688 195.184 77.0324C194.491 78.1964 193.541 79.118 192.334 79.7976C191.128 80.4586 189.761 80.785 188.234 80.7768ZM188.244 78.8312C189.351 78.8368 190.345 78.5917 191.227 78.0961C192.108 77.5819 192.798 76.8903 193.3 76.0221C193.82 75.1539 194.083 74.1634 194.089 73.0517C194.095 71.9584 193.843 70.9749 193.332 70.1013C192.841 69.2092 192.157 68.5107 191.282 68.0059C190.406 67.501 189.415 67.2457 188.308 67.24C187.219 67.2344 186.235 67.4795 185.354 67.9753C184.473 68.4711 183.782 69.1625 183.281 70.0494C182.779 70.9178 182.526 71.8987 182.52 72.992C182.514 74.104 182.757 75.0966 183.248 75.97C183.74 76.8437 184.424 77.5423 185.299 78.0655C186.174 78.5702 187.156 78.8256 188.244 78.8312ZM200.406 80.7011C200.062 80.6989 199.786 80.605 199.577 80.4185C199.387 80.2136 199.293 79.9444 199.295 79.6111L199.366 66.5743C199.368 66.2408 199.465 65.9818 199.657 65.7974C199.868 65.5947 200.145 65.4942 200.489 65.496C200.814 65.4977 201.071 65.6009 201.26 65.8058C201.469 65.9921 201.573 66.2521 201.571 66.5857L201.5 79.6223C201.498 79.956 201.392 80.2243 201.18 80.4267C200.988 80.611 200.73 80.7023 200.406 80.7011ZM200.476 62.605C200.056 62.6028 199.694 62.4527 199.39 62.1546C199.086 61.8565 198.936 61.4944 198.938 61.0682C198.941 60.6049 199.095 60.2443 199.402 59.9865C199.728 59.7102 200.102 59.5731 200.521 59.5752C200.922 59.5773 201.275 59.7181 201.578 59.9977C201.902 60.2588 202.062 60.621 202.059 61.0843C202.057 61.5105 201.902 61.8711 201.595 62.166C201.288 62.4609 200.915 62.6072 200.476 62.605ZM211.519 80.7583C210.507 80.7532 209.601 80.5167 208.802 80.0491C208.022 79.5818 207.405 78.9487 206.951 78.1495C206.497 77.3317 206.273 76.4041 206.279 75.3662L206.353 61.7736C206.355 61.4585 206.452 61.1996 206.644 60.9967C206.855 60.794 207.123 60.6934 207.447 60.6951C207.772 60.6968 208.039 60.8001 208.248 61.005C208.456 61.2099 208.56 61.4699 208.558 61.7849L208.484 75.3774C208.479 76.3227 208.761 77.1026 209.33 77.7171C209.9 78.3131 210.633 78.6133 211.53 78.618L212.303 78.6219C212.609 78.6232 212.857 78.7265 213.046 78.9315C213.236 79.1361 213.33 79.3962 213.328 79.711C213.327 80.0262 213.211 80.285 212.98 80.4879C212.751 80.6718 212.464 80.7631 212.12 80.7613L211.519 80.7583ZM204.458 67.9349C204.172 67.9334 203.933 67.8487 203.744 67.681C203.554 67.4947 203.46 67.2718 203.461 67.0124C203.462 66.7344 203.559 66.5125 203.751 66.3467C203.943 66.1624 204.182 66.071 204.468 66.0725L211.771 66.1101C212.057 66.1116 212.295 66.2055 212.485 66.3918C212.675 66.5596 212.769 66.7824 212.768 67.0604C212.766 67.3198 212.669 67.5417 212.478 67.7261C212.286 67.8919 212.047 67.974 211.76 67.9725L204.458 67.9349Z" fill="#25291C"/>
<path d="M200.728 62.867C201.708 62.867 202.502 62.0958 202.502 61.1445C202.502 60.1931 201.708 59.4219 200.728 59.4219C199.748 59.4219 198.953 60.1931 198.953 61.1445C198.953 62.0958 199.748 62.867 200.728 62.867Z" fill="#EB8F44"/>
</g>
<defs>
<filter id="filter0_d_624_2193" x="53.9449" y="89.1155" width="251.378" height="54.3635" filterUnits="userSpaceOnUse" color-interpolation-filters="sRGB">
<feFlood flood-opacity="0" result="BackgroundImageFix"/>
<feColorMatrix in="SourceAlpha" type="matrix" values="0 0 0 0 0 0 0 0 0 0 0 0 0 0 0 0 0 0 127 0" result="hardAlpha"/>
<feOffset dx="1.67104" dy="0.477439"/>
<feGaussianBlur stdDeviation="0.954878"/>
<feComposite in2="hardAlpha" operator="out"/>
<feColorMatrix type="matrix" values="0 0 0 0 0.145098 0 0 0 0 0.160784 0 0 0 0 0.109804 0 0 0 0.25 0"/>
<feBlend mode="normal" in2="BackgroundImageFix" result="effect1_dropShadow_624_2193"/>
<feBlend mode="normal" in="SourceGraphic" in2="effect1_dropShadow_624_2193" result="shape"/>
</filter>
<linearGradient id="paint0_linear_624_2193" x1="274.852" y1="3.00195" x2="274.852" y2="265.375" gradientUnits="userSpaceOnUse">
<stop stop-color="#C4C4C4" stop-opacity="0"/>
<stop offset="0.526042" stop-color="#C4C4C4"/>
<stop offset="1" stop-color="#C4C4C4" stop-opacity="0"/>
</linearGradient>
<clipPath id="clip0_624_2193">
<rect width="360" height="190" fill="white"/>
</clipPath>
<clipPath id="clip1_624_2193">
<rect width="409" height="187.458" fill="white" transform="translate(-16 3)"/>
</clipPath>
<clipPath id="clip2_624_2193">
<rect width="581.704" height="262.979" fill="white" transform="translate(-16 3)"/>
</clipPath>
</defs>
</svg>
