<svg width="360" height="190" viewBox="0 0 360 190" fill="none" xmlns="http://www.w3.org/2000/svg">
<g clip-path="url(#clip0_624_2353)">
<rect width="360" height="190" fill="#E3E5DE"/>
<g clip-path="url(#clip1_624_2353)">
<g clip-path="url(#clip2_624_2353)">
<mask id="mask0_624_2353" style="mask-type:alpha" maskUnits="userSpaceOnUse" x="-16" y="3" width="582" height="263">
<rect x="-16" y="3.00195" width="581.704" height="262.373" fill="url(#paint0_linear_624_2353)"/>
</mask>
<g mask="url(#mask0_624_2353)">
<line y1="-0.151486" x2="584.431" y2="-0.151486" transform="matrix(-0.866025 0.5 -0.866025 -0.5 269.496 -162.117)" stroke="#E86800" stroke-opacity="0.79" stroke-width="0.302971"/>
<line y1="-0.151486" x2="584.431" y2="-0.151486" transform="matrix(-0.866025 0.5 -0.866025 -0.5 287.34 -151.816)" stroke="#E86800" stroke-opacity="0.79" stroke-width="0.302971"/>
<line y1="-0.151486" x2="584.431" y2="-0.151486" transform="matrix(-0.866025 0.5 -0.866025 -0.5 305.18 -141.516)" stroke="#E86800" stroke-opacity="0.79" stroke-width="0.302971"/>
<line y1="-0.151486" x2="584.431" y2="-0.151486" transform="matrix(-0.866025 0.5 -0.866025 -0.5 323.023 -131.214)" stroke="#E86800" stroke-opacity="0.79" stroke-width="0.302971"/>
<line y1="-0.151486" x2="584.431" y2="-0.151486" transform="matrix(-0.866025 0.5 -0.866025 -0.5 340.863 -120.913)" stroke="#E86800" stroke-opacity="0.79" stroke-width="0.302971"/>
<line y1="-0.151486" x2="584.431" y2="-0.151486" transform="matrix(-0.866025 0.5 -0.866025 -0.5 358.707 -110.612)" stroke="#E86800" stroke-opacity="0.79" stroke-width="0.302971"/>
<line y1="-0.151486" x2="584.431" y2="-0.151486" transform="matrix(-0.866025 0.5 -0.866025 -0.5 376.547 -100.312)" stroke="#E86800" stroke-opacity="0.79" stroke-width="0.302971"/>
<line y1="-0.151486" x2="584.431" y2="-0.151486" transform="matrix(-0.866025 0.5 -0.866025 -0.5 394.391 -90.0098)" stroke="#E86800" stroke-opacity="0.79" stroke-width="0.302971"/>
<line y1="-0.151486" x2="584.431" y2="-0.151486" transform="matrix(-0.866025 0.5 -0.866025 -0.5 412.23 -79.709)" stroke="#E86800" stroke-opacity="0.79" stroke-width="0.302971"/>
<line y1="-0.151486" x2="584.431" y2="-0.151486" transform="matrix(-0.866025 0.5 -0.866025 -0.5 430.074 -69.4082)" stroke="#E86800" stroke-opacity="0.79" stroke-width="0.302971"/>
<line y1="-0.151486" x2="584.431" y2="-0.151486" transform="matrix(-0.866025 0.5 -0.866025 -0.5 447.914 -59.1074)" stroke="#E86800" stroke-opacity="0.79" stroke-width="0.302971"/>
<line y1="-0.151486" x2="584.431" y2="-0.151486" transform="matrix(-0.866025 0.5 -0.866025 -0.5 465.758 -48.8057)" stroke="#E86800" stroke-opacity="0.79" stroke-width="0.302971"/>
<line y1="-0.151486" x2="584.431" y2="-0.151486" transform="matrix(-0.866025 0.5 -0.866025 -0.5 483.598 -38.5049)" stroke="#E86800" stroke-opacity="0.79" stroke-width="0.302971"/>
<line y1="-0.151486" x2="584.431" y2="-0.151486" transform="matrix(-0.866025 0.5 -0.866025 -0.5 501.441 -28.2041)" stroke="#E86800" stroke-opacity="0.79" stroke-width="0.302971"/>
<line y1="-0.151486" x2="584.431" y2="-0.151486" transform="matrix(-0.866025 0.5 -0.866025 -0.5 519.281 -17.9033)" stroke="#E86800" stroke-opacity="0.79" stroke-width="0.302971"/>
<line y1="-0.151486" x2="584.431" y2="-0.151486" transform="matrix(-0.866025 0.5 -0.866025 -0.5 537.125 -7.60156)" stroke="#E86800" stroke-opacity="0.79" stroke-width="0.302971"/>
<line y1="-0.151486" x2="584.431" y2="-0.151486" transform="matrix(-0.866025 0.5 -0.866025 -0.5 554.965 2.69922)" stroke="#E86800" stroke-opacity="0.79" stroke-width="0.302971"/>
<line y1="-0.151486" x2="584.431" y2="-0.151486" transform="matrix(-0.866025 0.5 -0.866025 -0.5 572.809 13)" stroke="#E86800" stroke-opacity="0.79" stroke-width="0.302971"/>
<line y1="-0.151486" x2="584.431" y2="-0.151486" transform="matrix(-0.866025 0.5 -0.866025 -0.5 590.648 23.3008)" stroke="#E86800" stroke-opacity="0.79" stroke-width="0.302971"/>
<line y1="-0.151486" x2="584.431" y2="-0.151486" transform="matrix(-0.866025 0.5 -0.866025 -0.5 608.492 33.6025)" stroke="#E86800" stroke-opacity="0.79" stroke-width="0.302971"/>
<line y1="-0.151486" x2="584.431" y2="-0.151486" transform="matrix(-0.866025 0.5 -0.866025 -0.5 626.332 43.9033)" stroke="#E86800" stroke-opacity="0.79" stroke-width="0.302971"/>
<line y1="-0.151486" x2="584.431" y2="-0.151486" transform="matrix(-0.866025 0.5 -0.866025 -0.5 644.176 54.2041)" stroke="#E86800" stroke-opacity="0.79" stroke-width="0.302971"/>
<line y1="-0.151486" x2="584.431" y2="-0.151486" transform="matrix(-0.866025 0.5 -0.866025 -0.5 662.016 64.5049)" stroke="#E86800" stroke-opacity="0.79" stroke-width="0.302971"/>
<line y1="-0.151486" x2="584.431" y2="-0.151486" transform="matrix(-0.866025 0.5 -0.866025 -0.5 679.859 74.8057)" stroke="#E86800" stroke-opacity="0.79" stroke-width="0.302971"/>
<line y1="-0.151486" x2="584.431" y2="-0.151486" transform="matrix(-0.866025 0.5 -0.866025 -0.5 697.699 85.1074)" stroke="#E86800" stroke-opacity="0.79" stroke-width="0.302971"/>
<line y1="-0.151486" x2="584.431" y2="-0.151486" transform="matrix(-0.866025 0.5 -0.866025 -0.5 715.543 95.4082)" stroke="#E86800" stroke-opacity="0.79" stroke-width="0.302971"/>
<line y1="-0.151486" x2="584.431" y2="-0.151486" transform="matrix(-0.866025 0.5 -0.866025 -0.5 733.387 105.709)" stroke="#E86800" stroke-opacity="0.79" stroke-width="0.302971"/>
<line y1="-0.151486" x2="584.431" y2="-0.151486" transform="matrix(-0.866025 0.5 -0.866025 -0.5 751.227 116.01)" stroke="#E86800" stroke-opacity="0.79" stroke-width="0.302971"/>
<line y1="-0.151486" x2="584.431" y2="-0.151486" transform="matrix(-0.866025 0.5 -0.866025 -0.5 769.07 126.312)" stroke="#E86800" stroke-opacity="0.79" stroke-width="0.302971"/>
<line y1="-0.151486" x2="584.431" y2="-0.151486" transform="matrix(-0.866025 0.5 -0.866025 -0.5 786.91 136.612)" stroke="#E86800" stroke-opacity="0.79" stroke-width="0.302971"/>
<line y1="-0.151486" x2="606.245" y2="-0.151486" transform="matrix(0.866025 0.5 -0.866025 0.5 -235.34 129.652)" stroke="#E86800" stroke-opacity="0.79" stroke-width="0.302971"/>
<line y1="-0.151486" x2="606.245" y2="-0.151486" transform="matrix(0.866025 0.5 -0.866025 0.5 -216.633 118.852)" stroke="#E86800" stroke-opacity="0.79" stroke-width="0.302971"/>
<line y1="-0.151486" x2="606.245" y2="-0.151486" transform="matrix(0.866025 0.5 -0.866025 0.5 -197.922 108.05)" stroke="#E86800" stroke-opacity="0.79" stroke-width="0.302971"/>
<line y1="-0.151486" x2="606.245" y2="-0.151486" transform="matrix(0.866025 0.5 -0.866025 0.5 -179.215 97.249)" stroke="#E86800" stroke-opacity="0.79" stroke-width="0.302971"/>
<line y1="-0.151486" x2="606.245" y2="-0.151486" transform="matrix(0.866025 0.5 -0.866025 0.5 -160.508 86.4482)" stroke="#E86800" stroke-opacity="0.79" stroke-width="0.302971"/>
<line y1="-0.151486" x2="606.245" y2="-0.151486" transform="matrix(0.866025 0.5 -0.866025 0.5 -141.801 75.6475)" stroke="#E86800" stroke-opacity="0.79" stroke-width="0.302971"/>
<line y1="-0.151486" x2="606.245" y2="-0.151486" transform="matrix(0.866025 0.5 -0.866025 0.5 -123.094 64.8457)" stroke="#E86800" stroke-opacity="0.79" stroke-width="0.302971"/>
<line y1="-0.151486" x2="606.245" y2="-0.151486" transform="matrix(0.866025 0.5 -0.866025 0.5 -104.383 54.0449)" stroke="#E86800" stroke-opacity="0.79" stroke-width="0.302971"/>
<line y1="-0.151486" x2="606.245" y2="-0.151486" transform="matrix(0.866025 0.5 -0.866025 0.5 -85.6758 43.2441)" stroke="#E86800" stroke-opacity="0.79" stroke-width="0.302971"/>
<line y1="-0.151486" x2="606.245" y2="-0.151486" transform="matrix(0.866025 0.5 -0.866025 0.5 -66.9688 32.4434)" stroke="#E86800" stroke-opacity="0.79" stroke-width="0.302971"/>
<line y1="-0.151486" x2="606.245" y2="-0.151486" transform="matrix(0.866025 0.5 -0.866025 0.5 -48.2617 21.6416)" stroke="#E86800" stroke-opacity="0.79" stroke-width="0.302971"/>
<line y1="-0.151486" x2="606.245" y2="-0.151486" transform="matrix(0.866025 0.5 -0.866025 0.5 -29.5508 10.8408)" stroke="#E86800" stroke-opacity="0.79" stroke-width="0.302971"/>
<line y1="-0.151486" x2="606.245" y2="-0.151486" transform="matrix(0.866025 0.5 -0.866025 0.5 -10.8438 0.0400391)" stroke="#E86800" stroke-opacity="0.79" stroke-width="0.302971"/>
<line y1="-0.151486" x2="606.245" y2="-0.151486" transform="matrix(0.866025 0.5 -0.866025 0.5 7.86328 -10.7607)" stroke="#E86800" stroke-opacity="0.79" stroke-width="0.302971"/>
<line y1="-0.151486" x2="606.245" y2="-0.151486" transform="matrix(0.866025 0.5 -0.866025 0.5 26.5703 -21.5625)" stroke="#E86800" stroke-opacity="0.79" stroke-width="0.302971"/>
<line y1="-0.151486" x2="606.245" y2="-0.151486" transform="matrix(0.866025 0.5 -0.866025 0.5 45.2773 -32.3633)" stroke="#E86800" stroke-opacity="0.79" stroke-width="0.302971"/>
<line y1="-0.151486" x2="606.245" y2="-0.151486" transform="matrix(0.866025 0.5 -0.866025 0.5 63.9883 -43.1641)" stroke="#E86800" stroke-opacity="0.79" stroke-width="0.302971"/>
<line y1="-0.151486" x2="606.245" y2="-0.151486" transform="matrix(0.866025 0.5 -0.866025 0.5 82.6953 -53.9648)" stroke="#E86800" stroke-opacity="0.79" stroke-width="0.302971"/>
<line y1="-0.151486" x2="606.245" y2="-0.151486" transform="matrix(0.866025 0.5 -0.866025 0.5 101.402 -64.7666)" stroke="#E86800" stroke-opacity="0.79" stroke-width="0.302971"/>
<line y1="-0.151486" x2="606.245" y2="-0.151486" transform="matrix(0.866025 0.5 -0.866025 0.5 120.109 -75.5674)" stroke="#E86800" stroke-opacity="0.79" stroke-width="0.302971"/>
<line y1="-0.151486" x2="606.245" y2="-0.151486" transform="matrix(0.866025 0.5 -0.866025 0.5 138.82 -86.3682)" stroke="#E86800" stroke-opacity="0.79" stroke-width="0.302971"/>
<line y1="-0.151486" x2="606.245" y2="-0.151486" transform="matrix(0.866025 0.5 -0.866025 0.5 157.527 -97.1689)" stroke="#E86800" stroke-opacity="0.79" stroke-width="0.302971"/>
<line y1="-0.151486" x2="606.245" y2="-0.151486" transform="matrix(0.866025 0.5 -0.866025 0.5 176.234 -107.971)" stroke="#E86800" stroke-opacity="0.79" stroke-width="0.302971"/>
<line y1="-0.151486" x2="606.245" y2="-0.151486" transform="matrix(0.866025 0.5 -0.866025 0.5 194.941 -118.771)" stroke="#E86800" stroke-opacity="0.79" stroke-width="0.302971"/>
<line y1="-0.151486" x2="606.245" y2="-0.151486" transform="matrix(0.866025 0.5 -0.866025 0.5 213.648 -129.572)" stroke="#E86800" stroke-opacity="0.79" stroke-width="0.302971"/>
<line y1="-0.151486" x2="606.245" y2="-0.151486" transform="matrix(0.866025 0.5 -0.866025 0.5 232.359 -140.373)" stroke="#E86800" stroke-opacity="0.79" stroke-width="0.302971"/>
<line y1="-0.151486" x2="606.245" y2="-0.151486" transform="matrix(0.866025 0.5 -0.866025 0.5 251.066 -151.175)" stroke="#E86800" stroke-opacity="0.79" stroke-width="0.302971"/>
<line y1="-0.151486" x2="606.245" y2="-0.151486" transform="matrix(0.866025 0.5 -0.866025 0.5 269.773 -161.976)" stroke="#E86800" stroke-opacity="0.79" stroke-width="0.302971"/>
<line y1="-0.151486" x2="606.245" y2="-0.151486" transform="matrix(0.866025 0.5 -0.866025 0.5 288.48 -172.776)" stroke="#E86800" stroke-opacity="0.79" stroke-width="0.302971"/>
</g>
</g>
</g>
<g filter="url(#filter0_d_624_2353)">
<path d="M74.6832 119V102.026H81.7598C82.5089 102.026 83.1942 102.185 83.8158 102.504C84.4374 102.807 84.9793 103.221 85.4415 103.747C85.9037 104.257 86.2623 104.839 86.5173 105.492C86.7723 106.13 86.8998 106.783 86.8998 107.453C86.8998 108.377 86.6926 109.262 86.2782 110.107C85.8638 110.935 85.2821 111.613 84.533 112.139C83.7839 112.649 82.9073 112.904 81.9032 112.904H76.8349V119H74.6832ZM76.8349 110.991H81.7837C82.3734 110.991 82.8834 110.832 83.3137 110.513C83.76 110.194 84.1027 109.764 84.3417 109.222C84.5967 108.68 84.7243 108.09 84.7243 107.453C84.7243 106.783 84.5808 106.186 84.2939 105.66C84.007 105.118 83.6325 104.696 83.1703 104.393C82.7081 104.09 82.1981 103.938 81.6402 103.938H76.8349V110.991ZM89.5785 119V102.026H96.8463C97.5954 102.026 98.2807 102.185 98.9023 102.504C99.5239 102.807 100.066 103.221 100.528 103.747C100.99 104.257 101.349 104.839 101.604 105.492C101.859 106.13 101.986 106.783 101.986 107.453C101.986 108.234 101.835 108.975 101.532 109.676C101.245 110.377 100.831 110.975 100.289 111.469C99.763 111.963 99.1414 112.306 98.4242 112.497L102.536 119H100.098L96.2247 112.904H91.7302V119H89.5785ZM91.7302 110.991H96.8702C97.4599 110.991 97.97 110.832 98.4003 110.513C98.8466 110.178 99.1892 109.74 99.4283 109.198C99.6833 108.656 99.8108 108.074 99.8108 107.453C99.8108 106.815 99.6674 106.234 99.3805 105.708C99.0936 105.166 98.719 104.735 98.2568 104.417C97.7946 104.098 97.2846 103.938 96.7268 103.938H91.7302V110.991ZM105.291 119V102.026H107.443V119H105.291ZM110.402 110.393C110.402 109.357 110.577 108.345 110.927 107.357C111.294 106.353 111.82 105.445 112.505 104.632C113.207 103.803 114.059 103.15 115.063 102.671C116.068 102.177 117.207 101.93 118.482 101.93C119.996 101.93 121.295 102.281 122.379 102.982C123.463 103.668 124.268 104.552 124.794 105.636L123.096 106.736C122.762 106.018 122.331 105.453 121.805 105.038C121.295 104.608 120.737 104.305 120.132 104.13C119.542 103.954 118.96 103.867 118.387 103.867C117.446 103.867 116.609 104.058 115.876 104.441C115.159 104.823 114.553 105.333 114.059 105.971C113.565 106.608 113.191 107.325 112.936 108.122C112.697 108.903 112.577 109.692 112.577 110.489C112.577 111.366 112.721 112.21 113.007 113.023C113.31 113.836 113.725 114.553 114.251 115.175C114.777 115.796 115.398 116.291 116.115 116.657C116.833 117.024 117.614 117.207 118.458 117.207C119.048 117.207 119.654 117.103 120.275 116.896C120.897 116.689 121.479 116.37 122.02 115.94C122.562 115.494 122.993 114.92 123.311 114.219L125.104 115.199C124.754 116.043 124.212 116.761 123.479 117.35C122.746 117.94 121.925 118.386 121.016 118.689C120.124 118.992 119.239 119.143 118.363 119.143C117.199 119.143 116.131 118.896 115.159 118.402C114.187 117.892 113.342 117.223 112.625 116.394C111.924 115.549 111.374 114.609 110.975 113.573C110.593 112.521 110.402 111.461 110.402 110.393ZM139.321 117.087V119H127.797V102.026H139.105V103.938H129.949V109.437H137.91V111.23H129.949V117.087H139.321ZM148.319 119V102.026H159.532V103.938H150.471V109.604H158.097V111.398H150.471V119H148.319ZM173.781 117.087V119H162.257V102.026H173.565V103.938H164.409V109.437H172.37V111.23H164.409V117.087H173.781ZM188.256 117.087V119H176.732V102.026H188.04V103.938H178.884V109.437H186.845V111.23H178.884V117.087H188.256ZM191.207 119V102.026H197.089C198.906 102.026 200.42 102.408 201.631 103.173C202.858 103.923 203.775 104.943 204.38 106.234C204.986 107.509 205.289 108.927 205.289 110.489C205.289 112.21 204.954 113.709 204.285 114.984C203.615 116.259 202.667 117.247 201.44 117.948C200.212 118.649 198.762 119 197.089 119H191.207ZM203.113 110.489C203.113 109.214 202.874 108.082 202.396 107.094C201.934 106.106 201.256 105.333 200.364 104.775C199.471 104.217 198.38 103.938 197.089 103.938H193.359V117.087H197.089C198.396 117.087 199.495 116.801 200.388 116.227C201.28 115.637 201.958 114.848 202.42 113.86C202.882 112.856 203.113 111.732 203.113 110.489ZM221.253 119.12C220.057 119.12 218.974 118.88 218.001 118.402C217.029 117.924 216.184 117.279 215.467 116.466C214.766 115.637 214.224 114.713 213.842 113.693C213.459 112.657 213.268 111.597 213.268 110.513C213.268 109.381 213.467 108.306 213.865 107.285C214.28 106.249 214.846 105.333 215.563 104.536C216.296 103.723 217.149 103.086 218.121 102.624C219.093 102.145 220.153 101.906 221.301 101.906C222.496 101.906 223.58 102.153 224.552 102.647C225.524 103.142 226.361 103.803 227.062 104.632C227.764 105.461 228.305 106.385 228.688 107.405C229.07 108.425 229.262 109.469 229.262 110.537C229.262 111.668 229.062 112.752 228.664 113.788C228.266 114.808 227.7 115.725 226.967 116.538C226.249 117.334 225.405 117.964 224.432 118.426C223.46 118.888 222.4 119.12 221.253 119.12ZM215.443 110.513C215.443 111.374 215.579 112.21 215.85 113.023C216.137 113.82 216.535 114.529 217.045 115.151C217.555 115.773 218.169 116.267 218.886 116.633C219.603 117 220.4 117.183 221.277 117.183C222.185 117.183 222.998 116.992 223.715 116.609C224.432 116.227 225.038 115.717 225.532 115.079C226.042 114.442 226.425 113.724 226.68 112.928C226.951 112.131 227.086 111.326 227.086 110.513C227.086 109.652 226.943 108.824 226.656 108.027C226.385 107.23 225.986 106.52 225.46 105.899C224.95 105.261 224.337 104.767 223.62 104.417C222.918 104.05 222.137 103.867 221.277 103.867C220.368 103.867 219.555 104.058 218.838 104.441C218.121 104.807 217.507 105.309 216.997 105.947C216.503 106.584 216.121 107.301 215.85 108.098C215.579 108.879 215.443 109.684 215.443 110.513ZM234.403 105.994V119H232.251V102.026H234.068L244.444 115.294V102.05H246.596V119H244.635L234.403 105.994Z" fill="#25291C"/>
<path d="M261.112 102.026H262.929L269.862 119H267.567L265.559 114.027H258.435L256.45 119H254.155L261.112 102.026ZM265.081 112.354L262.021 104.512L258.865 112.354H265.081ZM278.383 119.12C277.187 119.12 276.103 118.88 275.131 118.402C274.159 117.924 273.314 117.279 272.597 116.466C271.896 115.637 271.354 114.713 270.971 113.693C270.589 112.657 270.398 111.597 270.398 110.513C270.398 109.381 270.597 108.306 270.995 107.285C271.41 106.249 271.975 105.333 272.693 104.536C273.426 103.723 274.278 103.086 275.251 102.624C276.223 102.145 277.283 101.906 278.43 101.906C279.626 101.906 280.71 102.153 281.682 102.647C282.654 103.142 283.491 103.803 284.192 104.632C284.893 105.461 285.435 106.385 285.818 107.405C286.2 108.425 286.391 109.469 286.391 110.537C286.391 111.668 286.192 112.752 285.794 113.788C285.395 114.808 284.83 115.725 284.096 116.538C283.379 117.334 282.534 117.964 281.562 118.426C280.59 118.888 279.53 119.12 278.383 119.12ZM272.573 110.513C272.573 111.374 272.709 112.21 272.98 113.023C273.266 113.82 273.665 114.529 274.175 115.151C274.685 115.773 275.299 116.267 276.016 116.633C276.733 117 277.53 117.183 278.406 117.183C279.315 117.183 280.128 116.992 280.845 116.609C281.562 116.227 282.168 115.717 282.662 115.079C283.172 114.442 283.554 113.724 283.809 112.928C284.08 112.131 284.216 111.326 284.216 110.513C284.216 109.652 284.072 108.824 283.786 108.027C283.515 107.23 283.116 106.52 282.59 105.899C282.08 105.261 281.467 104.767 280.749 104.417C280.048 104.05 279.267 103.867 278.406 103.867C277.498 103.867 276.685 104.058 275.968 104.441C275.251 104.807 274.637 105.309 274.127 105.947C273.633 106.584 273.25 107.301 272.98 108.098C272.709 108.879 272.573 109.684 272.573 110.513Z" fill="#E28132"/>
</g>
<path d="M163.532 67.5125L163.532 58.2254C163.532 53.6179 159.684 49.8829 154.938 49.8828C150.449 49.8828 146.688 53.2865 146.647 57.6435C146.646 57.846 146.645 58.0437 146.645 58.2352" stroke="#EB8F44" stroke-width="1.99854"/>
<path d="M146.618 62.957C147.23 62.9602 147.728 62.4819 147.731 61.8886C147.735 61.2953 147.242 60.8118 146.63 60.8086C146.019 60.8053 145.521 61.2837 145.517 61.8769C145.514 62.4702 146.007 62.9538 146.618 62.957Z" fill="#EB8F44"/>
<path d="M150.224 62.9658C150.835 62.969 151.334 62.4907 151.337 61.8974C151.34 61.3041 150.847 60.8206 150.236 60.8174C149.625 60.8141 149.126 61.2925 149.123 61.8857C149.119 62.479 149.612 62.9626 150.224 62.9658Z" fill="#25291C"/>
<path d="M146.114 67.7002L146.071 73.4724C146.035 78.1181 149.871 81.9194 154.656 81.9818C159.408 82.0443 163.333 78.3963 163.475 73.7859L163.503 72.8774" stroke="#25291C" stroke-width="1.99854"/>
<path d="M159.618 65.0657L159.606 73.2184C159.602 75.7716 157.45 77.8299 154.82 77.7954C152.224 77.7614 150.143 75.6989 150.163 73.1785L150.212 66.8488C150.225 65.2052 148.286 64.2647 146.939 65.261C146.434 65.6352 146.137 66.2171 146.137 66.8343V67.8542" stroke="#25291C" stroke-width="1.99854"/>
<path d="M154.915 54.0548L154.898 53.0833L154.915 53.083L154.931 53.0833L154.915 54.0548ZM151.279 61.6662C151.279 62.2028 150.831 62.6379 150.278 62.6379C149.726 62.6379 149.277 62.2028 149.277 61.6662H151.279ZM154.931 55.0263L154.653 55.0308L154.62 53.0877L154.898 53.0833L154.931 55.0263ZM151.279 58.3604V61.6662H149.277V58.3604H151.279ZM158.62 65.229V59.9301H160.622V65.229H158.62ZM158.62 59.9301V58.698H160.622V59.9301H158.62ZM149.277 58.3604C149.277 55.4819 151.655 53.1352 154.62 53.0877L154.653 55.0308C152.781 55.0608 151.279 56.5427 151.279 58.3604H149.277ZM154.931 53.0833C158.089 53.1331 160.622 55.6322 160.622 58.698H158.62C158.62 56.6932 156.964 55.0589 154.899 55.0263L154.931 53.0833Z" fill="#25291C"/>
<path d="M163.517 74.0595C164.264 74.0634 164.873 73.4804 164.877 72.7572C164.882 72.0341 164.279 71.4447 163.532 71.4407C162.785 71.4368 162.176 72.0198 162.172 72.743C162.168 73.4661 162.77 74.0555 163.517 74.0595Z" fill="#25291C"/>
<path d="M163.62 68.9521C164.357 68.9521 164.955 68.2996 164.955 67.4946C164.955 66.6897 164.357 66.0371 163.62 66.0371C162.883 66.0371 162.285 66.6897 162.285 67.4946C162.285 68.2996 162.883 68.9521 163.62 68.9521Z" fill="#EB8F44"/>
<path d="M146.608 59.2356C147.345 59.2356 147.943 58.6556 147.943 57.9401C147.943 57.2246 147.345 56.6445 146.608 56.6445C145.871 56.6445 145.273 57.2246 145.273 57.9401C145.273 58.6556 145.871 59.2356 146.608 59.2356Z" fill="#EB8F44"/>
<path d="M169.872 73.1755C169.935 72.0269 170.246 71 170.805 70.0948C171.383 69.1897 172.122 68.4801 173.022 67.9658C173.941 67.4517 174.955 67.1975 176.062 67.2032C176.94 67.2077 177.617 67.3317 178.093 67.575C178.569 67.8184 178.748 68.1714 178.631 68.6341C178.554 68.9117 178.419 69.0963 178.227 69.188C178.055 69.2798 177.835 69.3157 177.568 69.2958C177.32 69.2759 177.034 69.256 176.709 69.2358C175.64 69.1376 174.686 69.2439 173.844 69.5545C173.021 69.8468 172.36 70.3067 171.86 70.9342C171.38 71.5618 171.137 72.3111 171.132 73.182L169.872 73.1755ZM169.993 82.5439C169.649 82.5421 169.382 82.4483 169.192 82.2618C169.002 82.0758 168.908 81.8156 168.91 81.4819L168.982 68.3898C168.984 68.0562 169.081 67.7972 169.272 67.6129C169.464 67.4286 169.732 67.3373 170.076 67.3391C170.42 67.3409 170.686 67.4349 170.876 67.6212C171.066 67.8075 171.16 68.0674 171.158 68.401L171.086 81.4931C171.085 81.8268 170.988 82.0857 170.796 82.27C170.604 82.4543 170.336 82.5456 169.993 82.5439ZM188.234 82.7768C186.744 82.7695 185.4 82.4289 184.201 81.7553C183.021 81.0822 182.081 80.1693 181.381 79.0169C180.7 77.8459 180.354 76.5376 180.343 75.092L180.415 61.9719C180.417 61.6383 180.514 61.3794 180.706 61.1951C180.916 60.9923 181.194 60.8918 181.538 60.8936C181.862 60.8953 182.119 60.9985 182.309 61.2033C182.518 61.3897 182.622 61.6497 182.62 61.9833L182.575 70.1555C183.21 69.2878 184.044 68.5972 185.078 68.0836C186.131 67.5516 187.297 67.2889 188.576 67.2955C190.046 67.3031 191.361 67.6527 192.522 68.3444C193.683 69.0176 194.594 69.9396 195.256 71.1105C195.937 72.2815 196.274 73.599 196.266 75.0629C196.258 76.5454 195.897 77.8688 195.184 79.0324C194.491 80.1964 193.541 81.118 192.334 81.7976C191.128 82.4586 189.761 82.785 188.234 82.7768ZM188.244 80.8312C189.351 80.8368 190.345 80.5917 191.227 80.0961C192.108 79.5819 192.798 78.8903 193.3 78.0221C193.82 77.1539 194.083 76.1634 194.089 75.0517C194.095 73.9584 193.843 72.9749 193.332 72.1013C192.841 71.2092 192.157 70.5107 191.282 70.0059C190.406 69.501 189.415 69.2457 188.308 69.24C187.219 69.2344 186.235 69.4795 185.354 69.9753C184.473 70.4711 183.782 71.1625 183.281 72.0494C182.779 72.9178 182.526 73.8987 182.52 74.992C182.514 76.104 182.757 77.0966 183.248 77.97C183.74 78.8437 184.424 79.5423 185.299 80.0655C186.174 80.5702 187.156 80.8256 188.244 80.8312ZM200.406 82.7011C200.062 82.6989 199.786 82.605 199.577 82.4185C199.387 82.2136 199.293 81.9444 199.295 81.6111L199.366 68.5743C199.368 68.2408 199.465 67.9818 199.657 67.7974C199.868 67.5947 200.145 67.4942 200.489 67.496C200.814 67.4977 201.071 67.6009 201.26 67.8058C201.469 67.9921 201.573 68.2521 201.571 68.5857L201.5 81.6223C201.498 81.956 201.392 82.2243 201.18 82.4267C200.988 82.611 200.73 82.7023 200.406 82.7011ZM200.476 64.605C200.056 64.6028 199.694 64.4527 199.39 64.1546C199.086 63.8565 198.936 63.4944 198.938 63.0682C198.941 62.6049 199.095 62.2443 199.402 61.9865C199.728 61.7102 200.102 61.5731 200.521 61.5752C200.922 61.5773 201.275 61.7181 201.578 61.9977C201.902 62.2588 202.062 62.621 202.059 63.0843C202.057 63.5105 201.902 63.8711 201.595 64.166C201.288 64.4609 200.915 64.6072 200.476 64.605ZM211.519 82.7583C210.507 82.7532 209.601 82.5167 208.802 82.0491C208.022 81.5818 207.405 80.9487 206.951 80.1495C206.497 79.3317 206.273 78.4041 206.279 77.3662L206.353 63.7736C206.355 63.4585 206.452 63.1996 206.644 62.9967C206.855 62.794 207.123 62.6934 207.447 62.6951C207.772 62.6968 208.039 62.8001 208.248 63.005C208.456 63.2099 208.56 63.4699 208.558 63.7849L208.484 77.3774C208.479 78.3227 208.761 79.1026 209.33 79.7171C209.9 80.3131 210.633 80.6133 211.53 80.618L212.303 80.6219C212.609 80.6232 212.857 80.7265 213.046 80.9315C213.236 81.1361 213.33 81.3962 213.328 81.711C213.327 82.0262 213.211 82.285 212.98 82.4879C212.751 82.6718 212.464 82.7631 212.12 82.7613L211.519 82.7583ZM204.458 69.9349C204.172 69.9334 203.933 69.8487 203.744 69.681C203.554 69.4947 203.46 69.2718 203.461 69.0124C203.462 68.7344 203.559 68.5125 203.751 68.3467C203.943 68.1624 204.182 68.071 204.468 68.0725L211.771 68.1101C212.057 68.1116 212.295 68.2055 212.485 68.3918C212.675 68.5596 212.769 68.7824 212.768 69.0604C212.766 69.3198 212.669 69.5417 212.478 69.7261C212.286 69.8919 212.047 69.974 211.76 69.9725L204.458 69.9349Z" fill="#25291C"/>
<path d="M200.728 64.867C201.708 64.867 202.502 64.0958 202.502 63.1445C202.502 62.1931 201.708 61.4219 200.728 61.4219C199.748 61.4219 198.953 62.1931 198.953 63.1445C198.953 64.0958 199.748 64.867 200.728 64.867Z" fill="#EB8F44"/>
</g>
<defs>
<filter id="filter0_d_624_2353" x="74.4449" y="100.474" width="215.527" height="21.0568" filterUnits="userSpaceOnUse" color-interpolation-filters="sRGB">
<feFlood flood-opacity="0" result="BackgroundImageFix"/>
<feColorMatrix in="SourceAlpha" type="matrix" values="0 0 0 0 0 0 0 0 0 0 0 0 0 0 0 0 0 0 127 0" result="hardAlpha"/>
<feOffset dx="1.67104" dy="0.477439"/>
<feGaussianBlur stdDeviation="0.954878"/>
<feComposite in2="hardAlpha" operator="out"/>
<feColorMatrix type="matrix" values="0 0 0 0 0.145098 0 0 0 0 0.160784 0 0 0 0 0.109804 0 0 0 0.25 0"/>
<feBlend mode="normal" in2="BackgroundImageFix" result="effect1_dropShadow_624_2353"/>
<feBlend mode="normal" in="SourceGraphic" in2="effect1_dropShadow_624_2353" result="shape"/>
</filter>
<linearGradient id="paint0_linear_624_2353" x1="274.852" y1="3.00195" x2="274.852" y2="265.375" gradientUnits="userSpaceOnUse">
<stop stop-color="#C4C4C4" stop-opacity="0"/>
<stop offset="0.526042" stop-color="#C4C4C4"/>
<stop offset="1" stop-color="#C4C4C4" stop-opacity="0"/>
</linearGradient>
<clipPath id="clip0_624_2353">
<rect width="360" height="190" fill="white"/>
</clipPath>
<clipPath id="clip1_624_2353">
<rect width="409" height="187.458" fill="white" transform="translate(-16 3)"/>
</clipPath>
<clipPath id="clip2_624_2353">
<rect width="581.704" height="262.979" fill="white" transform="translate(-16 3)"/>
</clipPath>
</defs>
</svg>
