<svg width="39" height="31" viewBox="0 0 39 31" fill="none" xmlns="http://www.w3.org/2000/svg">
<mask id="path-1-outside-1_1610_3552" maskUnits="userSpaceOnUse" x="0" y="0" width="39" height="31" fill="black">
<rect fill="white" width="39" height="31"/>
<path fill-rule="evenodd" clip-rule="evenodd" d="M1 5.20697V5.19743C1 4.36559 1.48426 3.71496 2.05547 3.24563C2.64204 2.76484 3.44512 2.36417 4.37609 2.03981C6.2483 1.39113 8.7922 1 11.5714 1C14.3506 1 16.8946 1.39112 18.7667 2.03981C19.6977 2.36415 20.5008 2.76483 21.0874 3.24563C21.6586 3.71498 22.1428 4.36559 22.1428 5.19743V9.8718H25.2137C25.4507 9.8718 25.6724 9.73252 25.7951 9.50548L27.1302 7.05764C27.5002 6.37653 28.1635 5.96059 28.8762 5.96059H30.5745C30.8831 4.43045 32.1057 3.28949 33.567 3.28949C35.2618 3.28949 36.6361 4.82725 36.6361 6.72371C36.6361 8.62016 35.2618 10.1579 33.567 10.1579C32.1057 10.1579 30.8832 9.01701 30.5745 7.48682H28.8762C28.6392 7.48682 28.4176 7.6261 28.2948 7.85314L26.9597 10.301C26.5897 10.9821 25.9264 11.398 25.2137 11.398H22.1428V15.5H31.9384C32.247 13.9699 33.4696 12.8289 34.9309 12.8289C36.6257 12.8289 38 14.3667 38 16.2631C38 18.1596 36.6257 19.6974 34.9309 19.6974C33.4696 19.6974 32.2471 18.5564 31.9384 17.0263H22.1428V21.2237H25.2137C25.9264 21.2237 26.5897 21.6396 26.9597 22.3207L28.2948 24.7686C28.4176 24.9956 28.6393 25.1349 28.8762 25.1349H30.5745C30.8831 23.6048 32.1057 22.4638 33.567 22.4638C35.2618 22.4638 36.6361 24.0016 36.6361 25.898C36.6361 27.7945 35.2618 29.3322 33.567 29.3322C32.1057 29.3322 30.8832 28.1913 30.5745 26.6611H28.8762C28.1635 26.6611 27.5003 26.2452 27.1302 25.5641L25.7951 23.1162C25.6724 22.8892 25.4507 22.7499 25.2137 22.7499H22.1428V25.8026C22.1428 26.6344 21.6586 27.285 21.0874 27.7544C20.5008 28.2352 19.6977 28.6358 18.7667 28.9602C16.8945 29.6089 14.3506 30 11.5714 30C8.7922 30 6.24826 29.6089 4.37609 28.9602C3.44512 28.6358 2.642 28.2352 2.05547 27.7544C1.48426 27.285 1 26.6344 1 25.8026V5.20697ZM2.36407 5.19743C2.36407 5.08105 2.43398 4.8292 2.86195 4.47622C3.27799 4.1347 3.92252 3.79511 4.78016 3.49746C6.48868 2.90412 8.88945 2.52633 11.5717 2.52633C14.254 2.52633 16.6548 2.9041 18.3633 3.49746C19.2209 3.7951 19.8655 4.13471 20.2815 4.47622C20.7095 4.82918 20.7794 5.08104 20.7794 5.19743C20.7794 5.31382 20.7095 5.56566 20.2815 5.91864C19.8655 6.26015 19.2209 6.59975 18.3633 6.89739C16.6548 7.49073 14.254 7.86853 11.5717 7.86853C8.88945 7.86853 6.48864 7.49076 4.78016 6.89739C3.92252 6.59976 3.27798 6.26014 2.86195 5.91864C2.43738 5.56949 2.36578 5.31763 2.36407 5.20124V5.19743ZM20.7793 7.38201V11.6843C20.7793 11.8007 20.7094 12.0526 20.2814 12.4056C19.8654 12.7471 19.2208 13.0867 18.3632 13.3843C16.6547 13.9777 14.2539 14.3554 11.5716 14.3554C8.88936 14.3554 6.48855 13.9777 4.78008 13.3843C3.92243 13.0867 3.27789 12.7471 2.86186 12.4056C2.43729 12.0564 2.36569 11.8045 2.36399 11.6882V7.38201C2.91132 7.76168 3.59846 8.08412 4.376 8.35505C6.24821 9.00372 8.79211 9.39486 11.5713 9.39486C14.3505 9.39486 16.8945 9.00373 18.7667 8.35505C19.5442 8.08412 20.2313 7.76171 20.7787 7.38201H20.7793ZM2.36407 18.5528V13.8689C2.91141 14.2486 3.59855 14.571 4.37609 14.8419C6.2483 15.4906 8.7922 15.8817 11.5714 15.8817C14.3506 15.8817 16.8946 15.4906 18.7667 14.8419C19.5442 14.571 20.2314 14.2486 20.7788 13.8689V18.5528C20.7788 18.6692 20.7088 18.921 20.2809 19.274C19.8648 19.6155 19.2203 19.9551 18.3627 20.2527C16.6541 20.8461 14.2534 21.2239 11.5711 21.2239C8.88884 21.2239 6.48803 20.8461 4.77955 20.2527C3.92191 19.9551 3.27737 19.6155 2.86134 19.274C2.43336 18.921 2.36346 18.6692 2.36346 18.5528H2.36407ZM20.7793 20.7374C20.232 21.117 19.5448 21.4395 18.7673 21.7104C16.8951 22.3591 14.3512 22.7502 11.5719 22.7502C8.79272 22.7502 6.24878 22.3591 4.37662 21.7104C3.59912 21.4395 2.91193 21.1171 2.3646 20.7374V25.8028C2.3646 25.9192 2.43451 26.171 2.86247 26.524C3.27851 26.8655 3.92305 27.2051 4.78069 27.5028C6.48921 28.0961 8.88997 28.4739 11.5722 28.4739C14.2545 28.4739 16.6553 28.0961 18.3638 27.5028C19.2214 27.2051 19.866 26.8655 20.282 26.524C20.71 26.1711 20.7799 25.9192 20.7799 25.8028L20.7793 20.7374ZM33.5675 8.63174C32.6263 8.63174 31.8625 7.777 31.8625 6.72385C31.8625 5.67071 32.6263 4.81597 33.5675 4.81597C34.5087 4.81597 35.2726 5.67071 35.2726 6.72385C35.2726 7.777 34.5087 8.63174 33.5675 8.63174ZM33.2265 16.2634C33.2265 17.3165 33.9904 18.1713 34.9316 18.1713C35.8728 18.1713 36.6366 17.3165 36.6366 16.2634C36.6366 15.2102 35.8728 14.3555 34.9316 14.3555C33.9904 14.3555 33.2265 15.2102 33.2265 16.2634ZM31.8624 25.8985C31.8624 24.8454 32.6263 23.9907 33.5675 23.9907C34.5087 23.9907 35.2726 24.8454 35.2726 25.8985C35.2726 26.9517 34.5087 27.8064 33.5675 27.8064C32.6263 27.8064 31.8624 26.9517 31.8624 25.8985Z"/>
</mask>
<path fill-rule="evenodd" clip-rule="evenodd" d="M1 5.20697V5.19743C1 4.36559 1.48426 3.71496 2.05547 3.24563C2.64204 2.76484 3.44512 2.36417 4.37609 2.03981C6.2483 1.39113 8.7922 1 11.5714 1C14.3506 1 16.8946 1.39112 18.7667 2.03981C19.6977 2.36415 20.5008 2.76483 21.0874 3.24563C21.6586 3.71498 22.1428 4.36559 22.1428 5.19743V9.8718H25.2137C25.4507 9.8718 25.6724 9.73252 25.7951 9.50548L27.1302 7.05764C27.5002 6.37653 28.1635 5.96059 28.8762 5.96059H30.5745C30.8831 4.43045 32.1057 3.28949 33.567 3.28949C35.2618 3.28949 36.6361 4.82725 36.6361 6.72371C36.6361 8.62016 35.2618 10.1579 33.567 10.1579C32.1057 10.1579 30.8832 9.01701 30.5745 7.48682H28.8762C28.6392 7.48682 28.4176 7.6261 28.2948 7.85314L26.9597 10.301C26.5897 10.9821 25.9264 11.398 25.2137 11.398H22.1428V15.5H31.9384C32.247 13.9699 33.4696 12.8289 34.9309 12.8289C36.6257 12.8289 38 14.3667 38 16.2631C38 18.1596 36.6257 19.6974 34.9309 19.6974C33.4696 19.6974 32.2471 18.5564 31.9384 17.0263H22.1428V21.2237H25.2137C25.9264 21.2237 26.5897 21.6396 26.9597 22.3207L28.2948 24.7686C28.4176 24.9956 28.6393 25.1349 28.8762 25.1349H30.5745C30.8831 23.6048 32.1057 22.4638 33.567 22.4638C35.2618 22.4638 36.6361 24.0016 36.6361 25.898C36.6361 27.7945 35.2618 29.3322 33.567 29.3322C32.1057 29.3322 30.8832 28.1913 30.5745 26.6611H28.8762C28.1635 26.6611 27.5003 26.2452 27.1302 25.5641L25.7951 23.1162C25.6724 22.8892 25.4507 22.7499 25.2137 22.7499H22.1428V25.8026C22.1428 26.6344 21.6586 27.285 21.0874 27.7544C20.5008 28.2352 19.6977 28.6358 18.7667 28.9602C16.8945 29.6089 14.3506 30 11.5714 30C8.7922 30 6.24826 29.6089 4.37609 28.9602C3.44512 28.6358 2.642 28.2352 2.05547 27.7544C1.48426 27.285 1 26.6344 1 25.8026V5.20697ZM2.36407 5.19743C2.36407 5.08105 2.43398 4.8292 2.86195 4.47622C3.27799 4.1347 3.92252 3.79511 4.78016 3.49746C6.48868 2.90412 8.88945 2.52633 11.5717 2.52633C14.254 2.52633 16.6548 2.9041 18.3633 3.49746C19.2209 3.7951 19.8655 4.13471 20.2815 4.47622C20.7095 4.82918 20.7794 5.08104 20.7794 5.19743C20.7794 5.31382 20.7095 5.56566 20.2815 5.91864C19.8655 6.26015 19.2209 6.59975 18.3633 6.89739C16.6548 7.49073 14.254 7.86853 11.5717 7.86853C8.88945 7.86853 6.48864 7.49076 4.78016 6.89739C3.92252 6.59976 3.27798 6.26014 2.86195 5.91864C2.43738 5.56949 2.36578 5.31763 2.36407 5.20124V5.19743ZM20.7793 7.38201V11.6843C20.7793 11.8007 20.7094 12.0526 20.2814 12.4056C19.8654 12.7471 19.2208 13.0867 18.3632 13.3843C16.6547 13.9777 14.2539 14.3554 11.5716 14.3554C8.88936 14.3554 6.48855 13.9777 4.78008 13.3843C3.92243 13.0867 3.27789 12.7471 2.86186 12.4056C2.43729 12.0564 2.36569 11.8045 2.36399 11.6882V7.38201C2.91132 7.76168 3.59846 8.08412 4.376 8.35505C6.24821 9.00372 8.79211 9.39486 11.5713 9.39486C14.3505 9.39486 16.8945 9.00373 18.7667 8.35505C19.5442 8.08412 20.2313 7.76171 20.7787 7.38201H20.7793ZM2.36407 18.5528V13.8689C2.91141 14.2486 3.59855 14.571 4.37609 14.8419C6.2483 15.4906 8.7922 15.8817 11.5714 15.8817C14.3506 15.8817 16.8946 15.4906 18.7667 14.8419C19.5442 14.571 20.2314 14.2486 20.7788 13.8689V18.5528C20.7788 18.6692 20.7088 18.921 20.2809 19.274C19.8648 19.6155 19.2203 19.9551 18.3627 20.2527C16.6541 20.8461 14.2534 21.2239 11.5711 21.2239C8.88884 21.2239 6.48803 20.8461 4.77955 20.2527C3.92191 19.9551 3.27737 19.6155 2.86134 19.274C2.43336 18.921 2.36346 18.6692 2.36346 18.5528H2.36407ZM20.7793 20.7374C20.232 21.117 19.5448 21.4395 18.7673 21.7104C16.8951 22.3591 14.3512 22.7502 11.5719 22.7502C8.79272 22.7502 6.24878 22.3591 4.37662 21.7104C3.59912 21.4395 2.91193 21.1171 2.3646 20.7374V25.8028C2.3646 25.9192 2.43451 26.171 2.86247 26.524C3.27851 26.8655 3.92305 27.2051 4.78069 27.5028C6.48921 28.0961 8.88997 28.4739 11.5722 28.4739C14.2545 28.4739 16.6553 28.0961 18.3638 27.5028C19.2214 27.2051 19.866 26.8655 20.282 26.524C20.71 26.1711 20.7799 25.9192 20.7799 25.8028L20.7793 20.7374ZM33.5675 8.63174C32.6263 8.63174 31.8625 7.777 31.8625 6.72385C31.8625 5.67071 32.6263 4.81597 33.5675 4.81597C34.5087 4.81597 35.2726 5.67071 35.2726 6.72385C35.2726 7.777 34.5087 8.63174 33.5675 8.63174ZM33.2265 16.2634C33.2265 17.3165 33.9904 18.1713 34.9316 18.1713C35.8728 18.1713 36.6366 17.3165 36.6366 16.2634C36.6366 15.2102 35.8728 14.3555 34.9316 14.3555C33.9904 14.3555 33.2265 15.2102 33.2265 16.2634ZM31.8624 25.8985C31.8624 24.8454 32.6263 23.9907 33.5675 23.9907C34.5087 23.9907 35.2726 24.8454 35.2726 25.8985C35.2726 26.9517 34.5087 27.8064 33.5675 27.8064C32.6263 27.8064 31.8624 26.9517 31.8624 25.8985Z" fill="#D16D1B"/>
<path fill-rule="evenodd" clip-rule="evenodd" d="M1 5.20697V5.19743C1 4.36559 1.48426 3.71496 2.05547 3.24563C2.64204 2.76484 3.44512 2.36417 4.37609 2.03981C6.2483 1.39113 8.7922 1 11.5714 1C14.3506 1 16.8946 1.39112 18.7667 2.03981C19.6977 2.36415 20.5008 2.76483 21.0874 3.24563C21.6586 3.71498 22.1428 4.36559 22.1428 5.19743V9.8718H25.2137C25.4507 9.8718 25.6724 9.73252 25.7951 9.50548L27.1302 7.05764C27.5002 6.37653 28.1635 5.96059 28.8762 5.96059H30.5745C30.8831 4.43045 32.1057 3.28949 33.567 3.28949C35.2618 3.28949 36.6361 4.82725 36.6361 6.72371C36.6361 8.62016 35.2618 10.1579 33.567 10.1579C32.1057 10.1579 30.8832 9.01701 30.5745 7.48682H28.8762C28.6392 7.48682 28.4176 7.6261 28.2948 7.85314L26.9597 10.301C26.5897 10.9821 25.9264 11.398 25.2137 11.398H22.1428V15.5H31.9384C32.247 13.9699 33.4696 12.8289 34.9309 12.8289C36.6257 12.8289 38 14.3667 38 16.2631C38 18.1596 36.6257 19.6974 34.9309 19.6974C33.4696 19.6974 32.2471 18.5564 31.9384 17.0263H22.1428V21.2237H25.2137C25.9264 21.2237 26.5897 21.6396 26.9597 22.3207L28.2948 24.7686C28.4176 24.9956 28.6393 25.1349 28.8762 25.1349H30.5745C30.8831 23.6048 32.1057 22.4638 33.567 22.4638C35.2618 22.4638 36.6361 24.0016 36.6361 25.898C36.6361 27.7945 35.2618 29.3322 33.567 29.3322C32.1057 29.3322 30.8832 28.1913 30.5745 26.6611H28.8762C28.1635 26.6611 27.5003 26.2452 27.1302 25.5641L25.7951 23.1162C25.6724 22.8892 25.4507 22.7499 25.2137 22.7499H22.1428V25.8026C22.1428 26.6344 21.6586 27.285 21.0874 27.7544C20.5008 28.2352 19.6977 28.6358 18.7667 28.9602C16.8945 29.6089 14.3506 30 11.5714 30C8.7922 30 6.24826 29.6089 4.37609 28.9602C3.44512 28.6358 2.642 28.2352 2.05547 27.7544C1.48426 27.285 1 26.6344 1 25.8026V5.20697ZM2.36407 5.19743C2.36407 5.08105 2.43398 4.8292 2.86195 4.47622C3.27799 4.1347 3.92252 3.79511 4.78016 3.49746C6.48868 2.90412 8.88945 2.52633 11.5717 2.52633C14.254 2.52633 16.6548 2.9041 18.3633 3.49746C19.2209 3.7951 19.8655 4.13471 20.2815 4.47622C20.7095 4.82918 20.7794 5.08104 20.7794 5.19743C20.7794 5.31382 20.7095 5.56566 20.2815 5.91864C19.8655 6.26015 19.2209 6.59975 18.3633 6.89739C16.6548 7.49073 14.254 7.86853 11.5717 7.86853C8.88945 7.86853 6.48864 7.49076 4.78016 6.89739C3.92252 6.59976 3.27798 6.26014 2.86195 5.91864C2.43738 5.56949 2.36578 5.31763 2.36407 5.20124V5.19743ZM20.7793 7.38201V11.6843C20.7793 11.8007 20.7094 12.0526 20.2814 12.4056C19.8654 12.7471 19.2208 13.0867 18.3632 13.3843C16.6547 13.9777 14.2539 14.3554 11.5716 14.3554C8.88936 14.3554 6.48855 13.9777 4.78008 13.3843C3.92243 13.0867 3.27789 12.7471 2.86186 12.4056C2.43729 12.0564 2.36569 11.8045 2.36399 11.6882V7.38201C2.91132 7.76168 3.59846 8.08412 4.376 8.35505C6.24821 9.00372 8.79211 9.39486 11.5713 9.39486C14.3505 9.39486 16.8945 9.00373 18.7667 8.35505C19.5442 8.08412 20.2313 7.76171 20.7787 7.38201H20.7793ZM2.36407 18.5528V13.8689C2.91141 14.2486 3.59855 14.571 4.37609 14.8419C6.2483 15.4906 8.7922 15.8817 11.5714 15.8817C14.3506 15.8817 16.8946 15.4906 18.7667 14.8419C19.5442 14.571 20.2314 14.2486 20.7788 13.8689V18.5528C20.7788 18.6692 20.7088 18.921 20.2809 19.274C19.8648 19.6155 19.2203 19.9551 18.3627 20.2527C16.6541 20.8461 14.2534 21.2239 11.5711 21.2239C8.88884 21.2239 6.48803 20.8461 4.77955 20.2527C3.92191 19.9551 3.27737 19.6155 2.86134 19.274C2.43336 18.921 2.36346 18.6692 2.36346 18.5528H2.36407ZM20.7793 20.7374C20.232 21.117 19.5448 21.4395 18.7673 21.7104C16.8951 22.3591 14.3512 22.7502 11.5719 22.7502C8.79272 22.7502 6.24878 22.3591 4.37662 21.7104C3.59912 21.4395 2.91193 21.1171 2.3646 20.7374V25.8028C2.3646 25.9192 2.43451 26.171 2.86247 26.524C3.27851 26.8655 3.92305 27.2051 4.78069 27.5028C6.48921 28.0961 8.88997 28.4739 11.5722 28.4739C14.2545 28.4739 16.6553 28.0961 18.3638 27.5028C19.2214 27.2051 19.866 26.8655 20.282 26.524C20.71 26.1711 20.7799 25.9192 20.7799 25.8028L20.7793 20.7374ZM33.5675 8.63174C32.6263 8.63174 31.8625 7.777 31.8625 6.72385C31.8625 5.67071 32.6263 4.81597 33.5675 4.81597C34.5087 4.81597 35.2726 5.67071 35.2726 6.72385C35.2726 7.777 34.5087 8.63174 33.5675 8.63174ZM33.2265 16.2634C33.2265 17.3165 33.9904 18.1713 34.9316 18.1713C35.8728 18.1713 36.6366 17.3165 36.6366 16.2634C36.6366 15.2102 35.8728 14.3555 34.9316 14.3555C33.9904 14.3555 33.2265 15.2102 33.2265 16.2634ZM31.8624 25.8985C31.8624 24.8454 32.6263 23.9907 33.5675 23.9907C34.5087 23.9907 35.2726 24.8454 35.2726 25.8985C35.2726 26.9517 34.5087 27.8064 33.5675 27.8064C32.6263 27.8064 31.8624 26.9517 31.8624 25.8985Z" stroke="#D16D1B" mask="url(#path-1-outside-1_1610_3552)"/>
</svg>
