<svg width="49" height="49" viewBox="0 0 49 49" fill="none" xmlns="http://www.w3.org/2000/svg">
<path d="M23.9717 0.0851574C23.8664 0.133009 22.9285 1.03262 21.8949 2.07578L20 3.98027V4.41094C20 4.89902 20.1723 5.1957 20.5742 5.40625C20.9379 5.59766 21.3398 5.58809 21.627 5.39668C21.7609 5.31055 22.182 4.92773 22.5648 4.55449L23.2539 3.88457V5.86563C23.2539 7.98066 23.3018 8.28691 23.7324 8.66016C23.876 8.79414 24.077 8.85156 24.4023 8.85156C24.7277 8.85156 24.9287 8.79414 25.0723 8.66016C25.5029 8.28691 25.5508 7.98066 25.5508 5.86563V3.88457L26.2494 4.55449C26.6227 4.92773 27.0438 5.31055 27.1777 5.39668C27.4648 5.58809 27.8668 5.59766 28.2305 5.40625C28.6324 5.1957 28.8047 4.89902 28.8047 4.41094V3.98027L26.8619 2.02793C25.0818 0.247852 24.8904 0.0755863 24.5459 0.0373058C24.3354 0.0181646 24.077 0.0373058 23.9717 0.0851574Z" fill="#D16D1B"/>
<path d="M7.22539 6.78566C7.12012 6.83351 6.94785 6.96749 6.84258 7.08234C6.66074 7.28331 6.65117 7.44601 6.62246 9.95343L6.59375 12.6044L6.84258 12.9011C7.18711 13.3126 7.63691 13.4466 8.05801 13.2743C8.67051 13.0159 8.75664 12.8341 8.78535 11.6091L8.82363 10.5085L10.2305 11.9058C11.599 13.2648 11.6564 13.303 12.0488 13.303C12.824 13.303 13.2068 12.9202 13.2068 12.1355C13.2068 11.7527 13.159 11.6857 11.8096 10.3267L10.4123 8.91984L11.5129 8.88156C12.7379 8.85285 12.9197 8.76671 13.1781 8.15421C13.3504 7.74269 13.2164 7.28331 12.8145 6.93878L12.5178 6.69953L9.97207 6.7091C8.56523 6.7091 7.33066 6.74738 7.22539 6.78566Z" fill="#D16D1B"/>
<path d="M35.9177 7.01512C35.6306 7.27352 35.5636 7.39793 35.5541 7.7329C35.5445 8.16356 35.7933 8.58465 36.1761 8.77606C36.3101 8.85262 36.8078 8.90047 37.4107 8.90047H38.4156L37.0566 10.2595C36.3101 11.0155 35.6498 11.7524 35.5923 11.896C35.4679 12.2405 35.6115 12.8147 35.8699 13.054C36.1378 13.2932 36.5972 13.3985 36.9513 13.2932C37.1619 13.2358 37.7169 12.7573 38.6166 11.8577L39.9755 10.4987L40.0138 11.6089C40.0425 12.8339 40.1287 13.0061 40.7412 13.2741C41.1527 13.4464 41.6121 13.3124 41.9566 12.9104L42.1958 12.6138V10.0872C42.1958 8.01043 42.1671 7.50321 42.0523 7.27352C41.7748 6.72801 41.5929 6.6993 38.7984 6.6993H36.2623L35.9177 7.01512Z" fill="#D16D1B"/>
<path d="M19.4198 15.4645C16.8645 16.6034 14.7495 17.5604 14.7112 17.5891C14.6538 17.6561 23.8891 21.9723 24.3007 22.0776C24.5112 22.135 34.1868 17.6944 34.0815 17.5891C34.0432 17.5508 31.9282 16.5938 29.3729 15.4645C26.1669 14.0385 24.626 13.3973 24.3964 13.3973C24.1667 13.3973 22.5493 14.0768 19.4198 15.4645Z" fill="#D16D1B"/>
<path d="M13.3047 24.9977V30.4814L13.5248 30.7398C13.6779 30.9312 14.9316 31.5342 18.2812 33.0271C20.7791 34.1373 22.9229 35.0848 23.0473 35.1326L23.2578 35.2188V29.6393V24.0693L18.3674 21.8203C15.6877 20.5857 13.4482 19.5521 13.4004 19.5426C13.343 19.5234 13.3047 21.5523 13.3047 24.9977Z" fill="#D16D1B"/>
<path d="M30.4643 21.8016L25.5547 24.0698V29.6588C25.5547 34.0899 25.5834 35.2288 25.6791 35.1905C25.7365 35.1618 27.8994 34.2047 30.4738 33.0563C34.5604 31.2379 35.1729 30.9413 35.326 30.6829C35.4982 30.4053 35.5078 30.0991 35.5078 24.9502C35.5078 21.9643 35.4791 19.5239 35.4408 19.5335C35.393 19.5335 33.1535 20.5575 30.4643 21.8016Z" fill="#D16D1B"/>
<path d="M1.94277 22.0331L0 23.9663V24.5023V25.0382L1.94277 26.9618C4.04824 29.0577 4.1918 29.1534 4.83301 28.8472C5.22539 28.6654 5.45508 28.2921 5.45508 27.8327C5.45508 27.4308 5.31152 27.2107 4.45977 26.3398L3.78984 25.6507H5.7709C7.88594 25.6507 8.19219 25.6029 8.56543 25.1722C8.69941 25.0286 8.75684 24.8277 8.75684 24.5023C8.75684 24.1769 8.69941 23.9759 8.56543 23.8323C8.19219 23.4017 7.88594 23.3538 5.7709 23.3538H3.78984L4.45977 22.6552C4.83301 22.282 5.21582 21.8609 5.30195 21.7269C5.49336 21.4398 5.50293 21.0378 5.31152 20.6741C5.10098 20.2722 4.8043 20.0999 4.31621 20.0999H3.88555L1.94277 22.0331Z" fill="#D16D1B"/>
<path d="M43.8477 20.2498C43.5702 20.4412 43.3501 20.8719 43.3501 21.2164C43.3501 21.5705 43.5224 21.8098 44.3454 22.652L45.0153 23.3506H43.0343C40.8618 23.3506 40.5843 23.3985 40.2015 23.8866C40.0292 24.1067 39.9909 24.2502 40.0292 24.5756C40.0483 24.8053 40.1536 25.0733 40.2493 25.1881C40.613 25.5901 40.9384 25.6475 43.0343 25.6475H45.0153L44.3454 26.3366C43.4936 27.2075 43.3501 27.4276 43.3501 27.8295C43.3501 28.4133 43.6468 28.7674 44.2784 28.9492C44.6804 29.0641 45.1397 28.71 46.9868 26.8534L48.853 24.9776V24.4991V24.0205L46.8911 22.0586L44.9196 20.0967H44.489C44.2593 20.0967 43.9626 20.1637 43.8477 20.2498Z" fill="#D16D1B"/>
<path d="M7.30977 35.7355C7.14707 35.8025 6.92695 35.9844 6.81211 36.1279C6.61113 36.3863 6.60156 36.4725 6.60156 38.9225C6.60156 40.9896 6.63027 41.4969 6.74512 41.7266C7.02266 42.2721 7.20449 42.3008 9.98945 42.3008H12.516L12.8127 42.0615C13.2146 41.717 13.3486 41.2576 13.1764 40.8461C12.9084 40.2336 12.7361 40.1475 11.5111 40.1187L10.401 40.0805L11.76 38.7215C13.1859 37.2955 13.3582 37.018 13.2051 36.4533C13.0807 36.0418 12.8605 35.8121 12.4682 35.7068C11.8844 35.5441 11.6164 35.7068 10.1713 37.152L8.80273 38.5205V37.5156C8.80273 36.4437 8.7166 36.1662 8.32422 35.8791C7.97969 35.6303 7.6543 35.5824 7.30977 35.7355Z" fill="#D16D1B"/>
<path d="M40.7103 35.7355C40.117 35.9939 40.0021 36.2715 40.0021 37.4486V38.5109L38.5857 37.1041L37.1597 35.6973H36.6812C36.2601 35.6973 36.1453 35.7355 35.8964 35.9939C35.638 36.2428 35.5998 36.3576 35.5998 36.7787V37.2572L37.0066 38.6832L38.4134 40.0996H37.3511C36.4132 40.0996 36.2697 40.1187 36.0304 40.3102C35.4179 40.7887 35.4084 41.5639 35.9921 42.0615L36.2888 42.3008H38.8154C41.6003 42.3008 41.7822 42.2721 42.0597 41.7266C42.1746 41.4969 42.2033 40.9896 42.2033 38.9225C42.2033 36.4725 42.1937 36.3863 41.9927 36.1279C41.8109 35.8982 41.2845 35.592 41.0836 35.6016C41.0453 35.6111 40.873 35.6686 40.7103 35.7355Z" fill="#D16D1B"/>
<path d="M23.7898 40.3016C23.3018 40.6844 23.2539 40.9619 23.2539 43.1344V45.1154L22.5648 44.4455C22.182 44.0723 21.7609 43.6895 21.627 43.6033C21.3398 43.4119 20.9379 43.4023 20.5742 43.5938C20.1723 43.8043 20 44.101 20 44.5891V45.0197L21.9619 46.9912L23.9238 48.9531H24.4023H24.8809L26.8428 46.9912L28.8047 45.0197V44.5891C28.8047 44.101 28.6324 43.8043 28.2305 43.5938C27.8668 43.4023 27.4648 43.4119 27.1777 43.6033C27.0438 43.6895 26.6227 44.0723 26.2494 44.4455L25.5508 45.1154V43.1344C25.5508 41.0385 25.4934 40.7131 25.0914 40.3494C24.9766 40.2537 24.7086 40.1484 24.4789 40.1293C24.1535 40.091 24.01 40.1293 23.7898 40.3016Z" fill="#D16D1B"/>
</svg>
