<svg width="27" height="32" viewBox="0 0 27 32" fill="none" xmlns="http://www.w3.org/2000/svg">
<path fill-rule="evenodd" clip-rule="evenodd" d="M13.444 2.30469C9.54593 2.30469 6.3859 5.91615 6.3859 10.3711V13.4495C6.90082 13.444 7.4594 13.444 8.06641 13.444H18.8216C22.6241 13.444 24.5254 13.444 25.7067 14.7941C26.888 16.1442 26.888 18.317 26.888 22.6628C26.888 27.0085 26.888 29.1813 25.7067 30.5314C24.5254 31.8815 22.6241 31.8815 18.8216 31.8815H8.06641C4.26386 31.8815 2.3626 31.8815 1.1813 30.5314C0 29.1813 0 27.0085 0 22.6628C0 18.317 0 16.1442 1.1813 14.7941C1.89468 13.9787 2.87063 13.6559 4.3693 13.5279V10.3711C4.3693 4.6433 8.43219 0 13.444 0C17.6739 0 21.2254 3.3063 22.2328 7.77918C22.3715 8.39551 22.047 9.02374 21.5076 9.18238C20.9684 9.34101 20.4186 8.96997 20.2798 8.35363C19.4962 4.87429 16.7315 2.30469 13.444 2.30469ZM14.4523 19.5898C14.4523 18.9534 14.0009 18.4375 13.444 18.4375C12.8872 18.4375 12.4357 18.9534 12.4357 19.5898V25.7357C12.4357 26.3721 12.8872 26.888 13.444 26.888C14.0009 26.888 14.4523 26.3721 14.4523 25.7357V19.5898Z" fill="#D16D1B"/>
</svg>
