<svg width="31" height="30" viewBox="0 0 31 30" fill="none" xmlns="http://www.w3.org/2000/svg">
<path d="M29.8103 5.75336C29.6792 5.62614 29.5186 5.52329 29.3387 5.45123C29.1587 5.37916 28.9632 5.33945 28.7643 5.33457C25.6749 5.26592 21.7656 2.45798 19.181 1.35608C17.5845 0.677554 16.5305 0.23016 15.7389 0.112304C15.5782 0.0923974 15.4149 0.0927829 15.2543 0.113448C14.4628 0.231304 13.4087 0.678698 11.8135 1.35723C9.22891 2.45798 5.31968 5.26592 2.23026 5.33457C2.03126 5.33971 1.83562 5.37952 1.65546 5.45156C1.47531 5.5236 1.31448 5.62632 1.18295 5.75336C0.91032 6.01554 0.769655 6.35821 0.791222 6.70765C1.45488 18.1763 6.2943 25.2739 14.7858 29.3989C15.0066 29.5053 15.2516 29.5602 15.4953 29.5602C15.7389 29.5602 15.9839 29.5053 16.206 29.3989C24.6976 25.2739 29.5356 18.1763 30.2006 6.70765C30.2235 6.35827 30.0832 6.01534 29.8103 5.75336ZM23.058 10.2639L15.8924 19.2519C15.6353 19.5745 15.2314 19.7885 14.8316 19.7885C14.4305 19.7885 13.9849 19.602 13.7035 19.3628L8.65276 15.0685C8.48786 14.9279 8.39527 14.7374 8.39527 14.5388C8.39527 14.3402 8.48786 14.1497 8.65276 14.009L9.90064 12.946C10.0665 12.8064 10.2905 12.7281 10.5239 12.7281C10.7573 12.7281 10.9813 12.8064 11.1472 12.946L14.4318 15.7379L20.1381 8.57847C20.2702 8.41463 20.4731 8.30186 20.7026 8.26477C20.9321 8.22768 21.1696 8.26929 21.3631 8.38052L22.8237 9.22267C23.0167 9.33472 23.1496 9.50713 23.1935 9.70223C23.2374 9.89733 23.1887 10.0993 23.058 10.2639Z" fill="#D16D1B"/>
</svg>
