<svg width="27" height="22" viewBox="0 0 27 22" fill="none" xmlns="http://www.w3.org/2000/svg">
<path d="M2 9.53571C1.1913 9.53571 0.535714 10.1913 0.535714 11C0.535714 11.8087 1.1913 12.4643 2 12.4643L2 9.53571ZM26.5298 12.0354C27.1016 11.4636 27.1016 10.5364 26.5298 9.96459L17.2111 0.645936C16.6393 0.0740967 15.7121 0.0740967 15.1403 0.645936C14.5685 1.21778 14.5685 2.14491 15.1403 2.71675L23.4236 11L15.1403 19.2833C14.5685 19.8551 14.5685 20.7822 15.1403 21.3541C15.7121 21.9259 16.6393 21.9259 17.2111 21.3541L26.5298 12.0354ZM2 12.4643L25.4944 12.4643V9.53571L2 9.53571L2 12.4643Z" fill="#EB8F44"/>
</svg>
