<svg width="27" height="22" viewBox="0 0 27 22" fill="none" xmlns="http://www.w3.org/2000/svg">
<path d="M25.4922 12.4643C26.3009 12.4643 26.9565 11.8087 26.9565 11C26.9565 10.1913 26.3009 9.53571 25.4922 9.53571V12.4643ZM0.96241 9.96459C0.390571 10.5364 0.390571 11.4636 0.96241 12.0354L10.2811 21.3541C10.8529 21.9259 11.78 21.9259 12.3519 21.3541C12.9237 20.7822 12.9237 19.8551 12.3519 19.2833L4.06863 11L12.3519 2.71675C12.9237 2.14491 12.9237 1.21778 12.3519 0.645936C11.78 0.0740971 10.8529 0.0740971 10.2811 0.645936L0.96241 9.96459ZM25.4922 9.53571L1.99782 9.53571V12.4643L25.4922 12.4643V9.53571Z" fill="#EB8F44"/>
</svg>
