<svg width="11" height="11" viewBox="0 0 11 11" fill="none" xmlns="http://www.w3.org/2000/svg">
<path d="M0.99365 9.05322C0.7469 9.33287 0.773571 9.7596 1.05322 10.0064C1.33287 10.2531 1.7596 10.2264 2.00635 9.94678L0.99365 9.05322ZM9.67396 0.957877C9.6507 0.585657 9.3301 0.302771 8.95788 0.326035L2.89219 0.70514C2.51997 0.728404 2.23709 1.04901 2.26035 1.42123C2.28362 1.79345 2.60422 2.07633 2.97644 2.05307L8.36816 1.71609L8.70514 7.10781C8.7284 7.48003 9.04901 7.76291 9.42123 7.73965C9.79345 7.71638 10.0763 7.39578 10.0531 7.02356L9.67396 0.957877ZM2.00635 9.94678L9.50635 1.44678L8.49365 0.55322L0.99365 9.05322L2.00635 9.94678Z" fill="#D97320"/>
</svg>
