<svg width="16" height="17" viewBox="0 0 16 17" fill="none" xmlns="http://www.w3.org/2000/svg">
<path d="M4.50119 0.806329C5.08406 1.01246 5.63856 1.29741 6.15054 1.6539C6.8736 1.46098 7.61708 1.36406 8.36338 1.36543C9.13412 1.36543 9.87768 1.46591 10.5747 1.65309C11.0865 1.29695 11.6407 1.01227 12.2233 0.806329C12.7642 0.614288 13.535 0.303134 13.9929 0.832259C14.3034 1.19203 14.381 1.79489 14.4361 2.25514C14.4982 2.76887 14.5129 3.43818 14.3499 4.10262C14.9732 4.9429 15.3489 5.94524 15.3489 7.03752C15.3489 8.69215 14.4904 10.1288 13.2198 11.1239C12.6084 11.5967 11.9302 11.9674 11.2096 12.2226C11.3757 12.6197 11.468 13.0588 11.468 13.5199V15.9508C11.468 16.1657 11.3863 16.3718 11.2407 16.5238C11.0951 16.6757 10.8977 16.7611 10.6919 16.7611H6.03489C5.82904 16.7611 5.63162 16.6757 5.48606 16.5238C5.3405 16.3718 5.25873 16.1657 5.25873 15.9508V15.1478C4.51749 15.2426 3.89578 15.1583 3.36721 14.9242C2.81459 14.6794 2.42961 14.3002 2.1401 13.9372C1.86534 13.5936 1.56574 12.819 1.13264 12.6683C1.03591 12.6347 0.94647 12.5815 0.86943 12.5118C0.79239 12.442 0.729256 12.3572 0.683634 12.262C0.591495 12.0698 0.576276 11.8472 0.641325 11.6433C0.706374 11.4393 0.846362 11.2707 1.03049 11.1745C1.21463 11.0783 1.42782 11.0624 1.62317 11.1303C2.1401 11.3102 2.47695 11.6992 2.70747 12.0119C3.08003 12.5143 3.38274 13.1707 3.97262 13.4324C4.21556 13.5402 4.57182 13.6107 5.12911 13.5312L5.25873 13.5037C5.26021 13.0627 5.34817 12.6267 5.51719 12.2226C4.79659 11.9674 4.11839 11.5967 3.50692 11.1239C2.23634 10.1288 1.3779 8.69296 1.3779 7.03752C1.3779 5.94686 1.75279 4.94533 2.3745 4.10586C2.21151 3.44142 2.22548 2.77049 2.28757 2.25595L2.29145 2.22516C2.34811 1.75357 2.41408 1.19851 2.73076 0.832259C3.1887 0.303134 3.9602 0.615099 4.50041 0.807139L4.50119 0.806329Z" fill="#E3E7D3"/>
</svg>
