<svg width="46" height="35" viewBox="0 0 46 35" fill="none" xmlns="http://www.w3.org/2000/svg">
<path d="M39.0008 2.95598C38.9882 2.93125 38.9669 2.91186 38.9413 2.90131C35.9588 1.53479 32.8114 0.560354 29.5778 0.00239013C29.5485 -0.00306385 29.5183 0.000870721 29.4912 0.0136343C29.4643 0.0263979 29.442 0.0473405 29.4275 0.073484C28.999 0.850273 28.6099 1.64816 28.2617 2.46411C24.7764 1.93574 21.2309 1.93574 17.7455 2.46411C17.3951 1.64609 16.9998 0.848002 16.5614 0.073484C16.5464 0.0479086 16.524 0.0274484 16.4971 0.0147677C16.4703 0.00208702 16.4402 -0.00222614 16.4109 0.00239013C13.1771 0.559183 10.0295 1.53369 7.04751 2.90138C7.02196 2.91218 7.00042 2.93064 6.98584 2.95418C1.02232 11.8478 -0.611314 20.5227 0.190093 29.0903C0.192347 29.1113 0.198807 29.1316 0.209088 29.1501C0.21937 29.1685 0.233262 29.1846 0.249941 29.1977C3.72245 31.7653 7.60648 33.7253 11.7363 34.9937C11.7654 35.0025 11.7965 35.0021 11.8253 34.9925C11.8542 34.9832 11.8794 34.9652 11.8977 34.9409C12.7847 33.7355 13.5707 32.4594 14.2476 31.125C14.2569 31.1068 14.2622 31.0867 14.2631 31.0662C14.2641 31.0457 14.2607 31.0251 14.2532 31.0062C14.2456 30.9871 14.2342 30.9698 14.2194 30.9554C14.2047 30.9411 14.1871 30.9299 14.1678 30.9229C12.9285 30.4493 11.7286 29.8785 10.5795 29.2156C10.5586 29.2035 10.5411 29.1862 10.5285 29.1655C10.5158 29.1449 10.5085 29.1216 10.507 29.0973C10.5056 29.0733 10.5101 29.049 10.5202 29.0271C10.5304 29.0052 10.5457 28.986 10.565 28.9713C10.8062 28.791 11.0474 28.6034 11.2777 28.4139C11.2981 28.3971 11.3229 28.3861 11.3491 28.3826C11.3754 28.3791 11.4021 28.3831 11.4263 28.3938C18.9544 31.8248 27.1047 31.8248 34.5437 28.3938C34.5681 28.3824 34.595 28.378 34.6216 28.3812C34.6482 28.3843 34.6734 28.395 34.6942 28.412C34.9245 28.6015 35.1659 28.791 35.4087 28.9713C35.4281 28.9858 35.4436 29.0049 35.454 29.0269C35.4641 29.0488 35.4687 29.0728 35.4675 29.0969C35.4663 29.1211 35.4591 29.1445 35.4467 29.1652C35.4341 29.186 35.4167 29.2033 35.3961 29.2156C34.2495 29.8841 33.0487 30.4546 31.8059 30.9211C31.7866 30.9285 31.7691 30.9397 31.7546 30.9544C31.7398 30.9689 31.7284 30.9864 31.7212 31.0055C31.7137 31.0249 31.7105 31.0454 31.7117 31.066C31.7127 31.0867 31.7183 31.1068 31.7277 31.125C32.416 32.452 33.2007 33.7267 34.0757 34.9388C34.0936 34.9636 34.1188 34.9822 34.1476 34.992C34.1766 35.0018 34.2079 35.0023 34.2372 34.9934C38.3745 33.7292 42.2651 31.7692 45.742 29.1977C45.759 29.1853 45.773 29.1694 45.7834 29.1512C45.7938 29.133 45.8001 29.113 45.8018 29.092C46.7613 19.1871 44.1957 10.5833 39.0008 2.95598ZM15.3718 23.8735C13.1053 23.8735 11.2378 21.7964 11.2378 19.2455C11.2378 16.6945 13.0691 14.6173 15.3718 14.6173C17.6926 14.6173 19.5421 16.7126 19.5058 19.2453C19.5058 21.7964 17.6744 23.8735 15.3718 23.8735ZM30.6566 23.8735C28.3903 23.8735 26.5227 21.7964 26.5227 19.2455C26.5227 16.6945 28.354 14.6173 30.6566 14.6173C32.9777 14.6173 34.8269 16.7126 34.7908 19.2453C34.7908 21.7964 32.9777 23.8735 30.6566 23.8735Z" fill="#2E3421"/>
</svg>
