<svg width="40" height="44" viewBox="0 0 40 44" fill="none" xmlns="http://www.w3.org/2000/svg">
<path d="M10.5772 0.724923C12.1582 1.28403 13.6622 2.05691 15.0508 3.02384C17.012 2.50056 19.0286 2.23768 21.0529 2.24142C23.1434 2.24142 25.1602 2.51395 27.0507 3.02165C28.4388 2.05565 29.9421 1.28352 31.5222 0.724923C32.9896 0.204039 35.0801 -0.639923 36.3221 0.795253C37.1642 1.77109 37.3748 3.40626 37.5242 4.65463C37.6927 6.04804 37.7327 7.86344 37.2906 9.66566C38.9811 11.9448 40 14.6635 40 17.6262C40 22.1141 37.6716 26.0108 34.2253 28.7098C32.5668 29.9923 30.7273 30.9977 28.7728 31.69C29.2233 32.7669 29.4738 33.9582 29.4738 35.2087V41.8022C29.4738 42.3851 29.252 42.9441 28.8572 43.3563C28.4624 43.7684 27.9269 44 27.3686 44H14.7371C14.1788 44 13.6433 43.7684 13.2485 43.3563C12.8537 42.9441 12.6319 42.3851 12.6319 41.8022V39.6241C10.6214 39.8813 8.93511 39.6527 7.50145 39.0175C6.00252 38.3538 4.95832 37.3252 4.17306 36.3406C3.42781 35.4087 2.61519 33.3076 1.44047 32.8988C1.1781 32.8076 0.935513 32.6633 0.726553 32.4743C0.517592 32.2852 0.346351 32.055 0.222606 31.7968C-0.0273076 31.2754 -0.0685866 30.6717 0.10785 30.1186C0.284287 29.5654 0.663986 29.1081 1.16342 28.8472C1.66285 28.5862 2.24111 28.5432 2.77098 28.7273C4.17306 29.2153 5.08674 30.2702 5.71199 31.1186C6.72251 32.4812 7.54355 34.2615 9.14353 34.9714C9.80247 35.2637 10.7688 35.4549 12.2803 35.2395L12.6319 35.1648C12.6359 33.9687 12.8745 32.7862 13.333 31.69C11.3784 30.9977 9.53891 29.9923 7.88039 28.7098C4.43411 26.0108 2.10572 22.1163 2.10572 17.6262C2.10572 14.6679 3.12255 11.9514 4.80885 9.67445C4.36675 7.87223 4.40464 6.05244 4.57306 4.65682L4.58359 4.57331C4.73727 3.29417 4.91621 1.78867 5.77515 0.795253C7.01724 -0.639923 9.10985 0.206238 10.5751 0.727121L10.5772 0.724923Z" fill="#2E3421"/>
</svg>
