<svg width="17" height="20" viewBox="0 0 17 20" fill="none" xmlns="http://www.w3.org/2000/svg">
<path d="M0.362896 18.2076C0.0646231 18.5875 0.136049 19.1305 0.522429 19.4203C0.90881 19.7102 1.46383 19.6372 1.7621 19.2573L0.362896 18.2076ZM15.8415 0.908943C15.7792 0.435334 15.3362 0.103023 14.8521 0.166707L6.96285 1.20451C6.47873 1.26819 6.13677 1.70375 6.19907 2.17737C6.26138 2.65098 6.70434 2.98329 7.18846 2.9196L14.2011 1.99711L15.1036 8.85749C15.1659 9.3311 15.6088 9.66341 16.093 9.59973C16.5771 9.53604 16.919 9.10048 16.8567 8.62687L15.8415 0.908943ZM1.7621 19.2573L15.6645 1.5491L14.2653 0.499415L0.362896 18.2076L1.7621 19.2573Z" fill="#161515"/>
</svg>
