<svg width="13" height="15" viewBox="0 0 13 15" fill="none" xmlns="http://www.w3.org/2000/svg">
<path d="M0.482643 13.1392C0.265401 13.4159 0.317422 13.8114 0.598836 14.0225C0.88025 14.2336 1.28449 14.1805 1.50173 13.9037L0.482643 13.1392ZM11.7562 0.540052C11.7108 0.195106 11.3882 -0.0469265 11.0356 -0.000543199L5.28961 0.75532C4.93701 0.801704 4.68795 1.11894 4.73333 1.46389C4.7787 1.80883 5.10133 2.05086 5.45393 2.00448L10.5615 1.3326L11.2188 6.32924C11.2641 6.67419 11.5868 6.91622 11.9394 6.86984C12.292 6.82345 12.541 6.50622 12.4957 6.16127L11.7562 0.540052ZM1.50173 13.9037L11.6273 1.0063L10.6082 0.241778L0.482643 13.1392L1.50173 13.9037Z" fill="#E3E7D3"/>
</svg>
