<svg width="43" height="31" viewBox="0 0 43 31" fill="none" xmlns="http://www.w3.org/2000/svg">
<mask id="mask0_1075_15388" style="mask-type:luminance" maskUnits="userSpaceOnUse" x="0" y="0" width="43" height="31">
<path d="M43 0.119141H0.328125V30.1901H43V0.119141Z" fill="white"/>
</mask>
<g mask="url(#mask0_1075_15388)">
<path d="M39.0318 7.63768C39.0565 7.96 39.0565 8.28239 39.0565 8.60472C39.0565 18.436 31.0656 29.764 16.4608 29.764C11.9614 29.764 7.7816 28.5437 4.26562 26.4255C4.90491 26.4945 5.51953 26.5177 6.18341 26.5177C9.896 26.5177 13.3137 25.3433 16.0428 23.3403C12.5515 23.2711 9.62559 21.13 8.6175 18.1828C9.10929 18.2518 9.601 18.2979 10.1174 18.2979C10.8304 18.2979 11.5435 18.2058 12.2073 18.0447C8.56839 17.3539 5.83914 14.3608 5.83914 10.746V10.6539C6.89635 11.2065 8.1258 11.5518 9.42883 11.5978C7.28973 10.2624 5.88833 7.98304 5.88833 5.40431C5.88833 4.02286 6.28165 2.75653 6.97013 1.65137C10.8795 6.16411 16.7559 9.11117 23.3451 9.43357C23.2222 8.88099 23.1484 8.30544 23.1484 7.72981C23.1484 3.63145 26.689 0.292969 31.09 0.292969C33.3767 0.292969 35.442 1.19091 36.8926 2.64144C38.6875 2.31912 40.4086 1.69743 41.9331 0.845555C41.3429 2.57242 40.0888 4.02294 38.4416 4.94385C40.0399 4.78276 41.5888 4.36822 43.0148 3.79267C41.9331 5.26617 40.5807 6.57849 39.0318 7.63768Z" fill="#2E3421"/>
</g>
</svg>
