<svg width="17" height="15" viewBox="0 0 17 15" fill="none" xmlns="http://www.w3.org/2000/svg">
<path d="M15.2936 4.02137C15.3042 4.1747 15.3042 4.32807 15.3042 4.48141C15.3042 9.15835 11.8895 14.5473 5.64871 14.5473C3.72602 14.5473 1.93993 13.9668 0.4375 12.9591C0.710678 12.9919 0.973314 13.0029 1.257 13.0029C2.84345 13.0029 4.30387 12.4443 5.47009 11.4914C3.97817 11.4585 2.7279 10.4399 2.29713 9.03789C2.50728 9.07072 2.71739 9.09264 2.93805 9.09264C3.24273 9.09264 3.54743 9.04881 3.83109 8.97217C2.27614 8.64356 1.10989 7.21967 1.10989 5.50004V5.45624C1.56165 5.71912 2.08701 5.88341 2.64382 5.90529C1.72975 5.27 1.13091 4.18566 1.13091 2.95891C1.13091 2.30173 1.29898 1.69931 1.59318 1.17356C3.26371 3.32036 5.77477 4.72234 8.59048 4.8757C8.53795 4.61283 8.50642 4.33903 8.50642 4.06519C8.50642 2.11552 10.0193 0.527344 11.9 0.527344C12.8771 0.527344 13.7597 0.954513 14.3795 1.64456C15.1465 1.49122 15.882 1.19547 16.5334 0.79022C16.2812 1.61172 15.7453 2.30176 15.0414 2.73986C15.7244 2.66323 16.3863 2.46602 16.9956 2.19222C16.5334 2.89319 15.9555 3.51749 15.2936 4.02137Z" fill="#E3E7D3"/>
</svg>
