<svg width="194" height="194" viewBox="0 0 194 194" fill="none" xmlns="http://www.w3.org/2000/svg">
<path d="M84.8976 30.4881C85.3503 30.4083 85.7853 30.413 86.2026 30.5023C86.6181 30.581 86.9893 30.7163 87.3162 30.9083C87.6536 31.0984 87.9245 31.3112 88.1288 31.5465C88.3436 31.78 88.4715 32.0125 88.5123 32.2441L88.1789 32.1075L87.9367 30.7338C87.9051 30.5548 87.937 30.3972 88.0324 30.261C88.1259 30.1143 88.2674 30.0242 88.4569 29.9908C88.6358 29.9592 88.7944 29.9964 88.9324 30.1023C89.0792 30.1958 89.1683 30.3321 89.1999 30.511L90.4193 37.4271C90.5716 38.2903 90.5136 39.0386 90.2453 39.672C89.9877 40.3035 89.5786 40.8152 89.0182 41.2071C88.4578 41.599 87.7986 41.8618 87.0407 41.9954C86.7248 42.0511 86.37 42.0702 85.9762 42.0528C85.5824 42.0354 85.227 41.9896 84.91 41.9152C84.5948 41.8514 84.384 41.7638 84.2775 41.6523C84.101 41.5749 83.9797 41.4714 83.9135 41.342C83.8596 41.2213 83.8646 41.0956 83.9284 40.9649C83.9971 40.8008 84.1052 40.7058 84.2526 40.6798C84.4105 40.652 84.6136 40.665 84.8619 40.7189C84.9622 40.7338 85.1188 40.7604 85.3318 40.7989C85.5553 40.8354 85.7981 40.8577 86.06 40.8658C86.3343 40.8826 86.5978 40.8687 86.8504 40.8241C87.7452 40.6664 88.3877 40.3089 88.7778 39.7516C89.1804 39.2031 89.3139 38.5446 89.1784 37.7761L88.9195 36.3077L89.1071 36.356C89.0959 36.6619 89.0126 36.9588 88.8571 37.2467C88.7122 37.5327 88.5152 37.8008 88.2663 38.0509C88.026 38.2887 87.7476 38.4951 87.4312 38.6703C87.1129 38.835 86.7801 38.948 86.4327 39.0092C85.6958 39.1391 85.0002 39.0719 84.3457 38.8074C83.6912 38.5429 83.1337 38.1202 82.6731 37.5393C82.223 36.9566 81.9256 36.2547 81.7808 35.4336C81.6342 34.602 81.6727 33.8354 81.8963 33.1339C82.1305 32.4305 82.5055 31.8488 83.0213 31.3888C83.5459 30.9164 84.1713 30.6162 84.8976 30.4881ZM85.2616 31.6288C84.7247 31.7234 84.2646 31.9457 83.8813 32.2955C83.5066 32.6329 83.2391 33.0545 83.0786 33.5604C82.9287 34.0644 82.9066 34.6164 83.0124 35.2164C83.1145 35.7954 83.3231 36.3013 83.6382 36.7342C83.962 37.1547 84.3586 37.4646 84.8279 37.6641C85.3078 37.8617 85.8161 37.9131 86.353 37.8185C86.9004 37.7219 87.3614 37.505 87.7361 37.1676C88.1089 36.8196 88.3755 36.3927 88.5359 35.8869C88.6964 35.381 88.7237 34.8281 88.6179 34.228C88.5103 33.6175 88.2945 33.102 87.9708 32.6815C87.647 32.261 87.2513 31.9563 86.7839 31.7674C86.3164 31.5784 85.809 31.5322 85.2616 31.6288Z" fill="#25291C"/>
<path d="M97.5342 38.4084C96.679 38.4084 95.9308 38.2267 95.2894 37.8632C94.6481 37.4998 94.1457 37.0028 93.7823 36.3721C93.4295 35.7308 93.2532 34.9932 93.2532 34.1595C93.2532 33.2295 93.4349 32.4385 93.7983 31.7865C94.1724 31.1238 94.6534 30.6214 95.2413 30.2793C95.8399 29.9266 96.4706 29.7502 97.1333 29.7502C97.625 29.7502 98.1007 29.8411 98.5603 30.0228C99.0199 30.2045 99.4261 30.4717 99.7789 30.8245C100.132 31.1665 100.415 31.5834 100.629 32.0751C100.842 32.5561 100.955 33.0959 100.965 33.6945C100.965 33.8655 100.901 34.0098 100.773 34.1274C100.645 34.245 100.495 34.3038 100.324 34.3038L93.9907 34.3038L93.7021 33.1974L99.8751 33.1974L99.6185 33.4219L99.6185 33.0692C99.5758 32.6309 99.4261 32.2568 99.1696 31.9468C98.9237 31.6262 98.6191 31.3803 98.2557 31.2093C97.9029 31.0383 97.5288 30.9527 97.1333 30.9527C96.8126 30.9527 96.492 31.0115 96.1713 31.1291C95.8613 31.236 95.5781 31.4177 95.3215 31.6743C95.0757 31.9201 94.8726 32.2408 94.7122 32.6363C94.5626 33.0318 94.4878 33.5074 94.4878 34.0633C94.4878 34.6832 94.6107 35.2284 94.8565 35.6987C95.1131 36.169 95.4658 36.5431 95.9148 36.8211C96.3637 37.0883 96.8875 37.2219 97.4861 37.2219C97.8602 37.2219 98.1862 37.1738 98.4641 37.0776C98.742 36.9814 98.9825 36.8638 99.1856 36.7249C99.3887 36.5752 99.5597 36.4256 99.6987 36.2759C99.8377 36.1797 99.9713 36.1316 100.1 36.1316C100.26 36.1316 100.388 36.1851 100.484 36.2919C100.591 36.3988 100.645 36.5271 100.645 36.6767C100.645 36.8585 100.559 37.0188 100.388 37.1578C100.089 37.4891 99.6827 37.7831 99.1696 38.0396C98.6565 38.2855 98.1114 38.4084 97.5342 38.4084Z" fill="#25291C"/>
<path d="M104.488 30.7647L108.235 31.1586C108.405 31.1764 108.537 31.2494 108.631 31.3775C108.736 31.5068 108.78 31.6511 108.763 31.8106C108.745 31.9807 108.671 32.118 108.542 32.2227C108.425 32.3178 108.281 32.3564 108.111 32.3386L104.364 31.9447C104.204 31.9279 104.072 31.855 103.967 31.7257C103.863 31.5965 103.819 31.4468 103.837 31.2768C103.854 31.1173 103.926 30.9906 104.055 30.8965C104.184 30.7919 104.328 30.748 104.488 30.7647ZM106.39 28.7721C106.571 28.7911 106.713 28.8705 106.816 29.0103C106.921 29.1396 106.964 29.2945 106.945 29.4753L106.135 37.1771C106.108 37.4322 106.125 37.6275 106.186 37.7629C106.247 37.8983 106.334 37.9987 106.445 38.0641C106.568 38.12 106.688 38.1542 106.805 38.1664C106.911 38.1776 107.003 38.1712 107.081 38.1471C107.171 38.1135 107.269 38.1023 107.375 38.1135C107.481 38.1247 107.571 38.1879 107.645 38.3031C107.731 38.4088 107.765 38.5414 107.748 38.7009C107.728 38.8922 107.599 39.0453 107.362 39.16C107.125 39.2641 106.868 39.3016 106.592 39.2726C106.443 39.257 106.258 39.2268 106.037 39.182C105.827 39.1384 105.622 39.047 105.421 38.9077C105.221 38.7684 105.06 38.5581 104.939 38.2767C104.83 37.9858 104.801 37.5958 104.853 37.1068L105.669 29.3412C105.688 29.1605 105.767 29.0183 105.907 28.9148C106.048 28.8007 106.209 28.7531 106.39 28.7721Z" fill="#25291C"/>
<path d="M123.171 35.9483C123.342 36.0113 123.46 36.1233 123.526 36.2844C123.605 36.4391 123.613 36.6017 123.55 36.7722L121.099 43.4045C121.036 43.5749 120.922 43.6981 120.757 43.7739C120.603 43.8535 120.44 43.8617 120.27 43.7987C120.089 43.732 119.966 43.6181 119.9 43.4571C119.834 43.296 119.833 43.1302 119.896 42.9598L120.424 41.5311L120.721 41.6066C120.639 41.8272 120.475 42.04 120.228 42.2451C119.982 42.4502 119.685 42.6199 119.339 42.7541C118.997 42.8783 118.618 42.9489 118.201 42.9659C117.798 42.9766 117.392 42.906 116.98 42.754C116.299 42.502 115.752 42.1005 115.34 41.5495C114.932 40.9884 114.681 40.3428 114.586 39.6126C114.501 38.8862 114.603 38.1319 114.892 37.3499C115.185 36.5578 115.598 35.9184 116.131 35.4317C116.678 34.9387 117.285 34.6218 117.953 34.481C118.624 34.3302 119.29 34.3771 119.952 34.6217C120.383 34.7811 120.758 34.9995 121.077 35.277C121.396 35.5544 121.647 35.8635 121.829 36.2042C122.02 36.5486 122.138 36.894 122.181 37.2403C122.234 37.5904 122.206 37.9108 122.099 38.2015L121.741 37.9668L122.347 36.3275C122.41 36.157 122.517 36.037 122.668 35.9675C122.823 35.888 122.991 35.8815 123.171 35.9483ZM117.527 41.6911C118.028 41.8764 118.518 41.9091 118.995 41.7893C119.483 41.6731 119.913 41.4334 120.287 41.0701C120.674 40.7004 120.971 40.2349 121.179 39.6734C121.383 39.1219 121.456 38.5849 121.398 38.0622C121.355 37.5332 121.183 37.0711 120.885 36.6759C120.6 36.2744 120.207 35.981 119.706 35.7958C119.215 35.6142 118.727 35.5764 118.244 35.6826C117.77 35.7924 117.341 36.0271 116.958 36.3868C116.574 36.7464 116.277 37.2119 116.066 37.7834C115.858 38.3449 115.776 38.8901 115.82 39.4191C115.877 39.9418 116.049 40.4039 116.333 40.8054C116.628 41.2106 117.026 41.5059 117.527 41.6911Z" fill="#25291C"/>
<path d="M133.378 41.2728C133.992 41.661 134.396 42.093 134.588 42.5687C134.781 43.0444 134.815 43.5403 134.691 44.0563C134.577 44.5781 134.354 45.1011 134.023 45.6252L131.616 49.434C131.519 49.5876 131.382 49.6844 131.205 49.7243C131.037 49.77 130.876 49.7442 130.723 49.6472C130.569 49.5501 130.472 49.4131 130.432 49.2361C130.401 49.0649 130.434 48.9025 130.532 48.7489L132.921 44.9671C133.138 44.6237 133.278 44.2822 133.341 43.9426C133.418 43.5997 133.387 43.2698 133.245 42.953C133.119 42.6329 132.848 42.3415 132.432 42.0788C132.053 41.839 131.65 41.705 131.226 41.6769C130.807 41.6397 130.414 41.7012 130.047 41.8615C129.686 42.0126 129.397 42.2599 129.18 42.6033L126.79 46.385C126.693 46.5387 126.556 46.6354 126.379 46.6754C126.212 46.721 126.051 46.6953 125.897 46.5982C125.744 46.5011 125.647 46.3641 125.607 46.1872C125.576 46.0159 125.609 45.8535 125.706 45.6999L129.44 39.7901C129.537 39.6365 129.667 39.5414 129.829 39.5048C130.006 39.4648 130.171 39.4934 130.325 39.5905C130.488 39.6933 130.584 39.8303 130.615 40.0015C130.652 40.1637 130.622 40.3216 130.525 40.4752L129.916 41.4376L129.457 41.5645C129.651 41.3581 129.903 41.1889 130.214 41.0567C130.531 40.9155 130.871 40.8271 131.235 40.7915C131.599 40.7559 131.964 40.778 132.331 40.858C132.703 40.929 133.052 41.0672 133.378 41.2728Z" fill="#25291C"/>
<path d="M145.439 51.2793C145.569 51.4055 145.632 51.5556 145.628 51.7296C145.638 51.9033 145.581 52.0555 145.454 52.1862L140.597 57.214C139.974 57.8598 139.331 58.2715 138.668 58.4493C137.999 58.6347 137.348 58.6233 136.717 58.415C136.094 58.2141 135.513 57.8537 134.975 57.3338C134.675 57.0442 134.417 56.735 134.199 56.4061C133.982 56.0772 133.833 55.7774 133.753 55.5067C133.674 55.2964 133.655 55.1077 133.698 54.9407C133.741 54.7887 133.837 54.6737 133.987 54.5955C134.174 54.5091 134.344 54.4873 134.496 54.53C134.655 54.5802 134.767 54.6878 134.83 54.8531C134.901 55.0257 135.008 55.2695 135.149 55.5846C135.291 55.9148 135.508 56.221 135.8 56.5032C136.2 56.8893 136.616 57.1429 137.049 57.264C137.482 57.385 137.92 57.3699 138.364 57.2186C138.8 57.075 139.229 56.7841 139.653 56.3459L140.443 55.5271L140.303 55.9491C139.95 56.0686 139.584 56.1165 139.206 56.0928C138.828 56.0691 138.456 55.9772 138.09 55.8172C137.724 55.6573 137.38 55.4213 137.057 55.1094C136.619 54.6861 136.335 54.2336 136.206 53.7521C136.092 53.2702 136.114 52.786 136.272 52.2995C136.445 51.8127 136.743 51.3502 137.166 50.912L140.53 47.4294C140.657 47.2987 140.803 47.2319 140.969 47.2291C141.15 47.2259 141.306 47.2875 141.437 47.4138C141.576 47.5474 141.642 47.7012 141.638 47.8752C141.641 48.0414 141.579 48.1899 141.453 48.3206L138.289 51.5956C137.784 52.1184 137.517 52.6257 137.488 53.1176C137.466 53.6018 137.697 54.0778 138.181 54.5457C138.489 54.8427 138.832 55.0409 139.212 55.1402C139.6 55.2469 139.981 55.2516 140.358 55.1544C140.749 55.0569 141.086 54.8621 141.368 54.57L144.532 51.295C144.658 51.1643 144.804 51.0975 144.971 51.0946C145.144 51.0841 145.3 51.1456 145.439 51.2793Z" fill="#25291C"/>
<path d="M161.132 68.481C161.213 68.6433 161.223 68.8058 161.162 68.9685C161.114 69.1359 161.01 69.2605 160.847 69.3422L151.41 74.0949C151.248 74.1767 151.081 74.1891 150.908 74.1323C150.741 74.0849 150.616 73.9801 150.535 73.8178C150.448 73.646 150.436 73.4787 150.497 73.316C150.559 73.1533 150.671 73.0311 150.833 72.9493L152.194 72.2642L152.431 72.4858C152.202 72.6012 151.922 72.6522 151.593 72.6388C151.272 72.6206 150.94 72.5427 150.595 72.4051C150.251 72.2674 149.92 72.0628 149.604 71.7913C149.292 71.5293 149.038 71.2026 148.841 70.8111C148.519 70.1715 148.393 69.505 148.462 68.8117C148.537 68.1279 148.788 67.4866 149.217 66.8878C149.65 66.2986 150.239 65.8164 150.984 65.4414C151.738 65.0616 152.481 64.873 153.212 64.8756C153.948 64.8879 154.608 65.07 155.193 65.422C155.786 65.7693 156.242 66.2579 156.559 66.888C156.761 67.289 156.884 67.6997 156.929 68.1203C156.973 68.5408 156.945 68.9377 156.846 69.3108C156.752 69.6935 156.604 70.031 156.404 70.3231C156.204 70.6153 155.966 70.8311 155.689 70.9706L155.588 70.555L160.27 68.1966C160.433 68.1149 160.593 68.1001 160.751 68.1522C160.918 68.1995 161.045 68.3091 161.132 68.481ZM149.966 70.4063C150.206 70.8837 150.537 71.2436 150.958 71.4862C151.394 71.7335 151.872 71.8516 152.393 71.8406C152.929 71.8342 153.464 71.6964 153.998 71.4272C154.542 71.1531 154.972 70.8053 155.286 70.3837C155.605 69.9717 155.79 69.5194 155.841 69.0269C155.907 68.5391 155.819 68.0566 155.579 67.5792C155.343 67.1114 155.008 66.7539 154.572 66.5066C154.151 66.264 153.677 66.1435 153.151 66.145C152.625 66.1465 152.09 66.2843 151.546 66.5584C151.021 66.8228 150.597 67.1682 150.273 67.5946C149.959 68.0162 149.769 68.4709 149.703 68.9587C149.642 69.456 149.73 69.9385 149.966 70.4063Z" fill="#25291C"/>
<path d="M162.4 83.5911C162.446 83.7671 162.421 83.928 162.326 84.0738C162.244 84.2274 162.115 84.3268 161.939 84.3722L155.092 86.1366C154.916 86.1819 154.75 86.1585 154.594 86.0663C154.44 85.9845 154.341 85.8555 154.296 85.6796C154.248 85.4933 154.271 85.3272 154.366 85.1813C154.461 85.0354 154.596 84.9398 154.772 84.8945L156.247 84.5144L156.354 84.8014C156.127 84.8601 155.858 84.8465 155.549 84.7605C155.24 84.6746 154.932 84.5278 154.624 84.32C154.327 84.1096 154.053 83.838 153.802 83.5054C153.563 83.1805 153.39 82.8058 153.28 82.3814C153.099 81.6775 153.117 80.9995 153.336 80.3471C153.564 79.6922 153.951 79.1177 154.498 78.6238C155.046 78.1402 155.724 77.7944 156.532 77.5863C157.349 77.3756 158.11 77.3507 158.814 77.5115C159.531 77.6801 160.137 77.9984 160.633 78.4667C161.139 78.9323 161.48 79.5067 161.656 80.1899C161.771 80.6349 161.805 81.0677 161.759 81.488C161.713 81.9083 161.602 82.2902 161.425 82.6337C161.251 82.9875 161.035 83.2808 160.774 83.5134C160.517 83.7564 160.238 83.9165 159.938 83.9939L159.927 83.5662L161.619 83.1301C161.795 83.0847 161.955 83.1043 162.098 83.1888C162.252 83.2707 162.352 83.4048 162.4 83.5911ZM154.465 82.2251C154.599 82.7426 154.85 83.1634 155.221 83.4874C155.594 83.8217 156.036 84.0389 156.548 84.1389C157.072 84.2466 157.624 84.2258 158.204 84.0764C158.773 83.9297 159.256 83.6838 159.653 83.3387C160.063 83.0013 160.345 82.5974 160.5 82.1271C160.668 81.6644 160.685 81.1743 160.552 80.6567C160.421 80.1495 160.174 79.7274 159.811 79.3904C159.451 79.0638 159.014 78.8452 158.5 78.7349C157.986 78.6245 157.434 78.6454 156.844 78.7974C156.264 78.9468 155.769 79.1902 155.36 79.5275C154.963 79.8726 154.681 80.2765 154.513 80.7392C154.348 81.2122 154.332 81.7075 154.465 82.2251Z" fill="#25291C"/>
<path d="M163.3 90.4096L163.571 94.1678C163.583 94.3384 163.535 94.4812 163.425 94.5963C163.316 94.722 163.182 94.7906 163.022 94.8021C162.851 94.8144 162.703 94.7662 162.578 94.6574C162.463 94.5584 162.4 94.4237 162.388 94.2531L162.117 90.4949C162.105 90.335 162.154 90.1922 162.263 90.0665C162.372 89.9407 162.511 89.8717 162.682 89.8594C162.842 89.8479 162.979 89.8969 163.094 90.0065C163.22 90.1153 163.289 90.2497 163.3 90.4096ZM165.596 91.932C165.609 92.1133 165.556 92.2672 165.437 92.3937C165.328 92.5194 165.183 92.5888 165.001 92.6018L157.277 93.1586C157.021 93.177 156.832 93.2282 156.71 93.312C156.587 93.3959 156.503 93.4984 156.458 93.6195C156.425 93.7505 156.413 93.8746 156.421 93.9919C156.429 94.0985 156.451 94.188 156.489 94.2603C156.537 94.3425 156.566 94.437 156.573 94.5436C156.581 94.6502 156.535 94.75 156.434 94.843C156.345 94.9458 156.221 95.003 156.061 95.0145C155.869 95.0284 155.695 94.9283 155.541 94.7144C155.397 94.4998 155.315 94.2538 155.295 93.9766C155.284 93.8274 155.281 93.64 155.286 93.4146C155.292 93.1998 155.346 92.9816 155.448 92.7599C155.55 92.5383 155.729 92.3432 155.985 92.1747C156.252 92.0161 156.631 91.9192 157.121 91.8838L164.909 91.3225C165.09 91.3094 165.244 91.3626 165.371 91.4821C165.508 91.6008 165.583 91.7508 165.596 91.932Z" fill="#25291C"/>
<path d="M163.024 107.44C163.005 107.621 162.925 107.763 162.785 107.866C162.654 107.98 162.498 108.028 162.317 108.008L155.288 107.244C155.107 107.224 154.96 107.144 154.847 107.003C154.732 106.872 154.684 106.716 154.704 106.535C154.725 106.344 154.805 106.197 154.945 106.094C155.086 105.991 155.246 105.949 155.427 105.969L156.941 106.134L156.94 106.44C156.706 106.414 156.46 106.307 156.201 106.118C155.942 105.928 155.705 105.682 155.491 105.379C155.287 105.077 155.126 104.727 155.008 104.327C154.9 103.939 154.87 103.527 154.917 103.091C154.996 102.368 155.252 101.74 155.686 101.207C156.131 100.675 156.696 100.274 157.381 100.004C158.066 99.7454 158.822 99.661 159.651 99.7511C160.49 99.8424 161.211 100.087 161.813 100.486C162.424 100.897 162.879 101.408 163.178 102.022C163.488 102.636 163.604 103.294 163.528 103.995C163.478 104.452 163.358 104.869 163.166 105.246C162.975 105.623 162.736 105.941 162.45 106.2C162.162 106.47 161.856 106.668 161.53 106.794C161.204 106.93 160.886 106.982 160.578 106.948L160.719 106.544L162.456 106.733C162.637 106.753 162.779 106.827 162.883 106.957C162.998 107.088 163.045 107.249 163.024 107.44ZM156.081 103.363C156.023 103.894 156.11 104.377 156.343 104.811C156.574 105.255 156.911 105.614 157.355 105.888C157.807 106.174 158.331 106.349 158.926 106.414C159.511 106.477 160.05 106.418 160.543 106.235C161.045 106.064 161.452 105.785 161.762 105.4C162.083 105.026 162.272 104.573 162.329 104.042C162.386 103.521 162.304 103.039 162.083 102.596C161.862 102.163 161.53 101.805 161.087 101.52C160.645 101.236 160.121 101.06 159.516 100.994C158.921 100.93 158.372 100.983 157.869 101.154C157.376 101.337 156.97 101.615 156.65 101.989C156.328 102.374 156.139 102.831 156.081 103.363Z" fill="#25291C"/>
<path d="M151.596 127.956C150.845 127.594 150.257 127.102 149.832 126.482C149.403 125.872 149.156 125.201 149.093 124.471C149.026 123.75 149.161 123.038 149.5 122.335C149.839 121.632 150.314 121.078 150.925 120.672C151.536 120.267 152.216 120.037 152.966 119.983C153.711 119.939 154.459 120.098 155.21 120.46C155.961 120.822 156.551 121.309 156.981 121.919C157.406 122.539 157.65 123.215 157.713 123.945C157.776 124.676 157.638 125.393 157.299 126.095C156.96 126.798 156.487 127.348 155.881 127.744C155.27 128.149 154.592 128.374 153.847 128.418C153.097 128.472 152.347 128.318 151.596 127.956ZM152.153 126.8C152.711 127.07 153.258 127.191 153.793 127.164C154.324 127.147 154.804 126.999 155.235 126.72C155.662 126.451 155.993 126.071 156.23 125.58C156.467 125.089 156.56 124.588 156.51 124.077C156.455 123.576 156.271 123.108 155.959 122.673C155.647 122.237 155.211 121.885 154.653 121.616C154.104 121.351 153.562 121.232 153.027 121.259C152.492 121.286 152.007 121.431 151.571 121.696C151.14 121.974 150.806 122.359 150.569 122.85C150.332 123.341 150.241 123.837 150.296 124.339C150.356 124.854 150.545 125.325 150.861 125.75C151.174 126.186 151.604 126.536 152.153 126.8Z" fill="#25291C"/>
<path d="M149.561 138.494C149.116 139.069 148.648 139.429 148.156 139.576C147.664 139.722 147.167 139.709 146.665 139.537C146.157 139.373 145.657 139.101 145.167 138.722L141.604 135.964C141.461 135.852 141.378 135.707 141.355 135.527C141.325 135.355 141.366 135.198 141.477 135.054C141.589 134.91 141.734 134.827 141.914 134.804C142.087 134.79 142.246 134.838 142.39 134.949L145.927 137.688C146.248 137.936 146.575 138.108 146.907 138.203C147.241 138.313 147.572 138.313 147.901 138.202C148.232 138.107 148.548 137.865 148.849 137.476C149.124 137.121 149.295 136.733 149.364 136.313C149.44 135.9 149.417 135.503 149.292 135.122C149.176 134.748 148.957 134.437 148.636 134.189L145.099 131.45C144.955 131.339 144.872 131.193 144.849 131.013C144.819 130.842 144.86 130.684 144.971 130.541C145.083 130.397 145.228 130.314 145.408 130.291C145.582 130.276 145.74 130.325 145.884 130.436L151.412 134.715C151.555 134.826 151.638 134.965 151.659 135.129C151.682 135.309 151.637 135.471 151.526 135.615C151.408 135.767 151.263 135.85 151.089 135.865C150.924 135.886 150.77 135.841 150.626 135.729L149.726 135.033L149.644 134.563C149.831 134.776 149.975 135.043 150.077 135.365C150.188 135.694 150.243 136.041 150.244 136.407C150.245 136.772 150.188 137.134 150.074 137.491C149.968 137.855 149.797 138.189 149.561 138.494Z" fill="#25291C"/>
<path d="M133.69 153C133.235 153.301 132.793 153.524 132.363 153.668C131.933 153.812 131.555 153.871 131.229 153.843C130.903 153.816 130.669 153.695 130.527 153.481C130.45 153.366 130.416 153.228 130.426 153.068C130.435 152.907 130.506 152.783 130.64 152.694C130.765 152.612 130.882 152.566 130.992 152.557C131.092 152.555 131.202 152.565 131.321 152.589C131.43 152.619 131.561 152.623 131.712 152.599C131.86 152.591 132.048 152.536 132.277 152.436C132.506 152.336 132.722 152.218 132.927 152.082C133.417 151.757 133.772 151.354 133.993 150.875C134.204 150.401 134.287 149.897 134.241 149.363C134.195 148.83 134.006 148.313 133.675 147.815C133.345 147.316 132.947 146.938 132.482 146.682C132.017 146.426 131.525 146.303 131.006 146.314C130.488 146.325 129.988 146.489 129.507 146.808C129.195 147.015 128.963 147.207 128.811 147.385C128.66 147.562 128.545 147.728 128.468 147.882C128.367 148.078 128.305 148.246 128.284 148.389C128.254 148.537 128.168 148.658 128.026 148.753C127.874 148.853 127.726 148.881 127.581 148.836C127.427 148.797 127.302 148.707 127.208 148.564C127.101 148.404 127.101 148.161 127.205 147.835C127.31 147.509 127.512 147.157 127.812 146.778C128.104 146.405 128.49 146.059 128.971 145.74C129.648 145.291 130.344 145.054 131.058 145.029C131.779 145.013 132.462 145.182 133.107 145.536C133.75 145.905 134.295 146.429 134.744 147.106C135.193 147.783 135.456 148.487 135.531 149.22C135.597 149.958 135.479 150.659 135.175 151.322C134.871 151.986 134.376 152.545 133.69 153Z" fill="#25291C"/>
<path d="M121.849 159.05C121.195 159.315 120.622 159.381 120.129 159.247C119.63 159.126 119.205 158.86 118.853 158.45C118.496 158.052 118.2 157.567 117.967 156.992L116.314 152.922C116.245 152.754 116.246 152.586 116.317 152.419C116.377 152.256 116.492 152.14 116.66 152.072C116.829 152.003 116.996 152.004 117.163 152.075C117.321 152.15 117.434 152.271 117.502 152.439L119.155 156.51C119.308 156.886 119.5 157.2 119.729 157.453C119.963 157.716 120.245 157.884 120.575 157.958C120.899 158.045 121.278 158.001 121.714 157.824C122.12 157.659 122.453 157.414 122.714 157.089C122.978 156.774 123.147 156.423 123.22 156.035C123.297 155.658 123.26 155.281 123.107 154.904L121.453 150.834C121.385 150.666 121.386 150.498 121.456 150.331C121.517 150.168 121.632 150.052 121.8 149.984C121.968 149.915 122.136 149.916 122.303 149.987C122.46 150.062 122.573 150.183 122.642 150.351L126.619 160.141C126.687 160.309 126.689 160.47 126.624 160.623C126.554 160.79 126.434 160.908 126.266 160.976C126.088 161.049 125.92 161.047 125.763 160.973C125.609 160.908 125.499 160.792 125.43 160.623L123.626 156.182L123.79 155.734C123.845 156.012 123.841 156.314 123.777 156.64C123.717 156.975 123.601 157.299 123.428 157.612C123.255 157.925 123.034 158.205 122.766 158.452C122.501 158.71 122.195 158.909 121.849 159.05Z" fill="#25291C"/>
<path d="M105.956 163.205C105.777 163.236 105.618 163.2 105.48 163.094C105.333 163.001 105.244 162.865 105.212 162.686L103.971 155.725C103.939 155.546 103.975 155.382 104.079 155.233C104.172 155.086 104.308 154.997 104.487 154.965C104.676 154.931 104.84 154.967 104.979 155.073C105.117 155.178 105.202 155.321 105.234 155.5L105.501 156.999L105.207 157.084C105.166 156.853 105.199 156.586 105.309 156.284C105.418 155.983 105.587 155.686 105.818 155.395C106.05 155.115 106.342 154.862 106.692 154.637C107.034 154.424 107.421 154.279 107.853 154.202C108.568 154.074 109.243 154.144 109.877 154.411C110.513 154.689 111.056 155.118 111.507 155.7C111.948 156.284 112.241 156.986 112.388 157.807C112.536 158.639 112.503 159.399 112.29 160.089C112.067 160.79 111.704 161.371 111.199 161.83C110.697 162.3 110.098 162.596 109.404 162.72C108.951 162.801 108.517 162.802 108.102 162.724C107.686 162.646 107.314 162.507 106.984 162.305C106.645 162.105 106.369 161.866 106.157 161.589C105.934 161.314 105.795 161.024 105.741 160.719L106.168 160.74L106.475 162.461C106.507 162.64 106.475 162.797 106.38 162.934C106.287 163.08 106.145 163.171 105.956 163.205ZM107.919 155.395C107.393 155.489 106.954 155.709 106.603 156.054C106.241 156.4 105.991 156.825 105.853 157.327C105.706 157.842 105.685 158.394 105.79 158.983C105.893 159.562 106.102 160.062 106.416 160.484C106.721 160.918 107.102 161.23 107.56 161.42C108.008 161.623 108.496 161.677 109.022 161.583C109.537 161.491 109.977 161.277 110.341 160.941C110.694 160.606 110.945 160.187 111.093 159.683C111.242 159.179 111.263 158.627 111.157 158.027C111.051 157.437 110.846 156.926 110.541 156.492C110.227 156.07 109.845 155.758 109.397 155.555C108.938 155.355 108.445 155.302 107.919 155.395Z" fill="#25291C"/>
<path d="M97.5463 155.991C97.5444 155.809 97.6068 155.654 97.7337 155.524C97.8499 155.394 97.9989 155.329 98.1806 155.327C98.373 155.325 98.5286 155.387 98.6476 155.514C98.7665 155.641 98.827 155.795 98.829 155.977L98.9058 163.096C98.9077 163.277 98.8506 163.428 98.7342 163.547C98.6074 163.676 98.4531 163.742 98.2714 163.744C98.0897 163.746 97.9393 163.683 97.8204 163.556C97.6909 163.44 97.6251 163.291 97.6231 163.11L97.5463 155.991ZM98.283 164.818C98.5502 164.815 98.7485 164.867 98.8779 164.972C99.0073 165.078 99.0732 165.243 99.0757 165.467L99.0781 165.691C99.0805 165.916 99.0128 166.082 98.875 166.191C98.7372 166.299 98.5401 166.355 98.2835 166.357C98.027 166.36 97.834 166.309 97.7046 166.203C97.5752 166.098 97.5093 165.933 97.5069 165.708L97.5045 165.484C97.502 165.259 97.5697 165.093 97.7075 164.985C97.8346 164.876 98.0264 164.821 98.283 164.818Z" fill="#25291C"/>
<path d="M86.7249 162.99C86.0062 162.882 85.4631 162.648 85.0956 162.29C84.7281 161.932 84.4974 161.492 84.4033 160.969C84.2987 160.445 84.2927 159.877 84.3854 159.264L85.0585 154.809C85.0857 154.629 85.1722 154.486 85.3182 154.378C85.4537 154.269 85.6112 154.228 85.7909 154.255C85.9706 154.282 86.1142 154.369 86.2219 154.515C86.319 154.659 86.354 154.821 86.3268 155.001L85.6585 159.424C85.5978 159.825 85.6069 160.194 85.6858 160.531C85.7525 160.876 85.9142 161.165 86.1709 161.399C86.4153 161.641 86.7806 161.799 87.2668 161.872C87.7107 161.939 88.1328 161.9 88.533 161.755C88.9317 161.621 89.2668 161.407 89.5382 161.113C89.8081 160.829 89.9734 160.487 90.0341 160.085L90.7024 155.662C90.7296 155.482 90.8162 155.339 90.9621 155.231C91.0976 155.122 91.2551 155.081 91.4348 155.108C91.6145 155.135 91.7581 155.221 91.8658 155.367C91.9629 155.512 91.9979 155.674 91.9707 155.853L90.9263 162.766C90.8991 162.945 90.8186 163.085 90.6848 163.183C90.5388 163.291 90.376 163.331 90.1963 163.304C90.006 163.275 89.8624 163.189 89.7653 163.044C89.6666 162.91 89.6308 162.754 89.658 162.574L89.828 161.448L90.1978 161.148C90.1035 161.414 89.9404 161.671 89.7086 161.917C89.4753 162.173 89.1991 162.391 88.8802 162.57C88.5613 162.749 88.2179 162.875 87.8499 162.949C87.4804 163.034 87.1054 163.048 86.7249 162.99Z" fill="#25291C"/>
<path d="M63.547 154.585C63.3863 154.5 63.284 154.374 63.24 154.205C63.1815 154.042 63.1947 153.879 63.2796 153.719L66.583 147.467C66.6679 147.306 66.797 147.199 66.9703 147.146C67.1342 147.087 67.2965 147.1 67.4572 147.185C67.6273 147.275 67.7343 147.404 67.7784 147.573C67.8224 147.741 67.802 147.905 67.7171 148.066L67.0055 149.413L66.7211 149.299C66.831 149.091 67.0217 148.902 67.2933 148.731C67.5649 148.56 67.881 148.431 68.2416 148.343C68.5972 148.265 68.9826 148.245 69.3977 148.283C69.7984 148.326 70.1925 148.449 70.58 148.654C71.2226 148.994 71.7117 149.464 72.0473 150.064C72.3779 150.674 72.5421 151.347 72.5399 152.083C72.5282 152.815 72.3276 153.549 71.9381 154.286C71.5436 155.033 71.05 155.612 70.4574 156.024C69.8504 156.441 69.2068 156.675 68.5267 156.727C67.8415 156.788 67.1871 156.654 66.5633 156.324C66.1569 156.109 65.8139 155.844 65.5341 155.526C65.2543 155.209 65.0468 154.87 64.9115 154.508C64.7667 154.142 64.6958 153.784 64.6989 153.435C64.6925 153.081 64.7617 152.767 64.9065 152.493L65.2302 152.773L64.4137 154.318C64.3288 154.479 64.2069 154.583 64.048 154.632C63.8841 154.691 63.7171 154.675 63.547 154.585ZM69.8981 149.636C69.4255 149.386 68.9448 149.289 68.4558 149.345C67.9574 149.396 67.4991 149.577 67.0809 149.888C66.6482 150.203 66.2921 150.626 66.0124 151.155C65.7378 151.675 65.5945 152.197 65.5827 152.723C65.5565 153.253 65.6652 153.734 65.909 154.165C66.1382 154.6 66.4892 154.943 66.9617 155.193C67.4248 155.437 67.9031 155.539 68.3965 155.498C68.8805 155.451 69.3363 155.275 69.7639 154.969C70.1916 154.663 70.5477 154.24 70.8324 153.702C71.112 153.173 71.265 152.643 71.2912 152.113C71.303 151.587 71.1943 151.106 70.965 150.671C70.7262 150.23 70.3706 149.885 69.8981 149.636Z" fill="#25291C"/>
<path d="M54.1319 147.964C53.5739 147.498 53.2308 147.017 53.1025 146.52C52.9743 146.023 53.0055 145.527 53.1962 145.031C53.3786 144.529 53.6685 144.04 54.0658 143.564L56.953 140.106C57.0695 139.966 57.218 139.888 57.3987 139.872C57.5712 139.849 57.7271 139.895 57.8666 140.012C58.0061 140.128 58.084 140.277 58.1003 140.458C58.1084 140.631 58.0542 140.788 57.9377 140.928L55.071 144.362C54.8107 144.674 54.6271 144.994 54.52 145.322C54.398 145.652 54.3861 145.983 54.4843 146.316C54.5675 146.65 54.7979 146.974 55.1753 147.289C55.52 147.577 55.901 147.763 56.3183 147.847C56.7288 147.939 57.1264 147.929 57.5111 147.819C57.8889 147.716 58.2079 147.509 58.4682 147.198L61.3349 143.763C61.4514 143.624 61.5999 143.546 61.7806 143.53C61.9531 143.507 62.1091 143.553 62.2486 143.67C62.388 143.786 62.4659 143.935 62.4822 144.115C62.4903 144.289 62.4361 144.446 62.3196 144.585L57.8398 149.952C57.7233 150.092 57.5823 150.169 57.4167 150.184C57.236 150.2 57.0759 150.15 56.9364 150.033C56.7887 149.91 56.7109 149.762 56.7028 149.588C56.6879 149.422 56.7386 149.27 56.8551 149.13L57.5846 148.256L58.0568 148.191C57.8377 148.37 57.5652 148.505 57.2394 148.595C56.9068 148.693 56.5578 148.736 56.1923 148.723C55.8269 148.71 55.4677 148.64 55.1148 148.513C54.7549 148.393 54.4273 148.21 54.1319 147.964Z" fill="#25291C"/>
<path d="M40.3865 138.061C40.2743 137.918 40.2323 137.761 40.2605 137.589C40.2738 137.416 40.3519 137.273 40.4948 137.16L48.8047 130.634C48.9476 130.522 49.1091 130.477 49.2892 130.499C49.4627 130.512 49.6055 130.59 49.7178 130.733C49.8366 130.884 49.8819 131.046 49.8537 131.217C49.8254 131.389 49.7398 131.531 49.5969 131.643L48.399 132.584L48.1225 132.414C48.3243 132.255 48.5882 132.15 48.9142 132.098C49.2318 132.052 49.5731 132.063 49.9381 132.13C50.3031 132.196 50.6675 132.331 51.0313 132.535C51.3884 132.73 51.7023 133 51.973 133.345C52.4154 133.908 52.671 134.536 52.7399 135.23C52.8021 135.915 52.6825 136.593 52.381 137.265C52.0728 137.928 51.5909 138.517 50.9352 139.032C50.2711 139.554 49.5803 139.886 48.8628 140.028C48.1388 140.162 47.4556 140.114 46.8132 139.884C46.1625 139.661 45.6193 139.273 45.1835 138.718C44.9063 138.365 44.7043 137.986 44.5777 137.583C44.4511 137.179 44.3996 136.785 44.4231 136.4C44.44 136.006 44.5175 135.646 44.6557 135.32C44.7939 134.994 44.9848 134.735 45.2286 134.544L45.4104 134.931L41.287 138.169C41.1441 138.282 40.9901 138.328 40.825 138.308C40.6515 138.295 40.5054 138.212 40.3865 138.061ZM50.9508 133.964C50.6207 133.544 50.2251 133.256 49.7641 133.102C49.288 132.946 48.7957 132.925 48.2872 133.039C47.7637 133.151 47.2665 133.392 46.7957 133.761C46.3166 134.138 45.9647 134.564 45.74 135.039C45.5088 135.506 45.4168 135.986 45.4641 136.479C45.4964 136.97 45.6776 137.426 46.0077 137.846C46.3312 138.258 46.731 138.542 47.2071 138.698C47.6681 138.853 48.1562 138.877 48.6713 138.772C49.1864 138.666 49.6836 138.425 50.1628 138.049C50.6251 137.686 50.9728 137.263 51.2059 136.781C51.4305 136.306 51.5267 135.822 51.4944 135.331C51.4555 134.832 51.2743 134.376 50.9508 133.964Z" fill="#25291C"/>
<path d="M36.971 113.24C37.7612 112.974 38.5249 112.914 39.2623 113.061C39.9962 113.197 40.641 113.505 41.1968 113.983C41.7492 114.451 42.1498 115.055 42.3988 115.795C42.6477 116.534 42.6956 117.262 42.5422 117.98C42.3888 118.697 42.0629 119.336 41.5643 119.899C41.0623 120.451 40.4162 120.861 39.626 121.127C38.8358 121.393 38.0738 121.458 37.3399 121.321C36.6026 121.175 35.956 120.862 35.4002 120.384C34.8445 119.906 34.4421 119.297 34.1931 118.557C33.9442 117.818 33.8981 117.094 34.0548 116.387C34.2082 115.67 34.5359 115.036 35.0379 114.483C35.5365 113.921 36.1808 113.506 36.971 113.24ZM37.3803 114.456C36.7927 114.654 36.317 114.949 35.9531 115.342C35.5858 115.725 35.3454 116.167 35.232 116.668C35.1151 117.158 35.1437 117.662 35.3176 118.179C35.4915 118.695 35.775 119.119 36.1681 119.449C36.5578 119.769 37.0164 119.975 37.544 120.068C38.0716 120.161 38.6292 120.109 39.2168 119.911C39.7942 119.717 40.2649 119.423 40.6288 119.03C40.9926 118.637 41.2381 118.193 41.3651 117.699C41.4785 117.199 41.4482 116.69 41.2743 116.173C41.1004 115.657 40.8186 115.238 40.4289 114.918C40.0257 114.592 39.562 114.387 39.0378 114.304C38.5102 114.211 37.9577 114.261 37.3803 114.456Z" fill="#25291C"/>
<path d="M27.8389 105.557C27.8136 105.377 27.8088 105.189 27.8243 104.992C27.8384 104.785 27.8887 104.605 27.9752 104.453C28.0603 104.29 28.1927 104.196 28.3727 104.17C28.542 104.146 28.6924 104.179 28.8237 104.269C28.9444 104.36 29.0152 104.479 29.036 104.628C29.0494 104.723 29.0415 104.859 29.0124 105.036C28.9727 105.214 28.9655 105.393 28.9908 105.573C29.025 105.816 29.1062 106.01 29.2343 106.154C29.361 106.287 29.5195 106.378 29.7099 106.427C29.8882 106.467 30.0832 106.472 30.2949 106.442L39.0752 105.208C39.2552 105.183 39.4176 105.225 39.5624 105.334C39.7058 105.433 39.7902 105.572 39.8154 105.752C39.8422 105.942 39.8003 106.105 39.6896 106.239C39.579 106.373 39.4337 106.453 39.2537 106.478L30.4893 107.71C29.7801 107.81 29.1886 107.672 28.7148 107.296C28.2395 106.909 27.9475 106.329 27.8389 105.557ZM31.4124 104.601C31.3886 104.432 31.4268 104.281 31.5268 104.148C31.6163 104.017 31.7458 103.939 31.9151 103.915C32.0845 103.892 32.2356 103.93 32.3684 104.03C32.4906 104.131 32.5636 104.267 32.5874 104.436L33.1474 108.421C33.1712 108.591 33.1331 108.742 33.033 108.875C32.9329 109.007 32.8035 109.085 32.6447 109.107C32.4648 109.133 32.3137 109.094 32.1915 108.993C32.0693 108.891 31.9963 108.756 31.9725 108.587L31.4124 104.601Z" fill="#25291C"/>
<path d="M27.3829 94.6736C27.3859 94.4919 27.4103 94.3052 27.4562 94.1135C27.5022 93.9111 27.5798 93.7413 27.689 93.6041C27.7983 93.4562 27.9438 93.3838 28.1255 93.3867C28.2965 93.3895 28.4399 93.4453 28.5557 93.5541C28.6608 93.6627 28.7122 93.7918 28.7098 93.9415C28.7082 94.0377 28.6793 94.1708 28.6231 94.3409C28.5562 94.5109 28.5212 94.6867 28.5183 94.8684C28.5143 95.1142 28.5644 95.3182 28.6687 95.4802C28.7731 95.6316 28.9156 95.7462 29.096 95.8239C29.266 95.8908 29.4579 95.926 29.6716 95.9295L38.537 96.0738C38.7187 96.0768 38.8727 96.1434 38.9988 96.2737C39.1252 96.3934 39.1869 96.5441 39.1839 96.7258C39.1808 96.9181 39.1141 97.0721 38.984 97.1875C38.8538 97.303 38.6979 97.3593 38.5162 97.3563L29.6668 97.2123C28.9507 97.2006 28.3878 96.9723 27.9781 96.5274C27.5686 96.0717 27.3702 95.4538 27.3829 94.6736ZM31.0614 94.2844C31.0642 94.1134 31.1253 93.9701 31.2448 93.8544C31.3536 93.7386 31.4935 93.6821 31.6645 93.6849C31.8355 93.6877 31.9788 93.7488 32.0945 93.8683C32.1995 93.9876 32.2505 94.1327 32.2478 94.3037L32.1823 98.3276C32.1795 98.4986 32.1184 98.642 31.9989 98.7576C31.8794 98.8733 31.7395 98.9298 31.5792 98.9272C31.3975 98.9242 31.2542 98.8631 31.1492 98.7438C31.0443 98.6245 30.9932 98.4793 30.9959 98.3083L31.0614 94.2844Z" fill="#25291C"/>
<path d="M34.182 75.9412C34.3526 75.4234 34.5623 74.9748 34.8111 74.5954C35.06 74.2159 35.321 73.9361 35.5942 73.7561C35.8673 73.576 36.1257 73.5261 36.3694 73.6063C36.5014 73.6498 36.6132 73.7373 36.7049 73.8688C36.7967 74.0004 36.8174 74.1423 36.7673 74.2945C36.7204 74.4367 36.6566 74.5451 36.5757 74.6197C36.4982 74.6842 36.4054 74.7437 36.2975 74.7981C36.1928 74.8424 36.0883 74.9205 35.9839 75.0324C35.8727 75.1308 35.7583 75.2901 35.6408 75.5102C35.5232 75.7303 35.426 75.9572 35.349 76.1907C35.165 76.749 35.1348 77.2849 35.2582 77.7983C35.385 78.3015 35.6316 78.7485 35.998 79.1393C36.3644 79.5302 36.8319 79.8193 37.4004 80.0066C37.969 80.1939 38.515 80.2445 39.0387 80.1581C39.5623 80.0718 40.0247 79.864 40.4258 79.5348C40.8269 79.2055 41.1178 78.7668 41.2984 78.2186C41.4155 77.8632 41.4787 77.569 41.488 77.3357C41.4974 77.1024 41.4849 76.9013 41.4505 76.7324C41.4092 76.5163 41.3528 76.3457 41.2814 76.2209C41.2133 76.086 41.2061 75.9372 41.2596 75.7748C41.3164 75.6022 41.4158 75.4886 41.5576 75.4341C41.7027 75.3694 41.8565 75.3638 42.0189 75.4173C42.2016 75.4775 42.3527 75.668 42.4721 75.9887C42.5915 76.3094 42.6504 76.7114 42.6487 77.1948C42.6503 77.668 42.5608 78.1787 42.3801 78.7269C42.1259 79.4985 41.7258 80.1151 41.1798 80.5767C40.6236 81.0349 39.9824 81.3244 39.256 81.4453C38.5229 81.5526 37.7706 81.4791 36.999 81.2249C36.2274 80.9706 35.5855 80.579 35.0733 80.0501C34.5644 79.511 34.2242 78.8869 34.0528 78.1776C33.8813 77.4684 33.9244 76.7229 34.182 75.9412Z" fill="#25291C"/>
<path d="M39.7458 63.8624C40.0951 63.2495 40.505 62.8433 40.9755 62.644C41.4419 62.43 41.9404 62.3757 42.4708 62.4812C42.9973 62.5721 43.5298 62.7711 44.0684 63.0781L47.8852 65.2535C48.0431 65.3435 48.146 65.4759 48.1939 65.6509C48.2471 65.8165 48.2288 65.9783 48.1388 66.1362C48.0488 66.2941 47.9163 66.397 47.7414 66.4449C47.5717 66.4835 47.4079 66.4578 47.2501 66.3679L43.4333 64.1924C43.0804 63.9913 42.7355 63.8624 42.3987 63.8058C42.0526 63.7439 41.7272 63.786 41.4224 63.9322C41.1136 64.0638 40.8428 64.3339 40.6099 64.7425C40.3929 65.1232 40.2826 65.5217 40.2791 65.9381C40.2663 66.3491 40.3509 66.7295 40.5329 67.0793C40.7057 67.4238 40.9685 67.6967 41.3214 67.8978L45.1382 70.0732C45.296 70.1632 45.3989 70.2957 45.4469 70.4706C45.5001 70.6363 45.4817 70.7981 45.3917 70.9559C45.3017 71.1138 45.1693 71.2167 44.9943 71.2646C44.8246 71.3033 44.6609 71.2776 44.503 71.1876L35.3232 65.9555C35.1653 65.8655 35.0644 65.7403 35.0205 65.5799C34.9726 65.405 34.9936 65.2386 35.0836 65.0807C35.1789 64.9135 35.3113 64.8106 35.481 64.772C35.6414 64.7281 35.8005 64.7511 35.9584 64.8411L40.1234 67.215L40.2711 67.6683C40.0561 67.4842 39.8729 67.2444 39.7214 66.949C39.5606 66.6482 39.4515 66.3215 39.3941 65.9689C39.3367 65.6163 39.337 65.2596 39.395 64.8989C39.4436 64.533 39.5606 64.1874 39.7458 63.8624Z" fill="#25291C"/>
<path d="M49.6628 50.7698C49.7836 50.6341 49.931 50.565 50.105 50.5625C50.2781 50.5448 50.4325 50.5965 50.5682 50.7173L55.8489 55.4195C55.9847 55.5404 56.0578 55.6913 56.0683 55.8724C56.0859 56.0456 56.0342 56.2 55.9134 56.3357C55.7854 56.4794 55.6345 56.5525 55.4605 56.555C55.2865 56.5575 55.1316 56.4983 54.9959 56.3775L53.8584 55.3645L54.037 55.1157C54.2126 55.2721 54.3509 55.5026 54.4518 55.8071C54.5528 56.1117 54.6026 56.4495 54.6014 56.8205C54.5922 57.1845 54.5196 57.5635 54.3834 57.9575C54.2464 58.3364 54.0321 58.6895 53.7407 59.0168C53.2573 59.5596 52.684 59.9222 52.0207 60.1045C51.3495 60.2797 50.6567 60.2782 49.9422 60.1C49.2349 59.9139 48.5699 59.5436 47.9472 58.9891C47.3166 58.4275 46.872 57.8098 46.6133 57.1358C46.3539 56.4467 46.2803 55.7658 46.3928 55.093C46.4972 54.4132 46.784 53.8098 47.2532 53.2829C47.5588 52.9397 47.8991 52.6701 48.2738 52.4743C48.6486 52.2784 49.0277 52.158 49.4113 52.1131C49.8019 52.0602 50.1663 52.0769 50.5044 52.1633C50.8496 52.2417 51.138 52.384 51.3695 52.5901L51.0204 52.8375L49.7152 51.6753C49.5795 51.5544 49.5069 51.411 49.4972 51.245C49.4796 51.0719 49.5348 50.9135 49.6628 50.7698ZM52.9505 58.12C53.306 57.7208 53.5149 57.2772 53.5775 56.789C53.6472 56.2929 53.581 55.8046 53.3791 55.3242C53.1762 54.8287 52.8513 54.3819 52.4042 53.9838C51.9652 53.5928 51.4918 53.3288 50.9842 53.1916C50.4757 53.0394 49.983 53.0301 49.5062 53.1637C49.0285 53.2823 48.612 53.5411 48.2566 53.9402C47.9083 54.3314 47.6953 54.7715 47.6176 55.2606C47.5471 55.7416 47.6092 56.2263 47.8041 56.7147C47.999 57.2031 48.3239 57.6499 48.7789 58.0551C49.226 58.4532 49.7038 58.7283 50.2123 58.8806C50.7199 59.0177 51.2125 59.027 51.6902 58.9085C52.175 58.782 52.5951 58.5191 52.9505 58.12Z" fill="#25291C"/>
<path d="M60.732 51.2345C60.8459 51.3761 60.8931 51.537 60.8736 51.7174C60.8624 51.891 60.786 52.0348 60.6445 52.1488C60.4946 52.2694 60.3336 52.3166 60.1616 52.2904C59.9896 52.2642 59.8466 52.1803 59.7327 52.0387L55.2694 46.4927C55.1554 46.3512 55.1074 46.1977 55.1253 46.0324C55.1448 45.8521 55.2253 45.7049 55.3669 45.591C55.5085 45.4771 55.6653 45.4332 55.8373 45.4594C56.0109 45.4706 56.1547 45.547 56.2687 45.6885L60.732 51.2345ZM54.6934 44.7541C54.4852 44.9216 54.2976 45.004 54.1307 45.0011C53.9638 44.9983 53.8099 44.9094 53.6692 44.7345L53.5284 44.5597C53.3877 44.3848 53.338 44.2121 53.3792 44.0418C53.4204 43.8714 53.541 43.7057 53.7408 43.5449C53.9407 43.3841 54.1241 43.3051 54.291 43.3079C54.458 43.3108 54.6118 43.3996 54.7526 43.5745L54.8933 43.7494C55.034 43.9243 55.0838 44.0969 55.0425 44.2673C55.0096 44.431 54.8932 44.5932 54.6934 44.7541Z" fill="#25291C"/>
<path d="M64.9072 39.0391C65.5391 38.6799 66.1102 38.5274 66.6205 38.5815C67.1308 38.6357 67.5844 38.8389 67.9814 39.1912C68.3876 39.5381 68.744 39.9811 69.0503 40.5201L71.2768 44.4369C71.3666 44.5949 71.3875 44.7614 71.3393 44.9363C71.3005 45.1059 71.2021 45.2356 71.0441 45.3254C70.8862 45.4152 70.7197 45.436 70.5448 45.3879C70.3792 45.3345 70.2515 45.2288 70.1617 45.0708L67.9511 41.1818C67.7503 40.8287 67.515 40.5445 67.245 40.3291C66.979 40.0991 66.673 39.9718 66.3271 39.9471C65.9851 39.9079 65.6004 40.0098 65.1729 40.2528C64.7826 40.4747 64.475 40.7663 64.2501 41.1277C64.02 41.4799 63.8892 41.8555 63.8578 42.2545C63.8211 42.6442 63.9032 43.0156 64.1039 43.3687L66.3145 47.2577C66.4043 47.4157 66.4252 47.5821 66.377 47.757C66.3382 47.9266 66.2398 48.0563 66.0818 48.1461C65.9239 48.2359 65.7574 48.2568 65.5825 48.2087C65.4169 48.1552 65.2892 48.0496 65.1994 47.8916L61.7448 41.8142C61.655 41.6562 61.6321 41.497 61.6762 41.3367C61.7244 41.1618 61.8274 41.0295 61.9854 40.9397C62.1527 40.8446 62.3191 40.8238 62.4847 40.8772C62.645 40.9213 62.7701 41.0223 62.8599 41.1803L63.4225 42.17L63.318 42.6351C63.2271 42.3671 63.1967 42.0647 63.2266 41.728C63.2512 41.382 63.3335 41.0402 63.4735 40.7024C63.6135 40.3646 63.8051 40.0528 64.0484 39.767C64.2864 39.4719 64.5726 39.2292 64.9072 39.0391Z" fill="#25291C"/>
<path d="M76.5845 42.9387C76.3745 43.018 76.1868 43.0203 76.0215 42.9456C75.8662 42.8672 75.7489 42.7229 75.6696 42.5129L75.5564 42.2129C75.4733 41.9929 75.4641 41.8021 75.5288 41.6406C75.6035 41.4753 75.7459 41.353 75.9559 41.2737L76.0759 41.2284C76.2959 41.1454 76.4835 41.1431 76.6388 41.2215C76.7941 41.3 76.9133 41.4492 76.9964 41.6692L77.1096 41.9692C77.1889 42.1792 77.1962 42.365 77.1315 42.5265C77.0668 42.6881 76.9245 42.8104 76.7045 42.8934L76.5845 42.9387Z" fill="#25291C"/>
</svg>
