<svg width="1728" height="809" viewBox="0 0 1728 809" fill="none" xmlns="http://www.w3.org/2000/svg">
<g clip-path="url(#clip0_1294_3100)">
<rect width="1728" height="809" fill="#E3E5DE"/>
<path d="M1716.08 151.575C1716.08 151.575 1616.52 201.48 1550.5 224.907C1434.1 266.208 1244.65 288.121 1244.65 288.121L1190.18 296.024" stroke="url(#paint0_linear_1294_3100)" stroke-width="7.32367" stroke-linecap="round" stroke-dasharray="38.16 38.16"/>
<path d="M1716.84 74.5791C1716.84 74.5791 1575.82 158.308 1509.8 181.736C1298.14 256.84 1188.33 270.824 1188.33 270.824" stroke="url(#paint1_linear_1294_3100)" stroke-width="8" stroke-linecap="round" stroke-dasharray="38.16 38.16"/>
<path d="M1729.55 -25C1729.55 -25 1559.53 111.545 1464.25 149.55C1252.14 234.158 1189.44 234.158 1189.44 234.158" stroke="url(#paint2_linear_1294_3100)" stroke-width="7.32367" stroke-linecap="round" stroke-dasharray="38.16 38.16"/>
<path d="M1194.95 324.623C1192.98 324.675 1191.47 323.044 1191.59 320.979C1191.71 318.914 1193.4 317.199 1195.38 317.147L1194.95 324.623ZM1526.47 293.325L1527.04 296.953L1526.47 293.325ZM1699.08 237.058C1697.19 237.808 1695.19 236.857 1694.63 234.934C1694.07 233.01 1695.15 230.841 1697.05 230.09L1699.08 237.058ZM1666.21 242.098C1668.11 241.369 1670.09 242.344 1670.63 244.277C1671.17 246.209 1670.07 248.366 1668.16 249.096L1666.21 242.098ZM1637.1 260.789C1635.19 261.495 1633.22 260.493 1632.71 258.552C1632.19 256.611 1633.32 254.466 1635.23 253.76L1637.1 260.789ZM1604.15 264.993C1606.07 264.317 1608.02 265.351 1608.5 267.302C1608.99 269.254 1607.83 271.384 1605.91 272.06L1604.15 264.993ZM1574.56 282.766C1572.64 283.4 1570.71 282.32 1570.26 280.355C1569.82 278.389 1571.02 276.282 1572.95 275.648L1574.56 282.766ZM1541.6 285.399C1543.54 284.837 1545.42 285.992 1545.79 287.98C1546.17 289.967 1544.9 292.034 1542.96 292.596L1541.6 285.399ZM1506.3 301.379C1504.33 301.737 1502.59 300.378 1502.41 298.344C1502.23 296.31 1503.69 294.371 1505.66 294.013L1506.3 301.379ZM1464.4 300.061C1466.38 299.821 1468.04 301.29 1468.1 303.341C1468.16 305.393 1466.61 307.25 1464.63 307.489L1464.4 300.061ZM1423.09 311.867C1421.11 312.05 1419.5 310.53 1419.49 308.473C1419.49 306.416 1421.08 304.6 1423.06 304.417L1423.09 311.867ZM1381.64 307.844C1383.62 307.697 1385.2 309.248 1385.18 311.308C1385.15 313.368 1383.53 315.157 1381.55 315.304L1381.64 307.844ZM1340.03 318.109C1338.05 318.231 1336.49 316.658 1336.54 314.596C1336.59 312.535 1338.24 310.765 1340.21 310.643L1340.03 318.109ZM1298.78 312.972C1300.76 312.871 1302.3 314.461 1302.23 316.523C1302.16 318.586 1300.5 320.341 1298.53 320.442L1298.78 312.972ZM1257.07 322.386C1255.1 322.47 1253.56 320.866 1253.65 318.802C1253.74 316.739 1255.41 314.998 1257.39 314.913L1257.07 322.386ZM1215.92 316.506C1217.9 316.439 1219.42 318.058 1219.32 320.122C1219.21 322.186 1217.53 323.914 1215.55 323.981L1215.92 316.506ZM1713.48 227.412C1714.53 230.882 1714.53 230.882 1714.53 230.882C1714.53 230.882 1714.53 230.882 1714.53 230.882C1714.53 230.882 1714.52 230.882 1714.52 230.883C1714.52 230.883 1714.52 230.883 1714.52 230.884C1714.52 230.885 1714.51 230.887 1714.51 230.889C1714.5 230.894 1714.48 230.901 1714.46 230.91C1714.41 230.928 1714.35 230.955 1714.26 230.991C1714.08 231.063 1713.82 231.17 1713.47 231.31C1712.78 231.589 1711.76 232.002 1710.43 232.534C1707.78 233.598 1703.92 235.141 1699.08 237.058L1697.05 230.09C1701.88 228.179 1705.72 226.641 1708.36 225.581C1709.68 225.051 1710.7 224.641 1711.39 224.363C1711.73 224.224 1711.99 224.119 1712.16 224.048C1712.25 224.013 1712.32 223.986 1712.36 223.968C1712.38 223.959 1712.4 223.952 1712.41 223.948C1712.42 223.946 1712.42 223.944 1712.42 223.943C1712.42 223.943 1712.42 223.942 1712.43 223.942C1712.43 223.942 1712.43 223.942 1712.43 223.942C1712.43 223.942 1712.43 223.942 1712.43 223.942C1712.43 223.942 1712.43 223.942 1713.48 227.412ZM1668.16 249.096C1658.65 252.741 1648.14 256.711 1637.1 260.789L1635.23 253.76C1646.23 249.694 1656.71 245.734 1666.21 242.098L1668.16 249.096ZM1605.91 272.06C1595.43 275.755 1584.87 279.378 1574.56 282.766L1572.95 275.648C1583.19 272.279 1593.71 268.674 1604.15 264.993L1605.91 272.06ZM1542.96 292.596C1537.41 294.2 1532.08 295.663 1527.04 296.953L1525.9 289.696C1530.86 288.429 1536.11 286.985 1541.6 285.399L1542.96 292.596ZM1527.04 296.953C1520.94 298.513 1513.97 299.987 1506.3 301.379L1505.66 294.013C1513.21 292.641 1520.01 291.202 1525.9 289.696L1527.04 296.953ZM1464.63 307.489C1451.52 309.077 1437.53 310.534 1423.09 311.867L1423.06 304.417C1437.45 303.089 1451.37 301.639 1464.4 300.061L1464.63 307.489ZM1381.55 315.304C1367.66 316.336 1353.71 317.269 1340.03 318.109L1340.21 310.643C1353.86 309.805 1367.79 308.874 1381.64 307.844L1381.55 315.304ZM1298.53 320.442C1283.69 321.203 1269.69 321.848 1257.07 322.386L1257.39 314.913C1269.99 314.376 1283.96 313.732 1298.78 312.972L1298.53 320.442ZM1215.55 323.981C1209.06 324.202 1203.91 324.363 1200.38 324.468C1198.62 324.521 1197.26 324.559 1196.35 324.585C1195.89 324.598 1195.54 324.607 1195.31 324.614C1195.19 324.617 1195.1 324.619 1195.04 324.621C1195.01 324.622 1194.99 324.622 1194.98 324.623C1194.97 324.623 1194.96 324.623 1194.96 324.623C1194.96 324.623 1194.95 324.623 1194.95 324.623C1194.95 324.623 1194.95 324.623 1194.95 324.623C1194.95 324.623 1194.95 324.623 1194.95 324.623C1194.95 324.623 1194.95 324.623 1195.16 320.885C1195.38 317.147 1195.38 317.147 1195.38 317.147C1195.38 317.147 1195.38 317.147 1195.38 317.147C1195.38 317.147 1195.38 317.147 1195.38 317.147C1195.38 317.147 1195.38 317.147 1195.38 317.146C1195.39 317.146 1195.39 317.146 1195.4 317.146C1195.41 317.146 1195.43 317.145 1195.46 317.144C1195.52 317.143 1195.61 317.14 1195.73 317.137C1195.96 317.131 1196.3 317.121 1196.76 317.109C1197.67 317.083 1199.03 317.044 1200.78 316.992C1204.3 316.887 1209.44 316.727 1215.92 316.506L1215.55 323.981Z" fill="url(#paint3_linear_1294_3100)"/>
<path d="M1712.67 324.967C1712.67 324.967 1633.02 339.579 1559.54 340.158C1333.57 341.938 1193.61 351.144 1193.61 351.144" stroke="url(#paint4_linear_1294_3100)" stroke-width="7.32367" stroke-linecap="round" stroke-dasharray="38.16 38.16"/>
<path d="M1716.91 811.379C1716.91 811.379 1700 717.5 1473.5 600.5C1255.37 487.822 1177.69 501.665 1177.69 501.665" stroke="url(#paint5_linear_1294_3100)" stroke-width="7.32367" stroke-dasharray="38.16 38.16"/>
<path d="M1722.05 416.5L1447.05 393L1189.39 388.918" stroke="url(#paint6_linear_1294_3100)" stroke-width="8" stroke-linecap="round" stroke-dasharray="50.11 50.11"/>
<path d="M1716.6 516.505C1716.6 516.505 1545.13 447.002 1435.94 433.136C1326.76 419.27 1186.78 416.672 1186.78 416.672" stroke="url(#paint7_linear_1294_3100)" stroke-width="8" stroke-linecap="round" stroke-dasharray="50.11 50.11"/>
<path d="M1711.26 687.791C1711.26 687.791 1560.48 588.057 1467.98 545.221C1376.25 502.741 1183.93 476.032 1183.93 476.032" stroke="url(#paint8_linear_1294_3100)" stroke-width="6.55275" stroke-linecap="round" stroke-dasharray="50.88 50.88"/>
<path d="M1704.95 594.058C1704.95 594.058 1568.8 532.11 1473.6 499.545C1365.98 462.734 1183.62 447.701 1183.62 447.701" stroke="url(#paint9_linear_1294_3100)" stroke-width="8" stroke-linecap="round" stroke-dasharray="50.88 50.88"/>
<path d="M11.1342 151.575C11.1342 151.575 110.694 201.48 176.718 224.907C293.116 266.208 482.57 288.121 482.57 288.121L537.036 296.024" stroke="url(#paint10_linear_1294_3100)" stroke-width="7.32367" stroke-linecap="round" stroke-dasharray="38.16 38.16"/>
<path d="M10.3828 74.5791C10.3828 74.5791 151.395 158.308 217.419 181.736C429.083 256.84 538.884 270.824 538.884 270.824" stroke="url(#paint11_linear_1294_3100)" stroke-width="8" stroke-linecap="round" stroke-dasharray="38.16 38.16"/>
<path d="M-2.32812 -25C-2.32812 -25 167.688 111.545 262.968 149.55C475.083 234.158 537.782 234.158 537.782 234.158" stroke="url(#paint12_linear_1294_3100)" stroke-width="7.32367" stroke-linecap="round" stroke-dasharray="38.16 38.16"/>
<path d="M532.267 324.623C534.242 324.675 535.748 323.044 535.63 320.979C535.513 318.914 533.817 317.199 531.842 317.147L532.267 324.623ZM200.75 293.325L200.18 296.953L200.75 293.325ZM28.1364 237.058C30.0337 237.808 32.0268 236.857 32.5881 234.934C33.1494 233.01 32.0664 230.841 30.1692 230.09L28.1364 237.058ZM61.0121 242.098C59.1086 241.369 57.1279 242.344 56.588 244.277C56.0482 246.209 57.1536 248.366 59.057 249.096L61.0121 242.098ZM90.1197 260.789C92.0295 261.495 93.9967 260.493 94.5136 258.552C95.0304 256.611 93.9011 254.466 91.9912 253.76L90.1197 260.789ZM123.07 264.993C121.153 264.317 119.203 265.351 118.715 267.302C118.227 269.254 119.387 271.384 121.304 272.06L123.07 264.993ZM152.656 282.766C154.584 283.4 156.508 282.32 156.954 280.355C157.4 278.389 156.199 276.282 154.272 275.648L152.656 282.766ZM185.622 285.399C183.679 284.837 181.8 285.992 181.424 287.98C181.048 289.967 182.318 292.034 184.261 292.596L185.622 285.399ZM220.921 301.379C222.892 301.737 224.633 300.378 224.81 298.344C224.987 296.31 223.533 294.371 221.563 294.013L220.921 301.379ZM262.814 300.061C260.837 299.821 259.183 301.29 259.12 303.341C259.057 305.393 260.609 307.25 262.587 307.489L262.814 300.061ZM304.128 311.867C306.107 312.05 307.717 310.53 307.725 308.473C307.733 306.416 306.136 304.6 304.157 304.417L304.128 311.867ZM345.576 307.844C343.598 307.697 342.015 309.248 342.041 311.308C342.067 313.368 343.692 315.157 345.671 315.304L345.576 307.844ZM387.188 318.109C389.166 318.231 390.728 316.658 390.678 314.596C390.627 312.535 388.983 310.765 387.005 310.643L387.188 318.109ZM428.44 312.972C426.463 312.871 424.916 314.461 424.986 316.523C425.056 318.586 426.716 320.341 428.693 320.442L428.44 312.972ZM470.146 322.386C472.122 322.47 473.655 320.866 473.569 318.802C473.482 316.739 471.81 314.998 469.833 314.913L470.146 322.386ZM511.295 316.506C509.32 316.439 507.801 318.058 507.904 320.122C508.006 322.186 509.691 323.914 511.667 323.981L511.295 316.506ZM13.7428 227.412C12.6931 230.882 12.6931 230.882 12.6932 230.882C12.6932 230.882 12.6933 230.882 12.6934 230.882C12.6937 230.882 12.694 230.882 12.6943 230.883C12.6951 230.883 12.6962 230.883 12.6977 230.884C12.7007 230.885 12.705 230.887 12.7107 230.889C12.7222 230.894 12.7392 230.901 12.7617 230.91C12.8066 230.928 12.8736 230.955 12.9621 230.991C13.1392 231.063 13.4024 231.17 13.7482 231.31C14.4399 231.589 15.4621 232.002 16.7867 232.534C19.4358 233.598 23.2944 235.141 28.1364 237.058L30.1692 230.09C25.3403 228.179 21.4939 226.641 18.8557 225.581C17.5366 225.051 16.5197 224.641 15.833 224.363C15.4897 224.224 15.229 224.119 15.0544 224.048C14.9671 224.013 14.9013 223.986 14.8575 223.968C14.8356 223.959 14.8192 223.952 14.8083 223.948C14.8029 223.946 14.7989 223.944 14.7962 223.943C14.7949 223.943 14.7939 223.942 14.7933 223.942C14.793 223.942 14.7928 223.942 14.7926 223.942C14.7925 223.942 14.7925 223.942 14.7925 223.942C14.7925 223.942 14.7925 223.942 13.7428 227.412ZM59.057 249.096C68.5733 252.741 79.0834 256.711 90.1197 260.789L91.9912 253.76C80.987 249.694 70.5051 245.734 61.0121 242.098L59.057 249.096ZM121.304 272.06C131.784 275.755 142.35 279.378 152.656 282.766L154.272 275.648C144.025 272.279 133.511 268.674 123.07 264.993L121.304 272.06ZM184.261 292.596C189.804 294.2 195.135 295.663 200.18 296.953L201.32 289.696C196.361 288.429 191.105 286.985 185.622 285.399L184.261 292.596ZM200.18 296.953C206.282 298.513 213.254 299.987 220.921 301.379L221.563 294.013C214.008 292.641 207.21 291.202 201.32 289.696L200.18 296.953ZM262.587 307.489C275.698 309.077 289.685 310.534 304.128 311.867L304.157 304.417C289.765 303.089 275.845 301.639 262.814 300.061L262.587 307.489ZM345.671 315.304C359.561 316.336 373.512 317.269 387.188 318.109L387.005 310.643C373.354 309.805 359.433 308.874 345.576 307.844L345.671 315.304ZM428.693 320.442C443.534 321.203 457.528 321.848 470.146 322.386L469.833 314.913C457.233 314.376 443.258 313.732 428.44 312.972L428.693 320.442ZM511.667 323.981C518.161 324.202 523.309 324.363 526.834 324.468C528.597 324.521 529.954 324.559 530.871 324.585C531.33 324.598 531.678 324.607 531.912 324.614C532.029 324.617 532.117 324.619 532.177 324.621C532.206 324.622 532.229 324.622 532.244 324.623C532.251 324.623 532.257 324.623 532.261 324.623C532.263 324.623 532.264 324.623 532.265 324.623C532.265 324.623 532.266 324.623 532.266 324.623C532.266 324.623 532.266 324.623 532.266 324.623C532.267 324.623 532.267 324.623 532.054 320.885C531.842 317.147 531.842 317.147 531.842 317.147C531.842 317.147 531.842 317.147 531.842 317.147C531.841 317.147 531.841 317.147 531.841 317.147C531.84 317.147 531.838 317.147 531.837 317.146C531.833 317.146 531.828 317.146 531.82 317.146C531.806 317.146 531.784 317.145 531.755 317.144C531.696 317.143 531.609 317.14 531.493 317.137C531.261 317.131 530.915 317.121 530.458 317.109C529.545 317.083 528.192 317.044 526.434 316.992C522.917 316.887 517.779 316.727 511.295 316.506L511.667 323.981Z" fill="url(#paint13_linear_1294_3100)"/>
<path d="M14.5513 324.967C14.5513 324.967 94.202 339.579 167.68 340.158C393.65 341.938 533.613 351.144 533.613 351.144" stroke="url(#paint14_linear_1294_3100)" stroke-width="7.32367" stroke-linecap="round" stroke-dasharray="38.16 38.16"/>
<path d="M10.3118 811.379C10.3118 811.379 27.2188 717.5 253.719 600.5C471.853 487.822 549.524 501.665 549.524 501.665" stroke="url(#paint15_linear_1294_3100)" stroke-width="7.32367" stroke-dasharray="38.16 38.16"/>
<path d="M5.16406 416.5L280.167 393L537.828 388.918" stroke="url(#paint16_linear_1294_3100)" stroke-width="8" stroke-linecap="round" stroke-dasharray="50.11 50.11"/>
<path d="M10.6138 516.505C10.6138 516.505 182.092 447.002 291.275 433.136C400.457 419.27 540.436 416.672 540.436 416.672" stroke="url(#paint17_linear_1294_3100)" stroke-width="8" stroke-linecap="round" stroke-dasharray="50.11 50.11"/>
<path d="M15.9571 687.791C15.9571 687.791 166.735 588.057 259.236 545.221C350.969 502.741 543.286 476.032 543.286 476.032" stroke="url(#paint18_linear_1294_3100)" stroke-width="6.55275" stroke-linecap="round" stroke-dasharray="50.88 50.88"/>
<path d="M22.2734 594.058C22.2734 594.058 158.415 532.11 253.619 499.545C361.235 462.734 543.595 447.701 543.595 447.701" stroke="url(#paint19_linear_1294_3100)" stroke-width="8" stroke-linecap="round" stroke-dasharray="50.88 50.88"/>
</g>
<defs>
<linearGradient id="paint0_linear_1294_3100" x1="1717.71" y1="160.142" x2="1183.66" y2="261.71" gradientUnits="userSpaceOnUse">
<stop stop-color="#A4A694"/>
<stop offset="0.673432" stop-color="#4B4C43" stop-opacity="0.112708"/>
<stop offset="1" stop-color="#3F4039" stop-opacity="0"/>
</linearGradient>
<linearGradient id="paint1_linear_1294_3100" x1="1677.72" y1="95.441" x2="1187.13" y2="212.248" gradientUnits="userSpaceOnUse">
<stop stop-color="#A8A991" stop-opacity="0.8"/>
<stop offset="0.681874" stop-color="#CDCEC0" stop-opacity="0.562941"/>
<stop offset="1" stop-color="#CCCEBF" stop-opacity="0.2"/>
</linearGradient>
<linearGradient id="paint2_linear_1294_3100" x1="1662.45" y1="34.4914" x2="1172.42" y2="174.947" gradientUnits="userSpaceOnUse">
<stop stop-color="#C8CAB0" stop-opacity="0.92"/>
<stop offset="1" stop-color="#CCCEBF" stop-opacity="0.3"/>
</linearGradient>
<linearGradient id="paint3_linear_1294_3100" x1="1709.41" y1="206.008" x2="1313.18" y2="278.37" gradientUnits="userSpaceOnUse">
<stop stop-color="#A1A587"/>
<stop offset="0.50291" stop-color="#7A7E67" stop-opacity="0.642752"/>
<stop offset="1" stop-color="#3D3F33" stop-opacity="0.07"/>
</linearGradient>
<linearGradient id="paint4_linear_1294_3100" x1="1701.44" y1="265.948" x2="1195.7" y2="362.132" gradientUnits="userSpaceOnUse">
<stop stop-color="#A1A587"/>
<stop offset="1" stop-color="#3D3F34" stop-opacity="0"/>
</linearGradient>
<linearGradient id="paint5_linear_1294_3100" x1="1159.13" y1="480.079" x2="1663.15" y2="638.736" gradientUnits="userSpaceOnUse">
<stop stop-color="#CDCEC0" stop-opacity="0.2"/>
<stop offset="1" stop-color="#CCCEBF"/>
</linearGradient>
<linearGradient id="paint6_linear_1294_3100" x1="1710.28" y1="405.135" x2="1189.34" y2="391.031" gradientUnits="userSpaceOnUse">
<stop stop-color="#A1A587"/>
<stop offset="1" stop-color="#3D3F34" stop-opacity="0"/>
</linearGradient>
<linearGradient id="paint7_linear_1294_3100" x1="1707.84" y1="516.313" x2="1247.4" y2="343.45" gradientUnits="userSpaceOnUse">
<stop stop-color="#A1A587"/>
<stop offset="1" stop-color="#CCCEBF"/>
</linearGradient>
<linearGradient id="paint8_linear_1294_3100" x1="1694.55" y1="677.5" x2="1248.94" y2="405.664" gradientUnits="userSpaceOnUse">
<stop stop-color="#969783" stop-opacity="0.8"/>
<stop offset="0.484605" stop-color="#CDCEC0" stop-opacity="0.504788"/>
<stop offset="1" stop-color="#B3B9A5" stop-opacity="0.2"/>
</linearGradient>
<linearGradient id="paint9_linear_1294_3100" x1="1438.37" y1="455.732" x2="1378.12" y2="571.844" gradientUnits="userSpaceOnUse">
<stop stop-color="#C0C1B0"/>
<stop offset="1" stop-color="#CCCEBF"/>
</linearGradient>
<linearGradient id="paint10_linear_1294_3100" x1="9.50489" y1="160.142" x2="543.562" y2="261.71" gradientUnits="userSpaceOnUse">
<stop stop-color="#A4A694"/>
<stop offset="0.673432" stop-color="#4B4C43" stop-opacity="0.112708"/>
<stop offset="1" stop-color="#3F4039" stop-opacity="0"/>
</linearGradient>
<linearGradient id="paint11_linear_1294_3100" x1="49.494" y1="95.441" x2="540.085" y2="212.248" gradientUnits="userSpaceOnUse">
<stop stop-color="#A8A991" stop-opacity="0.8"/>
<stop offset="0.681874" stop-color="#CDCEC0" stop-opacity="0.562941"/>
<stop offset="1" stop-color="#CCCEBF" stop-opacity="0.2"/>
</linearGradient>
<linearGradient id="paint12_linear_1294_3100" x1="64.768" y1="34.4914" x2="554.794" y2="174.947" gradientUnits="userSpaceOnUse">
<stop stop-color="#C8CAB0" stop-opacity="0.92"/>
<stop offset="1" stop-color="#CCCEBF" stop-opacity="0.3"/>
</linearGradient>
<linearGradient id="paint13_linear_1294_3100" x1="17.8134" y1="206.008" x2="414.036" y2="278.37" gradientUnits="userSpaceOnUse">
<stop stop-color="#A1A587"/>
<stop offset="0.50291" stop-color="#7A7E67" stop-opacity="0.642752"/>
<stop offset="1" stop-color="#3D3F33" stop-opacity="0.07"/>
</linearGradient>
<linearGradient id="paint14_linear_1294_3100" x1="25.7757" y1="265.948" x2="531.524" y2="362.132" gradientUnits="userSpaceOnUse">
<stop stop-color="#A1A587"/>
<stop offset="1" stop-color="#3D3F34" stop-opacity="0"/>
</linearGradient>
<linearGradient id="paint15_linear_1294_3100" x1="568.084" y1="480.079" x2="64.0674" y2="638.736" gradientUnits="userSpaceOnUse">
<stop stop-color="#CDCEC0" stop-opacity="0.2"/>
<stop offset="1" stop-color="#CCCEBF"/>
</linearGradient>
<linearGradient id="paint16_linear_1294_3100" x1="16.9407" y1="405.135" x2="537.882" y2="391.031" gradientUnits="userSpaceOnUse">
<stop stop-color="#A1A587"/>
<stop offset="1" stop-color="#3D3F34" stop-opacity="0"/>
</linearGradient>
<linearGradient id="paint17_linear_1294_3100" x1="19.3831" y1="516.313" x2="479.819" y2="343.45" gradientUnits="userSpaceOnUse">
<stop stop-color="#A1A587"/>
<stop offset="1" stop-color="#CCCEBF"/>
</linearGradient>
<linearGradient id="paint18_linear_1294_3100" x1="32.664" y1="677.5" x2="478.283" y2="405.664" gradientUnits="userSpaceOnUse">
<stop stop-color="#969783" stop-opacity="0.8"/>
<stop offset="0.484605" stop-color="#CDCEC0" stop-opacity="0.504788"/>
<stop offset="1" stop-color="#B3B9A5" stop-opacity="0.2"/>
</linearGradient>
<linearGradient id="paint19_linear_1294_3100" x1="288.846" y1="455.732" x2="349.097" y2="571.844" gradientUnits="userSpaceOnUse">
<stop stop-color="#C0C1B0"/>
<stop offset="1" stop-color="#CCCEBF"/>
</linearGradient>
<clipPath id="clip0_1294_3100">
<rect width="1728" height="809" fill="white"/>
</clipPath>
</defs>
</svg>
