<svg width="40" height="40" viewBox="0 0 40 40" fill="none" xmlns="http://www.w3.org/2000/svg">
<circle cx="20" cy="20" r="20" fill="#DEB556"/>
<g clip-path="url(#clip0_532_397)">
<path d="M8.76562 24.4873C8.76562 26.2775 9.47678 27.9944 10.7427 29.2603C12.0085 30.5261 13.7254 31.2373 15.5156 31.2373C17.3058 31.2373 19.0227 30.5261 20.2886 29.2603C21.5545 27.9944 22.2656 26.2775 22.2656 24.4873C22.2656 22.6971 21.5545 20.9802 20.2886 19.7143C19.0227 18.4485 17.3058 17.7373 15.5156 17.7373C13.7254 17.7373 12.0085 18.4485 10.7427 19.7143C9.47678 20.9802 8.76563 22.6971 8.76562 24.4873Z" stroke="black" stroke-width="1.5" stroke-linecap="round" stroke-linejoin="round"/>
<path d="M9.15039 26.7373H21.8814" stroke="black" stroke-width="1.5" stroke-linecap="round" stroke-linejoin="round"/>
<path d="M9.15039 22.2373H21.8814" stroke="black" stroke-width="1.5" stroke-linecap="round" stroke-linejoin="round"/>
<path d="M14.0586 17.8936C12.8487 22.2651 13.0269 26.9047 14.5686 31.1706" stroke="black" stroke-width="1.5" stroke-linecap="round" stroke-linejoin="round"/>
<path d="M16.9718 17.8936C17.5001 19.7962 17.7672 21.7619 17.7658 23.7366C17.7695 26.2714 17.3296 28.7874 16.4658 31.1706" stroke="black" stroke-width="1.5" stroke-linecap="round" stroke-linejoin="round"/>
<path d="M20.1709 13.9873C21.7064 14.0205 23.1699 14.6452 24.2559 15.7313C25.342 16.8173 25.9667 18.2808 25.9999 19.8163" stroke="black" stroke-width="1.5" stroke-linecap="round" stroke-linejoin="round"/>
<path d="M21.9199 8.75C24.3545 8.8521 26.6625 9.8622 28.3894 11.5813C30.1163 13.3004 31.1368 15.6039 31.2499 18.038" stroke="black" stroke-width="1.5" stroke-linecap="round" stroke-linejoin="round"/>
</g>
<defs>
<clipPath id="clip0_532_397">
<rect width="24" height="24" fill="white" transform="translate(8 8)"/>
</clipPath>
</defs>
</svg>
