<svg width="83" height="82" viewBox="0 0 83 82" fill="none" xmlns="http://www.w3.org/2000/svg">
<rect width="83" height="82" rx="41" fill="black"/>
<path d="M39.3548 59.7925C36.5089 61.0935 33.3271 61.8227 29.9697 61.8227C17.8339 61.8227 8 52.3189 8 40.5961V40.5792C10.0861 40.9862 12.0018 41.3471 13.9099 41.7323C17.7713 42.5172 21.585 43.4596 25.2834 44.8187C31.4691 47.0886 35.857 51.1076 38.3268 57.0768C38.6979 57.9756 39.0389 58.8817 39.3548 59.795V59.7925Z" fill="#EAB308"/>
<path d="M11.9419 39.8245C10.6831 40.0744 9.42431 40.305 8 40.5792C8.01003 28.8436 17.8423 19.3357 29.9714 19.3357C33.3316 19.3357 36.5112 20.0661 39.3548 21.3693C39.084 22.158 38.7931 22.9418 38.4772 23.7208C36.2003 29.3386 32.3286 33.4422 26.5335 35.8277C21.8393 37.7593 16.9069 38.8416 11.9419 39.8269V39.8245Z" fill="#EAB308"/>
<path d="M77.7911 40.648C72.9172 41.6043 68.0685 42.5027 63.363 43.9662C59.5498 45.1471 55.9377 46.6903 52.9415 49.3492C50.1438 51.8318 48.3843 54.935 47.0621 58.3063C45.6118 61.9989 44.6993 65.8363 43.8623 69.6906C43.5355 71.1903 43.2515 72.6972 42.9097 74.3757C42.6231 72.9822 42.3768 71.7482 42.1153 70.5213C41.3487 66.9109 40.5091 63.3223 39.2926 59.8254C46.7505 56.4347 51.9059 49.1391 51.9059 40.689C51.9059 32.239 46.7479 24.9433 39.29 21.5527C40.3784 18.435 41.1602 15.2448 41.864 12.028C42.2184 10.4124 42.5351 8.7895 42.9021 7C43.3244 9.02617 43.6889 10.8881 44.1036 12.738C45.0161 16.8169 46.0768 20.8499 47.766 24.7212C50.2318 30.3698 54.5025 34.1541 60.3919 36.3638C64.4137 37.8708 68.5863 38.8464 72.7991 39.6844C74.4631 40.0153 76.1271 40.3244 77.7886 40.648H77.7911Z" fill="#F59E0B"/>
<path d="M77.7911 40.648C72.9172 41.6043 68.0685 42.5027 63.363 43.9662C59.5498 45.1471 55.9377 46.6903 52.9415 49.3492C50.1438 51.8318 48.3843 54.935 47.0621 58.3063C45.6118 61.9989 44.6993 65.8363 43.8623 69.6906C43.5355 71.1903 43.2515 72.6972 42.9097 74.3757C42.6231 72.9822 42.3768 71.7482 42.1153 70.5213C41.3487 66.9109 40.5091 63.3223 39.2926 59.8254C46.7505 56.4347 51.9059 49.1391 51.9059 40.689C51.9059 32.239 46.7479 24.9433 39.29 21.5527C40.3784 18.435 41.1602 15.2448 41.864 12.028C42.2184 10.4124 42.5351 8.7895 42.9021 7C43.3244 9.02617 43.6889 10.8881 44.1036 12.738C45.0161 16.8169 46.0768 20.8499 47.766 24.7212C50.2318 30.3698 54.5025 34.1541 60.3919 36.3638C64.4137 37.8708 68.5863 38.8464 72.7991 39.6844C74.4631 40.0153 76.1271 40.3244 77.7886 40.648H77.7911Z" fill="#EAB308"/>
</svg>
