<svg width="579" height="809" viewBox="0 0 579 809" fill="none" xmlns="http://www.w3.org/2000/svg">
<path d="M33.1342 158.575C33.1342 158.575 132.694 208.48 198.718 231.907C315.116 273.208 504.57 295.121 504.57 295.121L559.036 303.024" stroke="url(#paint0_linear_1317_3044)" stroke-width="7.32367" stroke-linecap="round" stroke-dasharray="38.16 38.16"/>
<path d="M32.3828 81.5781C32.3828 81.5781 173.395 165.307 239.419 188.735C451.083 263.839 560.884 277.823 560.884 277.823" stroke="url(#paint1_linear_1317_3044)" stroke-width="8" stroke-linecap="round" stroke-dasharray="38.16 38.16"/>
<path d="M19.6719 -18C19.6719 -18 189.688 118.545 284.968 156.55C497.083 241.158 559.782 241.158 559.782 241.158" stroke="url(#paint2_linear_1317_3044)" stroke-width="7.32367" stroke-linecap="round" stroke-dasharray="38.16 38.16"/>
<path d="M554.267 331.624C556.242 331.676 557.748 330.044 557.63 327.98C557.513 325.915 555.817 324.199 553.842 324.148L554.267 331.624ZM222.75 300.326L222.18 303.954L222.75 300.326ZM50.1364 244.058C52.0337 244.809 54.0268 243.858 54.5881 241.935C55.1494 240.011 54.0664 237.842 52.1692 237.091L50.1364 244.058ZM83.0121 249.099C81.1086 248.37 79.1279 249.345 78.588 251.278C78.0482 253.21 79.1536 255.367 81.057 256.097L83.0121 249.099ZM112.12 267.79C114.03 268.496 115.997 267.494 116.514 265.553C117.03 263.612 115.901 261.467 113.991 260.761L112.12 267.79ZM145.07 271.994C143.153 271.318 141.203 272.352 140.715 274.303C140.227 276.255 141.387 278.385 143.304 279.061L145.07 271.994ZM174.656 289.767C176.584 290.401 178.508 289.321 178.954 287.356C179.4 285.39 178.199 283.283 176.272 282.649L174.656 289.767ZM207.622 292.4C205.679 291.838 203.8 292.993 203.424 294.981C203.048 296.968 204.318 299.035 206.261 299.597L207.622 292.4ZM242.921 308.38C244.892 308.738 246.633 307.379 246.81 305.345C246.987 303.311 245.533 301.372 243.563 301.014L242.921 308.38ZM284.814 307.062C282.837 306.822 281.183 308.291 281.12 310.342C281.057 312.394 282.609 314.251 284.587 314.49L284.814 307.062ZM326.128 318.868C328.107 319.051 329.717 317.531 329.725 315.474C329.733 313.417 328.136 311.601 326.157 311.418L326.128 318.868ZM367.576 314.845C365.598 314.698 364.015 316.249 364.041 318.309C364.067 320.369 365.692 322.158 367.671 322.305L367.576 314.845ZM409.188 325.11C411.166 325.232 412.728 323.659 412.678 321.597C412.627 319.536 410.983 317.766 409.005 317.644L409.188 325.11ZM450.44 319.973C448.463 319.872 446.916 321.462 446.986 323.524C447.056 325.587 448.716 327.342 450.693 327.443L450.44 319.973ZM492.146 329.387C494.122 329.471 495.655 327.867 495.569 325.803C495.482 323.74 493.81 321.999 491.833 321.914L492.146 329.387ZM533.295 323.507C531.32 323.44 529.801 325.059 529.904 327.123C530.006 329.187 531.691 330.915 533.667 330.982L533.295 323.507ZM35.7428 234.413C34.6931 237.883 34.6931 237.883 34.6932 237.883C34.6932 237.883 34.6933 237.883 34.6934 237.883C34.6937 237.883 34.694 237.883 34.6943 237.884C34.6951 237.884 34.6962 237.884 34.6977 237.885C34.7007 237.886 34.705 237.888 34.7107 237.89C34.7222 237.895 34.7392 237.902 34.7617 237.911C34.8066 237.929 34.8736 237.956 34.9621 237.992C35.1392 238.064 35.4024 238.171 35.7482 238.311C36.4399 238.59 37.4621 239.003 38.7867 239.535C41.4358 240.599 45.2944 242.142 50.1364 244.058L52.1692 237.091C47.3403 235.18 43.4939 233.642 40.8557 232.582C39.5366 232.052 38.5197 231.642 37.833 231.364C37.4897 231.225 37.229 231.12 37.0544 231.049C36.9671 231.014 36.9013 230.987 36.8575 230.969C36.8356 230.96 36.8192 230.953 36.8083 230.949C36.8029 230.947 36.7989 230.945 36.7962 230.944C36.7949 230.944 36.7939 230.943 36.7933 230.943C36.793 230.943 36.7928 230.943 36.7926 230.943C36.7925 230.943 36.7925 230.943 36.7925 230.943C36.7925 230.943 36.7925 230.943 35.7428 234.413ZM81.057 256.097C90.5733 259.742 101.083 263.712 112.12 267.79L113.991 260.761C102.987 256.695 92.5051 252.735 83.0121 249.099L81.057 256.097ZM143.304 279.061C153.784 282.756 164.35 286.379 174.656 289.767L176.272 282.649C166.025 279.28 155.511 275.675 145.07 271.994L143.304 279.061ZM206.261 299.597C211.804 301.2 217.135 302.664 222.18 303.954L223.32 296.697C218.361 295.43 213.105 293.986 207.622 292.4L206.261 299.597ZM222.18 303.954C228.282 305.514 235.254 306.987 242.921 308.38L243.563 301.014C236.008 299.642 229.21 298.203 223.32 296.697L222.18 303.954ZM284.587 314.49C297.698 316.078 311.685 317.535 326.128 318.868L326.157 311.418C311.765 310.09 297.845 308.64 284.814 307.062L284.587 314.49ZM367.671 322.305C381.561 323.337 395.512 324.27 409.188 325.11L409.005 317.644C395.354 316.806 381.433 315.875 367.576 314.845L367.671 322.305ZM450.693 327.443C465.534 328.204 479.528 328.849 492.146 329.387L491.833 321.914C479.233 321.377 465.258 320.733 450.44 319.973L450.693 327.443ZM533.667 330.982C540.161 331.203 545.309 331.364 548.834 331.469C550.597 331.521 551.954 331.56 552.871 331.586C553.33 331.599 553.678 331.608 553.912 331.615C554.029 331.618 554.117 331.62 554.177 331.622C554.206 331.623 554.229 331.623 554.244 331.624C554.251 331.624 554.257 331.624 554.261 331.624C554.263 331.624 554.264 331.624 554.265 331.624C554.266 331.624 554.266 331.624 554.266 331.624C554.266 331.624 554.266 331.624 554.266 331.624C554.266 331.624 554.267 331.624 554.054 327.886C553.842 324.148 553.842 324.148 553.842 324.148C553.842 324.148 553.842 324.148 553.842 324.148C553.841 324.148 553.841 324.148 553.841 324.148C553.84 324.148 553.838 324.147 553.837 324.147C553.833 324.147 553.828 324.147 553.82 324.147C553.806 324.147 553.784 324.146 553.755 324.145C553.696 324.144 553.609 324.141 553.493 324.138C553.261 324.132 552.914 324.122 552.458 324.11C551.545 324.084 550.192 324.045 548.434 323.993C544.917 323.888 539.779 323.728 533.295 323.507L533.667 330.982Z" fill="url(#paint3_linear_1317_3044)"/>
<path d="M36.5513 331.968C36.5513 331.968 116.202 346.58 189.68 347.159C415.65 348.939 555.613 358.145 555.613 358.145" stroke="url(#paint4_linear_1317_3044)" stroke-width="7.32367" stroke-linecap="round" stroke-dasharray="38.16 38.16"/>
<path d="M32.3118 818.379C32.3118 818.379 49.2188 724.5 275.719 607.5C493.853 494.822 571.524 508.665 571.524 508.665" stroke="url(#paint5_linear_1317_3044)" stroke-width="7.32367" stroke-dasharray="38.16 38.16"/>
<path d="M27.1641 423.501L302.167 400.001L559.828 395.919" stroke="url(#paint6_linear_1317_3044)" stroke-width="8" stroke-linecap="round" stroke-dasharray="50.11 50.11"/>
<path d="M32.6138 523.505C32.6138 523.505 204.092 454.002 313.275 440.136C422.457 426.27 562.436 423.672 562.436 423.672" stroke="url(#paint7_linear_1317_3044)" stroke-width="8" stroke-linecap="round" stroke-dasharray="50.11 50.11"/>
<path d="M37.9571 694.791C37.9571 694.791 188.735 595.057 281.236 552.221C372.969 509.741 565.286 483.032 565.286 483.032" stroke="url(#paint8_linear_1317_3044)" stroke-width="6.55275" stroke-linecap="round" stroke-dasharray="50.88 50.88"/>
<path d="M44.2734 601.059C44.2734 601.059 180.415 539.111 275.619 506.546C383.235 469.735 565.595 454.702 565.595 454.702" stroke="url(#paint9_linear_1317_3044)" stroke-width="8" stroke-linecap="round" stroke-dasharray="50.88 50.88"/>
<defs>
<linearGradient id="paint0_linear_1317_3044" x1="31.5049" y1="167.142" x2="565.562" y2="268.71" gradientUnits="userSpaceOnUse">
<stop stop-color="#A4A694"/>
<stop offset="0.673432" stop-color="#4B4C43" stop-opacity="0.112708"/>
<stop offset="1" stop-color="#3F4039" stop-opacity="0"/>
</linearGradient>
<linearGradient id="paint1_linear_1317_3044" x1="71.494" y1="102.44" x2="562.085" y2="219.247" gradientUnits="userSpaceOnUse">
<stop stop-color="#A8A991" stop-opacity="0.8"/>
<stop offset="0.681874" stop-color="#CDCEC0" stop-opacity="0.562941"/>
<stop offset="1" stop-color="#CCCEBF" stop-opacity="0.2"/>
</linearGradient>
<linearGradient id="paint2_linear_1317_3044" x1="86.768" y1="41.4914" x2="576.794" y2="181.947" gradientUnits="userSpaceOnUse">
<stop stop-color="#C8CAB0" stop-opacity="0.92"/>
<stop offset="1" stop-color="#CCCEBF" stop-opacity="0.3"/>
</linearGradient>
<linearGradient id="paint3_linear_1317_3044" x1="39.8134" y1="213.009" x2="436.036" y2="285.371" gradientUnits="userSpaceOnUse">
<stop stop-color="#A1A587"/>
<stop offset="0.50291" stop-color="#7A7E67" stop-opacity="0.642752"/>
<stop offset="1" stop-color="#3D3F33" stop-opacity="0.07"/>
</linearGradient>
<linearGradient id="paint4_linear_1317_3044" x1="47.7757" y1="272.949" x2="553.524" y2="369.133" gradientUnits="userSpaceOnUse">
<stop stop-color="#A1A587"/>
<stop offset="1" stop-color="#3D3F34" stop-opacity="0"/>
</linearGradient>
<linearGradient id="paint5_linear_1317_3044" x1="590.084" y1="487.079" x2="86.0674" y2="645.736" gradientUnits="userSpaceOnUse">
<stop stop-color="#CDCEC0" stop-opacity="0.2"/>
<stop offset="1" stop-color="#CCCEBF"/>
</linearGradient>
<linearGradient id="paint6_linear_1317_3044" x1="38.9407" y1="412.136" x2="559.882" y2="398.032" gradientUnits="userSpaceOnUse">
<stop stop-color="#A1A587"/>
<stop offset="1" stop-color="#3D3F34" stop-opacity="0"/>
</linearGradient>
<linearGradient id="paint7_linear_1317_3044" x1="41.3831" y1="523.313" x2="501.819" y2="350.45" gradientUnits="userSpaceOnUse">
<stop stop-color="#A1A587"/>
<stop offset="1" stop-color="#CCCEBF"/>
</linearGradient>
<linearGradient id="paint8_linear_1317_3044" x1="54.664" y1="684.5" x2="500.283" y2="412.664" gradientUnits="userSpaceOnUse">
<stop stop-color="#969783" stop-opacity="0.8"/>
<stop offset="0.484605" stop-color="#CDCEC0" stop-opacity="0.504788"/>
<stop offset="1" stop-color="#B3B9A5" stop-opacity="0.2"/>
</linearGradient>
<linearGradient id="paint9_linear_1317_3044" x1="310.846" y1="462.733" x2="371.097" y2="578.845" gradientUnits="userSpaceOnUse">
<stop stop-color="#C0C1B0"/>
<stop offset="1" stop-color="#CCCEBF"/>
</linearGradient>
</defs>
</svg>
