<svg width="551" height="809" viewBox="0 0 551 809" fill="none" xmlns="http://www.w3.org/2000/svg">
<path d="M545.085 151.575C545.085 151.575 445.524 201.48 379.5 224.907C263.102 266.208 73.6491 288.121 73.6491 288.121L19.1825 296.024" stroke="url(#paint0_linear_1317_3033)" stroke-width="7.32367" stroke-linecap="round" stroke-dasharray="38.16 38.16"/>
<path d="M545.836 74.5781C545.836 74.5781 404.824 158.307 338.8 181.735C127.135 256.839 17.3346 270.823 17.3346 270.823" stroke="url(#paint1_linear_1317_3033)" stroke-width="8" stroke-linecap="round" stroke-dasharray="38.16 38.16"/>
<path d="M558.547 -25C558.547 -25 388.53 111.545 293.251 149.55C81.1358 234.158 18.437 234.158 18.437 234.158" stroke="url(#paint2_linear_1317_3033)" stroke-width="7.32367" stroke-linecap="round" stroke-dasharray="38.16 38.16"/>
<path d="M23.9522 324.624C21.9771 324.676 20.4711 323.044 20.5883 320.98C20.7056 318.915 22.4019 317.199 24.3769 317.148L23.9522 324.624ZM355.469 293.326L356.039 296.954L355.469 293.326ZM528.082 237.058C526.185 237.809 524.192 236.858 523.631 234.935C523.069 233.011 524.152 230.842 526.05 230.091L528.082 237.058ZM495.207 242.099C497.11 241.37 499.091 242.345 499.631 244.278C500.171 246.21 499.065 248.367 497.162 249.097L495.207 242.099ZM466.099 260.79C464.189 261.496 462.222 260.494 461.705 258.553C461.188 256.612 462.318 254.467 464.228 253.761L466.099 260.79ZM433.149 264.994C435.066 264.318 437.016 265.352 437.504 267.303C437.991 269.255 436.832 271.385 434.915 272.061L433.149 264.994ZM403.563 282.767C401.635 283.401 399.711 282.321 399.265 280.356C398.818 278.39 400.019 276.283 401.947 275.649L403.563 282.767ZM370.597 285.4C372.539 284.838 374.419 285.993 374.795 287.981C375.171 289.968 373.901 292.035 371.958 292.597L370.597 285.4ZM335.298 301.38C333.327 301.738 331.586 300.379 331.409 298.345C331.232 296.311 332.685 294.372 334.656 294.014L335.298 301.38ZM293.404 300.062C295.382 299.822 297.036 301.291 297.099 303.342C297.162 305.394 295.61 307.251 293.632 307.49L293.404 300.062ZM252.091 311.868C250.112 312.051 248.502 310.531 248.494 308.474C248.485 306.417 250.083 304.601 252.061 304.418L252.091 311.868ZM210.643 307.845C212.621 307.698 214.204 309.249 214.177 311.309C214.151 313.369 212.526 315.158 210.548 315.305L210.643 307.845ZM169.031 318.11C167.053 318.232 165.49 316.659 165.541 314.597C165.592 312.536 167.236 310.766 169.214 310.644L169.031 318.11ZM127.779 312.973C129.756 312.872 131.302 314.462 131.232 316.524C131.163 318.587 129.503 320.342 127.526 320.443L127.779 312.973ZM86.073 322.387C84.0964 322.471 82.5639 320.867 82.6502 318.803C82.7365 316.74 84.4089 314.999 86.3856 314.914L86.073 322.387ZM44.9233 316.507C46.8992 316.44 48.4177 318.059 48.3151 320.123C48.2124 322.187 46.5275 323.915 44.5516 323.982L44.9233 316.507ZM542.476 227.413C543.526 230.883 543.526 230.883 543.526 230.883C543.526 230.883 543.525 230.883 543.525 230.883C543.525 230.883 543.525 230.883 543.524 230.884C543.524 230.884 543.523 230.884 543.521 230.885C543.518 230.886 543.514 230.888 543.508 230.89C543.497 230.895 543.48 230.902 543.457 230.911C543.412 230.929 543.345 230.956 543.257 230.992C543.08 231.064 542.816 231.171 542.471 231.311C541.779 231.59 540.757 232.003 539.432 232.535C536.783 233.599 532.924 235.142 528.082 237.058L526.05 230.091C530.878 228.18 534.725 226.642 537.363 225.582C538.682 225.052 539.699 224.642 540.386 224.364C540.729 224.225 540.99 224.12 541.164 224.049C541.252 224.014 541.317 223.987 541.361 223.969C541.383 223.96 541.4 223.953 541.41 223.949C541.416 223.947 541.42 223.945 541.423 223.944C541.424 223.944 541.425 223.943 541.425 223.943C541.426 223.943 541.426 223.943 541.426 223.943C541.426 223.943 541.426 223.943 541.426 223.943C541.426 223.943 541.426 223.943 542.476 227.413ZM497.162 249.097C487.645 252.742 477.135 256.712 466.099 260.79L464.228 253.761C475.232 249.695 485.714 245.735 495.207 242.099L497.162 249.097ZM434.915 272.061C424.434 275.756 413.869 279.379 403.563 282.767L401.947 275.649C412.193 272.28 422.708 268.675 433.149 264.994L434.915 272.061ZM371.958 292.597C366.415 294.2 361.084 295.664 356.039 296.954L354.899 289.697C359.858 288.43 365.113 286.986 370.597 285.4L371.958 292.597ZM356.039 296.954C349.937 298.514 342.965 299.987 335.298 301.38L334.656 294.014C342.211 292.642 349.008 291.203 354.899 289.697L356.039 296.954ZM293.632 307.49C280.521 309.078 266.534 310.535 252.091 311.868L252.061 304.418C266.454 303.09 280.373 301.64 293.404 300.062L293.632 307.49ZM210.548 315.305C196.658 316.337 182.707 317.27 169.031 318.11L169.214 310.644C182.865 309.806 196.786 308.875 210.643 307.845L210.548 315.305ZM127.526 320.443C112.685 321.204 98.6906 321.849 86.073 322.387L86.3856 314.914C98.986 314.377 112.96 313.733 127.779 312.973L127.526 320.443ZM44.5516 323.982C38.058 324.203 32.91 324.364 29.3845 324.469C27.6218 324.521 26.2646 324.56 25.3477 324.586C24.8892 324.599 24.5408 324.608 24.3068 324.615C24.1898 324.618 24.1014 324.62 24.0421 324.622C24.0124 324.623 23.9901 324.623 23.9751 324.624C23.9676 324.624 23.9619 324.624 23.9581 324.624C23.9562 324.624 23.9547 324.624 23.9537 324.624C23.9532 324.624 23.9529 324.624 23.9526 324.624C23.9525 324.624 23.9524 324.624 23.9523 324.624C23.9523 324.624 23.9522 324.624 24.1645 320.886C24.3769 317.148 24.3769 317.148 24.377 317.148C24.377 317.148 24.3771 317.148 24.3772 317.148C24.3774 317.148 24.3777 317.148 24.3781 317.148C24.379 317.148 24.3803 317.147 24.3821 317.147C24.3857 317.147 24.3911 317.147 24.3984 317.147C24.4129 317.147 24.4348 317.146 24.464 317.145C24.5223 317.144 24.6097 317.141 24.7258 317.138C24.9579 317.132 25.3043 317.122 25.7607 317.11C26.6735 317.084 28.0265 317.045 29.7848 316.993C33.3015 316.888 38.44 316.728 44.9233 316.507L44.5516 323.982Z" fill="url(#paint3_linear_1317_3033)"/>
<path d="M541.667 324.968C541.667 324.968 462.017 339.58 388.538 340.159C162.569 341.939 22.6054 351.145 22.6054 351.145" stroke="url(#paint4_linear_1317_3033)" stroke-width="7.32367" stroke-linecap="round" stroke-dasharray="38.16 38.16"/>
<path d="M545.907 811.379C545.907 811.379 529 717.5 302.5 600.5C84.366 487.822 6.69469 501.665 6.69469 501.665" stroke="url(#paint5_linear_1317_3033)" stroke-width="7.32367" stroke-dasharray="38.16 38.16"/>
<path d="M551.055 416.501L276.052 393.001L18.3911 388.919" stroke="url(#paint6_linear_1317_3033)" stroke-width="8" stroke-linecap="round" stroke-dasharray="50.11 50.11"/>
<path d="M545.605 516.505C545.605 516.505 374.127 447.002 264.943 433.136C155.762 419.27 15.783 416.672 15.783 416.672" stroke="url(#paint7_linear_1317_3033)" stroke-width="8" stroke-linecap="round" stroke-dasharray="50.11 50.11"/>
<path d="M540.262 687.791C540.262 687.791 389.484 588.057 296.982 545.221C205.25 502.741 12.9323 476.032 12.9323 476.032" stroke="url(#paint8_linear_1317_3033)" stroke-width="6.55275" stroke-linecap="round" stroke-dasharray="50.88 50.88"/>
<path d="M533.945 594.059C533.945 594.059 397.804 532.111 302.6 499.546C194.984 462.735 12.6233 447.702 12.6233 447.702" stroke="url(#paint9_linear_1317_3033)" stroke-width="8" stroke-linecap="round" stroke-dasharray="50.88 50.88"/>
<defs>
<linearGradient id="paint0_linear_1317_3033" x1="546.714" y1="160.142" x2="12.6567" y2="261.71" gradientUnits="userSpaceOnUse">
<stop stop-color="#A4A694"/>
<stop offset="0.673432" stop-color="#4B4C43" stop-opacity="0.112708"/>
<stop offset="1" stop-color="#3F4039" stop-opacity="0"/>
</linearGradient>
<linearGradient id="paint1_linear_1317_3033" x1="506.725" y1="95.44" x2="16.1342" y2="212.247" gradientUnits="userSpaceOnUse">
<stop stop-color="#A8A991" stop-opacity="0.8"/>
<stop offset="0.681874" stop-color="#CDCEC0" stop-opacity="0.562941"/>
<stop offset="1" stop-color="#CCCEBF" stop-opacity="0.2"/>
</linearGradient>
<linearGradient id="paint2_linear_1317_3033" x1="491.451" y1="34.4914" x2="1.42484" y2="174.947" gradientUnits="userSpaceOnUse">
<stop stop-color="#C8CAB0" stop-opacity="0.92"/>
<stop offset="1" stop-color="#CCCEBF" stop-opacity="0.3"/>
</linearGradient>
<linearGradient id="paint3_linear_1317_3033" x1="538.405" y1="206.009" x2="142.182" y2="278.371" gradientUnits="userSpaceOnUse">
<stop stop-color="#A1A587"/>
<stop offset="0.50291" stop-color="#7A7E67" stop-opacity="0.642752"/>
<stop offset="1" stop-color="#3D3F33" stop-opacity="0.07"/>
</linearGradient>
<linearGradient id="paint4_linear_1317_3033" x1="530.443" y1="265.949" x2="24.6951" y2="362.133" gradientUnits="userSpaceOnUse">
<stop stop-color="#A1A587"/>
<stop offset="1" stop-color="#3D3F34" stop-opacity="0"/>
</linearGradient>
<linearGradient id="paint5_linear_1317_3033" x1="-11.8654" y1="480.079" x2="492.151" y2="638.736" gradientUnits="userSpaceOnUse">
<stop stop-color="#CDCEC0" stop-opacity="0.2"/>
<stop offset="1" stop-color="#CCCEBF"/>
</linearGradient>
<linearGradient id="paint6_linear_1317_3033" x1="539.278" y1="405.136" x2="18.3365" y2="391.032" gradientUnits="userSpaceOnUse">
<stop stop-color="#A1A587"/>
<stop offset="1" stop-color="#3D3F34" stop-opacity="0"/>
</linearGradient>
<linearGradient id="paint7_linear_1317_3033" x1="536.836" y1="516.313" x2="76.3997" y2="343.45" gradientUnits="userSpaceOnUse">
<stop stop-color="#A1A587"/>
<stop offset="1" stop-color="#CCCEBF"/>
</linearGradient>
<linearGradient id="paint8_linear_1317_3033" x1="523.555" y1="677.5" x2="77.9361" y2="405.664" gradientUnits="userSpaceOnUse">
<stop stop-color="#969783" stop-opacity="0.8"/>
<stop offset="0.484605" stop-color="#CDCEC0" stop-opacity="0.504788"/>
<stop offset="1" stop-color="#B3B9A5" stop-opacity="0.2"/>
</linearGradient>
<linearGradient id="paint9_linear_1317_3033" x1="267.373" y1="455.733" x2="207.122" y2="571.845" gradientUnits="userSpaceOnUse">
<stop stop-color="#C0C1B0"/>
<stop offset="1" stop-color="#CCCEBF"/>
</linearGradient>
</defs>
</svg>
