<svg width="10" height="10" viewBox="0 0 10 10" fill="none" xmlns="http://www.w3.org/2000/svg">
<path d="M3.60786 0.213545C3.61749 0.00164161 3.96617 -0.0831173 4.0702 0.101817C4.5595 0.968696 5.39171 2.24204 6.33564 2.82189C7.27958 3.39981 8.79373 3.56548 9.78775 3.60786C9.99965 3.61749 10.0825 3.96617 9.89755 4.0702C9.03068 4.5595 7.75925 5.39171 7.1794 6.33564C6.59956 7.27958 6.43581 8.79373 6.39343 9.78775C6.3838 9.99965 6.0332 10.0825 5.9311 9.89755C5.44179 9.03067 4.60959 7.75925 3.66373 7.17941C2.71979 6.59956 1.20564 6.43581 0.213548 6.39343C0.0016441 6.3838 -0.0831185 6.0332 0.101816 5.9311C0.968695 5.44179 2.24205 4.60959 2.82189 3.66373C3.39981 2.71979 3.56548 1.20564 3.60786 0.213545Z" fill="white"/>
</svg>
