<?xml version="1.0" encoding="UTF-8"?>
<svg id="main" xmlns="http://www.w3.org/2000/svg" viewBox="0 0 1011.45 302.14">
  <defs>
    <style>
      .cls-1 {
        fill: #d9c64c;
      }

      .cls-1, .cls-2 {
        stroke-width: 0px;
      }

      .cls-2 {
        fill: #e8e8e7;
      }
    </style>
  </defs>
  <path class="cls-1" d="M1003.56,115.07c-5.56-6.02-12.73-9.57-20.2-12.52-14.95-5.89-30.54-9.39-46.33-11.88-11.83-1.87-23.74-3.24-35.66-4.38-13.63-1.31-27.3-2.12-40.95-3.14-.91-.06-1.83-.08-2.74-.06-2.33.05-2.53.23-2.9,2.41-.07.45-.1.91-.17,1.36-.54,3.83-.37,4,3.6,4.18,5.59.27,11.18.47,16.75.89,9.45.72,18.89,1.49,28.3,2.45,8.85.91,17.69,1.95,26.49,3.21,6.54.95,13.03,2.33,19.53,3.54,12.49,2.31,24.68,5.66,36.19,11.14,4.54,2.16,8.85,4.75,12.44,8.37,2.71,2.72,4.07,5.85,3.9,9.83-.15,3.68-1.77,6.53-3.87,9.29-4.07,5.34-9.35,9.36-14.82,13.1-11.34,7.76-23.6,13.83-36.06,19.57-4.07,1.87-8.15,2.79-12.57,2.31-1.25-.13-2.49-.3-3.74-.46-13.08-1.68-23.76-7.74-31.99-17.95-3.71-4.61-6.93-9.62-10.38-14.45-.61-.86-1.23-1.72-1.85-2.59-.23.1-.45.19-.67.29-.06.62-.22,1.25-.17,1.87.33,3.52.89,7.03,1.03,10.56.2,5.35.68,10.78.05,16.06-1.45,12.13-6.98,22.37-16.25,30.39-1.92,1.66-4.37,2.87-6.77,3.77-3.52,1.31-7.2,2.2-10.83,3.19-15.98,4.32-31.93,8.76-47.96,12.88-12.15,3.13-24.4,5.89-36.63,8.72-11,2.54-22.01,5.08-33.07,7.37-14.63,3.02-29.3,5.84-43.97,8.67-9.63,1.85-19.27,3.63-28.93,5.33-13.48,2.36-26.96,4.7-40.47,6.89-14.52,2.36-29.06,4.62-43.61,6.79-12.97,1.92-25.97,3.69-38.96,5.47-11.86,1.62-23.73,3.21-35.61,4.7-6.91.87-13.85,1.47-20.76,2.25-9.41,1.07-18.8,2.27-28.21,3.29-7.6.82-15.23,1.43-22.84,2.17-11.12,1.07-22.24,2.26-33.38,3.23-11.48,1.01-22.97,1.89-34.47,2.7-14.12.99-28.24,1.9-42.37,2.74-9.12.55-18.24,1.01-27.36,1.36-14.04.53-28.08,1.14-42.12,1.34-25.59.38-51.19.59-76.77-.16-4.67-.13-9.35-.3-14.02-.5-2.06-.09-4.12-.06-6.17-.19-.54-.04-1.08-.07-1.62-.11-11.41-.76-22.83-1.52-34.24-2.37-6.37-.47-12.76-.92-19.09-1.78-11.18-1.51-22.35-3.22-33.49-5.06-12.17-2.02-24.12-4.99-35.56-9.72-6.25-2.58-12.24-5.58-17.25-10.28-4.99-4.68-6-10.44-2.57-16.41.95-1.67,2.15-3.23,3.43-4.68,4.26-4.83,9.3-8.75,14.63-12.32,4.29-2.87,4.24-2.83,8.04.77,10.11,9.59,21.96,12.43,35.1,7.98,22.32-7.54,30.44-34.48,16.28-53.31-8.58-11.4-23.51-16.7-37.94-12.01-18.39,5.97-28.47,26.02-22.01,43.95.66,1.84.36,2.87-1.29,3.98-3.5,2.36-6.96,4.8-10.21,7.49-5.84,4.85-10.94,10.34-14.02,17.46-2.77,6.38-2.17,12.39,1.44,18.27,3.74,6.1,9.4,9.89,15.55,13.02,13.76,7.01,28.67,10.52,43.66,13.53,13.64,2.75,27.43,4.69,41.33,5.81,13.19,1.06,26.36,2.34,39.56,3.22,2,.13,4.01.25,6.01.36,7.26.39,14.52.64,21.79.85,1,.03,2,.06,3,.09,12.33.33,24.66.49,37,.64,3.42.04,6.84-.23,10.26-.3,13.02-.25,26.04-.33,39.05-.74,19.97-.63,39.94-1.45,59.9-2.23,5.36-.21,10.72-.53,16.07-.91,11.27-.78,22.53-1.64,33.8-2.45,7.51-.54,15.04-.93,22.54-1.6,13.06-1.18,26.11-2.51,39.17-3.79,11.69-1.15,23.39-2.3,35.07-3.52,8.17-.86,16.33-1.81,24.48-2.77,5.21-.61,10.41-1.33,15.62-1.97,8.49-1.04,16.99-1.98,25.47-3.1,8.59-1.14,17.16-2.46,25.74-3.69,11.63-1.67,23.26-3.28,34.88-5.02,9.47-1.43,18.92-3.01,28.37-4.54,5.63-.91,11.26-1.84,16.88-2.79,8.99-1.53,17.99-3.05,26.97-4.65,6.29-1.12,12.56-2.36,18.84-3.54,8.18-1.53,16.38-2.98,24.54-4.61,10.18-2.03,20.34-4.16,30.49-6.34,11.27-2.43,22.52-4.91,33.75-7.5,10.68-2.46,21.34-4.99,31.97-7.66,10.95-2.75,21.87-5.68,32.79-8.58,5.62-1.49,11.15-3.43,16.85-4.52,6.94-1.32,14.03-1.91,21.13-1.42,6.45.44,12.58,2.06,18.39,4.94,8.4,4.16,14.9,10.45,20.26,18.01,2.51,3.54,4.88,7.18,7.36,10.74.47.67,1.13,1.21,2.26,2.39-.31-3.77-.36-6.71-.83-9.59-.93-5.67-1.22-11.37-.85-17.07.33-5.14,1.44-10.17,3.43-14.95,5.61-13.45,15.78-22.46,28.58-28.69,11.51-5.6,22.92-11.34,33.29-18.93,5.74-4.2,11.03-8.89,15.17-14.72,2.6-3.66,4.64-7.64,5.15-12.17.73-6.46-1.77-11.87-6.05-16.49ZM61.7,177.47c13.62.09,26.5,10.91,26.31,26.79-.19,15.76-12.92,26.27-26.55,26.19-14.23-.04-26.54-11.14-26.5-26.58.03-14.78,12.1-26.5,26.74-26.4ZM931.42,185.58c-6.87,7.31-11.52,15.82-13.89,25.55-.57,2.31-.74,4.73-1.16,7.08-.14.82-.48,1.6-.92,3.01-5.43-5.28-11-9.33-17.3-12.37-6.31-3.04-13.14-4.19-20.41-5.45.72-1.1,1.04-1.8,1.55-2.32,7-7.21,11.54-15.8,14.18-25.42.57-2.08.71-4.27,1.1-6.4.22-1.18.55-2.34,1-4.2,5.65,5.08,11.05,9.37,17.39,12.29,6.34,2.93,13.09,4.32,20.64,5.41-1.01,1.32-1.53,2.13-2.18,2.82Z"/>
  <g>
    <path class="cls-2" d="M311.29,81.68c-9.78-16.9-23.13-30.04-40.03-39.41-1.44-.8-2.9-1.57-4.38-2.3l-6.83,20.38-.34,1.01c13.09,7.41,23.41,17.81,30.95,31.17,7.64,13.55,11.46,29.29,11.46,47.21s-3.87,33.97-11.61,47.51c-7.75,13.55-18.34,23.99-31.78,31.32-13.44,7.33-28.31,11-44.61,11-3.58,0-7.08-.18-10.51-.54-.9-.08-1.79-.19-2.67-.31h-.11c-.99-.14-1.98-.28-2.96-.45h-.09c-.4-.07-.81-.14-1.24-.22-6.92-1.24-13.66-3.27-20-6.04-.13-.05-.26-.11-.38-.17l-.15-.06c-1.98-.88-3.94-1.84-5.86-2.87-.21-.11-.43-.22-.64-.34-13.44-7.33-24.04-17.77-31.78-31.32-7.74-13.54-11.61-29.38-11.61-47.51s3.92-33.71,11.77-47.36c7.84-13.65,18.48-24.14,31.93-31.47,13.44-7.34,28.41-11,44.91-11,4,0,7.92.22,11.75.67l.38-1.12,6.63-19.85c-6.24-.94-12.7-1.4-19.37-1.4-21.19,0-40.23,4.69-57.14,14.06-16.91,9.37-30.25,22.51-40.02,39.41-9.78,16.91-14.67,36.26-14.67,58.06s4.89,41.15,14.67,58.05c9.77,16.91,23.17,30,40.18,39.27,4.01,2.19,8.14,4.12,12.38,5.79,6.45,2.55,13.16,4.49,20.12,5.84,7.83,1.51,16,2.27,24.48,2.27,20.98,0,39.97-4.63,56.99-13.9,17-9.27,30.4-22.36,40.18-39.27,9.77-16.9,14.66-36.25,14.66-58.05s-4.89-41.15-14.66-58.06Z"/>
    <path class="cls-2" d="M480.4,133.93c9.06-10.79,13.6-23.93,13.6-39.41,0-20.37-5.76-35.75-17.26-46.14-11.52-10.39-28.37-15.58-50.57-15.58h-82.5v213.58h23.83v-90.75h51.03l50.11,90.75h24.75l-50.72-91.97c16.09-2.85,28.67-9.68,37.73-20.48ZM367.5,135.46V52.96h55.61c14.87,0,26.43,3.16,34.68,9.48,8.25,6.31,12.38,17.01,12.38,32.08,0,13.44-4.18,23.63-12.53,30.55-8.36,6.93-19.86,10.39-34.53,10.39h-55.61Z"/>
    <path class="cls-2" d="M635.77,136.38c8.35-3.87,15.08-9.83,20.17-17.88,5.09-8.04,7.64-17.57,7.64-28.57,0-18.73-4.89-32.94-14.67-42.62-9.78-9.67-23.94-14.51-42.47-14.51h-94.72v213.58h99.91c11,0,21.04-2.4,30.1-7.18,9.06-4.79,16.2-11.72,21.39-20.78,5.19-9.06,7.79-19.61,7.79-31.63,0-27.5-11.71-44.3-35.14-50.41ZM535.55,52.96h66.61c13.24,0,22.81,2.91,28.72,8.71,5.91,5.81,8.87,15.43,8.87,28.88,0,11.81-3.01,20.83-9.02,27.04-6.01,6.21-14.72,9.32-26.12,9.32h-69.06V52.96ZM636.84,217.04c-6.82,6.11-16.96,9.17-30.4,9.17h-70.89v-79.14h67.53c15.07,0,26.17,3.01,33.3,9.02s10.7,16.04,10.7,30.09-3.41,24.75-10.24,30.86Z"/>
    <path class="cls-2" d="M688.94,32.8v202.54c7.95-1.54,15.89-3.1,23.83-4.64V32.8h-23.83Z"/>
    <path class="cls-2" d="M724.68,32.8v20.16h68.44v159.7c7.94-1.99,15.9-3.98,23.84-5.96V52.96h68.44v-20.16h-160.72ZM795.2,237.07c-.24.06-.7.17-1.12.55-.56.53-.59,1.17-.96,2.29v6.47h23.84v-14.78c-11.75,2.96-20.28,5.12-21.76,5.47Z"/>
  </g>
  <path class="cls-2" d="M187.4,255.37l-9.32,27.86c-.81-.02-1.62-.05-2.42-.07-4.41-.12-9.09-.29-13.91-.49-.97-.05-1.92-.06-2.84-.08-.93-.02-1.82-.03-2.66-.08l11.05-33.02c6.4,2.51,13.15,4.49,20.1,5.88Z"/>
  <path class="cls-2" d="M270.64,6.65l-7.94,23.75-2.23,6.65-7.06,21.07-2.24,6.68-52.37,156.53c-.34-.05-.68-.11-1.02-.17-6.41-1.15-12.63-3.03-18.48-5.58-.19-.08-.38-.17-.57-.25l52.52-156.94,2.25-6.71,6.96-20.83,2.23-6.67L250.79,0l19.85,6.65Z"/>
</svg>