<?xml version="1.0" encoding="UTF-8"?>
<svg id="Layer_3" data-name="Layer 3" xmlns="http://www.w3.org/2000/svg" viewBox="0 0 729.11 236.88">
  <defs>
    <style>
      .cls-1 {
        fill: #d9c64c;
      }

      .cls-1, .cls-2 {
        stroke-width: 0px;
      }

      .cls-2 {
        fill: #e8e8e7;
      }
    </style>
  </defs>
  <path class="cls-1" d="M599.08,184.11c-9.48,4.49-20.08,7-31.27,7-40.43,0-73.19-32.77-73.19-73.19v-.06c6.95,1.4,13.34,2.65,19.69,3.98,12.87,2.71,25.57,5.96,37.89,10.64,20.61,7.83,35.23,21.69,43.45,42.27,1.24,3.1,2.37,6.22,3.42,9.37Z"/>
  <path class="cls-1" d="M507.75,115.26c-4.19.86-8.39,1.66-13.13,2.6.03-40.4,32.78-73.13,73.19-73.13,11.19,0,21.79,2.51,31.26,7-.9,2.72-1.87,5.42-2.92,8.09-7.58,19.34-20.48,33.47-39.78,41.68-15.64,6.65-32.07,10.37-48.61,13.77Z"/>
  <g id="eXGXIS">
    <path class="cls-1" d="M727.03,117.77c-16.2,3.31-32.31,6.42-47.95,11.48-12.67,4.09-24.68,9.42-34.63,18.62-9.3,8.58-15.15,19.33-19.54,30.99-4.82,12.77-7.85,26.05-10.64,39.38-1.08,5.19-2.03,10.4-3.17,16.21-.95-4.82-1.77-9.09-2.64-13.34-2.54-12.49-5.33-24.91-9.38-36.99,24.78-11.73,41.92-36.96,41.92-66.19s-17.14-54.47-41.93-66.19c3.62-10.78,6.21-21.82,8.55-32.95,1.18-5.59,2.23-11.2,3.45-17.39,1.4,7.01,2.62,13.45,4,19.85,3.04,14.11,6.56,28.06,12.17,41.45,8.2,19.54,22.39,32.63,41.96,40.28,13.37,5.21,27.24,8.58,41.24,11.49,5.53,1.14,11.06,2.22,16.59,3.33Z"/>
  </g>
  <g>
    <path class="cls-2" d="M152.61,53.85h49.72c13.38,0,23.54,3.13,30.48,9.39,6.93,6.26,10.41,15.53,10.41,27.81,0,9.33-2.73,17.25-8.19,23.76-5.46,6.51-13.05,10.62-22.74,12.34l30.57,55.43h-14.92l-30.2-54.7h-30.75v54.7h-14.36V53.85ZM200.49,115.73c8.84,0,15.77-2.09,20.81-6.26,5.03-4.17,7.55-10.31,7.55-18.42,0-9.08-2.49-15.53-7.46-19.34-4.97-3.8-11.94-5.71-20.9-5.71h-33.52v49.72h33.52Z"/>
    <path class="cls-2" d="M253.9,53.85h57.09c11.17,0,19.71,2.92,25.6,8.75,5.89,5.83,8.84,14.4,8.84,25.69,0,6.63-1.54,12.37-4.6,17.22-3.07,4.85-7.12,8.44-12.15,10.77,14.12,3.68,21.18,13.81,21.18,30.39,0,7.25-1.57,13.6-4.7,19.06-3.13,5.47-7.43,9.64-12.89,12.52-5.46,2.89-11.51,4.33-18.14,4.33h-60.22V53.85ZM309.88,110.58c6.87,0,12.12-1.87,15.75-5.62,3.62-3.74,5.43-9.18,5.43-16.3,0-8.1-1.78-13.9-5.34-17.4-3.56-3.5-9.33-5.25-17.31-5.25h-40.15v44.57h41.62ZM310.99,170.43c8.1,0,14.21-1.84,18.32-5.52,4.11-3.68,6.17-9.88,6.17-18.6s-2.15-14.52-6.45-18.14c-4.3-3.62-10.99-5.43-20.07-5.43h-40.7v47.7h42.73Z"/>
    <path class="cls-2" d="M360.71,53.85h14.36v128.73h-14.36V53.85Z"/>
    <path class="cls-2" d="M423.51,66.01h-41.25v-12.15h96.87v12.15h-41.25v116.57h-14.36v-116.57Z"/>
  </g>
  <g>
    <path class="cls-2" d="M58.23,187l-5.62,16.79c-4.18-1.15-8.37-2.3-12.55-3.45l6.06-16.89c3.86,1.51,7.93,2.71,12.11,3.54Z"/>
    <path class="cls-2" d="M108.4,37.09l-4.79,14.31-1.34,4.01-4.26,12.7-1.35,4.03-31.56,94.34c-.2-.03-.41-.07-.61-.1-3.86-.69-7.61-1.83-11.14-3.36-.11-.05-.23-.1-.34-.15l31.65-94.59,1.36-4.04,4.19-12.55,1.34-4.02,4.88-14.57,11.96,4.01Z"/>
    <path class="cls-2" d="M133.1,81.96c-5.89-10.19-13.94-18.11-24.13-23.75-.87-.48-1.75-.95-2.64-1.39l-4.12,12.28-.2.61c7.89,4.47,14.11,10.73,18.65,18.79,4.6,8.17,6.91,17.65,6.91,28.45s-2.33,20.47-7,28.64c-4.67,8.17-11.05,14.46-19.15,18.88-8.1,4.42-17.06,6.63-26.89,6.63-2.16,0-4.27-.11-6.33-.33-.54-.05-1.08-.11-1.61-.19h-.07c-.6-.08-1.19-.17-1.78-.27h-.05c-.24-.04-.49-.08-.75-.13-4.17-.75-8.23-1.97-12.05-3.64-.08-.03-.16-.07-.23-.1l-.09-.04c-1.19-.53-2.37-1.11-3.53-1.73-.13-.07-.26-.13-.39-.2-8.1-4.42-14.49-10.71-19.15-18.88-4.67-8.16-7-17.71-7-28.64s2.36-20.32,7.09-28.54c4.73-8.23,11.14-14.55,19.24-18.97,8.1-4.42,17.12-6.63,27.07-6.63,2.41,0,4.77.13,7.08.4l.23-.68,4-11.96c-3.76-.57-7.65-.84-11.67-.84-12.77,0-24.25,2.83-34.44,8.47-10.19,5.65-18.23,13.57-24.12,23.75-5.89,10.19-8.84,21.85-8.84,34.99s2.95,24.8,8.84,34.99c5.89,10.19,13.97,18.08,24.22,23.67,2.42,1.32,4.91,2.48,7.46,3.49,3.89,1.54,7.93,2.71,12.13,3.52,4.72.91,9.64,1.37,14.75,1.37,12.65,0,24.09-2.79,34.35-8.38,10.25-5.59,18.32-13.48,24.22-23.67,5.89-10.19,8.84-21.85,8.84-34.99s-2.95-24.8-8.84-34.99Z"/>
  </g>
</svg>