<?xml version="1.0" encoding="UTF-8"?>
<svg id="Layer_4" data-name="Layer 4" xmlns="http://www.w3.org/2000/svg" viewBox="0 0 287.95 287.9">
  <defs>
    <style>
      .cls-1 {
        fill: #d9c64c;
        stroke-width: 0px;
      }
    </style>
  </defs>
  <path class="cls-1" d="M130.77,223.19c-11.35,5.37-24.04,8.38-37.43,8.38-48.4,0-87.62-39.23-87.62-87.62v-.07c8.32,1.68,15.96,3.17,23.57,4.76,15.4,3.24,30.61,7.13,45.36,12.74,24.67,9.37,42.17,25.96,52.02,50.6,1.48,3.71,2.84,7.45,4.1,11.22Z"/>
  <path class="cls-1" d="M21.44,140.77c-5.02,1.03-10.04,1.98-15.72,3.11.04-48.36,39.25-87.54,87.62-87.54,13.4,0,26.08,3.01,37.42,8.38-1.08,3.25-2.24,6.48-3.5,9.69-9.08,23.15-24.52,40.06-47.63,49.89-18.72,7.96-38.39,12.42-58.19,16.48Z"/>
  <g id="eXGXIS">
    <path class="cls-1" d="M283.93,143.78c-19.39,3.96-38.68,7.68-57.4,13.74-15.17,4.89-29.54,11.28-41.46,22.29-11.13,10.28-18.13,23.13-23.39,37.09-5.77,15.29-9.4,31.18-12.73,47.14-1.3,6.21-2.43,12.45-3.79,19.4-1.14-5.77-2.12-10.88-3.16-15.96-3.05-14.95-6.39-29.81-11.23-44.29,29.67-14.04,50.18-44.25,50.18-79.24s-20.52-65.2-50.19-79.24c4.33-12.91,7.44-26.12,10.24-39.44,1.41-6.69,2.67-13.41,4.13-20.82,1.68,8.39,3.13,16.1,4.78,23.76,3.63,16.89,7.85,33.59,14.57,49.62,9.81,23.39,26.8,39.06,50.23,48.21,16,6.24,32.6,10.28,49.36,13.75,6.62,1.37,13.24,2.65,19.85,3.99Z"/>
  </g>
  <g id="eXGXIS-2" data-name="eXGXIS">
    <path class="cls-1" d="M283.93,143.78c-19.39,3.96-38.68,7.68-57.4,13.74-15.17,4.89-29.54,11.28-41.46,22.29-11.13,10.28-18.13,23.13-23.39,37.09-5.77,15.29-9.4,31.18-12.73,47.14-1.3,6.21-2.43,12.45-3.79,19.4-1.14-5.77-2.12-10.88-3.16-15.96-3.05-14.95-6.39-29.81-11.23-44.29,29.67-14.04,50.18-44.25,50.18-79.24s-20.52-65.2-50.19-79.24c4.33-12.91,7.44-26.12,10.24-39.44,1.41-6.69,2.67-13.41,4.13-20.82,1.68,8.39,3.13,16.1,4.78,23.76,3.63,16.89,7.85,33.59,14.57,49.62,9.81,23.39,26.8,39.06,50.23,48.21,16,6.24,32.6,10.28,49.36,13.75,6.62,1.37,13.24,2.65,19.85,3.99Z"/>
  </g>
</svg>