<svg width="56" height="45" viewBox="0 0 56 45" fill="none" xmlns="http://www.w3.org/2000/svg">
<path d="M55.0607 13.0607C55.6464 12.4749 55.6464 11.5251 55.0607 10.9393L45.5147 1.3934C44.9289 0.807612 43.9792 0.807612 43.3934 1.3934C42.8076 1.97918 42.8076 2.92893 43.3934 3.51472L51.8787 12L43.3934 20.4853C42.8076 21.0711 42.8076 22.0208 43.3934 22.6066C43.9792 23.1924 44.9289 23.1924 45.5147 22.6066L55.0607 13.0607ZM2 13.5H54V10.5H2V13.5Z" fill="white"/>
<path d="M0.925887 32.6656C0.348172 33.2593 0.361169 34.209 0.954917 34.7867L10.6306 44.2011C11.2243 44.7788 12.174 44.7658 12.7517 44.1721C13.3294 43.5783 13.3164 42.6287 12.7227 42.051L4.12208 33.6826L12.4905 25.082C13.0682 24.4882 13.0552 23.5386 12.4614 22.9609C11.8677 22.3831 10.918 22.3961 10.3403 22.9899L0.925887 32.6656ZM53.9756 31.5001L1.98044 32.2118L2.02149 35.2115L54.0166 34.4999L53.9756 31.5001Z" fill="white"/>
</svg>
