<svg width="158" height="95" viewBox="0 0 158 95" fill="none" xmlns="http://www.w3.org/2000/svg">
<path d="M42.1663 44.1435L42.1666 22.5783C42.1668 11.8792 33.4938 3.20601 22.7947 3.20594V3.20594V3.20594C12.6768 3.20594 4.2004 11.1095 4.10872 21.227C4.10446 21.6973 4.1022 22.1563 4.1022 22.6009" stroke="#EB8F44" stroke-width="4.51259"/>
<ellipse cx="2.49529" cy="2.49445" rx="2.49529" ry="2.49445" transform="matrix(0.999985 0.00543151 -0.00547953 0.999985 1.57812 28.5552)" fill="#EB8F44"/>
<ellipse cx="2.49529" cy="2.49445" rx="2.49529" ry="2.49445" transform="matrix(0.999985 0.00543151 -0.00547953 0.999985 9.6875 28.5845)" fill="#E3E7D3"/>
<path d="M2.90843 44.5713L2.80943 57.9748C2.72975 68.7624 11.3745 77.5894 22.1614 77.7349V77.7349C32.8707 77.8793 41.7179 69.4083 42.0387 58.7028L42.1019 56.5932" stroke="#E3E7D3" stroke-width="4.51259"/>
<path d="M33.3378 38.4539L33.3115 57.3852C33.3033 63.3139 28.452 68.0935 22.5239 68.0136V68.0136C16.6716 67.9347 11.9818 63.1452 12.026 57.2926L12.137 42.5944C12.1658 38.7778 7.79683 36.5939 4.76094 38.9074V38.9074C3.62082 39.7763 2.95165 41.1275 2.95167 42.5609L2.95172 44.9291" stroke="#E3E7D3" stroke-width="4.51259"/>
<path d="M22.7357 12.8811L22.6985 10.6251L22.7354 10.6245L22.7724 10.6251L22.7357 12.8811ZM22.1093 12.8914L22.0721 10.6354L22.1093 12.8914ZM14.5413 30.5554C14.5413 31.8015 13.5311 32.8117 12.285 32.8117C11.0389 32.8117 10.0287 31.8015 10.0287 30.5554H14.5413ZM22.7729 15.1371L22.1465 15.1474L22.0721 10.6354L22.6985 10.6251L22.7729 15.1371ZM14.5413 22.8791L14.5413 30.5554H10.0287L10.0287 22.8791H14.5413ZM31.0875 38.8285V26.5241H35.6L35.6 38.8285H31.0875ZM31.0875 26.5241L31.0875 23.6629H35.6V26.5241H31.0875ZM10.0287 22.8791C10.0287 16.1949 15.3888 10.7457 22.0721 10.6354L22.1465 15.1474C17.9261 15.217 14.5413 18.6582 14.5413 22.8791H10.0287ZM22.7724 10.6251C29.8904 10.7408 35.6 16.544 35.6 23.6629H31.0875C31.0875 19.0076 27.3537 15.2127 22.6991 15.1371L22.7724 10.6251Z" fill="#E3E7D3"/>
<ellipse cx="3.04874" cy="3.04051" rx="3.04874" ry="3.04051" transform="matrix(0.999985 0.00543151 -0.00547953 0.999985 39.1172 53.2505)" fill="#E3E7D3"/>
<ellipse cx="42.3678" cy="44.0939" rx="3.00839" ry="3.38444" fill="#EB8F44"/>
<circle cx="4.00839" cy="21.9071" r="3.00839" fill="#EB8F44"/>
<path d="M56.4649 57.2911C56.6082 54.6239 57.3094 52.2393 58.5685 50.1374C59.8706 48.0358 61.5361 46.3879 63.565 45.1938C65.6369 43.9999 67.9207 43.4095 70.4165 43.4228C72.396 43.4333 73.9221 43.7212 74.9949 44.2863C76.0677 44.8514 76.4722 45.6712 76.2082 46.7456C76.0327 47.3901 75.7292 47.8188 75.2977 48.0317C74.9093 48.2448 74.414 48.3282 73.8118 48.282C73.2526 48.236 72.6074 48.1895 71.8761 48.1426C69.4675 47.9146 67.3145 48.1614 65.4173 48.8829C63.5633 49.5615 62.073 50.6294 60.9464 52.0865C59.8629 53.5439 59.3157 55.2838 59.305 57.3062L56.4649 57.2911ZM56.7366 79.0454C55.962 79.0413 55.3607 78.823 54.9327 78.3904C54.5047 77.9578 54.2927 77.3542 54.2968 76.5796L54.4584 46.1781C54.4625 45.4036 54.6809 44.8023 55.1135 44.3743C55.5461 43.9462 56.1497 43.7343 56.9242 43.7384C57.6988 43.7425 58.3001 43.9609 58.7281 44.3935C59.1561 44.8261 59.3681 45.4296 59.364 46.2042L59.2024 76.6057C59.1983 77.3803 58.9799 77.9816 58.5473 78.4096C58.1147 78.8376 57.5111 79.0496 56.7366 79.0454ZM97.8516 79.5867C94.4952 79.5689 91.4656 78.7782 88.7629 77.2147C86.1032 75.6514 83.9843 73.5315 82.4064 70.8551C80.8717 68.1359 80.0917 65.098 80.0665 61.7413L80.2284 31.2753C80.2325 30.5007 80.4509 29.8994 80.8835 29.4714C81.3594 29.0006 81.9846 28.7672 82.7591 28.7713C83.4907 28.7752 84.0703 29.015 84.4981 29.4906C84.9692 29.9234 85.2026 30.5271 85.1985 31.3017L85.0977 50.2784C86.5284 48.2635 88.4089 46.6598 90.739 45.4673C93.1123 44.232 95.7405 43.6219 98.6236 43.6373C101.937 43.6549 104.902 44.4667 107.518 46.0728C110.135 47.6359 112.189 49.7769 113.681 52.4959C115.216 55.2151 115.974 58.2744 115.956 61.6739C115.938 65.1164 115.125 68.1889 113.519 70.8914C111.955 73.5941 109.814 75.7343 107.094 77.3121C104.375 78.8468 101.294 79.605 97.8516 79.5867ZM97.8756 75.0684C100.371 75.0817 102.612 74.5127 104.598 73.3614C106.584 72.167 108.141 70.5616 109.271 68.545C110.443 66.5288 111.037 64.2297 111.05 61.6478C111.064 59.109 110.495 56.8252 109.344 54.7966C108.236 52.7252 106.696 51.1033 104.722 49.9309C102.749 48.7585 100.514 48.1657 98.0187 48.1525C95.5659 48.1394 93.3467 48.7086 91.3611 49.8599C89.3755 51.0112 87.8178 52.6166 86.688 54.6762C85.5585 56.6927 84.9869 58.9704 84.9734 61.5092C84.9597 64.0911 85.5069 66.3962 86.6149 68.4246C87.723 70.453 89.2635 72.0749 91.2366 73.2903C93.2098 74.4627 95.4229 75.0554 97.8756 75.0684ZM125.288 79.4098C124.513 79.4057 123.89 79.1872 123.419 78.7544C122.991 78.2787 122.78 77.6536 122.784 76.8791L122.945 46.6067C122.949 45.8321 123.167 45.2308 123.6 44.8028C124.076 44.332 124.701 44.0986 125.475 44.1027C126.207 44.1066 126.787 44.3464 127.214 44.822C127.685 45.2548 127.919 45.8585 127.915 46.6331L127.754 76.9055C127.75 77.6801 127.51 78.3027 127.034 78.7736C126.601 79.2016 126.019 79.4137 125.288 79.4098ZM125.446 37.3895C124.5 37.3845 123.684 37.0359 122.999 36.3437C122.314 35.6516 121.975 34.8106 121.98 33.8209C121.986 32.7452 122.334 31.9079 123.026 31.3091C123.761 30.6675 124.602 30.3492 125.548 30.3543C126.452 30.3591 127.246 30.686 127.931 31.3352C128.66 31.9415 129.021 32.7825 129.015 33.8583C129.01 34.848 128.661 35.6853 127.969 36.3702C127.277 37.055 126.436 37.3948 125.446 37.3895ZM150.336 79.5429C148.055 79.5308 146.014 78.982 144.212 77.8966C142.454 76.8115 141.063 75.341 140.04 73.4852C139.018 71.5863 138.513 69.432 138.525 67.0223L138.693 35.4589C138.697 34.7274 138.915 34.1261 139.348 33.655C139.824 33.1842 140.428 32.9508 141.159 32.9546C141.891 32.9585 142.492 33.1984 142.963 33.6743C143.434 34.1501 143.667 34.7538 143.663 35.4853L143.496 67.0487C143.484 69.2433 144.12 71.054 145.403 72.4809C146.687 73.8648 148.34 74.5621 150.362 74.5728L152.105 74.5821C152.794 74.5857 153.352 74.8254 153.779 75.301C154.207 75.7766 154.419 76.3802 154.415 77.1117C154.411 77.8433 154.15 78.4443 153.631 78.9149C153.113 79.3425 152.466 79.5542 151.691 79.5501L150.336 79.5429ZM134.422 49.766C133.776 49.7626 133.239 49.5661 132.811 49.1765C132.383 48.7439 132.171 48.2264 132.174 47.6239C132.177 46.9785 132.395 46.4633 132.827 46.0783C133.26 45.6502 133.799 45.4379 134.445 45.4414L150.904 45.5288C151.549 45.5323 152.086 45.7503 152.514 46.1829C152.942 46.5725 153.155 47.09 153.151 47.7354C153.148 48.3379 152.93 48.8531 152.498 49.2811C152.065 49.6661 151.526 49.8569 150.881 49.8535L134.422 49.766Z" fill="#E3E7D3"/>
<circle cx="126" cy="34" r="4" fill="#EB8F44"/>
</svg>
