<svg width="544" height="809" viewBox="0 0 544 809" fill="none" xmlns="http://www.w3.org/2000/svg">
<path d="M545.085 118.573C545.085 118.573 445.524 168.478 379.5 191.905C263.102 233.206 73.6491 255.12 73.6491 255.12L19.1825 263.022" stroke="url(#paint0_linear_1624_5344)" stroke-width="7.32367" stroke-linecap="round" stroke-dasharray="38.16 38.16"/>
<path d="M545.836 41.5781C545.836 41.5781 404.824 125.307 338.8 148.735C127.135 223.839 17.3346 237.823 17.3346 237.823" stroke="url(#paint1_linear_1624_5344)" stroke-width="8" stroke-linecap="round" stroke-dasharray="38.16 38.16"/>
<path d="M558.547 -58C558.547 -58 388.53 78.5454 293.251 116.55C81.1358 201.158 18.437 201.158 18.437 201.158" stroke="url(#paint2_linear_1624_5344)" stroke-width="7.32367" stroke-linecap="round" stroke-dasharray="38.16 38.16"/>
<path d="M23.9522 291.624C21.9771 291.676 20.4711 290.044 20.5883 287.98C20.7056 285.915 22.4019 284.199 24.3769 284.148L23.9522 291.624ZM355.469 260.326L356.039 263.954L355.469 260.326ZM528.082 204.058C526.185 204.809 524.192 203.858 523.631 201.935C523.069 200.011 524.152 197.842 526.05 197.091L528.082 204.058ZM495.207 209.099C497.11 208.37 499.091 209.345 499.631 211.278C500.171 213.21 499.065 215.367 497.162 216.097L495.207 209.099ZM466.099 227.79C464.189 228.496 462.222 227.494 461.705 225.553C461.188 223.612 462.318 221.467 464.228 220.761L466.099 227.79ZM433.149 231.994C435.066 231.318 437.016 232.352 437.504 234.303C437.991 236.255 436.832 238.385 434.915 239.061L433.149 231.994ZM403.563 249.767C401.635 250.401 399.711 249.321 399.265 247.356C398.818 245.39 400.019 243.283 401.947 242.649L403.563 249.767ZM370.597 252.4C372.539 251.838 374.419 252.993 374.795 254.981C375.171 256.968 373.901 259.035 371.958 259.597L370.597 252.4ZM335.298 268.38C333.327 268.738 331.586 267.379 331.409 265.345C331.232 263.311 332.685 261.372 334.656 261.014L335.298 268.38ZM293.404 267.062C295.382 266.822 297.036 268.291 297.099 270.342C297.162 272.394 295.61 274.251 293.632 274.49L293.404 267.062ZM252.091 278.868C250.112 279.051 248.502 277.531 248.494 275.474C248.485 273.417 250.083 271.601 252.061 271.418L252.091 278.868ZM210.643 274.845C212.621 274.698 214.204 276.249 214.177 278.309C214.151 280.369 212.526 282.158 210.548 282.305L210.643 274.845ZM169.031 285.11C167.053 285.232 165.49 283.659 165.541 281.597C165.592 279.536 167.236 277.766 169.214 277.644L169.031 285.11ZM127.779 279.973C129.756 279.872 131.302 281.462 131.232 283.524C131.163 285.587 129.503 287.342 127.526 287.443L127.779 279.973ZM86.073 289.387C84.0964 289.471 82.5639 287.867 82.6502 285.803C82.7365 283.74 84.4089 281.999 86.3856 281.914L86.073 289.387ZM44.9233 283.507C46.8992 283.44 48.4177 285.059 48.3151 287.123C48.2124 289.187 46.5275 290.915 44.5516 290.982L44.9233 283.507ZM542.476 194.413C543.526 197.883 543.526 197.883 543.526 197.883C543.526 197.883 543.525 197.883 543.525 197.883C543.525 197.883 543.525 197.883 543.524 197.884C543.524 197.884 543.523 197.884 543.521 197.885C543.518 197.886 543.514 197.888 543.508 197.89C543.497 197.895 543.48 197.902 543.457 197.911C543.412 197.929 543.345 197.956 543.257 197.992C543.08 198.064 542.816 198.171 542.471 198.311C541.779 198.59 540.757 199.003 539.432 199.535C536.783 200.599 532.924 202.142 528.082 204.058L526.05 197.091C530.878 195.18 534.725 193.642 537.363 192.582C538.682 192.052 539.699 191.642 540.386 191.364C540.729 191.225 540.99 191.12 541.164 191.049C541.252 191.014 541.317 190.987 541.361 190.969C541.383 190.96 541.4 190.953 541.41 190.949C541.416 190.947 541.42 190.945 541.423 190.944C541.424 190.944 541.425 190.943 541.425 190.943C541.426 190.943 541.426 190.943 541.426 190.943C541.426 190.943 541.426 190.943 541.426 190.943C541.426 190.943 541.426 190.943 542.476 194.413ZM497.162 216.097C487.645 219.742 477.135 223.712 466.099 227.79L464.228 220.761C475.232 216.695 485.714 212.735 495.207 209.099L497.162 216.097ZM434.915 239.061C424.434 242.756 413.869 246.379 403.563 249.767L401.947 242.649C412.193 239.28 422.708 235.675 433.149 231.994L434.915 239.061ZM371.958 259.597C366.415 261.2 361.084 262.664 356.039 263.954L354.899 256.697C359.858 255.43 365.113 253.986 370.597 252.4L371.958 259.597ZM356.039 263.954C349.937 265.514 342.965 266.987 335.298 268.38L334.656 261.014C342.211 259.642 349.008 258.203 354.899 256.697L356.039 263.954ZM293.632 274.49C280.521 276.078 266.534 277.535 252.091 278.868L252.061 271.418C266.454 270.09 280.373 268.64 293.404 267.062L293.632 274.49ZM210.548 282.305C196.658 283.337 182.707 284.27 169.031 285.11L169.214 277.644C182.865 276.806 196.786 275.875 210.643 274.845L210.548 282.305ZM127.526 287.443C112.685 288.204 98.6906 288.849 86.073 289.387L86.3856 281.914C98.986 281.377 112.96 280.733 127.779 279.973L127.526 287.443ZM44.5516 290.982C38.058 291.203 32.91 291.364 29.3845 291.469C27.6218 291.521 26.2646 291.56 25.3477 291.586C24.8892 291.599 24.5408 291.608 24.3068 291.615C24.1898 291.618 24.1014 291.62 24.0421 291.622C24.0124 291.623 23.9901 291.623 23.9751 291.624C23.9676 291.624 23.9619 291.624 23.9581 291.624C23.9562 291.624 23.9547 291.624 23.9537 291.624C23.9532 291.624 23.9529 291.624 23.9526 291.624C23.9525 291.624 23.9524 291.624 23.9523 291.624C23.9523 291.624 23.9522 291.624 24.1645 287.886C24.3769 284.148 24.3769 284.148 24.377 284.148C24.377 284.148 24.3771 284.148 24.3772 284.148C24.3774 284.148 24.3777 284.148 24.3781 284.148C24.379 284.148 24.3803 284.147 24.3821 284.147C24.3857 284.147 24.3911 284.147 24.3984 284.147C24.4129 284.147 24.4348 284.146 24.464 284.145C24.5223 284.144 24.6097 284.141 24.7258 284.138C24.9579 284.132 25.3043 284.122 25.7607 284.11C26.6735 284.084 28.0265 284.045 29.7848 283.993C33.3015 283.888 38.44 283.728 44.9233 283.507L44.5516 290.982Z" fill="url(#paint3_linear_1624_5344)"/>
<path d="M541.667 291.968C541.667 291.968 462.017 306.58 388.538 307.159C162.569 308.939 22.6054 318.145 22.6054 318.145" stroke="url(#paint4_linear_1624_5344)" stroke-width="7.32367" stroke-linecap="round" stroke-dasharray="38.16 38.16"/>
<path d="M545.907 778.379C545.907 778.379 529 684.5 302.5 567.5C84.366 454.822 6.69469 468.665 6.69469 468.665" stroke="url(#paint5_linear_1624_5344)" stroke-width="7.32367" stroke-dasharray="38.16 38.16"/>
<path d="M551.055 383.501L276.052 360.001L18.3911 355.919" stroke="url(#paint6_linear_1624_5344)" stroke-width="8" stroke-linecap="round" stroke-dasharray="50.11 50.11"/>
<path d="M545.605 483.507C545.605 483.507 374.127 414.004 264.943 400.138C155.762 386.272 15.783 383.674 15.783 383.674" stroke="url(#paint7_linear_1624_5344)" stroke-width="8" stroke-linecap="round" stroke-dasharray="50.11 50.11"/>
<path d="M540.262 654.791C540.262 654.791 389.484 555.057 296.982 512.221C205.25 469.741 12.9323 443.032 12.9323 443.032" stroke="url(#paint8_linear_1624_5344)" stroke-width="6.55275" stroke-linecap="round" stroke-dasharray="50.88 50.88"/>
<path d="M533.945 561.059C533.945 561.059 397.804 499.111 302.6 466.546C194.984 429.735 12.6233 414.702 12.6233 414.702" stroke="url(#paint9_linear_1624_5344)" stroke-width="8" stroke-linecap="round" stroke-dasharray="50.88 50.88"/>
<defs>
<linearGradient id="paint0_linear_1624_5344" x1="546.714" y1="127.14" x2="12.6567" y2="228.708" gradientUnits="userSpaceOnUse">
<stop stop-color="#A4A694"/>
<stop offset="0.673432" stop-color="#4B4C43" stop-opacity="0.112708"/>
<stop offset="1" stop-color="#3F4039" stop-opacity="0"/>
</linearGradient>
<linearGradient id="paint1_linear_1624_5344" x1="506.725" y1="62.44" x2="16.1342" y2="179.247" gradientUnits="userSpaceOnUse">
<stop stop-color="#A8A991" stop-opacity="0.8"/>
<stop offset="0.681874" stop-color="#CDCEC0" stop-opacity="0.562941"/>
<stop offset="1" stop-color="#CCCEBF" stop-opacity="0.2"/>
</linearGradient>
<linearGradient id="paint2_linear_1624_5344" x1="491.451" y1="1.49143" x2="1.42484" y2="141.947" gradientUnits="userSpaceOnUse">
<stop stop-color="#C8CAB0" stop-opacity="0.92"/>
<stop offset="1" stop-color="#CCCEBF" stop-opacity="0.3"/>
</linearGradient>
<linearGradient id="paint3_linear_1624_5344" x1="538.405" y1="173.009" x2="142.182" y2="245.371" gradientUnits="userSpaceOnUse">
<stop stop-color="#A1A587"/>
<stop offset="0.50291" stop-color="#7A7E67" stop-opacity="0.642752"/>
<stop offset="1" stop-color="#3D3F33" stop-opacity="0.07"/>
</linearGradient>
<linearGradient id="paint4_linear_1624_5344" x1="530.443" y1="232.949" x2="24.6951" y2="329.133" gradientUnits="userSpaceOnUse">
<stop stop-color="#A1A587"/>
<stop offset="1" stop-color="#3D3F34" stop-opacity="0"/>
</linearGradient>
<linearGradient id="paint5_linear_1624_5344" x1="-11.8654" y1="447.079" x2="492.151" y2="605.736" gradientUnits="userSpaceOnUse">
<stop stop-color="#CDCEC0" stop-opacity="0.2"/>
<stop offset="1" stop-color="#CCCEBF"/>
</linearGradient>
<linearGradient id="paint6_linear_1624_5344" x1="539.278" y1="372.136" x2="18.3365" y2="358.032" gradientUnits="userSpaceOnUse">
<stop stop-color="#A1A587"/>
<stop offset="1" stop-color="#3D3F34" stop-opacity="0"/>
</linearGradient>
<linearGradient id="paint7_linear_1624_5344" x1="536.836" y1="483.314" x2="76.3997" y2="310.452" gradientUnits="userSpaceOnUse">
<stop stop-color="#A1A587"/>
<stop offset="1" stop-color="#CCCEBF"/>
</linearGradient>
<linearGradient id="paint8_linear_1624_5344" x1="523.555" y1="644.5" x2="77.9361" y2="372.664" gradientUnits="userSpaceOnUse">
<stop stop-color="#969783" stop-opacity="0.8"/>
<stop offset="0.484605" stop-color="#CDCEC0" stop-opacity="0.504788"/>
<stop offset="1" stop-color="#B3B9A5" stop-opacity="0.2"/>
</linearGradient>
<linearGradient id="paint9_linear_1624_5344" x1="267.373" y1="422.733" x2="207.122" y2="538.845" gradientUnits="userSpaceOnUse">
<stop stop-color="#C0C1B0"/>
<stop offset="1" stop-color="#CCCEBF"/>
</linearGradient>
</defs>
</svg>
