<svg width="551" height="809" viewBox="0 0 551 809" fill="none" xmlns="http://www.w3.org/2000/svg">
<path d="M5.13423 108.573C5.13423 108.573 104.694 158.478 170.718 181.905C287.116 223.206 476.57 245.12 476.57 245.12L531.036 253.022" stroke="url(#paint0_linear_1624_5355)" stroke-width="7.32367" stroke-linecap="round" stroke-dasharray="38.16 38.16"/>
<path d="M4.38281 31.5781C4.38281 31.5781 145.395 115.307 211.419 138.735C423.083 213.839 532.884 227.823 532.884 227.823" stroke="url(#paint1_linear_1624_5355)" stroke-width="8" stroke-linecap="round" stroke-dasharray="38.16 38.16"/>
<path d="M-8.32812 -68C-8.32812 -68 161.688 68.5454 256.968 106.55C469.083 191.158 531.782 191.158 531.782 191.158" stroke="url(#paint2_linear_1624_5355)" stroke-width="7.32367" stroke-linecap="round" stroke-dasharray="38.16 38.16"/>
<path d="M526.267 281.624C528.242 281.676 529.748 280.044 529.63 277.98C529.513 275.915 527.817 274.199 525.842 274.148L526.267 281.624ZM194.75 250.326L194.18 253.954L194.75 250.326ZM22.1364 194.058C24.0337 194.809 26.0268 193.858 26.5881 191.935C27.1494 190.011 26.0664 187.842 24.1692 187.091L22.1364 194.058ZM55.0121 199.099C53.1086 198.37 51.1279 199.345 50.588 201.278C50.0482 203.21 51.1536 205.367 53.057 206.097L55.0121 199.099ZM84.1197 217.79C86.0295 218.496 87.9967 217.494 88.5136 215.553C89.0304 213.612 87.9011 211.467 85.9912 210.761L84.1197 217.79ZM117.07 221.994C115.153 221.318 113.203 222.352 112.715 224.303C112.227 226.255 113.387 228.385 115.304 229.061L117.07 221.994ZM146.656 239.767C148.584 240.401 150.508 239.321 150.954 237.356C151.4 235.39 150.199 233.283 148.272 232.649L146.656 239.767ZM179.622 242.4C177.679 241.838 175.8 242.993 175.424 244.981C175.048 246.968 176.318 249.035 178.261 249.597L179.622 242.4ZM214.921 258.38C216.892 258.738 218.633 257.379 218.81 255.345C218.987 253.311 217.533 251.372 215.563 251.014L214.921 258.38ZM256.814 257.062C254.837 256.822 253.183 258.291 253.12 260.342C253.057 262.394 254.609 264.251 256.587 264.49L256.814 257.062ZM298.128 268.868C300.107 269.051 301.717 267.531 301.725 265.474C301.733 263.417 300.136 261.601 298.157 261.418L298.128 268.868ZM339.576 264.845C337.598 264.698 336.015 266.249 336.041 268.309C336.067 270.369 337.692 272.158 339.671 272.305L339.576 264.845ZM381.188 275.11C383.166 275.232 384.728 273.659 384.678 271.597C384.627 269.536 382.983 267.766 381.005 267.644L381.188 275.11ZM422.44 269.973C420.463 269.872 418.916 271.462 418.986 273.524C419.056 275.587 420.716 277.342 422.693 277.443L422.44 269.973ZM464.146 279.387C466.122 279.471 467.655 277.867 467.569 275.803C467.482 273.74 465.81 271.999 463.833 271.914L464.146 279.387ZM505.295 273.507C503.32 273.44 501.801 275.059 501.904 277.123C502.006 279.187 503.691 280.915 505.667 280.982L505.295 273.507ZM7.74277 184.413C6.69307 187.883 6.69312 187.883 6.6932 187.883C6.69325 187.883 6.69334 187.883 6.69345 187.883C6.69366 187.883 6.69396 187.883 6.69434 187.884C6.69512 187.884 6.69624 187.884 6.69771 187.885C6.70065 187.886 6.70499 187.888 6.71071 187.89C6.72216 187.895 6.73916 187.902 6.76165 187.911C6.80664 187.929 6.87362 187.956 6.96213 187.992C7.13917 188.064 7.40237 188.171 7.74821 188.311C8.43989 188.59 9.46214 189.003 10.7867 189.535C13.4358 190.599 17.2944 192.142 22.1364 194.058L24.1692 187.091C19.3403 185.18 15.4939 183.642 12.8557 182.582C11.5366 182.052 10.5197 181.642 9.83303 181.364C9.48972 181.225 9.22899 181.12 9.05439 181.049C8.96708 181.014 8.90131 180.987 8.85751 180.969C8.83561 180.96 8.8192 180.953 8.80834 180.949C8.80291 180.947 8.79887 180.945 8.79622 180.944C8.79489 180.944 8.79392 180.943 8.79329 180.943C8.79298 180.943 8.79275 180.943 8.79261 180.943C8.79254 180.943 8.79251 180.943 8.79247 180.943C8.79245 180.943 8.79246 180.943 7.74277 184.413ZM53.057 206.097C62.5733 209.742 73.0834 213.712 84.1197 217.79L85.9912 210.761C74.987 206.695 64.5051 202.735 55.0121 199.099L53.057 206.097ZM115.304 229.061C125.784 232.756 136.35 236.379 146.656 239.767L148.272 232.649C138.025 229.28 127.511 225.675 117.07 221.994L115.304 229.061ZM178.261 249.597C183.804 251.2 189.135 252.664 194.18 253.954L195.32 246.697C190.361 245.43 185.105 243.986 179.622 242.4L178.261 249.597ZM194.18 253.954C200.282 255.514 207.254 256.987 214.921 258.38L215.563 251.014C208.008 249.642 201.21 248.203 195.32 246.697L194.18 253.954ZM256.587 264.49C269.698 266.078 283.685 267.535 298.128 268.868L298.157 261.418C283.765 260.09 269.845 258.64 256.814 257.062L256.587 264.49ZM339.671 272.305C353.561 273.337 367.512 274.27 381.188 275.11L381.005 267.644C367.354 266.806 353.433 265.875 339.576 264.845L339.671 272.305ZM422.693 277.443C437.534 278.204 451.528 278.849 464.146 279.387L463.833 271.914C451.233 271.377 437.258 270.733 422.44 269.973L422.693 277.443ZM505.667 280.982C512.161 281.203 517.309 281.364 520.834 281.469C522.597 281.521 523.954 281.56 524.871 281.586C525.33 281.599 525.678 281.608 525.912 281.615C526.029 281.618 526.117 281.62 526.177 281.622C526.206 281.623 526.229 281.623 526.244 281.624C526.251 281.624 526.257 281.624 526.261 281.624C526.263 281.624 526.264 281.624 526.265 281.624C526.266 281.624 526.266 281.624 526.266 281.624C526.266 281.624 526.266 281.624 526.266 281.624C526.266 281.624 526.267 281.624 526.054 277.886C525.842 274.148 525.842 274.148 525.842 274.148C525.842 274.148 525.842 274.148 525.842 274.148C525.841 274.148 525.841 274.148 525.841 274.148C525.84 274.148 525.838 274.147 525.837 274.147C525.833 274.147 525.828 274.147 525.82 274.147C525.806 274.147 525.784 274.146 525.755 274.145C525.696 274.144 525.609 274.141 525.493 274.138C525.261 274.132 524.914 274.122 524.458 274.11C523.545 274.084 522.192 274.045 520.434 273.993C516.917 273.888 511.779 273.728 505.295 273.507L505.667 280.982Z" fill="url(#paint3_linear_1624_5355)"/>
<path d="M8.55131 281.968C8.55131 281.968 88.202 296.58 161.68 297.159C387.65 298.939 527.613 308.145 527.613 308.145" stroke="url(#paint4_linear_1624_5355)" stroke-width="7.32367" stroke-linecap="round" stroke-dasharray="38.16 38.16"/>
<path d="M4.3118 768.379C4.3118 768.379 21.2188 674.5 247.719 557.5C465.853 444.822 543.524 458.665 543.524 458.665" stroke="url(#paint5_linear_1624_5355)" stroke-width="7.32367" stroke-dasharray="38.16 38.16"/>
<path d="M-0.835937 373.501L274.167 350.001L531.828 345.919" stroke="url(#paint6_linear_1624_5355)" stroke-width="8" stroke-linecap="round" stroke-dasharray="50.11 50.11"/>
<path d="M4.61385 473.507C4.61385 473.507 176.092 404.004 285.275 390.138C394.457 376.272 534.436 373.674 534.436 373.674" stroke="url(#paint7_linear_1624_5355)" stroke-width="8" stroke-linecap="round" stroke-dasharray="50.11 50.11"/>
<path d="M9.95711 644.791C9.95711 644.791 160.735 545.057 253.236 502.221C344.969 459.741 537.286 433.032 537.286 433.032" stroke="url(#paint8_linear_1624_5355)" stroke-width="6.55275" stroke-linecap="round" stroke-dasharray="50.88 50.88"/>
<path d="M16.2734 551.059C16.2734 551.059 152.415 489.111 247.619 456.546C355.235 419.735 537.595 404.702 537.595 404.702" stroke="url(#paint9_linear_1624_5355)" stroke-width="8" stroke-linecap="round" stroke-dasharray="50.88 50.88"/>
<defs>
<linearGradient id="paint0_linear_1624_5355" x1="3.50489" y1="117.14" x2="537.562" y2="218.708" gradientUnits="userSpaceOnUse">
<stop stop-color="#A4A694"/>
<stop offset="0.673432" stop-color="#4B4C43" stop-opacity="0.112708"/>
<stop offset="1" stop-color="#3F4039" stop-opacity="0"/>
</linearGradient>
<linearGradient id="paint1_linear_1624_5355" x1="43.494" y1="52.44" x2="534.085" y2="169.247" gradientUnits="userSpaceOnUse">
<stop stop-color="#A8A991" stop-opacity="0.8"/>
<stop offset="0.681874" stop-color="#CDCEC0" stop-opacity="0.562941"/>
<stop offset="1" stop-color="#CCCEBF" stop-opacity="0.2"/>
</linearGradient>
<linearGradient id="paint2_linear_1624_5355" x1="58.768" y1="-8.50857" x2="548.794" y2="131.947" gradientUnits="userSpaceOnUse">
<stop stop-color="#C8CAB0" stop-opacity="0.92"/>
<stop offset="1" stop-color="#CCCEBF" stop-opacity="0.3"/>
</linearGradient>
<linearGradient id="paint3_linear_1624_5355" x1="11.8134" y1="163.009" x2="304.784" y2="229.177" gradientUnits="userSpaceOnUse">
<stop stop-color="#A1A587"/>
<stop offset="0.50291" stop-color="#7A7E67" stop-opacity="0.642752"/>
<stop offset="1" stop-color="#3D3F33" stop-opacity="0.07"/>
</linearGradient>
<linearGradient id="paint4_linear_1624_5355" x1="19.7757" y1="222.949" x2="525.524" y2="319.133" gradientUnits="userSpaceOnUse">
<stop stop-color="#A1A587"/>
<stop offset="1" stop-color="#3D3F34" stop-opacity="0"/>
</linearGradient>
<linearGradient id="paint5_linear_1624_5355" x1="562.084" y1="437.079" x2="58.0674" y2="595.736" gradientUnits="userSpaceOnUse">
<stop stop-color="#CDCEC0" stop-opacity="0.2"/>
<stop offset="1" stop-color="#CCCEBF"/>
</linearGradient>
<linearGradient id="paint6_linear_1624_5355" x1="10.9407" y1="362.136" x2="531.882" y2="348.032" gradientUnits="userSpaceOnUse">
<stop stop-color="#A1A587"/>
<stop offset="1" stop-color="#3D3F34" stop-opacity="0"/>
</linearGradient>
<linearGradient id="paint7_linear_1624_5355" x1="13.3831" y1="473.314" x2="473.819" y2="300.452" gradientUnits="userSpaceOnUse">
<stop stop-color="#A1A587"/>
<stop offset="1" stop-color="#CCCEBF"/>
</linearGradient>
<linearGradient id="paint8_linear_1624_5355" x1="26.664" y1="634.5" x2="472.283" y2="362.664" gradientUnits="userSpaceOnUse">
<stop stop-color="#969783" stop-opacity="0.8"/>
<stop offset="0.484605" stop-color="#CDCEC0" stop-opacity="0.504788"/>
<stop offset="1" stop-color="#B3B9A5" stop-opacity="0.2"/>
</linearGradient>
<linearGradient id="paint9_linear_1624_5355" x1="282.846" y1="412.733" x2="343.097" y2="528.845" gradientUnits="userSpaceOnUse">
<stop stop-color="#C0C1B0"/>
<stop offset="1" stop-color="#CCCEBF"/>
</linearGradient>
</defs>
</svg>
