<svg width="90" height="90" viewBox="0 0 90 90" fill="none" xmlns="http://www.w3.org/2000/svg">
<rect width="90" height="90" rx="45" fill="#25291B"/>
<path d="M64.1663 49.1435L64.1666 27.5783C64.1668 16.8792 55.4938 8.20601 44.7947 8.20594V8.20594V8.20594C34.6768 8.20594 26.2004 16.1095 26.1087 26.227C26.1045 26.6973 26.1022 27.1563 26.1022 27.6009" stroke="#EB8F44" stroke-width="4.51259"/>
<ellipse cx="2.49529" cy="2.49445" rx="2.49529" ry="2.49445" transform="matrix(0.999985 0.00543151 -0.00547953 0.999985 23.5781 33.5552)" fill="#EB8F44"/>
<ellipse cx="2.49529" cy="2.49445" rx="2.49529" ry="2.49445" transform="matrix(0.999985 0.00543151 -0.00547953 0.999985 31.6875 33.5845)" fill="#E3E7D3"/>
<path d="M24.9084 49.5713L24.8094 62.9748C24.7298 73.7624 33.3745 82.5894 44.1614 82.7349V82.7349C54.8707 82.8793 63.7179 74.4083 64.0387 63.7028L64.1019 61.5932" stroke="#E3E7D3" stroke-width="4.51259"/>
<path d="M55.3378 43.4539L55.3115 62.3852C55.3033 68.3139 50.452 73.0935 44.5239 73.0136V73.0136C38.6716 72.9347 33.9818 68.1452 34.026 62.2926L34.137 47.5944C34.1658 43.7778 29.7968 41.5939 26.7609 43.9074V43.9074C25.6208 44.7763 24.9516 46.1275 24.9517 47.5609L24.9517 49.9291" stroke="#E3E7D3" stroke-width="4.51259"/>
<path d="M44.7357 17.8811L44.6985 15.6251L44.7354 15.6245L44.7724 15.6251L44.7357 17.8811ZM44.1093 17.8914L44.0721 15.6354L44.1093 17.8914ZM36.5413 35.5554C36.5413 36.8015 35.5311 37.8117 34.285 37.8117C33.0389 37.8117 32.0287 36.8015 32.0287 35.5554H36.5413ZM44.7729 20.1371L44.1465 20.1474L44.0721 15.6354L44.6985 15.6251L44.7729 20.1371ZM36.5413 27.8791V35.5554H32.0287V27.8791H36.5413ZM53.0875 43.8285L53.0875 31.5241H57.6L57.6 43.8285H53.0875ZM53.0875 31.5241V28.6629H57.6V31.5241H53.0875ZM32.0287 27.8791C32.0287 21.1949 37.3888 15.7457 44.0721 15.6354L44.1465 20.1474C39.9261 20.217 36.5413 23.6582 36.5413 27.8791H32.0287ZM44.7724 15.6251C51.8904 15.7408 57.6 21.544 57.6 28.6629H53.0875C53.0875 24.0076 49.3537 20.2127 44.6991 20.1371L44.7724 15.6251Z" fill="#E3E7D3"/>
<ellipse cx="3.04874" cy="3.04051" rx="3.04874" ry="3.04051" transform="matrix(0.999985 0.00543151 -0.00547953 0.999985 61.1172 58.2505)" fill="#E3E7D3"/>
<ellipse cx="64.3678" cy="49.0939" rx="3.00839" ry="3.38444" fill="#EB8F44"/>
<circle cx="26.0084" cy="26.9071" r="3.00839" fill="#EB8F44"/>
</svg>
