<svg width="54" height="85" viewBox="0 0 54 85" fill="none" xmlns="http://www.w3.org/2000/svg">
<g filter="url(#filter0_d_1534_2925)">
<path d="M46.1663 44.1435L46.1666 22.5783C46.1668 11.8792 37.4938 3.20601 26.7947 3.20594V3.20594V3.20594C16.6768 3.20594 8.2004 11.1095 8.10872 21.227C8.10446 21.6973 8.1022 22.1563 8.1022 22.6009" stroke="#EB8F44" stroke-width="4.51259"/>
<ellipse cx="2.49529" cy="2.49445" rx="2.49529" ry="2.49445" transform="matrix(0.999985 0.00543151 -0.00547953 0.999985 5.57812 28.5552)" fill="#EB8F44"/>
<ellipse cx="2.49529" cy="2.49445" rx="2.49529" ry="2.49445" transform="matrix(0.999985 0.00543151 -0.00547953 0.999985 13.6875 28.5845)" fill="#25291C"/>
<path d="M6.90843 44.5713L6.80943 57.9748C6.72975 68.7624 15.3745 77.5894 26.1614 77.7349V77.7349C36.8707 77.8793 45.7179 69.4083 46.0387 58.7028L46.1019 56.5932" stroke="#25291C" stroke-width="4.51259"/>
<path d="M37.3378 38.4539L37.3115 57.3852C37.3033 63.3139 32.452 68.0935 26.5239 68.0136V68.0136C20.6716 67.9347 15.9818 63.1452 16.026 57.2926L16.137 42.5944C16.1658 38.7778 11.7968 36.5939 8.76094 38.9074V38.9074C7.62082 39.7763 6.95165 41.1275 6.95167 42.5609L6.95172 44.9291" stroke="#25291C" stroke-width="4.51259"/>
<path d="M26.7357 12.8811L26.6985 10.6251L26.7354 10.6245L26.7724 10.6251L26.7357 12.8811ZM26.1093 12.8914L26.1465 15.1474L26.1093 12.8914ZM18.5413 30.5554C18.5413 31.8015 17.5311 32.8117 16.285 32.8117C15.0389 32.8117 14.0287 31.8015 14.0287 30.5554H18.5413ZM26.7729 15.1371L26.1465 15.1474L26.0721 10.6354L26.6985 10.6251L26.7729 15.1371ZM18.5413 22.8791L18.5413 30.5554H14.0287L14.0287 22.8791H18.5413ZM35.0875 38.8285L35.0875 26.5241H39.6L39.6 38.8285H35.0875ZM35.0875 26.5241V23.6629H39.6V26.5241H35.0875ZM14.0287 22.8791C14.0287 16.1949 19.3888 10.7457 26.0721 10.6354L26.1465 15.1474C21.9261 15.217 18.5413 18.6582 18.5413 22.8791H14.0287ZM26.7724 10.6251C33.8904 10.7408 39.6 16.544 39.6 23.6629H35.0875C35.0875 19.0076 31.3537 15.2127 26.6991 15.1371L26.7724 10.6251Z" fill="#25291C"/>
<ellipse cx="3.04874" cy="3.04051" rx="3.04874" ry="3.04051" transform="matrix(0.999985 0.00543151 -0.00547953 0.999985 43.1172 53.2505)" fill="#25291C"/>
<ellipse cx="46.3678" cy="44.0939" rx="3.00839" ry="3.38444" fill="#EB8F44"/>
<circle cx="8.00839" cy="21.9071" r="3.00839" fill="#EB8F44"/>
</g>
<defs>
<filter id="filter0_d_1534_2925" x="0.0546875" y="0.949707" width="53.8203" height="88.0432" filterUnits="userSpaceOnUse" color-interpolation-filters="sRGB">
<feFlood flood-opacity="0" result="BackgroundImageFix"/>
<feColorMatrix in="SourceAlpha" type="matrix" values="0 0 0 0 0 0 0 0 0 0 0 0 0 0 0 0 0 0 127 0" result="hardAlpha"/>
<feOffset dy="4.5"/>
<feGaussianBlur stdDeviation="2.25"/>
<feComposite in2="hardAlpha" operator="out"/>
<feColorMatrix type="matrix" values="0 0 0 0 0 0 0 0 0 0 0 0 0 0 0 0 0 0 0.75 0"/>
<feBlend mode="normal" in2="BackgroundImageFix" result="effect1_dropShadow_1534_2925"/>
<feBlend mode="normal" in="SourceGraphic" in2="effect1_dropShadow_1534_2925" result="shape"/>
</filter>
</defs>
</svg>
