<svg width="46" height="80" viewBox="0 0 46 80" fill="none" xmlns="http://www.w3.org/2000/svg">
<path d="M42.1663 44.1435L42.1666 22.5783C42.1668 11.8792 33.4938 3.20601 22.7947 3.20594V3.20594V3.20594C12.6768 3.20594 4.2004 11.1095 4.10872 21.227C4.10446 21.6973 4.1022 22.1563 4.1022 22.6009" stroke="#EB8F44" stroke-width="4.51259"/>
<ellipse cx="2.49529" cy="2.49445" rx="2.49529" ry="2.49445" transform="matrix(0.999985 0.00543151 -0.00547953 0.999985 1.57812 28.5552)" fill="#EB8F44"/>
<ellipse cx="2.49529" cy="2.49445" rx="2.49529" ry="2.49445" transform="matrix(0.999985 0.00543151 -0.00547953 0.999985 9.6875 28.5845)" fill="#25291C"/>
<path d="M2.90843 44.5713L2.80943 57.9748C2.72975 68.7624 11.3745 77.5894 22.1614 77.7349V77.7349C32.8707 77.8793 41.7179 69.4083 42.0387 58.7028L42.1019 56.5932" stroke="#25291C" stroke-width="4.51259"/>
<path d="M33.3378 38.4539L33.3115 57.3852C33.3033 63.3139 28.452 68.0935 22.5239 68.0136V68.0136C16.6716 67.9347 11.9818 63.1452 12.026 57.2926L12.137 42.5944C12.1658 38.7778 7.79683 36.5939 4.76094 38.9074V38.9074C3.62082 39.7763 2.95165 41.1275 2.95167 42.5609L2.95172 44.9291" stroke="#25291C" stroke-width="4.51259"/>
<path d="M22.7357 12.8811L22.6985 10.6251L22.7354 10.6245L22.7724 10.6251L22.7357 12.8811ZM22.1093 12.8914L22.1465 15.1474L22.1093 12.8914ZM14.5413 30.5554C14.5413 31.8015 13.5311 32.8117 12.285 32.8117C11.0389 32.8117 10.0287 31.8015 10.0287 30.5554H14.5413ZM22.7729 15.1371L22.1465 15.1474L22.0721 10.6354L22.6985 10.6251L22.7729 15.1371ZM14.5413 22.8791L14.5413 30.5554H10.0287L10.0287 22.8791H14.5413ZM31.0875 38.8285V26.5241H35.6L35.6 38.8285H31.0875ZM31.0875 26.5241L31.0875 23.6629H35.6V26.5241H31.0875ZM10.0287 22.8791C10.0287 16.1949 15.3888 10.7457 22.0721 10.6354L22.1465 15.1474C17.9261 15.217 14.5413 18.6582 14.5413 22.8791H10.0287ZM22.7724 10.6251C29.8904 10.7408 35.6 16.544 35.6 23.6629H31.0875C31.0875 19.0076 27.3537 15.2127 22.6991 15.1371L22.7724 10.6251Z" fill="#25291C"/>
<ellipse cx="3.04874" cy="3.04051" rx="3.04874" ry="3.04051" transform="matrix(0.999985 0.00543151 -0.00547953 0.999985 39.1172 53.2505)" fill="#25291C"/>
<ellipse cx="42.3678" cy="44.0939" rx="3.00839" ry="3.38444" fill="#EB8F44"/>
<circle cx="4.00839" cy="21.9071" r="3.00839" fill="#EB8F44"/>
</svg>
