<svg width="524" height="102" viewBox="0 0 524 102" fill="none" xmlns="http://www.w3.org/2000/svg">
<path d="M3.9522 101.623C1.97709 101.675 0.471084 100.044 0.588334 97.9789C0.705643 95.9143 2.40186 94.1985 4.3769 94.1466L3.9522 101.623ZM335.469 70.3249L336.039 73.9534L335.469 70.3249ZM508.082 14.0575C506.185 14.8084 504.192 13.8575 503.631 11.9335C503.069 10.0096 504.152 7.84125 506.05 7.09036L508.082 14.0575ZM475.207 19.0981C477.11 18.369 479.091 19.3444 479.631 21.2766C480.171 23.2089 479.065 25.3664 477.162 26.0955L475.207 19.0981ZM446.099 37.7891C444.189 38.4948 442.222 37.4934 441.705 35.5524C441.188 33.6115 442.318 31.4659 444.228 30.7603L446.099 37.7891ZM413.149 41.9932C415.066 41.3171 417.016 42.351 417.504 44.3025C417.991 46.2539 416.832 48.384 414.915 49.0601L413.149 41.9932ZM383.563 59.7661C381.635 60.3999 379.711 59.3202 379.265 57.3546C378.818 55.3889 380.019 53.2817 381.947 52.648L383.563 59.7661ZM350.597 62.399C352.539 61.837 354.419 62.9925 354.795 64.9798C355.171 66.9671 353.901 69.0338 351.958 69.5958L350.597 62.399ZM315.298 78.3787C313.327 78.7366 311.586 77.3777 311.409 75.3437C311.232 73.3097 312.685 71.3707 314.656 71.0129L315.298 78.3787ZM273.404 77.0609C275.382 76.8214 277.036 78.2902 277.099 80.3415C277.162 82.3928 275.61 84.2499 273.632 84.4894L273.404 77.0609ZM232.091 88.867C230.112 89.0496 228.502 87.53 228.494 85.4729C228.485 83.4157 230.083 81.6 232.061 81.4173L232.091 88.867ZM190.643 84.8441C192.621 84.697 194.204 86.2478 194.177 88.3079C194.151 90.3679 192.526 92.1571 190.548 92.3041L190.643 84.8441ZM149.031 95.1094C147.053 95.2309 145.49 93.6581 145.541 91.5964C145.592 89.5347 147.236 87.7649 149.214 87.6434L149.031 95.1094ZM107.779 89.9721C109.756 89.8706 111.302 91.4606 111.232 93.5234C111.163 95.5861 109.503 97.3406 107.526 97.442L107.779 89.9721ZM66.073 99.3861C64.0964 99.4704 62.5639 97.8659 62.6502 95.8023C62.7365 93.7388 64.4089 91.9976 66.3856 91.9133L66.073 99.3861ZM24.9233 93.5064C26.8992 93.4392 28.4177 95.058 28.3151 97.1222C28.2124 99.1864 26.5275 100.914 24.5516 100.981L24.9233 93.5064ZM522.476 4.41183C523.526 7.88204 523.526 7.88206 523.526 7.88209C523.526 7.88211 523.525 7.88215 523.525 7.88219C523.525 7.88228 523.525 7.8824 523.524 7.88256C523.524 7.88287 523.523 7.88333 523.521 7.88393C523.518 7.88512 523.514 7.88689 523.508 7.88921C523.497 7.89387 523.48 7.90078 523.457 7.90991C523.412 7.92819 523.345 7.95538 523.257 7.99128C523.08 8.06309 522.816 8.16974 522.471 8.30959C521.779 8.58928 520.757 9.00179 519.432 9.53394C516.783 10.5982 512.924 12.1412 508.082 14.0575L506.05 7.09036C510.878 5.17924 514.725 3.64113 517.363 2.58124C518.682 2.05129 519.699 1.64092 520.386 1.36326C520.729 1.22444 520.99 1.11879 521.164 1.04797C521.252 1.01256 521.317 0.985853 521.361 0.968059C521.383 0.959164 521.4 0.952497 521.41 0.948082C521.416 0.945873 521.42 0.944232 521.423 0.943154C521.424 0.942615 521.425 0.942217 521.425 0.941964C521.426 0.941833 521.426 0.941744 521.426 0.941688C521.426 0.94166 521.426 0.941641 521.426 0.941627C521.426 0.941622 521.426 0.941624 522.476 4.41183ZM477.162 26.0955C467.645 29.7407 457.135 33.7112 446.099 37.7891L444.228 30.7603C455.232 26.6942 465.714 22.7343 475.207 19.0981L477.162 26.0955ZM414.915 49.0601C404.434 52.7554 393.869 56.3776 383.563 59.7661L381.947 52.648C392.193 49.2791 402.708 45.6745 413.149 41.9932L414.915 49.0601ZM351.958 69.5958C346.415 71.1995 341.084 72.6634 336.039 73.9534L334.899 66.6963C339.858 65.4285 345.113 63.9855 350.597 62.399L351.958 69.5958ZM336.039 73.9534C329.937 75.5134 322.965 76.9865 315.298 78.3787L314.656 71.0129C322.211 69.641 329.008 68.2022 334.899 66.6963L336.039 73.9534ZM273.632 84.4894C260.521 86.0772 246.534 87.5337 232.091 88.867L232.061 81.4173C246.454 80.0886 260.373 78.639 273.404 77.0609L273.632 84.4894ZM190.548 92.3041C176.658 93.3363 162.707 94.2693 149.031 95.1094L149.214 87.6434C162.865 86.8048 176.786 85.8738 190.643 84.8441L190.548 92.3041ZM107.526 97.442C92.6851 98.2035 78.6906 98.8481 66.073 99.3861L66.3856 91.9133C78.986 91.3761 92.9604 90.7324 107.779 89.9721L107.526 97.442ZM24.5516 100.981C18.058 101.202 12.91 101.363 9.38452 101.468C7.62175 101.521 6.26464 101.559 5.3477 101.585C4.88923 101.598 4.54084 101.607 4.30683 101.614C4.1898 101.617 4.10137 101.619 4.0421 101.621C4.01244 101.622 3.9901 101.622 3.97509 101.623C3.96758 101.623 3.96192 101.623 3.9581 101.623C3.9562 101.623 3.95472 101.623 3.95374 101.623C3.95324 101.623 3.95287 101.623 3.95263 101.623C3.9525 101.623 3.95238 101.623 3.95232 101.623C3.95226 101.623 3.9522 101.623 4.16455 97.8849C4.3769 94.1466 4.3769 94.1466 4.37696 94.1466C4.37703 94.1466 4.37709 94.1466 4.37715 94.1466C4.37739 94.1466 4.3777 94.1466 4.37813 94.1466C4.379 94.1465 4.38035 94.1465 4.38213 94.1465C4.3857 94.1464 4.39112 94.1462 4.39838 94.146C4.41291 94.1457 4.43481 94.1451 4.46398 94.1443C4.52226 94.1427 4.6097 94.1404 4.72576 94.1372C4.95786 94.1309 5.30427 94.1214 5.76065 94.1087C6.67354 94.0831 8.02646 94.0444 9.7848 93.992C13.3015 93.887 18.44 93.7269 24.9233 93.5064L24.5516 100.981Z" fill="url(#paint0_linear_1290_3569)"/>
<defs>
<linearGradient id="paint0_linear_1290_3569" x1="518.405" y1="-16.9922" x2="122.182" y2="55.3704" gradientUnits="userSpaceOnUse">
<stop stop-color="#A1A587"/>
<stop offset="0.50291" stop-color="#7A7E67" stop-opacity="0.642752"/>
<stop offset="1" stop-color="#3D3F33" stop-opacity="0.07"/>
</linearGradient>
</defs>
</svg>
