<svg width="551" height="809" viewBox="0 0 551 809" fill="none" xmlns="http://www.w3.org/2000/svg">
<path d="M545.085 151.575C545.085 151.575 445.524 201.48 379.5 224.907C263.102 266.208 73.6491 288.121 73.6491 288.121L19.1825 296.024" stroke="url(#paint0_linear_1290_3565)" stroke-width="7.32367" stroke-linecap="round" stroke-dasharray="38.16 38.16"/>
<path d="M545.836 74.5791C545.836 74.5791 404.824 158.308 338.8 181.736C127.135 256.84 17.3346 270.824 17.3346 270.824" stroke="url(#paint1_linear_1290_3565)" stroke-width="8" stroke-linecap="round" stroke-dasharray="38.16 38.16"/>
<path d="M558.547 -25C558.547 -25 388.53 111.545 293.251 149.55C81.1358 234.158 18.437 234.158 18.437 234.158" stroke="url(#paint2_linear_1290_3565)" stroke-width="7.32367" stroke-linecap="round" stroke-dasharray="38.16 38.16"/>
<path d="M23.9522 324.623C21.9771 324.675 20.4711 323.044 20.5883 320.979C20.7056 318.914 22.4019 317.199 24.3769 317.147L23.9522 324.623ZM355.469 293.325L356.039 296.953L355.469 293.325ZM528.082 237.058C526.185 237.808 524.192 236.857 523.631 234.934C523.069 233.01 524.152 230.841 526.05 230.09L528.082 237.058ZM495.207 242.098C497.11 241.369 499.091 242.344 499.631 244.277C500.171 246.209 499.065 248.366 497.162 249.096L495.207 242.098ZM466.099 260.789C464.189 261.495 462.222 260.493 461.705 258.552C461.188 256.611 462.318 254.466 464.228 253.76L466.099 260.789ZM433.149 264.993C435.066 264.317 437.016 265.351 437.504 267.302C437.991 269.254 436.832 271.384 434.915 272.06L433.149 264.993ZM403.563 282.766C401.635 283.4 399.711 282.32 399.265 280.355C398.818 278.389 400.019 276.282 401.947 275.648L403.563 282.766ZM370.597 285.399C372.539 284.837 374.419 285.992 374.795 287.98C375.171 289.967 373.901 292.034 371.958 292.596L370.597 285.399ZM335.298 301.379C333.327 301.737 331.586 300.378 331.409 298.344C331.232 296.31 332.685 294.371 334.656 294.013L335.298 301.379ZM293.404 300.061C295.382 299.821 297.036 301.29 297.099 303.341C297.162 305.393 295.61 307.25 293.632 307.489L293.404 300.061ZM252.091 311.867C250.112 312.05 248.502 310.53 248.494 308.473C248.485 306.416 250.083 304.6 252.061 304.417L252.091 311.867ZM210.643 307.844C212.621 307.697 214.204 309.248 214.177 311.308C214.151 313.368 212.526 315.157 210.548 315.304L210.643 307.844ZM169.031 318.109C167.053 318.231 165.49 316.658 165.541 314.596C165.592 312.535 167.236 310.765 169.214 310.643L169.031 318.109ZM127.779 312.972C129.756 312.871 131.302 314.461 131.232 316.523C131.163 318.586 129.503 320.341 127.526 320.442L127.779 312.972ZM86.073 322.386C84.0964 322.47 82.5639 320.866 82.6502 318.802C82.7365 316.739 84.4089 314.998 86.3856 314.913L86.073 322.386ZM44.9233 316.506C46.8992 316.439 48.4177 318.058 48.3151 320.122C48.2124 322.186 46.5275 323.914 44.5516 323.981L44.9233 316.506ZM542.476 227.412C543.526 230.882 543.526 230.882 543.526 230.882C543.526 230.882 543.525 230.882 543.525 230.882C543.525 230.882 543.525 230.882 543.524 230.883C543.524 230.883 543.523 230.883 543.521 230.884C543.518 230.885 543.514 230.887 543.508 230.889C543.497 230.894 543.48 230.901 543.457 230.91C543.412 230.928 543.345 230.955 543.257 230.991C543.08 231.063 542.816 231.17 542.471 231.31C541.779 231.589 540.757 232.002 539.432 232.534C536.783 233.598 532.924 235.141 528.082 237.058L526.05 230.09C530.878 228.179 534.725 226.641 537.363 225.581C538.682 225.051 539.699 224.641 540.386 224.363C540.729 224.224 540.99 224.119 541.164 224.048C541.252 224.013 541.317 223.986 541.361 223.968C541.383 223.959 541.4 223.952 541.41 223.948C541.416 223.946 541.42 223.944 541.423 223.943C541.424 223.943 541.425 223.942 541.425 223.942C541.426 223.942 541.426 223.942 541.426 223.942C541.426 223.942 541.426 223.942 541.426 223.942C541.426 223.942 541.426 223.942 542.476 227.412ZM497.162 249.096C487.645 252.741 477.135 256.711 466.099 260.789L464.228 253.76C475.232 249.694 485.714 245.734 495.207 242.098L497.162 249.096ZM434.915 272.06C424.434 275.755 413.869 279.378 403.563 282.766L401.947 275.648C412.193 272.279 422.708 268.674 433.149 264.993L434.915 272.06ZM371.958 292.596C366.415 294.199 361.084 295.663 356.039 296.953L354.899 289.696C359.858 288.429 365.113 286.985 370.597 285.399L371.958 292.596ZM356.039 296.953C349.937 298.513 342.965 299.987 335.298 301.379L334.656 294.013C342.211 292.641 349.008 291.202 354.899 289.696L356.039 296.953ZM293.632 307.489C280.521 309.077 266.534 310.534 252.091 311.867L252.061 304.417C266.454 303.089 280.373 301.639 293.404 300.061L293.632 307.489ZM210.548 315.304C196.658 316.336 182.707 317.269 169.031 318.109L169.214 310.643C182.865 309.805 196.786 308.874 210.643 307.844L210.548 315.304ZM127.526 320.442C112.685 321.203 98.6906 321.848 86.073 322.386L86.3856 314.913C98.986 314.376 112.96 313.732 127.779 312.972L127.526 320.442ZM44.5516 323.981C38.058 324.202 32.91 324.363 29.3845 324.468C27.6218 324.521 26.2646 324.559 25.3477 324.585C24.8892 324.598 24.5408 324.607 24.3068 324.614C24.1898 324.617 24.1014 324.619 24.0421 324.621C24.0124 324.622 23.9901 324.622 23.9751 324.623C23.9676 324.623 23.9619 324.623 23.9581 324.623C23.9562 324.623 23.9547 324.623 23.9537 324.623C23.9532 324.623 23.9529 324.623 23.9526 324.623C23.9525 324.623 23.9524 324.623 23.9523 324.623C23.9523 324.623 23.9522 324.623 24.1645 320.885C24.3769 317.147 24.3769 317.147 24.377 317.147C24.377 317.147 24.3771 317.147 24.3772 317.147C24.3774 317.147 24.3777 317.147 24.3781 317.147C24.379 317.147 24.3803 317.147 24.3821 317.146C24.3857 317.146 24.3911 317.146 24.3984 317.146C24.4129 317.146 24.4348 317.145 24.464 317.144C24.5223 317.143 24.6097 317.14 24.7258 317.137C24.9579 317.131 25.3043 317.121 25.7607 317.109C26.6735 317.083 28.0265 317.044 29.7848 316.992C33.3015 316.887 38.44 316.727 44.9233 316.506L44.5516 323.981Z" fill="url(#paint3_linear_1290_3565)"/>
<path d="M541.667 324.967C541.667 324.967 462.017 339.579 388.538 340.158C162.569 341.938 22.6054 351.144 22.6054 351.144" stroke="url(#paint4_linear_1290_3565)" stroke-width="7.32367" stroke-linecap="round" stroke-dasharray="38.16 38.16"/>
<path d="M545.907 811.379C545.907 811.379 529 717.5 302.5 600.5C84.366 487.822 6.69469 501.665 6.69469 501.665" stroke="url(#paint5_linear_1290_3565)" stroke-width="7.32367" stroke-dasharray="38.16 38.16"/>
<path d="M551.055 416.5L276.052 393L18.3911 388.918" stroke="url(#paint6_linear_1290_3565)" stroke-width="8" stroke-linecap="round" stroke-dasharray="50.11 50.11"/>
<path d="M545.605 516.505C545.605 516.505 374.127 447.002 264.943 433.136C155.762 419.27 15.783 416.672 15.783 416.672" stroke="url(#paint7_linear_1290_3565)" stroke-width="8" stroke-linecap="round" stroke-dasharray="50.11 50.11"/>
<path d="M540.262 687.791C540.262 687.791 389.484 588.057 296.982 545.221C205.25 502.741 12.9323 476.032 12.9323 476.032" stroke="url(#paint8_linear_1290_3565)" stroke-width="6.55275" stroke-linecap="round" stroke-dasharray="50.88 50.88"/>
<path d="M533.945 594.058C533.945 594.058 397.804 532.11 302.6 499.545C194.984 462.734 12.6233 447.701 12.6233 447.701" stroke="url(#paint9_linear_1290_3565)" stroke-width="8" stroke-linecap="round" stroke-dasharray="50.88 50.88"/>
<defs>
<linearGradient id="paint0_linear_1290_3565" x1="546.714" y1="160.142" x2="12.6567" y2="261.71" gradientUnits="userSpaceOnUse">
<stop stop-color="#A4A694"/>
<stop offset="0.673432" stop-color="#4B4C43" stop-opacity="0.112708"/>
<stop offset="1" stop-color="#3F4039" stop-opacity="0"/>
</linearGradient>
<linearGradient id="paint1_linear_1290_3565" x1="506.725" y1="95.441" x2="16.1342" y2="212.248" gradientUnits="userSpaceOnUse">
<stop stop-color="#A8A991" stop-opacity="0.8"/>
<stop offset="0.681874" stop-color="#CDCEC0" stop-opacity="0.562941"/>
<stop offset="1" stop-color="#CCCEBF" stop-opacity="0.2"/>
</linearGradient>
<linearGradient id="paint2_linear_1290_3565" x1="491.451" y1="34.4914" x2="1.42484" y2="174.947" gradientUnits="userSpaceOnUse">
<stop stop-color="#C8CAB0" stop-opacity="0.92"/>
<stop offset="1" stop-color="#CCCEBF" stop-opacity="0.3"/>
</linearGradient>
<linearGradient id="paint3_linear_1290_3565" x1="538.405" y1="206.008" x2="142.182" y2="278.37" gradientUnits="userSpaceOnUse">
<stop stop-color="#A1A587"/>
<stop offset="0.50291" stop-color="#7A7E67" stop-opacity="0.642752"/>
<stop offset="1" stop-color="#3D3F33" stop-opacity="0.07"/>
</linearGradient>
<linearGradient id="paint4_linear_1290_3565" x1="530.443" y1="265.948" x2="24.6951" y2="362.132" gradientUnits="userSpaceOnUse">
<stop stop-color="#A1A587"/>
<stop offset="1" stop-color="#3D3F34" stop-opacity="0"/>
</linearGradient>
<linearGradient id="paint5_linear_1290_3565" x1="-11.8654" y1="480.079" x2="492.151" y2="638.736" gradientUnits="userSpaceOnUse">
<stop stop-color="#CDCEC0" stop-opacity="0.2"/>
<stop offset="1" stop-color="#CCCEBF"/>
</linearGradient>
<linearGradient id="paint6_linear_1290_3565" x1="539.278" y1="405.135" x2="18.3365" y2="391.031" gradientUnits="userSpaceOnUse">
<stop stop-color="#A1A587"/>
<stop offset="1" stop-color="#3D3F34" stop-opacity="0"/>
</linearGradient>
<linearGradient id="paint7_linear_1290_3565" x1="536.836" y1="516.313" x2="76.3997" y2="343.45" gradientUnits="userSpaceOnUse">
<stop stop-color="#A1A587"/>
<stop offset="1" stop-color="#CCCEBF"/>
</linearGradient>
<linearGradient id="paint8_linear_1290_3565" x1="523.555" y1="677.5" x2="77.9361" y2="405.664" gradientUnits="userSpaceOnUse">
<stop stop-color="#969783" stop-opacity="0.8"/>
<stop offset="0.484605" stop-color="#CDCEC0" stop-opacity="0.504788"/>
<stop offset="1" stop-color="#B3B9A5" stop-opacity="0.2"/>
</linearGradient>
<linearGradient id="paint9_linear_1290_3565" x1="267.373" y1="455.732" x2="207.122" y2="571.844" gradientUnits="userSpaceOnUse">
<stop stop-color="#C0C1B0"/>
<stop offset="1" stop-color="#CCCEBF"/>
</linearGradient>
</defs>
</svg>
