<svg width="121" height="122" viewBox="0 0 121 122" fill="none" xmlns="http://www.w3.org/2000/svg">
<g clip-path="url(#clip0_1250_2895)">
<path d="M121.005 30.9947V83.5821C121.005 85.6559 120.613 87.5927 119.831 89.3926C119.048 91.1924 117.972 92.7771 116.603 94.1466C115.233 95.516 113.629 96.592 111.79 97.3746C109.951 98.1571 108.014 98.568 105.98 98.6071H15.4188C13.4233 98.6071 11.5452 98.2158 9.78446 97.4333C8.02372 96.6507 6.47818 95.6139 5.14785 94.3226C3.81751 93.0314 2.76106 91.4859 1.97851 89.686C1.19596 87.8862 0.804688 85.9885 0.804688 83.993V15.9697H105.98V30.9947H121.005ZM113.492 38.5072H105.98V79.8259C105.98 80.8432 105.608 81.7236 104.864 82.467C104.121 83.2104 103.241 83.5821 102.223 83.5821C101.206 83.5821 100.326 83.2104 99.5822 82.467C98.8388 81.7236 98.467 80.8432 98.467 79.8259V23.4822H8.31718V83.993C8.31718 84.9712 8.49325 85.8907 8.8454 86.7515C9.19755 87.6123 9.7062 88.3557 10.3714 88.9817C11.0365 89.6078 11.7995 90.1164 12.6603 90.5077C13.5211 90.899 14.4406 91.0946 15.4188 91.0946H105.98C107.036 91.0946 108.014 90.899 108.914 90.5077C109.814 90.1164 110.597 89.5882 111.262 88.923C111.927 88.2579 112.475 87.4558 112.905 86.5167C113.336 85.5776 113.531 84.5994 113.492 83.5821V38.5072ZM90.9546 38.5072H15.8297V30.9947H90.9546V38.5072ZM90.9546 83.5821H60.9046V76.0696H90.9546V83.5821ZM90.9546 68.5572H60.9046V61.0447H90.9546V68.5572ZM90.9546 53.5322H60.9046V46.0197H90.9546V53.5322ZM53.3921 83.5821H15.8297V45.8436H53.3921V83.5821ZM23.3422 76.0696H45.8796V53.3561H23.3422V76.0696Z" fill="#2E351F"/>
</g>
<defs>
<clipPath id="clip0_1250_2895">
<rect width="120.2" height="120.2" fill="white" transform="translate(0.804688 0.944336)"/>
</clipPath>
</defs>
</svg>
