<svg width="102" height="103" viewBox="0 0 102 103" fill="none" xmlns="http://www.w3.org/2000/svg">
<g clip-path="url(#clip0_1250_2880)">
<path d="M35.4375 60.961C35.9186 67.0006 40.692 71.7043 49.2512 72.2614V76.7183H53.0496V72.2298C61.9127 71.6093 67.0912 66.8739 67.0912 59.9988C67.0912 53.7503 63.1282 50.5279 56.0441 48.8566L53.0496 48.1476V36.0115C56.8481 36.442 59.2664 38.5185 59.8489 41.3927H66.5088C66.0277 35.5747 61.039 31.0229 53.0496 30.5291V26.0723H49.2512V30.6241C41.686 31.3648 36.5264 35.9166 36.5264 42.355C36.5264 48.0526 40.3628 51.6738 46.7379 53.1615L49.2512 53.782V66.6587C45.3578 66.0699 42.7812 63.9365 42.1987 60.961H35.4375ZM49.2195 47.2486C45.4844 46.3813 43.4586 44.615 43.4586 41.9561C43.4586 38.9807 45.6427 36.7522 49.2512 36.1002V47.2423L49.2195 47.2486ZM53.6004 54.8012C58.1396 55.8521 60.235 57.5551 60.235 60.5622C60.235 63.9935 57.6268 66.3485 53.0496 66.779V54.6746L53.6004 54.8012Z" fill="#313D15"/>
<path d="M51.2632 95.7103C39.51 95.7103 28.2383 91.0413 19.9276 82.7306C11.6168 74.4199 6.94794 63.1481 6.94794 51.395C6.94794 39.6419 11.6168 28.3701 19.9276 20.0594C28.2383 11.7487 39.51 7.07977 51.2632 7.07977C63.0163 7.07977 74.2881 11.7487 82.5988 20.0594C90.9095 28.3701 95.5784 39.6419 95.5784 51.395C95.5784 63.1481 90.9095 74.4199 82.5988 82.7306C74.2881 91.0413 63.0163 95.7103 51.2632 95.7103ZM51.2632 102.041C64.6953 102.041 77.5773 96.7051 87.0753 87.2071C96.5733 77.7092 101.909 64.8272 101.909 51.395C101.909 37.9629 96.5733 25.0809 87.0753 15.5829C77.5773 6.08493 64.6953 0.749023 51.2632 0.749023C37.831 0.749023 24.949 6.08493 15.4511 15.5829C5.95309 25.0809 0.617188 37.9629 0.617188 51.395C0.617188 64.8272 5.95309 77.7092 15.4511 87.2071C24.949 96.7051 37.831 102.041 51.2632 102.041Z" fill="#313D15"/>
<path d="M51.2657 86.2148C42.0311 86.2148 33.1748 82.5463 26.6449 76.0165C20.1151 69.4866 16.4466 60.6302 16.4466 51.3956C16.4466 42.161 20.1151 33.3046 26.6449 26.7748C33.1748 20.2449 42.0311 16.5765 51.2657 16.5765C60.5004 16.5765 69.3567 20.2449 75.8866 26.7748C82.4164 33.3046 86.0849 42.161 86.0849 51.3956C86.0849 60.6302 82.4164 69.4866 75.8866 76.0165C69.3567 82.5463 60.5004 86.2148 51.2657 86.2148ZM51.2657 89.3801C56.2539 89.3801 61.1933 88.3976 65.8018 86.4887C70.4103 84.5798 74.5977 81.7819 78.1248 78.2547C81.652 74.7275 84.45 70.5402 86.3588 65.9317C88.2677 61.3232 89.2502 56.3838 89.2502 51.3956C89.2502 46.4074 88.2677 41.4681 86.3588 36.8596C84.45 32.2511 81.652 28.0637 78.1248 24.5365C74.5977 21.0093 70.4103 18.2114 65.8018 16.3025C61.1933 14.3936 56.2539 13.4111 51.2657 13.4111C41.1916 13.4111 31.5301 17.4131 24.4067 24.5365C17.2832 31.66 13.2813 41.3215 13.2812 51.3956C13.2812 61.4697 17.2832 71.1312 24.4067 78.2547C31.5301 85.3782 41.1916 89.3801 51.2657 89.3801Z" fill="#313D15"/>
</g>
<defs>
<clipPath id="clip0_1250_2880">
<rect width="101.292" height="101.292" fill="white" transform="translate(0.617188 0.75)"/>
</clipPath>
</defs>
</svg>
